<?xml version="1.0" encoding="utf-8" ?>
<svg baseProfile="full" height="200mm" version="1.1" viewBox="0,0,200,200" width="200mm" xmlns="http://www.w3.org/2000/svg" xmlns:ev="http://www.w3.org/2001/xml-events" xmlns:xlink="http://www.w3.org/1999/xlink"><defs /><rect fill="#1a1a1a" height="200" width="200" x="0" y="0" /><text alignment-baseline="middle" fill="#e1ed5e" style="dominant-baseline: central; font-size:9.0px; font-family:Arial;" text-anchor="middle" x="100.0" y="100.0">2014</text><line stroke="#e1ed5e" stroke-width="0.3" x1="100.0" x2="100.0" y1="15.0" y2="10.0" /><path d="M 100.0 14.0 a86.0,86.0 0 0,1 42.46469731375804,11.215312516191453" fill="none" id="id1" stroke="none" /><text fill="#e1ed5e" style="font-size:6.75px; font-family:Arial;" text-anchor="middle"><textPath startOffset="22.20632615414155" xlink:href="#id1">January</textPath></text><line stroke="#e1ed5e" stroke-width="0.3" x1="143.23703022742887" x2="145.7803849466894" y1="26.81831364943548" y2="22.513508569990506" /><path d="M 143.74570117128098 25.957352633546492 a86.0,86.0 0 0,1 28.547481713284135,27.462654790039103" fill="none" id="id2" stroke="none" /><text fill="#e1ed5e" style="font-size:6.75px; font-family:Arial;" text-anchor="middle"><textPath startOffset="19.985693538727396" xlink:href="#id2">February</textPath></text><line stroke="#e1ed5e" stroke-width="0.3" x1="172.23445277983987" x2="176.4835382374775" y1="55.19839476539836" y2="52.563006222186495" /><path d="M 173.08426987136738 54.67131705675599 a86.0,86.0 0 0,1 12.851231095245387,41.99856678651699" fill="none" id="id3" stroke="none" /><text fill="#e1ed5e" style="font-size:6.75px; font-family:Arial;" text-anchor="middle"><textPath startOffset="22.20632615414155" xlink:href="#id3">March</textPath></text><line stroke="#e1ed5e" stroke-width="0.3" x1="184.98032266829074" x2="189.97916517819016" y1="98.17113171792111" y2="98.06355123074" /><path d="M 185.9800911702706 98.14961562048488 a86.0,86.0 0 0,1 -9.607161424134198,41.387399972396054" fill="none" id="id4" stroke="none" /><text fill="#e1ed5e" style="font-size:6.75px; font-family:Arial;" text-anchor="middle"><textPath startOffset="21.466115282336823" xlink:href="#id4">April</textPath></text><line stroke="#e1ed5e" stroke-width="0.3" x1="174.80103733775053" x2="179.2010983576182" y1="140.37084112569926" y2="142.7455964860345" /><path d="M 175.68104954172406 140.8457921977663 a86.0,86.0 0 0,1 -30.038265399797805,32.042727171017184" fill="none" id="id5" stroke="none" /><text fill="#e1ed5e" style="font-size:6.75px; font-family:Arial;" text-anchor="middle"><textPath startOffset="22.206326154141568" xlink:href="#id5">May</textPath></text><line stroke="#e1ed5e" stroke-width="0.3" x1="143.8653032363475" x2="146.44561519142675" y1="172.8068346515853" y2="177.08958963109032" /><path d="M 144.38136562736335 173.6633856474863 a86.0,86.0 0 0,1 -40.68145358897372,12.25698825130547" fill="none" id="id6" stroke="none" /><text fill="#e1ed5e" style="font-size:6.75px; font-family:Arial;" text-anchor="middle"><textPath startOffset="21.466115282336833" xlink:href="#id6">June</textPath></text><line stroke="#e1ed5e" stroke-width="0.3" x1="102.19456741930631" x2="102.32365962044197" y1="184.97166512339345" y2="189.96999836594603" /><path d="M 102.22038585953345 185.97133177190398 a86.0,86.0 0 0,1 -42.740103519485714,-10.115201625700543" fill="none" id="id7" stroke="none" /><text fill="#e1ed5e" style="font-size:6.75px; font-family:Arial;" text-anchor="middle"><textPath startOffset="22.20632615414155" xlink:href="#id7">July</textPath></text><line stroke="#e1ed5e" stroke-width="0.3" x1="58.666819895761336" x2="56.23545636021788" y1="174.27360380694188" y2="178.64263932499728" /><path d="M 58.180547188652646 175.14741091055294 a86.0,86.0 0 0,1 -31.652253787137756,-30.449443065178592" fill="none" id="id8" stroke="none" /><text fill="#e1ed5e" style="font-size:6.75px; font-family:Arial;" text-anchor="middle"><textPath startOffset="22.20632615414155" xlink:href="#id8">August</textPath></text><line stroke="#e1ed5e" stroke-width="0.3" x1="26.63291911575756" x2="22.317208475507996" y1="142.92168965132927" y2="145.44649492493687" /><path d="M 25.769776987707644 143.4266507060508 a86.0,86.0 0 0,1 -11.730757126820373,-40.83630448921669" fill="none" id="id9" stroke="none" /><text fill="#e1ed5e" style="font-size:6.75px; font-family:Arial;" text-anchor="middle"><textPath startOffset="21.46611528233685" xlink:href="#id9">September</textPath></text><line stroke="#e1ed5e" stroke-width="0.3" x1="15.007084014347285" x2="10.007500721073583" y1="101.09737516637583" y2="101.16192664675087" /><path d="M 14.007167355692545 101.11028546245083 a86.0,86.0 0 0,1 10.666146001902534,-42.60595125391555" fill="none" id="id10" stroke="none" /><text fill="#e1ed5e" style="font-size:6.75px; font-family:Arial;" text-anchor="middle"><textPath startOffset="22.20632615414155" xlink:href="#id10">October</textPath></text><line stroke="#e1ed5e" stroke-width="0.3" x1="26.266209847984243" x2="21.928928074336255" y1="57.711370442889674" y2="55.22380399835377" /><path d="M 25.398753493254645 57.213857153982495 a86.0,86.0 0 0,1 29.58750427330803,-30.492523968695096" fill="none" id="id11" stroke="none" /><text fill="#e1ed5e" style="font-size:6.75px; font-family:Arial;" text-anchor="middle"><textPath startOffset="21.46611528233685" xlink:href="#id11">November</textPath></text><path d="M 84.07557802195018 86.31012108654704 l -9.994312011108628 -8.591892468306813 a34.17979092255782,34.17979092255782 0 0,0 0.3873842067036632,-0.4428471143935161 l 9.84493594082712 8.762655138903272" fill="#ff5007" stroke="none" /><path d="M 84.80347519578584 85.50635884689758 l -8.634647681860503 -8.23527001052563 a32.93217552402418,32.93217552402418 0 0,0 0.3947716882570726,-0.4068469261599877 l 8.491611729900317 8.38268113223574" fill="#ff3c05" stroke="none" /><path d="M 85.05521093208273 85.24692304244772 l -10.770861499804194 -10.632692631766487 a36.13491361222738,36.13491361222738 0 0,0 0.4407843443571145,-0.4388914763016417 l 10.586241355279764 10.81651995871824" fill="#ff6e0a" stroke="none" /><path d="M 89.00827224532344 82.1063720568725 l -19.282795283025425 -31.390803356747078 a57.84031391436603,57.84031391436603 0 0,0 0.8528359661793804,-0.5138241271763231 l 18.7395972506284 31.71807409338202" fill="#69ff28" stroke="none" /><line stroke="#e1ed5e" stroke-width="0.3" x1="56.76296977257108" x2="54.21961505331056" y1="26.818313649435495" y2="22.513508569990535" /><path d="M 56.25429882871898 25.957352633546506 a86.0,86.0 0 0,1 42.26535254187918,-11.944610805530505" fill="none" id="id12" stroke="none" /><text fill="#e1ed5e" style="font-size:6.75px; font-family:Arial;" text-anchor="middle"><textPath startOffset="22.20632615414155" xlink:href="#id12">December</textPath></text><path d="M 89.63071344664047 81.73862282372117 l -15.836073012003085 -27.88894884668653 a53.071399660984405,53.071399660984405 0 0,0 0.798284605339761,-0.4442445185871761 l 15.35366431759128 28.157408762833892" fill="#a3ff22" stroke="none" /><path d="M 90.26544431104013 81.39251694778311 l -8.924914417206928 -17.059863754131804 a40.25339057579231,40.25339057579231 0 0,0 0.6167193455597367,-0.3159076023050349 l 8.629934584058427 17.210963881749343" fill="#ffac0f" stroke="none" /><path d="M 91.23893434514133 80.91482961587045 l -12.828371800891636 -27.94542025092599 a51.749205454170294,51.749205454170294 0 0,0 0.812753014948671,-0.36465858662573136 l 12.345436667476191 28.162099168068252" fill="#b4ff20" stroke="none" /><path d="M 91.56875222667455 80.76684994638697 l -4.968891482633962 -11.334910093375779 a33.37618961518869,33.37618961518869 0 0,0 0.5281642815332211,-0.22613238158345722 l 4.773043443310432 11.418762002922023" fill="#ff4306" stroke="none" /><path d="M 92.23578459929587 80.48803036053334 l -5.521613309305914 -13.876167222547856 a35.93439755482677,35.93439755482677 0 0,0 0.5766903300748116,-0.2237468886471965 l 5.281939814231425 13.969156815085604" fill="#ff6b09" stroke="none" /><path d="M 92.91201910852362 80.23233633223022 l -2.7799029193277693 -7.752868804204198 a29.23619055972418,29.23619055972418 0 0,0 0.4751827605080454,-0.16578193468317376 l 2.6460381547564387 7.799571592059581" fill="#ff0000" stroke="none" /><path d="M 93.25333710446033 80.11325718540243 l -10.162674801037529 -29.95592090576191 a52.632849325090945,52.632849325090945 0 0,0 0.8604648232205112,-0.2836817236539019 l 9.645527155574609 30.126416353675047" fill="#a8ff21" stroke="none" /><path d="M 93.59665428221793 80.00007090966166 l -15.908552258494456 -49.68807419163295 a73.17266287850822,73.17266287850822 0 0,0 1.2028701687317958,-0.3737376166969164 l 15.05089671705193 49.954551943212394" fill="#3effb4" stroke="none" /><path d="M 94.28887869178378 79.79150937346287 l -6.5154254442837765 -23.054476855410044 a44.95745545329591,44.95745545329591 0 0,0 0.7465123624616548,-0.2040500283286351 l 6.117615192598399 23.163213424564976" fill="#fff016" stroke="none" /><path d="M 94.63758080256005 79.69619591428918 l -4.197331855601626 -15.892417310368772 a37.43735144945673,37.43735144945673 0 0,0 0.6244748306628783,-0.15919253884808346 l 3.923148136253748 15.96231284538572" fill="#ff820c" stroke="none" /><path d="M 95.692805502759 79.44645832069477 l -6.819411987876039 -32.541615803731645 a54.24847573916832,54.24847573916832 0 0,0 0.9155943827223032,-0.1836596197093468 l 6.2582511956866 32.654179379518204" fill="#94ff23" stroke="none" /><path d="M 96.04723909329186 79.375362276772 l -11.858282720124423 -61.87391316968403 a84.0,84.0 0 0,0 1.4224195155884267,-0.2599380745970552 l 10.791468083433102 62.06886672563182" fill="#4dd2ff" stroke="none" /><path d="M 96.40284397218896 79.31037775812273 l -5.672189764590595 -32.624512978114026 a54.1139333783327,54.1139333783327 0 0,0 0.9190885512855894,-0.1516574860167112 l 5.10977200716612 32.71731672707036" fill="#96ff23" stroke="none" /><path d="M 96.75951476605007 79.25152402106235 l -4.356859813603796 -27.8965014989339 a49.23467767330481,49.23467767330481 0 0,0 0.83846895117004,-0.12356852780666452 l 3.876021882005107 27.967364510901533" fill="#d4ff1c" stroke="none" /><path d="M 97.83486435360386 79.11191278185805 l -1.526982509416261 -14.731522198322489 a35.810449752243564,35.810449752243564 0 0,0 0.6136800501633395,-0.05827631528330531 l 1.2731773321626851 14.755624058120976" fill="#ff6909" stroke="none" /><path d="M 98.19473922651362 79.07773832637324 l -3.25443895966687 -37.71766634218599 a58.857809329683455,58.857809329683455 0 0,0 1.0101396150028121,-0.07840627543616088 l 2.6047091553017236 37.76809787981061" fill="#5dff2a" stroke="none" /><path d="M 98.55514903715128 79.0497635885617 l -1.2777989680880406 -18.527994344105487 a39.57200432419861,39.57200432419861 0 0,0 0.6799562363644479,-0.041016817057437184 l 0.9586806828839698 18.54724443054323" fill="#ffa20f" stroke="none" /></svg>