<?xml version="1.0" encoding="utf-8" ?>
<svg baseProfile="full" height="200mm" version="1.1" viewBox="0,0,200,200" width="200mm" xmlns="http://www.w3.org/2000/svg" xmlns:ev="http://www.w3.org/2001/xml-events" xmlns:xlink="http://www.w3.org/1999/xlink"><defs /><rect fill="#1a1a1a" height="200" width="200" x="0" y="0" /><text alignment-baseline="middle" fill="#e1ed5e" style="dominant-baseline: central; font-size:9.0px; font-family:Arial;" text-anchor="middle" x="100.0" y="100.0">2019</text><line stroke="#e1ed5e" stroke-width="0.3" x1="100.0" x2="100.0" y1="15.0" y2="10.0" /><path d="M 100.0 14.0 a86.0,86.0 0 0,1 42.46469731375804,11.215312516191453" fill="none" id="id49" stroke="none" /><text fill="#e1ed5e" style="font-size:6.75px; font-family:Arial;" text-anchor="middle"><textPath startOffset="22.20632615414155" xlink:href="#id49">January</textPath></text><path d="M 100.72285384407766 79.0124445844662 l 0.21958377426856163 -6.3754611925649245 a27.3792415263747,27.3792415263747 0 0,0 0.4708697180703302,0.020276640560871546 l -0.32929432472822334 6.370736825479859" fill="#ff5207" stroke="none" /><path d="M 101.80526077348638 79.07773832637324 l 2.2598528652901426 -26.190805054820192 a47.288119072926364,47.288119072926364 0 0,0 0.8103717067386083,0.07695455810565115 l -2.7103496991189955 26.14802495219936" fill="#b3ff20" stroke="none" /><path d="M 103.95276090670814 79.375362276772 l 1.9555665410273417 -10.203716441312498 a31.389421047926426,31.389421047926426 0 0,0 0.5297840574649882,0.10626969797782755 l -2.130917007959455 10.168542787257463" fill="#ff880c" stroke="none" /><path d="M 107.76421540070413 80.48803036053334 l 2.630554800550501 -6.61075237539646 a28.114904463695154,28.114904463695154 0 0,0 0.44811962042762926,0.18279924478601273 l -2.7439582905665176 6.5644922444268685" fill="#ff5c08" stroke="none" /><path d="M 109.08828744355905 81.06846463323043 l 2.093844250520167 -4.361623323140228 a25.838175457587,25.838175457587 0 0,0 0.3992966830482317,0.1959331482453122 l -2.1686122005788304 4.324935014760084" fill="#ff3c05" stroke="none" /><path d="M 110.36928655335952 81.73862282372117 l 3.564020642493521 -6.276605905498041 a28.217896150060128,28.217896150060128 0 0,0 0.4203166723187067,0.24347454617096298 l -3.671534047277556 6.214327201937029" fill="#ff5d08" stroke="none" /><line stroke="#e1ed5e" stroke-width="0.3" x1="143.23703022742887" x2="145.7803849466894" y1="26.81831364943548" y2="22.513508569990506" /><path d="M 143.74570117128098 25.957352633546492 a86.0,86.0 0 0,1 28.547481713284135,27.462654790039103" fill="none" id="id50" stroke="none" /><text fill="#e1ed5e" style="font-size:6.75px; font-family:Arial;" text-anchor="middle"><textPath startOffset="19.985693538727396" xlink:href="#id50">February</textPath></text><path d="M 110.99172775467656 82.1063720568725 l 8.133605981228225 -13.24084097717693 a36.5394792718662,36.5394792718662 0 0,0 0.5330950776757373,0.3338240887343103 l -8.360320211276226 13.098872547119676" fill="#ffca12" stroke="none" /><path d="M 111.2981086023043 82.29822771554956 l 5.159454785199844 -8.083786139292235 a30.589972472657823,30.589972472657823 0 0,0 0.4414176352174523,0.28711030877577526 l -5.297839446201576 7.99377690635693" fill="#ff7d0b" stroke="none" /><path d="M 115.19652480421416 85.50635884689758 l 11.161370294655185 -10.64512432360647 a36.42384059563147,36.42384059563147 0 0,0 0.42881731688471125,0.4574324152298413 l -11.34295493351036 10.451422491498574" fill="#ffc912" stroke="none" /><path d="M 117.45458315368197 88.32363383020206 l 5.340413687380131 -3.5725072986860402 a27.425171340246273,27.425171340246273 0 0,0 0.259106965228108,0.3946376843495061 l -5.401117287966165 3.4800515503588603" fill="#ff5207" stroke="none" /><path d="M 117.65298651832404 88.62581576622439 l 10.923630875489922 -7.038321246697348 a33.99475576821927,33.99475576821927 0 0,0 0.31270708032278954,0.49462750430287883 l -11.043165552058666 6.849246094680263" fill="#ffaa0f" stroke="none" /><line stroke="#e1ed5e" stroke-width="0.3" x1="172.23445277983987" x2="176.4835382374775" y1="55.19839476539836" y2="52.563006222186495" /><path d="M 173.08426987136738 54.67131705675599 a86.0,86.0 0 0,1 12.851231095245387,41.99856678651699" fill="none" id="id51" stroke="none" /><text fill="#e1ed5e" style="font-size:6.75px; font-family:Arial;" text-anchor="middle"><textPath startOffset="22.20632615414155" xlink:href="#id51">March</textPath></text><path d="M 118.21658344932153 89.55222093294921 l 15.593135288967554 -8.943149680893312 a38.97570010750367,38.97570010750367 0 0,0 0.3287736880629511,0.5848517055100301 l -15.74476661832294 8.673414465448488" fill="#ffe915" stroke="none" /><path d="M 119.196687751892 91.48605970444005 l 11.597683939818095 -5.143699262423737 a33.687155507448196,33.687155507448196 0 0,0 0.23053129549498136,0.532098014203081 l -11.684505945155758 4.9433021036340525" fill="#ffa60f" stroke="none" /><path d="M 119.47837535516314 92.15188598940014 l 5.515129359031892 -2.22212392993113 a26.945963892156435,26.945963892156435 0 0,0 0.16963953481894672,0.4317141126456331 l -5.55256244373254 2.1268608123897126" fill="#ff4c07" stroke="none" /><path d="M 119.7369772167798 92.82701384747503 l 5.994891048401109 -2.1787161227261596 a27.378520410379405,27.378520410379405 0 0,0 0.15716172797414218,0.4443173686087943 l -6.031505857185061 2.0752011276907507" fill="#ff5207" stroke="none" /><path d="M 120.08093135843002 93.85539295169968 l 51.64612729609618 -15.803308727898507 a75.00987901702655,75.00987901702655 0 0,0 0.36717015339595194,1.2379152271904519 l -51.91050334660384 14.911964113961526" fill="#42ffd6" stroke="none" /><path d="M 120.53481517161879 95.60439243477599 l 6.237867076029701 -1.3352550525097557 a27.379176413414836,27.379176413414836 0 0,0 0.09468071754331882,0.46169680391365336 l -6.259927089488017 1.2276825924326904" fill="#ff5207" stroke="none" /><path d="M 120.67395015179393 96.31383870115 l 11.485405802747609 -2.0478456250897783 a32.66654268230258,32.66654268230258 0 0,0 0.09393674776925873,0.5544200027885671 l -11.518954412037091 1.8498398339853732" fill="#ff990e" stroke="none" /><path d="M 120.96714384426684 98.82574320788733 l 5.054462458971908 -0.28307321764996446 a26.062382956247685,26.062382956247685 0 0,0 0.021230158724677012,0.4481350962113842 l -5.058586225930081 0.1960270148155805" fill="#ff3f05" stroke="none" /><path d="M 120.98425023603335 99.18683210126433 l 29.480899001972208 -1.1424244576109188 a50.5030259398224,50.5030259398224 0 0,0 0.026185351302250925,0.8689643294013084 l -29.496196047730102 0.6347899807846115" fill="#90ff24" stroke="none" /><line stroke="#e1ed5e" stroke-width="0.3" x1="184.98032266829074" x2="189.97916517819016" y1="98.17113171792111" y2="98.06355123074" /><path d="M 185.9800911702706 98.14961562048488 a86.0,86.0 0 0,1 -9.607161424134198,41.387399972396054" fill="none" id="id52" stroke="none" /><text fill="#e1ed5e" style="font-size:6.75px; font-family:Arial;" text-anchor="middle"><textPath startOffset="21.466115282336823" xlink:href="#id52">April</textPath></text><path d="M 120.99824983174949 100.27111621757518 l 6.5768965033971405 0.08491675819041022 a27.577444676484866,27.577444676484866 0 0,0 -0.01021407790482734,0.474608064788872 l -6.574460362807306 -0.19811463876939708" fill="#ff5407" stroke="none" /><path d="M 120.92983693683757 101.71520430193887 l 8.303355835327926 0.6804616630441648 a29.331191163510002,29.331191163510002 0 0,0 -0.04556866444684734,0.5028464149953956 l -8.290412574604003 -0.823289466588131" fill="#ff6c0a" stroke="none" /><path d="M 120.81339534386255 102.79330883721812 l 3.688765248811615 0.49505909044133733 a24.721837256499647,24.721837256499647 0 0,0 -0.06023410780199739,0.42127720967627685 l -3.6796970899930166 -0.5584817720980235" fill="#ff2c04" stroke="none" /><path d="M 120.64145759157962 103.86396538481128 l 8.903045033682663 1.6666002232128796 a30.057691051023696,30.057691051023696 0 0,0 -0.09957693242935711,0.507740633161111 l -8.873038168277642 -1.8196045834419354" fill="#ff760a" stroke="none" /><path d="M 120.49622156327973 104.57218783832717 l 5.906357056124084 1.3175586445264373 a27.051529926902212,27.051529926902212 0 0,0 -0.10529413080655717,0.4536043597112168 l -5.882802359386973 -1.419031661586219" fill="#ff4d07" stroke="none" /><path d="M 120.32669344350535 105.2749913415812 l 5.8716865017920625 1.5237645780174196 a27.066181736854553,27.066181736854553 0 0,0 -0.1209109797532087,0.44995473565020533 l -5.844587445697077 -1.6246102468431731" fill="#ff4d07" stroke="none" /><path d="M 120.02730092923936 106.31721596034902 l 25.517266661560406 8.048917065182067 a47.75660598430528,47.75660598430528 0 0,0 -0.2540372835052748,0.7818463652729125 l -25.374937127038883 -8.486962330432775" fill="#aeff20" stroke="none" /><path d="M 119.12269723197855 108.67885076344098 l 1.7014669840853327 0.772212091979598 a22.868502451947,22.868502451947 0 0,0 -0.1657698356212804,0.3570534783513466 l -1.687922531624221 -0.8013856376097752" fill="#ff1202" stroke="none" /><path d="M 118.97047184881838 109.00673069616215 l 7.62218606488848 3.6188334032801923 a29.43763447943063,29.43763447943063 0 0,0 -0.2212683207402155,0.4558782782365829 l -7.55876448753355 -3.7495006374820505" fill="#ff6e0a" stroke="none" /><path d="M 118.64920377521936 109.65438752849418 l 5.2616278147946165 2.7238585929459473 a26.924874082694572,26.924874082694572 0 0,0 -0.21661380679199194,0.40975168940598466 l -5.2139614997777315 -2.814025297438066" fill="#ff4b07" stroke="none" /><line stroke="#e1ed5e" stroke-width="0.3" x1="174.80103733775053" x2="179.2010983576182" y1="140.37084112569926" y2="142.7455964860345" /><path d="M 175.68104954172406 140.8457921977663 a86.0,86.0 0 0,1 -30.038265399797805,32.042727171017184" fill="none" id="id53" stroke="none" /><text fill="#e1ed5e" style="font-size:6.75px; font-family:Arial;" text-anchor="middle"><textPath startOffset="22.206326154141568" xlink:href="#id53">May</textPath></text><path d="M 118.48025628344425 109.97397251340804 l 3.9007729998275584 2.1052848014980667 a25.432635118256684,25.432635118256684 0 0,0 -0.21124054925885535,0.3834629558700663 l -3.8639560411171936 -2.172118275765938" fill="#ff3605" stroke="none" /><path d="M 113.75828350139079 115.86535959552629 l 4.642010056083163 5.352932201052821 a28.08534688705115,28.08534688705115 0 0,0 -0.3679642157589108,0.31358708748292285 l -4.549180363747205 -5.43204367875869" fill="#ff5b08" stroke="none" /><path d="M 112.92097659922987 116.55440617244103 l 1.7796142808943332 2.28004883454067 a23.892343284718002,23.892343284718002 0 0,0 -0.3263822332074757,0.250255978771093 l -1.7401033191933637 -2.3103441551391346" fill="#ff2103" stroke="none" /><path d="M 112.63410532772338 116.77436683061366 l 7.04182372377173 9.349465691081914 a32.7046909427542,32.7046909427542 0 0,0 -0.45259403456096303,0.33481824677298744 l -6.879844718792203 -9.46929388659467" fill="#ff990e" stroke="none" /><path d="M 111.45004920935366 117.60387380957326 l 2.8051844599860636 4.312829782934888 a26.144857684243316,26.144857684243316 0 0,0 -0.37937209139438505,0.24213321809715674 l -2.7305305665447483 -4.360477429855854" fill="#ff4006" stroke="none" /><line stroke="#e1ed5e" stroke-width="0.3" x1="143.8653032363475" x2="146.44561519142675" y1="172.8068346515853" y2="177.08958963109032" /><path d="M 144.38136562736335 173.6633856474863 a86.0,86.0 0 0,1 -40.68145358897372,12.25698825130547" fill="none" id="id54" stroke="none" /><text fill="#e1ed5e" style="font-size:6.75px; font-family:Arial;" text-anchor="middle"><textPath startOffset="21.466115282336833" xlink:href="#id54">June</textPath></text><path d="M 110.5260780823613 118.17145234162733 l 6.5836429037681325 11.365520217885202 a34.1346642023119,34.1346642023119 0 0,0 -0.5109654182251214,0.2901394998464809 l -6.387028718621812 -11.477162883526312" fill="#ffac0f" stroke="none" /><path d="M 110.21172684928248 118.3499491758327 l 3.3530157918320644 6.025197331850484 a27.89534029530185,27.89534029530185 0 0,0 -0.4215878411852419,0.22988330525925474 l -3.248805138778174 -6.082021288869509" fill="#ff5908" stroke="none" /><path d="M 108.92500713936063 119.00905698771935 l 4.317626355646815 9.19595964066074 a31.15911271025365,31.15911271025365 0 0,0 -0.4874650356575479,0.2237712892201968 l -4.158693324221847 -9.268918000215011" fill="#ff850c" stroke="none" /><path d="M 108.59647513512805 119.15986991738527 l 2.4753090311808714 5.516982053371347 a27.04683766749754,27.04683766749754 0 0,0 -0.4264118460760161,0.1869264222306966 l -2.3799765104471016 -5.558773028896498" fill="#ff4d07" stroke="none" /><path d="M 107.93186726928326 119.44442032107085 l 2.7345333991516223 6.703518224645658 a28.239808664545784,28.239808664545784 0 0,0 -0.4516741212872009,0.1797304543516848 l -2.618738201822555 -6.7495955234034115" fill="#ff5d08" stroke="none" /><path d="M 107.59598834532513 119.57807347666477 l 1.2415809823676385 3.20007912005068 a24.432496134063566,24.432496134063566 0 0,0 -0.3933978344803025,0.1487493992858573 l -1.1863129271270612 -3.2209767694431686" fill="#ff2803" stroke="none" /><path d="M 106.91757812671514 119.82793768551818 l 2.406183493751157 6.896872792772584 a28.3045583935846,28.3045583935846 0 0,0 -0.4614050968556986,0.15653366042850364 l -2.2871086639582314 -6.937269440099211" fill="#ff5e08" stroke="none" /><line stroke="#e1ed5e" stroke-width="0.3" x1="102.19456741930631" x2="102.32365962044197" y1="184.97166512339345" y2="189.96999836594603" /><path d="M 102.22038585953345 185.97133177190398 a86.0,86.0 0 0,1 -42.740103519485714,-10.115201625700543" fill="none" id="id55" stroke="none" /><text fill="#e1ed5e" style="font-size:6.75px; font-family:Arial;" text-anchor="middle"><textPath startOffset="22.20632615414155" xlink:href="#id55">July</textPath></text><path d="M 99.81925306533755 120.99922214144158 l -0.06346023714944464 7.372825544944714 a28.37309865103461,28.37309865103461 0 0,0 -0.48834197976837496,-0.008407250048414631 l 0.19036190681048754 -7.37064081761714" fill="#ff5f08" stroke="none" /><path d="M 98.01472825383883 120.90594882070398 l -0.6425463885772087 6.766349211637207 a27.796789500587543,27.796789500587543 0 0,0 -0.47594378206796045,-0.04933351902805604 l 0.7589227672507625 -6.75428632415339" fill="#ff5708" stroke="none" /><path d="M 97.2962882734958 120.8252237178851 l -0.3934623164023521 3.0306266320155193 a24.056061252185636,24.056061252185636 0 0,0 -0.41018036871742836,-0.0568472615322011 l 0.4455712763066115 -3.0234048049907134" fill="#ff2303" stroke="none" /><path d="M 94.46302465271185 120.25689768951611 l -1.6981068997410245 6.212485260705134 a27.44038354117413,27.44038354117413 0 0,0 -0.45455496043950583,-0.12846177224698127 l 1.804793028285144 -6.182334695119631" fill="#ff5207" stroke="none" /><path d="M 93.76903079525671 120.05430185196036 l -2.85549004466709 9.190361468554368 a30.6237501691327,30.6237501691327 0 0,0 -0.5020525484047663,-0.16074137170227745 l 3.0132639381627966 -9.139847250192384" fill="#ff7e0b" stroke="none" /><path d="M 93.42475214034765 119.94407469862007 l -0.842420490053482 2.5552340443882664 a23.690519151328004,23.690519151328004 0 0,0 -0.3861896070442801,-0.1310164825270499 l 0.8862798300349879 -2.5403545749630934" fill="#ff1e03" stroke="none" /><path d="M 92.7421414339146 119.70592522655815 l -1.7041019240383017 4.626833767531633 a25.930674809788414,25.930674809788414 0 0,0 -0.417520635665269,-0.1578705785879664 l 1.7834927804638536 -4.596814938837034" fill="#ff3d05" stroke="none" /><path d="M 92.06813273071674 119.44442032107085 l -2.5383444970237905 6.222574791555701 a27.720389112400817,27.720389112400817 0 0,0 -0.4402638534676896,-0.18403032645595066 l 2.6450798099889425 -6.177959422079777" fill="#ff5608" stroke="none" /><path d="M 91.7346041902142 119.30500536409082 l -2.607001799360733 6.089022822266713 a27.623643809260503,27.623643809260503 0 0,0 -0.43550558837451303,-0.190912851613903 l 2.711428062392989 -6.043245417358358" fill="#ff5507" stroke="none" /><path d="M 90.7491055286396 118.85261126421891 l -2.923893366502384 5.95866974673117 a27.63738635076232,27.63738635076232 0 0,0 -0.4252815905290788,-0.21324501819227634 l 3.0260288647142235 -5.907456887629591" fill="#ff5507" stroke="none" /><path d="M 90.42595943632237 118.69057910512821 l -2.8103656693140744 5.48643610890178 a27.164343953116216,27.164343953116216 0 0,0 -0.4143326902420239,-0.2167592809623454 l 2.904389262082594 -5.437247408994718" fill="#ff4f07" stroke="none" /><path d="M 90.10565033884886 118.52300852407294 l -3.1213241803755594 5.843366808280448 a27.624771716452635,27.624771716452635 0 0,0 -0.4174986842923069,-0.22765357088259752 l 3.221445676536507 -5.7887725856380845" fill="#ff5507" stroke="none" /><line stroke="#e1ed5e" stroke-width="0.3" x1="58.666819895761336" x2="56.23545636021788" y1="174.27360380694188" y2="178.64263932499728" /><path d="M 58.180547188652646 175.14741091055294 a86.0,86.0 0 0,1 -31.652253787137756,-30.449443065178592" fill="none" id="id56" stroke="none" /><text fill="#e1ed5e" style="font-size:6.75px; font-family:Arial;" text-anchor="middle"><textPath startOffset="22.20632615414155" xlink:href="#id56">August</textPath></text><path d="M 87.95078237400918 117.19931262002967 l -3.5165077263629354 5.0195388276500195 a27.12875163731215,27.12875163731215 0 0,0 -0.3801547731636062,-0.27123033691698656 l 3.6023898273754287 -4.9582642288888135" fill="#ff4e07" stroke="none" /><path d="M 87.65650970185807 116.9893568818739 l -3.5731875617086173 4.918070758388218 a27.07906977552178,27.07906977552178 0 0,0 -0.37474212685004876,-0.2772252666247077 l 3.65731465897723 -4.855835543023744" fill="#ff4d07" stroke="none" /><path d="M 87.07902340077011 116.55440617244103 l -2.2660945785665576 2.903329310339691 a24.68300227033412,24.68300227033412 0 0,0 -0.3326828023742149,-0.26430333862535754 l 2.3157348736581307 -2.863892057709203" fill="#ff2c04" stroke="none" /><path d="M 86.79598089348748 116.32954008644616 l -9.931572913227885 12.282473745287732 a36.795420280399135,36.795420280399135 0 0,0 -0.4890809968100934,-0.4024803639099603 l 10.141524038582668 -12.10969826252059" fill="#ffce13" stroke="none" /><path d="M 86.51685102203217 116.09983520530335 l -3.917359517027967 4.677604821183444 a27.101286130711145,27.101286130711145 0 0,0 -0.3550714020820018,-0.30259955196384586 l 3.9972963956870253 -4.609480878996646" fill="#ff4e07" stroke="none" /><path d="M 85.97065885151581 115.62618273729859 l -4.138715396324592 4.609790466719584 a27.195089448816134,27.195089448816134 0 0,0 -0.3456372202942007,-0.31573140575935527 l 4.217452166085647 -4.537866294373653" fill="#ff4f07" stroke="none" /><path d="M 85.70375840098266 115.38237550388516 l -2.1219367719370084 2.283147496869426 a24.116950137002448,24.116950137002448 0 0,0 -0.30165040879876287,-0.2852292895884232 l 2.1609230151265884 -2.246283570535072" fill="#ff2403" stroke="none" /><path d="M 85.18274418774928 114.88116024355367 l -2.126695925125098 2.135868021184682 a24.014094849513377,24.014094849513377 0 0,0 -0.29040973894474076,-0.2941835323089179 l 2.1631462891253723 -2.0989439948950994" fill="#ff2203" stroke="none" /><path d="M 84.9287848128048 114.62390073753433 l -7.566895127411839 7.342309286952504 a31.54359556956345,31.54359556956345 0 0,0 -0.3747581162170392,-0.3929323865903608 l 7.692159795007836 -7.210969783779643" fill="#ff8a0c" stroke="none" /><path d="M 84.43433777217949 114.09645910891817 l -4.537838747511384 4.109523733132898 a27.122104688062613,27.122104688062613 0 0,0 -0.31040751622319834,-0.34874613508425273 l 4.6079051133829205 -4.030803428307781" fill="#ff4e07" stroke="none" /><path d="M 83.72743513129214 113.27417163493432 l -4.693248082540478 3.8284671823782177 a27.05671020693717,27.05671020693717 0 0,0 -0.2912875017386148,-0.3634259459198087 l 4.758453496333954 -3.7471134028801494" fill="#ff4d07" stroke="none" /><path d="M 83.50135304334701 112.99209946851258 l -2.3934216790312846 1.884734706171146 a24.046422860717627,24.046422860717627 0 0,0 -0.25328118128963484,-0.32740006946368194 l 2.4255096775389875 -1.8432566425942114" fill="#ff2303" stroke="none" /><path d="M 83.06392112726016 112.41649034213515 l -4.909307157061422 3.599201760942606 a27.087327006030385,27.087327006030385 0 0,0 -0.27244718258112155,-0.3784053077011976 l 4.970534132018151 -3.51416284779027" fill="#ff4e07" stroke="none" /><path d="M 82.6465618267979 111.8261652097733 l -5.053924103390983 3.444190183398597 a27.115929599190594,27.115929599190594 0 0,0 -0.2595341734923127,-0.38796837531192974 l 5.112461382294026 -3.3566848938808462" fill="#ff4e07" stroke="none" /><path d="M 82.44556493220864 111.52570212397912 l -2.579894435290493 1.6938793334925986 a24.086273237041105,24.086273237041105 0 0,0 -0.2245702456754415,-0.3485380083393757 l 2.6086695443429804 -1.6492197252317746" fill="#ff2303" stroke="none" /><path d="M 82.24976979558568 111.22182372390057 l -2.6949000985582034 1.7037353043467336 a24.188291161184384,24.188291161184384 0 0,0 -0.21946308439107926,-0.35384437060576174 l 2.7238278226172383 -1.6570946023757076" fill="#ff2503" stroke="none" /><path d="M 82.05923443525364 110.91462005526583 l -7.326731579228727 4.45736226503832 a29.576075675730422,29.576075675730422 0 0,0 -0.26085975414007684,-0.437215952563794 l 7.402372209067035 -4.330584218588415" fill="#ff700a" stroke="none" /><line stroke="#e1ed5e" stroke-width="0.3" x1="26.63291911575756" x2="22.317208475507996" y1="142.92168965132927" y2="145.44649492493687" /><path d="M 25.769776987707644 143.4266507060508 a86.0,86.0 0 0,1 -11.730757126820373,-40.83630448921669" fill="none" id="id57" stroke="none" /><text fill="#e1ed5e" style="font-size:6.75px; font-family:Arial;" text-anchor="middle"><textPath startOffset="21.46611528233685" xlink:href="#id57">September</textPath></text><path d="M 81.87401531095188 110.60418214915194 l -8.65089397483017 5.061002590249764 a31.022560240889938,31.022560240889938 0 0,0 -0.26568312064603256,-0.4632409153432488 l 8.73672909162858 -4.911341829048209" fill="#ff830c" stroke="none" /><path d="M 81.35079622478065 109.6543875284942 l -6.175131379407347 3.1967644353471725 a27.953527910927072,27.953527910927072 0 0,0 -0.2175334626366868,-0.429214159187137 l 6.2292435118303 -3.0899960644573508" fill="#ff5908" stroke="none" /><path d="M 80.73074385275274 108.34839909993369 l -10.44812553271576 4.5266470655007165 a32.38656492551609,32.38656492551609 0 0,0 -0.21721980439574282,-0.513443451898628 l 10.52449631830381 -4.346129087935929" fill="#ff950d" stroke="none" /><path d="M 80.45479744820244 107.68017299344265 l -5.725394446287348 2.2497602512253603 a27.151549622133565,27.151549622133565 0 0,0 -0.1671833659067889,-0.4364630131615414 l 5.7632720917876465 -2.150873671230661" fill="#ff4e07" stroke="none" /><path d="M 80.20201598880116 107.00284435728193 l -17.282222022173976 6.112981549071675 a39.33149588667018,39.33149588667018 0 0,0 -0.22027354995195753,-0.6402180439235671 l 17.38488640306916 -5.81459080205881" fill="#ffed16" stroke="none" /><path d="M 79.97269907076064 106.31721596034903 l -4.301126780272867 1.3567053713241604 a25.510026723264538,25.510026723264538 0 0,0 -0.12848942190355017,-0.4199108651290008 l 4.323842974682547 -1.2824675336431117" fill="#ff3805" stroke="none" /><path d="M 79.67330655649465 105.27499134158121 l -5.966020164235843 1.5482451583928574 a27.16364013149337,27.16364013149337 0 0,0 -0.11355525076694317,-0.45359677974964263 l 5.991786729297845 -1.4453205392458228" fill="#ff4f07" stroke="none" /><path d="M 79.4281124754447 104.21870165774334 l -6.0917473551883425 1.2492419392829741 a27.21852002186273,27.21852002186273 0 0,0 -0.09017115534400737,-0.45978077844199206 l 6.112348443508016 -1.1441974337730272" fill="#ff4f07" stroke="none" /><path d="M 79.29508885075956 103.50808413554451 l -12.89973459575247 2.185633831602027 a34.08358314402811,34.08358314402811 0 0,0 -0.09302910432841777,-0.5792923214562815 l 12.93544545444218 -1.963262280452532" fill="#ffab0f" stroke="none" /><path d="M 79.1416061653843 102.43462659150553 l -6.064076630017572 0.7078091598724504 a27.105245218787253,27.105245218787253 0 0,0 -0.05010301126871136,-0.4638916584689078 l 6.075361942787335 -0.6033211795187605" fill="#ff4e07" stroke="none" /><path d="M 79.04373962182676 101.35467743843564 l -7.206188846020533 0.4658303185132283 a28.221229505434437,28.221229505434437 0 0,0 -0.027164477654537663,-0.48503999658572183 l 7.213139674562602 -0.3417186055920689" fill="#ff5d08" stroke="none" /><path d="M 79.0095281055655 100.63252640178507 l -42.407163228363316 1.2778964904481802 a63.42641291126731,63.42641291126731 0 0,0 -0.023491745892317666,-1.091569122572975 l 42.42287703694064 -0.5477375520850766" fill="#34ff58" stroke="none" /><line stroke="#e1ed5e" stroke-width="0.3" x1="15.007084014347285" x2="10.007500721073583" y1="101.09737516637583" y2="101.16192664675087" /><path d="M 14.007167355692545 101.11028546245083 a86.0,86.0 0 0,1 10.666146001902534,-42.60595125391555" fill="none" id="id58" stroke="none" /><text fill="#e1ed5e" style="font-size:6.75px; font-family:Arial;" text-anchor="middle"><textPath startOffset="22.20632615414155" xlink:href="#id58">October</textPath></text><path d="M 79.00486145842228 99.54816195383935 l -6.693710294730506 -0.14405587156031077 a27.695260234218843,27.695260234218843 0 0,0 0.014359735979076088,-0.4765297284503195 l 6.690238864295784 0.2592557474356247" fill="#ff5607" stroke="none" /><path d="M 79.05617556472873 98.46500227214037 l -9.20208432307915 -0.674431671787278 a30.22676617071056,30.22676617071056 0 0,0 0.04249813684083776,-0.5185849132915119 l 9.189111702418815 0.8327305022865683" fill="#ff780b" stroke="none" /><path d="M 79.26566170972629 96.67025291283419 l -6.043851078566857 -0.9705877873885249 a27.121288795092216,27.121288795092216 0 0,0 0.07799067350038345,-0.46030536979816955 l 6.0262485435462505 1.0744789455025223" fill="#ff4e07" stroke="none" /><path d="M 79.32604984820605 96.31383870115002 l -4.830332960753605 -0.8612474292410136 a25.906512370932834,25.906512370932834 0 0,0 0.08205490077965771,-0.4383405610418809 l 4.814792336064086 0.9442660677454672" fill="#ff3d05" stroke="none" /><path d="M 79.3925641242962 95.95851677861259 l -15.019676089375633 -2.9456245440730826 a36.30579543128706,36.30579543128706 0 0,0 0.12555011555172568,-0.6122269516462033 l 14.966746677908912 3.2037271518826884" fill="#ffc812" stroke="none" /><path d="M 79.62865764111835 94.90015583598534 l -5.9615536002326115 -1.4924394181295324 a27.145526563707396,27.145526563707396 0 0,0 0.11737682787126869,-0.4523007988094993 l 5.934980440491036 1.5948366424878955" fill="#ff4e07" stroke="none" /><path d="M 79.91906864156998 93.8553929516997 l -5.5545488229992985 -1.6996482503089474 a26.80877067905604,26.80877067905604 0 0,0 0.1388241332506243,-0.4401104395198566 l 5.524469205980471 1.7950088562552184" fill="#ff4a06" stroke="none" /><path d="M 80.2630227832202 92.82701384747504 l -5.846516736935289 -2.1247926232031427 a27.220651223696997,27.220651223696997 0 0,0 0.16383644822251697,-0.4390002268790532 l 5.809075700211144 2.2251159871115376" fill="#ff4f07" stroke="none" /><path d="M 80.52162464483688 92.15188598940014 l -5.711394971788649 -2.301202132152292 a27.157561512221776,27.157561512221776 0 0,0 0.1784359297971727,-0.43209675741484393 l 5.670937355105276 2.3991734600204477" fill="#ff4e07" stroke="none" /><path d="M 81.26839172434947 90.50648371742162 l -6.391375654565991 -3.239264239983689 a28.165369186177077,28.165369186177077 0 0,0 0.22289612715740126,-0.43056437125576463 l 6.334670094248475 3.348801333499789" fill="#ff5c08" stroke="none" /><path d="M 81.6062741919709 89.86733742301443 l -5.373920074997803 -2.9603637351097536 a27.135370438418317,27.135370438418317 0 0,0 0.22889635827928906,-0.4071810804368469 l 5.322166075426083 3.0524283254813853" fill="#ff4e07" stroke="none" /><line stroke="#e1ed5e" stroke-width="0.3" x1="26.266209847984243" x2="21.928928074336255" y1="57.711370442889674" y2="55.22380399835377" /><path d="M 25.398753493254645 57.213857153982495 a86.0,86.0 0 0,1 29.58750427330803,-30.492523968695096" fill="none" id="id59" stroke="none" /><text fill="#e1ed5e" style="font-size:6.75px; font-family:Arial;" text-anchor="middle"><textPath startOffset="21.46611528233685" xlink:href="#id59">November</textPath></text><path d="M 81.96595687620814 89.24020034530311 l -54.1021293713756 -32.27939896409068 a84.0,84.0 0 0,0 0.7515368068551322,-1.2353289071717022 l 53.53847676623425 33.20589564446946" fill="#4dd2ff" stroke="none" /><path d="M 83.6137871275137 86.86637796730984 l -0.4846622344282564 -0.38845892275619925 a21.621126248157246,21.621126248157246 0 0,0 0.2352599976528867,-0.2884009396671932 l 0.47790374469897723 0.3967440320314746" fill="#ff0000" stroke="none" /><path d="M 84.5562425177563 85.77008943001954 l -4.485355992400074 -4.1328164288880185 a27.09906468349418,27.09906468349418 0 0,0 0.3190368730379098,-0.3403262919541599 l 4.413551797391709 4.2094121377202285" fill="#ff4e07" stroke="none" /><path d="M 85.05521093208273 85.24692304244772 l -2.1538651008650262 -2.1262352680148076 a24.026551054860022,24.026551054860022 0 0,0 0.2930829631289245,-0.29182437174378995 l 2.116946337568789 2.162995490408707" fill="#ff2303" stroke="none" /><path d="M 85.31137513191541 84.99185889309783 l -9.172821236092807 -9.372354233022334 a34.114178331049445,34.114178331049445 0 0,0 0.4232054802682005,-0.4071233367127419 l 9.010132512212179 9.528860656497388" fill="#ffab0f" stroke="none" /><path d="M 85.83668400450813 84.49514656593479 l -4.118730456749859 -4.508853158868554 a27.106856587770654,27.106856587770654 0 0,0 0.34721174204390787,-0.3117301302426485 l 4.040507727109979 4.579082297880481" fill="#ff4e07" stroke="none" /><path d="M 87.22198572758235 83.33499621200491 l -8.408935655679858 -10.9668796393039 a34.81964716931451,34.81964716931451 0 0,0 0.4787765259483502,-0.36060455326596874 l 8.218912975973117 11.110000782075723" fill="#ffb510" stroke="none" /><path d="M 88.09926311788651 82.69761687909137 l -6.983346637764136 -10.153030034157506 a33.32278982770038,33.32278982770038 0 0,0 0.47539768579316916,-0.32099063957709495 l 6.807544257564427 10.271732586033266" fill="#ffa10e" stroke="none" /><line stroke="#e1ed5e" stroke-width="0.3" x1="56.762969772571076" x2="54.21961505331055" y1="26.818313649435495" y2="22.513508569990535" /><path d="M 56.25429882871897 25.957352633546506 a86.0,86.0 0 0,1 42.265352541879196,-11.944610805530505" fill="none" id="id60" stroke="none" /><text fill="#e1ed5e" style="font-size:6.75px; font-family:Arial;" text-anchor="middle"><textPath startOffset="22.20632615414155" xlink:href="#id60">December</textPath></text><path d="M 89.3179101791058 81.91981866633112 l -12.886509223228137 -21.811314772717143 a46.333684534131486,46.333684534131486 0 0,0 0.6901584723427329,-0.39978433382789014 l 12.509154018420084 22.02990326393508" fill="#beff1f" stroke="none" /><path d="M 91.56875222667455 80.76684994638697 l -5.268372110687329 -12.018077758750751 a34.122116357967855,34.122116357967855 0 0,0 0.5399682611581776,-0.23118622963430485 l 5.060720091738843 12.106983516347842" fill="#ffac0f" stroke="none" /><path d="M 93.59665428221793 80.00007090966166 l -3.510835071582095 -10.96558823686872 a32.51390847107986,32.51390847107986 0 0,0 0.5344893711695864,-0.16606844938333074 l 3.3215603277017802 11.024396821134577" fill="#ff970d" stroke="none" /><path d="M 93.94186890950719 79.89281104454417 l -3.4952104788468152 -11.600748892270207 a33.11585206054238,33.11585206054238 0 0,0 0.5472154577824858,-0.1597471977625759 l 3.2950048033409085 11.659194418951483" fill="#ff9f0e" stroke="none" /><path d="M 94.63758080256005 79.69619591428918 l -1.551516025363942 -5.874527196581219 a27.075958505481545,27.075958505481545 0 0,0 0.45164131403828445,-0.11513342716169937 l 1.4501658226406582 5.900363619911782" fill="#ff4d07" stroke="none" /><path d="M 95.33964822691252 79.52364482259891 l -3.49364320716404 -15.350145795027018 a36.74269731613833,36.74269731613833 0 0,0 0.617902423400912,-0.13504953696928806 l 3.2288980596096075 15.408008830092173" fill="#ffcd13" stroke="none" /><path d="M 96.04723909329186 79.375362276772 l -2.940071406382982 -15.340646466666694 a36.619841673009496,36.619841673009496 0 0,0 0.6201044934934173,-0.11332013257775111 l 2.675571791786671 15.38898208059518" fill="#ffcb13" stroke="none" /><path d="M 97.83486435360386 79.11191278185805 l -0.6425932879518279 -6.199401255469665 a27.232615988494686,27.232615988494686 0 0,0 0.4666825818028535,-0.04431713442066639 l 0.5357855790587381 6.209543934405512" fill="#ff5007" stroke="none" /></svg>