<?xml version="1.0" encoding="utf-8" ?>
<svg baseProfile="full" height="200mm" version="1.1" viewBox="0,0,200,200" width="200mm" xmlns="http://www.w3.org/2000/svg" xmlns:ev="http://www.w3.org/2001/xml-events" xmlns:xlink="http://www.w3.org/1999/xlink"><defs /><rect fill="#1a1a1a" height="200" width="200" x="0" y="0" /><text alignment-baseline="middle" fill="#e1ed5e" style="dominant-baseline: central; font-size:9.0px; font-family:Arial;" text-anchor="middle" x="100.0" y="100.0">2018</text><line stroke="#e1ed5e" stroke-width="0.3" x1="100.0" x2="100.0" y1="15.0" y2="10.0" /><path d="M 100.0 14.0 a86.0,86.0 0 0,1 42.46469731375804,11.215312516191453" fill="none" id="id37" stroke="none" /><text fill="#e1ed5e" style="font-size:6.75px; font-family:Arial;" text-anchor="middle"><textPath startOffset="22.20632615414155" xlink:href="#id37">January</textPath></text><path d="M 100.72285384407766 79.0124445844662 l 0.24559365216927206 -7.130639792312097 a28.134867909757723,28.134867909757723 0 0,0 0.4838650226249622,0.02083624571134328 l -0.36829950718356586 7.1253558200765585" fill="#ff5808" stroke="none" /><path d="M 102.16513564639614 79.11191278185805 l 3.134703447882215 -30.241966193370857 a51.403994555767675,51.403994555767675 0 0,0 0.8793345912874551,0.09880348704980897 l -3.6548047426793953 30.183526752850447" fill="#88ff25" stroke="none" /><line stroke="#e1ed5e" stroke-width="0.3" x1="143.23703022742887" x2="145.7803849466894" y1="26.81831364943548" y2="22.513508569990506" /><path d="M 143.74570117128098 25.957352633546492 a86.0,86.0 0 0,1 28.547481713284135,27.462654790039103" fill="none" id="id38" stroke="none" /><text fill="#e1ed5e" style="font-size:6.75px; font-family:Arial;" text-anchor="middle"><textPath startOffset="19.985693538727396" xlink:href="#id38">February</textPath></text><path d="M 117.2510076193507 88.02491185347247 l 7.098043534436328 -4.927230853310823 a29.640591756272915,29.640591756272915 0 0,0 0.2873380621275331,0.42163315051755906 l -7.181806062232595 4.804319679522857" fill="#ff6d0a" stroke="none" /><path d="M 117.65298651832404 88.62581576622439 l 6.019120610380647 -3.8782438697678887 a28.160348345974608,28.160348345974608 0 0,0 0.2590381990734829,0.40973622277618593 l -6.084986405700086 3.7740599992774966" fill="#ff5808" stroke="none" /><line stroke="#e1ed5e" stroke-width="0.3" x1="172.23445277983987" x2="176.4835382374775" y1="55.19839476539836" y2="52.563006222186495" /><path d="M 173.08426987136738 54.67131705675599 a86.0,86.0 0 0,1 12.851231095245387,41.99856678651699" fill="none" id="id39" stroke="none" /><text fill="#e1ed5e" style="font-size:6.75px; font-family:Arial;" text-anchor="middle"><textPath startOffset="22.20632615414155" xlink:href="#id39">March</textPath></text><path d="M 117.84615892207809 88.93136811851018 l 7.296551001009306 -4.525502512183371 a29.58602524443691,29.58602524443691 0 0,0 0.2647022254730788,0.43510085991385494 l -7.37336902476861 4.399233879062435" fill="#ff6c09" stroke="none" /><path d="M 118.21658344932153 89.55222093294921 l 22.66158424494539 -12.99712573212331 a47.12417803084681,47.12417803084681 0 0,0 0.39750895469235253,0.7071240751565877 l -22.881950840930177 12.605118147031927" fill="#b7ff1f" stroke="none" /><path d="M 118.73160827565052 90.50648371742162 l 6.2978281632637785 -3.191852687339474 a28.060493123831694,28.060493123831694 0 0,0 0.21464939294920496,0.43272007810209734 l -6.351837569166392 3.082973020738427" fill="#ff5708" stroke="none" /><path d="M 119.7369772167798 92.82701384747503 l 11.069153972919452 -4.022849461487716 a32.7774992025468,32.7774992025468 0 0,0 0.18815364512504482,0.5319356918108428 l -11.136760698854307 3.8317161432502593" fill="#ff970d" stroke="none" /><path d="M 120.45610955862082 95.25157060432595 l 6.8943478671288805 -1.6003690233698902 a28.077655934272762,28.077655934272762 0 0,0 0.10523186294537214,0.4717338076893541 l -6.92087411707629 1.4814570461305723" fill="#ff5708" stroke="none" /><path d="M 120.73433829027371 96.67025291283417 l 16.93874464227177 -2.7202090967768076 a38.15577475913804,38.15577475913804 0 0,0 0.09855837675908359,0.6493765602992239 l -16.983058912470153 2.4282334240855006" fill="#ffdc14" stroke="none" /><path d="M 120.78858239683441 97.02765380044208 l 10.340789118850022 -1.4785233861123723 a31.445953810151,31.445953810151 0 0,0 0.07200225107783526,0.5365004031647088 l -10.364707368985693 1.3003046408829992" fill="#ff850c" stroke="none" /><path d="M 120.87857604477298 97.74499172005257 l 11.6832222220922 -1.261856306234038 a32.75116857288549,32.75116857288549 0 0,0 0.05571266088996812,0.5610188920805153 l -11.703212008664396 1.0605618834490878" fill="#ff960d" stroke="none" /><path d="M 120.94382443527127 98.46500227214037 l 12.309777749787969 -0.9021982081056757 a33.342795058489955,33.342795058489955 0 0,0 0.03702544166785146,0.5727671947532827 l -12.323483782460235 0.6901719490993576" fill="#ff9e0e" stroke="none" /><line stroke="#e1ed5e" stroke-width="0.3" x1="184.98032266829074" x2="189.97916517819016" y1="98.17113171792111" y2="98.06355123074" /><path d="M 185.9800911702706 98.14961562048488 a86.0,86.0 0 0,1 -9.607161424134198,41.387399972396054" fill="none" id="id40" stroke="none" /><text fill="#e1ed5e" style="font-size:6.75px; font-family:Arial;" text-anchor="middle"><textPath startOffset="21.466115282336823" xlink:href="#id40">April</textPath></text><path d="M 120.99513854157772 99.54816195383933 l 17.616363313054993 -0.3791231557755219 a38.62044241058649,38.62044241058649 0 0,0 0.008582920468613505,0.6647566490043332 l -17.620279240641324 0.075830248710726" fill="#ffe215" stroke="none" /><path d="M 120.76222939487914 103.15116336523771 l 7.088421677743745 1.0758370059128657 a28.169598813378542,28.169598813378542 0 0,0 -0.07688723734900901,0.47877690036687853 l -7.0688526860334475 -1.197693135972949" fill="#ff5908" stroke="none" /><path d="M 120.70491114924044 103.5080841355445 l 15.630776042196596 2.6483609161438255 a36.8535477172608,36.8535477172608 0 0,0 -0.11135660548012707,0.6245469810253202 l -15.58287299437728 -2.917026647902364" fill="#ffcb13" stroke="none" /><path d="M 120.41448212921028 104.9243191809786 l 15.494023378257051 3.737421112579238 a36.93841513509825,36.93841513509825 0 0,0 -0.1544178531777956,0.6168225640314684 l -15.427394210784193 -4.003571516008102" fill="#ffcd13" stroke="none" /><path d="M 120.13307415673323 105.97154293290107 l 8.95899350028475 2.657270017785142 a30.344765833639933,30.344765833639933 0 0,0 -0.152841134274749,0.49949367013872453 l -8.911925593503868 -2.8110906604759234" fill="#ff760a" stroke="none" /><path d="M 119.9155931802556 106.66101706037122 l 14.559679126396075 4.869665200361878 a36.352455680679526,36.352455680679526 0 0,0 -0.2035896240846547,0.5917267457806042 l -14.47369867136819 -5.119564649231783" fill="#ffc512" stroke="none" /><path d="M 119.79798401119884 107.00284435728193 l 7.48992882241836 2.649300340925954 a28.944672810212115,28.944672810212115 0 0,0 -0.17018880310489817,0.4682864929622049 l -7.443215758308235 -2.77783463089429" fill="#ff6309" stroke="none" /><path d="M 119.54520255179757 107.68017299344265 l 2.714663974814014 1.0667113267506545 a23.916723084348455,23.916723084348455 0 0,0 -0.15386127448692408,0.3818710652052577 l -2.6959000860696998 -1.1132817597987257" fill="#ff1d02" stroke="none" /><path d="M 119.41010516605496 108.01547362559984 l 7.761243832385173 3.2050339093024465 a29.396972560721835,29.396972560721835 0 0,0 -0.19716832100448664,0.4660476682741473 l -7.704924530188375 -3.338156103242757" fill="#ff6909" stroke="none" /><path d="M 119.12269723197855 108.67885076344098 l 2.6121617494940907 1.1855316077439406 a23.86860143597537,23.86860143597537 0 0,0 -0.17301938090898583,0.37266835395123865 l -2.5913677517452736 -1.23032002897401" fill="#ff1c02" stroke="none" /><path d="M 118.97047184881838 109.00673069616215 l 9.686269080314156 4.598811128800992 a31.722540393704932,31.722540393704932 0 0,0 -0.23844284252640488,0.4912628800414525 l -9.605672981173038 -4.76486296480772" fill="#ff890c" stroke="none" /><line stroke="#e1ed5e" stroke-width="0.3" x1="174.80103733775053" x2="179.2010983576182" y1="140.37084112569926" y2="142.7455964860345" /><path d="M 175.68104954172406 140.8457921977663 a86.0,86.0 0 0,1 -30.038265399797805,32.042727171017184" fill="none" id="id41" stroke="none" /><text fill="#e1ed5e" style="font-size:6.75px; font-family:Arial;" text-anchor="middle"><textPath startOffset="22.206326154141568" xlink:href="#id41">May</textPath></text><path d="M 118.48025628344425 109.97397251340804 l 13.475766300630768 7.273001013520129 a36.31315843096651,36.31315843096651 0 0,0 -0.301612927508831,0.5475150728254885 l -13.34857696367043 -7.503886604743423" fill="#ffc512" stroke="none" /><path d="M 117.94076556474637 110.91462005526583 l 7.213310491762279 4.388360300128641 a29.443314181902323,29.443314181902323 0 0,0 -0.2671424989056256,0.4307187682592983 l -7.13670335318869 -4.511875399753213" fill="#ff6a09" stroke="none" /><path d="M 117.14729908036423 112.12312394758627 l 5.924322773690568 4.188490499544797 a28.25541542515973,28.25541542515973 0 0,0 -0.284195938695992,0.3947233023695049 l -5.851347042618973 -4.289847407365433" fill="#ff5a08" stroke="none" /><path d="M 116.71984013943494 112.70617746262583 l 6.177735957158871 4.694746405126699 a28.75919231394761,28.75919231394761 0 0,0 -0.3029208229599874,0.3915659978136489 l -6.096008316980815 -4.8003903970536" fill="#ff6108" stroke="none" /><path d="M 116.27256486870786 113.27417163493432 l 11.87652601562063 9.68814971887277 a36.32684296177814,36.32684296177814 0 0,0 -0.3994292071958882,0.4811382111625927 l -11.708000808531198 -9.891149187149132" fill="#ffc512" stroke="none" /><path d="M 115.56566222782051 114.09645910891815 l 10.41682064432216 9.433603537610763 a35.05357705499915,35.05357705499915 0 0,0 -0.4088809339152715,0.44375949879982124 l -10.252893302411163 -9.611514291211918" fill="#ffb410" stroke="none" /><path d="M 115.32070863581623 114.36230785411682 l 6.117247180948305 5.7345772523287115 a29.384872648749408,29.384872648749408 0 0,0 -0.3491111054488777,0.36604159833534183 l -6.017629524120463 -5.8390259672465605" fill="#ff6909" stroke="none" /><path d="M 115.07121518719521 114.62390073753431 l 6.109385481463968 5.92805860300966 a29.512723991874726,29.512723991874726 0 0,0 -0.35690633037547637,0.3615442283540323 l -6.006438526032956 -6.032343325344358" fill="#ff6b09" stroke="none" /><path d="M 113.20401910651253 116.32954008644616 l 2.5563283294104364 3.161436346955657 a25.065648079162617,25.065648079162617 0 0,0 -0.33784018471384286,0.26840067507077287 l -2.5015306519792424 -3.2049709360315557" fill="#ff2d04" stroke="none" /><path d="M 112.63410532772338 116.77436683061366 l 12.068454793859326 16.02334969826894 a41.05979403345013,41.05979403345013 0 0,0 -0.568218726554227,0.4203546297136176 l -11.790851096886534 -16.22871427672233" fill="#feff18" stroke="none" /><path d="M 112.34349029814194 116.9893568818739 l 1.2932030189180987 1.7799412547376117 a23.200128386811958,23.200128386811958 0 0,0 -0.3251030368874334,0.23195238479818986 l -1.2623726541817808 -1.8019379013800207" fill="#ff1202" stroke="none" /><path d="M 111.1453310114006 117.79835938074945 l 4.273917768887393 6.825165115025989 a29.05290332380683,29.05290332380683 0 0,0 -0.42613802505182224,0.26176878004687615 l -4.155800543903261 -6.897722361901243" fill="#ff6509" stroke="none" /><line stroke="#e1ed5e" stroke-width="0.3" x1="143.8653032363475" x2="146.44561519142675" y1="172.8068346515853" y2="177.08958963109032" /><path d="M 144.38136562736335 173.6633856474863 a86.0,86.0 0 0,1 -40.68145358897372,12.25698825130547" fill="none" id="id42" stroke="none" /><text fill="#e1ed5e" style="font-size:6.75px; font-family:Arial;" text-anchor="middle"><textPath startOffset="21.466115282336833" xlink:href="#id42">June</textPath></text><path d="M 108.59647513512805 119.15986991738527 l 3.433971312534994 7.6536536910745365 a29.388717053173995,29.388717053173995 0 0,0 -0.46333317212566727,0.203111646553109 l -3.301717465751573 -7.7116298909221" fill="#ff6909" stroke="none" /><path d="M 108.2653958097858 119.30500536409082 l 6.444595505310537 15.05226775130563 a37.37386868409736,37.37386868409736 0 0,0 -0.5935834226257398,0.24811791879860023 l -6.184540623187336 -15.160970713124202" fill="#ffd213" stroke="none" /><path d="M 107.2578585660854 119.70592522655815 l 5.27689743252601 14.3273866921962 a36.26825648006741,36.26825648006741 0 0,0 -0.5876846785824194,0.21072281692030592 l -5.029493193313855 -14.416097050156466" fill="#ffc412" stroke="none" /><path d="M 105.88484417918355 120.15858648285463 l 2.0021730143448573 6.858461606524326 a28.1447317925545,28.1447317925545 0 0,0 -0.4662226177469095,0.13175916874713234 l -1.8838192284933422 -6.891909568609978" fill="#ff5808" stroke="none" /><path d="M 104.83641907484287 120.43548508189849 l 4.230199536313101 17.874005163745853 a39.367761124062916,39.367761124062916 0 0,0 -0.6607782171308185,0.15039097090979892 l -3.921901169789421 -17.944172868233338" fill="#ffeb16" stroke="none" /><path d="M 104.48393922423573 120.51570834832081 l 1.5533776574370608 7.107287003919737 a28.275060872783886,28.275060872783886 0 0,0 -0.4763789507330972,0.09982984087190046 l -1.4308072452745855 -7.132972825518179" fill="#ff5a08" stroke="none" /><path d="M 103.7750983002368 120.6578951692458 l 2.6220833778907275 14.348427309055959 a35.58604427128458,35.58604427128458 0 0,0 -0.6035241080218651,0.10493040219487361 l -2.3747102983968125 -14.391436289771837" fill="#ffbb11" stroke="none" /><path d="M 103.41894727170886 120.7198165907248 l 1.1976836371240647 7.258311790962302 a28.356462203359513,28.356462203359513 0 0,0 -0.48228149209431553,0.07532245044529583 l -1.072566281421232 -7.277852548754703" fill="#ff5b08" stroke="none" /><path d="M 101.98527174616119 120.90594882070398 l 1.0545288781129476 11.104740093346237 a32.15469783075927,32.15469783075927 0 0,0 -0.551461768335794,0.04758244180211828 l -0.8632227920356119 -11.121246787427019" fill="#ff8f0d" stroke="none" /><path d="M 101.26447882468166 120.96189622390904 l 2.064599738409709 34.22589972698786 a55.28811432846182,55.28811432846182 0 0,0 -0.9504604260711609,0.049127947482027236 l -1.4751512439250685 -34.25636748123209" fill="#5fff29" stroke="none" /><line stroke="#e1ed5e" stroke-width="0.3" x1="102.19456741930631" x2="102.32365962044197" y1="184.97166512339345" y2="189.96999836594603" /><path d="M 102.22038585953345 185.97133177190398 a86.0,86.0 0 0,1 -42.740103519485714,-10.115201625700543" fill="none" id="id43" stroke="none" /><text fill="#e1ed5e" style="font-size:6.75px; font-family:Arial;" text-anchor="middle"><textPath startOffset="22.20632615414155" xlink:href="#id43">July</textPath></text><path d="M 99.45781275523022 120.99299961872073 l -0.25089859830649125 9.714566746811286 a30.717806191979946,30.717806191979946 0 0,0 -0.5284627723030947,-0.018201326397856713 l 0.41808172228422896 -9.708808621987336" fill="#ff7b0b" stroke="none" /><path d="M 98.73552117531835 120.96189622390904 l -1.9552244480625673 32.41273098033571 a53.47164966930254,53.47164966930254 0 0,0 -0.9182794339682623,-0.0633299261295613 l 2.5128666428097595 -32.37427270968986" fill="#72ff27" stroke="none" /><path d="M 97.65516085044442 120.86867818915974 l -1.2203452203472769 10.860869364081246 a31.92921432676947,31.92921432676947 0 0,0 -0.5456437821615361,-0.06606986318022819 l 1.4071164255602024 -10.83825397217567" fill="#ff8c0c" stroke="none" /><path d="M 96.22490169976321 120.6578951692458 l -1.699508847420171 9.299963290229943 a30.453975223263704,30.453975223263704 0 0,0 -0.5148641652042766,-0.09867494264843801 l 1.8593406271961426 -9.269331149233038" fill="#ff780b" stroke="none" /><path d="M 93.42475214034765 119.94407469862007 l -1.0059424948249471 3.051229807231287 a24.212775068290856,24.212775068290856 0 0,0 -0.3947031312123281,-0.133904732158995 l 1.058315358974501 -3.033462088174169" fill="#ff2103" stroke="none" /><path d="M 92.7421414339146 119.70592522655815 l -1.597928014806915 4.338559327175109 a25.62346958202635,25.62346958202635 0 0,0 -0.41257419586315114,-0.1560002583048345 l 1.6723724314303492 -4.310410818763641" fill="#ff3505" stroke="none" /><path d="M 91.7346041902142 119.30500536409082 l -4.273879582134309 9.982252533012003 a31.858702146914663,31.858702146914663 0 0,0 -0.5022741720514482,-0.22018223655006924 l 4.4450744288435 -9.907205743167482" fill="#ff8b0c" stroke="none" /><path d="M 91.07499286063937 119.00905698771935 l -2.9923854754410275 6.373375969753798 a28.04090136882101,28.04090136882101 0 0,0 -0.43515116828349715,-0.20889900486902926 l 3.1016493117247665 -6.320922688385206" fill="#ff5708" stroke="none" /><path d="M 90.7491055286396 118.85261126421891 l -2.8977504210274403 5.90539243502184 a27.57804053759004,27.57804053759004 0 0,0 -0.4243683825470783,-0.21278711675221454 l 2.998972711257279 -5.854637477360323" fill="#ff5007" stroke="none" /><path d="M 90.10565033884886 118.52300852407294 l -3.784979221002724 7.085781761821795 a29.033328754606572,29.033328754606572 0 0,0 -0.4387864877252561,-0.2392613786436506 l 3.9063885205966207 -7.0195797314183785" fill="#ff6409" stroke="none" /><line stroke="#e1ed5e" stroke-width="0.3" x1="58.666819895761336" x2="56.23545636021788" y1="174.27360380694188" y2="178.64263932499728" /><path d="M 58.180547188652646 175.14741091055294 a86.0,86.0 0 0,1 -31.652253787137756,-30.449443065178592" fill="none" id="id44" stroke="none" /><text fill="#e1ed5e" style="font-size:6.75px; font-family:Arial;" text-anchor="middle"><textPath startOffset="22.20632615414155" xlink:href="#id44">August</textPath></text><path d="M 89.4739219176387 118.17145234162733 l -7.113223909544988 12.279750183899905 a35.19120216776268,35.19120216776268 0 0,0 -0.5215539415115902,-0.3081432617765476 l 7.323545722084961 -12.155488349829609" fill="#ffb610" stroke="none" /><path d="M 88.8546689885994 117.79835938074946 l -12.004632260067753 19.170606864871765 a43.61909289222112,43.61909289222112 0 0,0 -0.632930065831689,-0.4039659140633889 l 12.332844127946366 -18.96112652198457" fill="#e0ff1b" stroke="none" /><path d="M 88.54995079064634 117.60387380957326 l -2.779475597538131 4.273303702125438 a26.097706261438464,26.097706261438464 0 0,0 -0.3744713905439967,-0.24817921835175005 l 2.8526216868220895 -4.22482646268237" fill="#ff3c05" stroke="none" /><path d="M 87.95078237400918 117.19931262002967 l -2.8246759343208283 4.032003234787898 a25.92299138931517,25.92299138931517 0 0,0 -0.3632584736325777,-0.2591752758261721 l 2.8936617358022905 -3.9827836971175072" fill="#ff3905" stroke="none" /><path d="M 87.36589467227662 116.77436683061367 l -5.57144588218628 7.397237444239782 a30.260676596480064,30.260676596480064 0 0,0 -0.4133770843752202,-0.3169599209957597 l 5.6979516950549876 -7.300238181416656" fill="#ff750a" stroke="none" /><path d="M 86.24171649860922 115.8653595955263 l -6.123377287337979 7.061170282824514 a30.346436495591817,30.346436495591817 0 0,0 -0.391696841626894,-0.3456269209248764 l 6.24401648187146 -6.954720220127349" fill="#ff760a" stroke="none" /><path d="M 85.70375840098266 115.38237550388516 l -5.894319622092188 6.34213105164456 a29.65826946240501,29.65826946240501 0 0,0 -0.3709602191311902,-0.3507660413579694 l 6.002615675614193 -6.239730373540662" fill="#ff6d0a" stroke="none" /><path d="M 85.44109423537348 115.13401014063109 l -7.03967489735583 7.317755400421901 a31.154140375278732,31.154140375278732 0 0,0 -0.383270173792593,-0.37511053273452594 l 7.1645950235242175 -7.195494764764805" fill="#ff810b" stroke="none" /><path d="M 84.9287848128048 114.62390073753433 l -16.586532330999788 16.094243189794568 a44.111419658245794,44.111419658245794 0 0,0 -0.5240719149574187,-0.5494873076209478 l 16.861110797336163 -15.806348765591121" fill="#daff1c" stroke="none" /><path d="M 83.72743513129214 113.27417163493432 l -7.392714757250905 6.030528397190079 a30.540414258898366,30.540414258898366 0 0,0 -0.32879241058863046,-0.41021908635356535 l 7.495425079894397 -5.902381477258254" fill="#ff790b" stroke="none" /><path d="M 82.6465618267979 111.8261652097733 l -4.504076738036004 3.0694756330054576 a26.45054014972198,26.45054014972198 0 0,0 -0.2531655443001387,-0.37844813877658257 l 4.556245387746873 -2.9914905800230516" fill="#ff4106" stroke="none" /><path d="M 82.05923443525364 110.91462005526583 l -5.994722500032061 3.6470081607427915 a28.016934257702232,28.016934257702232 0 0,0 -0.24710819184913407,-0.4141675431757887 l 6.056611567579428 -3.543278523680892" fill="#ff5608" stroke="none" /><line stroke="#e1ed5e" stroke-width="0.3" x1="26.63291911575756" x2="22.317208475507996" y1="142.92168965132927" y2="145.44649492493687" /><path d="M 25.769776987707644 143.4266507060508 a86.0,86.0 0 0,1 -11.730757126820373,-40.83630448921669" fill="none" id="id45" stroke="none" /><text fill="#e1ed5e" style="font-size:6.75px; font-family:Arial;" text-anchor="middle"><textPath startOffset="21.46611528233685" xlink:href="#id45">September</textPath></text><path d="M 81.87401531095188 110.60418214915194 l -10.382025385003033 6.073760413480349 a33.02817594879657,33.02817594879657 0 0,0 -0.2828595959580537,-0.49318954785917085 l 10.485036977113463 -5.894151019762871" fill="#ff9a0e" stroke="none" /><path d="M 81.35079622478065 109.6543875284942 l -6.242409426346791 3.231593178983761 a28.02928658688758,28.02928658688758 0 0,0 -0.21812301423672,-0.43037740042477735 l 6.297111110369777 -3.1236615668562986" fill="#ff5708" stroke="none" /><path d="M 80.45479744820244 107.68017299344265 l -6.727498877239202 2.6435313245518843 a28.228243148036857,28.228243148036857 0 0,0 -0.17381301505078556,-0.45377093507050636 l 6.772006171883497 -2.5273368226482202" fill="#ff5908" stroke="none" /><path d="M 80.0844068197444 106.66101706037122 l -6.693115089140473 2.238595325395202 a28.05755613703222,28.05755613703222 0 0,0 -0.14924983038348041,-0.4593437458974386 l 6.730657170540203 -2.1230526795199602" fill="#ff5708" stroke="none" /><path d="M 79.86692584326677 105.97154293290107 l -16.358102862734963 4.851872733651312 a38.062479253946854,38.062479253946854 0 0,0 -0.1809007470435145,-0.6297392324069161 l 16.43919624666458 -4.5695760257398" fill="#ffdb14" stroke="none" /><path d="M 79.76711848015287 105.62410040840567 l -14.62678256646773 4.065782410925406 a36.18134891436577,36.18134891436577 0 0,0 -0.16163056867648437,-0.6014874740925934 l 14.694601211485988 -3.8134040036572743" fill="#ffc312" stroke="none" /><path d="M 79.58551787078972 104.9243191809786 l -6.902104649380738 1.6649046543989876 a28.100067330613324,28.100067330613324 0 0,0 -0.10937540956750613,-0.4711864017963969 l 6.929740624878799 -1.5458495952540166" fill="#ff5808" stroke="none" /><path d="M 79.4281124754447 104.21870165774334 l -9.321177737376576 1.911505102575217 a30.5151566549866,30.5151566549866 0 0,0 -0.10109245208311694,-0.5154682352251162 l 9.35270012243536 -1.7507731402821458" fill="#ff790b" stroke="none" /><path d="M 79.18660465613746 102.79330883721812 l -11.18022682950709 1.5004676502324916 a32.28046431352116,32.28046431352116 0 0,0 -0.06917010356759196,-0.5513537825056635 l 11.20439844232153 -1.3077961134394196" fill="#ff900d" stroke="none" /><path d="M 79.04373962182676 101.35467743843564 l -13.913691392299079 0.8994240133671588 a34.94273185986014,34.94273185986014 0 0,0 -0.03363429146887058,-0.6005628684157306 l 13.927112034655481 -0.6597894286159907" fill="#ffb310" stroke="none" /><line stroke="#e1ed5e" stroke-width="0.3" x1="15.007084014347285" x2="10.007500721073583" y1="101.09737516637583" y2="101.16192664675087" /><path d="M 14.007167355692545 101.11028546245083 a86.0,86.0 0 0,1 10.666146001902534,-42.60595125391555" fill="none" id="id46" stroke="none" /><text fill="#e1ed5e" style="font-size:6.75px; font-family:Arial;" text-anchor="middle"><textPath startOffset="22.20632615414155" xlink:href="#id46">October</textPath></text><path d="M 79.00175016825051 100.2711162175752 l -14.40513962152905 0.18599011818244846 a35.406340265307065,35.406340265307065 0 0,0 -0.0026229399771198476,-0.6094788770192414 l 14.406206858795674 0.06199823704046833" fill="#ffb911" stroke="none" /><path d="M 79.00019446554 99.90962569577889 l -12.678972210599905 -0.05456494775113882 a33.67908962231468,33.67908962231468 0 0,0 0.007484765311864887,-0.5797033219046948 l 12.676154438170325 0.2728045277163055" fill="#ffa30f" stroke="none" /><path d="M 79.08570108090925 98.10471618934814 l -18.355782672024354 -1.6634273931303287 a39.43099965261803,39.43099965261803 0 0,0 0.06707564975307422,-0.6754426392300863 l 18.324429896589052 1.9791455630648453" fill="#ffec16" stroke="none" /><path d="M 79.16333360222342 97.38593545837743 l -17.93033307758627 -2.2494504170111345 a39.07088463390146,39.07088463390146 0 0,0 0.0894611644546563,-0.6665895868397447 l 17.888955914073776 2.557758345915538" fill="#ffe715" stroke="none" /><path d="M 79.26566170972629 96.67025291283419 l -15.004843439430369 -2.409642065079027 a36.19709516728822,36.19709516728822 0 0,0 0.10408929502513652,-0.614340911395523 l 14.961142282885008 2.667568764790378" fill="#ffc312" stroke="none" /><path d="M 79.3925641242962 95.95851677861259 l -11.125812482571844 -2.181968913737117 a32.33775514543627,32.33775514543627 0 0,0 0.11182812129476614,-0.5453136343821987 l 11.086605065362084 2.3731582042827184" fill="#ff910d" stroke="none" /><path d="M 79.46518482838121 95.60439243477599 l -5.81232170368824 -1.244164363726955 a26.94399096156223,26.94399096156223 0 0,0 0.10098301548768161,-0.4526870576517971 l 5.79004430119852 1.3440295909287114" fill="#ff4806" stroke="none" /><path d="M 79.71946130924805 94.55025226153421 l -14.720750358780974 -3.9557320049328295 a36.24297565504846,36.24297565504846 0 0,0 0.16708569130714324,-0.6010961310055155 l 14.65047789690747 4.2085394393572875" fill="#ffc412" stroke="none" /><path d="M 80.02781315780177 93.51064311812611 l -16.66937625333349 -5.416208668625135 a38.52721943199458,38.52721943199458 0 0,0 0.21036358302482175,-0.6289603376619769 l 16.573675376536894 5.702342109209434" fill="#ffe015" stroke="none" /><path d="M 80.14247586403 93.16781622104843 l -11.69031331882283 -4.022171569870854 a33.36289972578132,33.36289972578132 0 0,0 0.19151403700924702,-0.5414359721827258 l 11.619346201003772 4.222805168480191" fill="#ff9e0e" stroke="none" /><path d="M 80.38941819471856 92.48833698450439 l -21.456558044099456 -8.218748178918897 a43.97676445299233,43.97676445299233 0 0,0 0.2768577102866262,-0.7045726743654233 l 21.31190678393114 8.586869858180084" fill="#dcff1b" stroke="none" /><path d="M 80.95270993114464 91.15688171328213 l -6.418750057100766 -2.98004418490122 a28.07679416399083,28.07679416399083 0 0,0 0.2072893751580242,-0.4366042894643261 l 6.36650248810099 3.090090890006078" fill="#ff5708" stroke="none" /><path d="M 81.10775173730289 90.83032412892265 l -7.660771437461861 -3.7182864647526004 a29.51546083609066,29.51546083609066 0 0,0 0.22577920220874553,-0.4551570944191612 l 7.595632222299702 3.849603147670723" fill="#ff6b09" stroke="none" /><path d="M 81.6062741919709 89.86733742301443 l -6.1787948283389875 -3.4037499406810423 a28.054290835328157,28.054290835328157 0 0,0 0.2366477738303893,-0.42096998377606426 l 6.119289413216168 3.509603434391891" fill="#ff5708" stroke="none" /><line stroke="#e1ed5e" stroke-width="0.3" x1="26.266209847984243" x2="21.928928074336255" y1="57.711370442889674" y2="55.22380399835377" /><path d="M 25.398753493254645 57.213857153982495 a86.0,86.0 0 0,1 29.58750427330803,-30.492523968695096" fill="none" id="id47" stroke="none" /><text fill="#e1ed5e" style="font-size:6.75px; font-family:Arial;" text-anchor="middle"><textPath startOffset="21.46611528233685" xlink:href="#id47">November</textPath></text><path d="M 82.15384107792192 88.93136811851018 l -53.53847676623425 -33.20589564446946 a84.0,84.0 0 0,0 0.7726896150161493,-1.222209409143138 l 52.95895955497213 34.12255270132681" fill="#4dd2ff" stroke="none" /><path d="M 83.84228863543731 86.58626213691792 l -14.393927784011089 -11.94948775594026 a39.707629852033435,39.707629852033435 0 0,0 0.4411127908600587,-0.5221384102418469 l 14.186104379663906 12.195485115811222" fill="#ffef16" stroke="none" /><path d="M 85.31137513191541 84.99185889309783 l -0.6497292548119533 -0.6638625756375358 a21.92890345240536,21.92890345240536 0 0,0 0.272040323740804,-0.26170257590138946 l 0.6382056874587217 0.6749482383012342" fill="#ff0000" stroke="none" /><path d="M 85.57189188830299 84.74124197986013 l -10.302916171358405 -10.896071996652996 a35.995814969193376,35.995814969193376 0 0,0 0.4538765723915005,-0.42182880878209333 l 10.113831715172047 11.07180539150974" fill="#ffc111" stroke="none" /><path d="M 87.51073957382395 83.11751280151077 l -9.010070265710135 -12.179455846683275 a36.1499343534664,36.1499343534664 0 0,0 0.5034389340559321,-0.3657697958453222 l 8.799086015300423 12.332744877345267" fill="#ffc312" stroke="none" /><line stroke="#e1ed5e" stroke-width="0.3" x1="56.76296977257108" x2="54.21961505331056" y1="26.818313649435495" y2="22.513508569990535" /><path d="M 56.25429882871898 25.957352633546506 a86.0,86.0 0 0,1 42.26535254187918,-11.944610805530505" fill="none" id="id48" stroke="none" /><text fill="#e1ed5e" style="font-size:6.75px; font-family:Arial;" text-anchor="middle"><textPath startOffset="22.20632615414155" xlink:href="#id48">December</textPath></text><path d="M 89.63071344664047 81.73862282372117 l -14.538129348362528 -25.60313692767633 a50.442789023580346,50.442789023580346 0 0,0 0.7587458063128601,-0.42224121973645506 l 14.095259452977622 25.849593544972972" fill="#92ff23" stroke="none" /><path d="M 91.56875222667455 80.76684994638697 l -3.0893522317076285 -7.047352496137293 a28.694756293500753,28.694756293500753 0 0,0 0.45408255155138444,-0.19441445097295712 l 2.9675859223659358 7.099486475073036" fill="#ff6008" stroke="none" /><path d="M 91.90106846888425 80.62456947434976 l -1.9959020709964839 -4.774884410865762 a26.175243589835837,26.175243589835837 0 0,0 0.4172036308081619,-0.17018783636596155 l 1.9134145705999415 4.8085331334153" fill="#ff3d05" stroke="none" /><path d="M 92.91201910852362 80.23233633223022 l -4.079398872680826 -11.377031924395741 a33.08628770843841,33.08628770843841 0 0,0 0.5377593054109407,-0.18761366247712608 l 3.8829575632066 11.445566440045077" fill="#ff9b0e" stroke="none" /><path d="M 94.28887869178378 79.79150937346287 l -5.213729505495895 -18.448496915927308 a40.17107231777758,40.17107231777758 0 0,0 0.6670351290169301,-0.18232589815830505 l 4.895396487255242 18.53550935491191" fill="#fff517" stroke="none" /><path d="M 98.55514903715128 79.0497635885617 l -1.4521318685763944 -21.05580902771945 a42.105823385395965,42.105823385395965 0 0,0 0.7234942401098557,-0.043643148340490885 l 1.0894755796269158 21.07768544544025" fill="#f2ff19" stroke="none" /><path d="M 99.63851952072746 79.00311137660856 l -0.3811296071677915 -22.138224251787268 a43.14150475464307,43.14150475464307 0 0,0 0.7426100864403218,-0.006391879464363223 l 5.423104585215908e-15 22.141504754643073" fill="#e5ff1a" stroke="none" /></svg>