<?xml version="1.0" encoding="utf-8" ?>
<svg baseProfile="full" height="200mm" version="1.1" viewBox="0,0,200,200" width="200mm" xmlns="http://www.w3.org/2000/svg" xmlns:ev="http://www.w3.org/2001/xml-events" xmlns:xlink="http://www.w3.org/1999/xlink"><defs /><rect fill="#1a1a1a" height="200" width="200" x="0" y="0" /><text alignment-baseline="middle" fill="#e1ed5e" style="dominant-baseline: central; font-size:9.0px; font-family:Arial;" text-anchor="middle" x="100.0" y="100.0">2022</text><line stroke="#e1ed5e" stroke-width="0.3" x1="100.0" x2="100.0" y1="15.0" y2="10.0" /><path d="M 100.0 14.0 a86.0,86.0 0 0,1 42.46469731375804,11.215312516191453" fill="none" id="id85" stroke="none" /><text fill="#e1ed5e" style="font-size:6.75px; font-family:Arial;" text-anchor="middle"><textPath startOffset="22.20632615414155" xlink:href="#id85">January</textPath></text><path d="M 100.0 79.0 l 0.0 -11.712576067017316 a32.71257606701732,32.71257606701732 0 0,0 0.5630932226164029,0.004846721141934303 l -0.20161274334387452 11.71084072248394" fill="#ff920d" stroke="none" /><path d="M 100.72285384407766 79.0124445844662 l 0.287763234467471 -8.355004098574648 a29.359958203622213,29.359958203622213 0 0,0 0.5049341936144864,0.021743528534330668 l -0.43153826047128896 8.348812843516122" fill="#ff6509" stroke="none" /><path d="M 105.01212808612495 79.60689891045804 l 3.5482055406310358 -14.436764789964647 a35.866403067296666,35.866403067296666 0 0,0 0.5982705804435322,0.15251249200520572 l -3.796185009759593 14.373549301790572" fill="#ffbb11" stroke="none" /><path d="M 105.36241919743992 79.69619591428918 l 1.1911418648899663 -4.510037386588526 a25.66468178665167,25.66468178665167 0 0,0 0.42615851006701055,0.11648521903229474 l -1.2685982641806877 4.488865626729938" fill="#ff3104" stroke="none" /><path d="M 106.40334571778207 80.00007090966166 l 3.9240328850359654 -12.25615215978974 a33.869005394620146,33.869005394620146 0 0,0 0.553705302168444,0.18254793255528057 l -4.134421009446827 12.186790502975224" fill="#ffa10e" stroke="none" /><path d="M 109.41281617654863 81.2277094730956 l 2.0092645051471987 -4.007142637077416 a25.48267062871322,25.48267062871322 0 0,0 0.390418191572311,0.19998736164816855 l -2.0779431843082654 3.971962750116747" fill="#ff2e04" stroke="none" /><line stroke="#e1ed5e" stroke-width="0.3" x1="143.23703022742887" x2="145.7803849466894" y1="26.81831364943548" y2="22.513508569990506" /><path d="M 143.74570117128098 25.957352633546492 a86.0,86.0 0 0,1 28.547481713284135,27.462654790039103" fill="none" id="id86" stroke="none" /><text fill="#e1ed5e" style="font-size:6.75px; font-family:Arial;" text-anchor="middle"><textPath startOffset="19.985693538727396" xlink:href="#id86">February</textPath></text><path d="M 110.99172775467656 82.1063720568725 l 3.0957895512997493 -5.039690543428073 a26.914591593631386,26.914591593631386 0 0,0 0.3926721612386258,0.2458912713438142 l -3.1820808649106387 4.985654930761315" fill="#ff4306" stroke="none" /><path d="M 111.2981086023043 82.29822771554956 l 4.9462723075099575 -7.749773800772879 a30.193726323052346,30.193726323052346 0 0,0 0.4356997471585725,0.283391235328876 l -5.078939080452811 7.663483641284475" fill="#ff700a" stroke="none" /><path d="M 111.90073688211348 82.69761687909136 l 15.780077892856324 -22.94252499526672 a48.84547201006029,48.84547201006029 0 0,0 0.6886487254532012,0.48244244082078275 l -16.172657757893177 22.667497711682" fill="#a6ff21" stroke="none" /><path d="M 112.19680574252982 82.90503203632743 l 5.222617258269831 -7.3199882494912965 a29.992105370772105,29.992105370772105 0 0,0 0.4176824613377615,0.3034640713638368 l -5.347845035961381 7.229004943310785" fill="#ff6d0a" stroke="none" /><path d="M 113.06298171725822 83.55741782278167 l 3.8270295322523067 -4.817142742806158 a27.152318200914298,27.152318200914298 0 0,0 0.3634487793986914,0.2938836367720038 l -3.9093817102154893 4.750553008770027" fill="#ff4606" stroke="none" /><path d="M 113.34407831869373 83.78471172551755 l 4.585451779814385 -5.572091282937519 a28.216271148619015,28.216271148619015 0 0,0 0.3723774706646509,0.31185542267888766 l -4.680686787438153 5.492334702864812" fill="#ff5507" stroke="none" /><path d="M 114.16331599549186 84.49514656593476 l 10.91767913943325 -11.951792571100189 a37.187682460878136,37.187682460878136 0 0,0 0.4689050064562467,0.43579610038736366 l -11.121792029684343 11.762091884638185" fill="#ffcc13" stroke="none" /><path d="M 114.68862486808459 84.99185889309783 l 2.991565469968138 -3.0566398901895764 a25.276974559125158,25.276974559125158 0 0,0 0.3083359981966333,0.30701190543151663 l -3.043737268332092 3.004692134107941" fill="#ff2b04" stroke="none" /><path d="M 116.60985879189232 87.15038557335679 l 5.420399455335039 -4.193295314072146 a27.85306178626866,27.85306178626866 0 0,0 0.2901016548133946,0.3817397724006826 l -5.491777050372547 4.099370765790431" fill="#ff5007" stroke="none" /><path d="M 116.82858285166822 87.43820079747576 l 4.710037134867363 -3.515836196437139 a26.877546594626633,26.877546594626633 0 0,0 0.27355888529422734,0.3731340121096674 l -4.769858632675217 3.434239740655978" fill="#ff4206" stroke="none" /><line stroke="#e1ed5e" stroke-width="0.3" x1="172.23445277983987" x2="176.4835382374775" y1="55.19839476539836" y2="52.563006222186495" /><path d="M 173.08426987136738 54.67131705675599 a86.0,86.0 0 0,1 12.851231095245387,41.99856678651699" fill="none" id="id87" stroke="none" /><text fill="#e1ed5e" style="font-size:6.75px; font-family:Arial;" text-anchor="middle"><textPath startOffset="22.20632615414155" xlink:href="#id87">March</textPath></text><path d="M 118.21658344932153 89.55222093294921 l 7.624810398926662 -4.373066700336948 a29.789849030852352,29.789849030852352 0 0,0 0.25128781537464023,0.44701298410355117 l -7.698955855593737 4.241170206298603" fill="#ff6b09" stroke="none" /><path d="M 118.56541770881063 90.18545643968196 l 9.322435607774336 -4.928273190284324 a31.544936334524458,31.544936334524458 0 0,0 0.24964146906488863,0.4822278589496725 l -9.405886509999341 4.767072609074306" fill="#ff820c" stroke="none" /><path d="M 118.73160827565052 90.50648371742162 l 11.892306976947847 -6.027235262539365 a34.332461518562894,34.332461518562894 0 0,0 0.26262696064855034,0.5294399269531131 l -11.994293950549807 5.821635747087302" fill="#ffa70f" stroke="none" /><path d="M 118.89224826269711 90.83032412892265 l 6.5430153092175765 -3.1757644072191895 a28.272999993593828,28.272999993593828 0 0,0 0.20873795164375253,0.43965536097633423 l -6.596711454703085 3.062666630602315" fill="#ff5607" stroke="none" /><path d="M 119.04729006885535 91.15688171328212 l 6.90478151797745 -3.2056948514297194 a28.612653104633495,28.612653104633495 0 0,0 0.20355543235065432,0.44850741288962714 l -6.958939267291451 3.08636542969803" fill="#ff5a08" stroke="none" /><path d="M 119.196687751892 91.48605970444005 l 11.434154485410424 -5.071172166635809 a33.50826430564581,33.50826430564581 0 0,0 0.22930708941753322,0.5292723777905199 l -11.519752284670638 4.873600644258686" fill="#ff9d0e" stroke="none" /><path d="M 119.7369772167798 92.82701384747503 l 5.462580763514096 -1.985259229079092 a26.812146144459717,26.812146144459717 0 0,0 0.15391055307579818,0.43512585936325554 l -5.495944397399704 1.890935743289222" fill="#ff4106" stroke="none" /><path d="M 119.97218684219823 93.5106431181261 l 7.599980727153478 -2.469383429242651 a28.99109263954076,28.99109263954076 0 0,0 0.15012487352942755,0.4759368744094258 l -7.641361084451112 2.338196388406806" fill="#ff6008" stroke="none" /><path d="M 120.08093135843002 93.85539295169968 l 3.7833318983632394 -1.157669802948806 a24.95648829466641,24.95648829466641 0 0,0 0.12216094407107317,0.4118659739493136 l -3.802698739546015 1.0923744422529622" fill="#ff2703" stroke="none" /><path d="M 120.18372546131832 94.20196356495316 l 17.873457773126837 -5.1343821331432205 a39.59629997222266,39.59629997222266 0 0,0 0.1825450320920906,0.6567116050836963 l -17.95918957578529 4.825959224640572" fill="#ffeb16" stroke="none" /><path d="M 120.28053869075195 94.5502522615342 l 5.119943265124756 -1.3758214047297714 a26.301575574846495,26.301575574846495 0 0,0 0.11372759713269114,0.43823882415884946 l -5.14286719412775 1.2874861550220715" fill="#ff3a05" stroke="none" /><path d="M 120.37134235888165 94.90015583598534 l 29.237940062946738 -7.3195440619954715 a51.14022004564597,51.14022004564597 0 0,0 0.2064292022530913,0.8557823133441749 l -29.35960206546065 6.81517651699189" fill="#8dff24" stroke="none" /><path d="M 120.53481517161879 95.60439243477599 l 3.7788303637878187 -0.808882631567146 a24.864433985713273,24.864433985713273 0 0,0 0.08598441441512275,0.41929054143137506 l -3.7921940741179383 0.7437164339723591" fill="#ff2603" stroke="none" /><path d="M 120.78858239683441 97.02765380044208 l 9.149056681660367 -1.3081297867339967 a30.242101584768204,30.242101584768204 0 0,0 0.06924577338547656,0.5159614426304568 l -9.17021845410368 1.1504500020388755" fill="#ff710a" stroke="none" /><path d="M 120.83666639777658 97.38593545837742 l 12.289401523380107 -1.5417671976290035 a33.38573517779797,33.38573517779797 0 0,0 0.06662782742938936,0.5708265364865046 l -12.314119703813084 1.329996922817646" fill="#ff9b0e" stroke="none" /><path d="M 120.87857604477298 97.74499172005257 l 19.155272493891857 -2.068881421115376 a40.26667419794829,40.26667419794829 0 0,0 0.06849720674133106,0.6897575241025891 l -19.188046826315418 1.738848366308352" fill="#fff316" stroke="none" /><path d="M 120.98425023603335 99.18683210126433 l 5.905012560055394 -0.22882717282996196 a26.90944457706791,26.90944457706791 0 0,0 0.013952297837333353,0.46300884009081456 l -5.908076552348373 0.12714818531414834" fill="#ff4306" stroke="none" /><line stroke="#e1ed5e" stroke-width="0.3" x1="184.98032266829074" x2="189.97916517819016" y1="98.17113171792111" y2="98.06355123074" /><path d="M 185.9800911702706 98.14961562048488 a86.0,86.0 0 0,1 -9.607161424134198,41.387399972396054" fill="none" id="id88" stroke="none" /><text fill="#e1ed5e" style="font-size:6.75px; font-family:Arial;" text-anchor="middle"><textPath startOffset="21.466115282336823" xlink:href="#id88">April</textPath></text><path d="M 120.99513854157772 99.54816195383933 l 7.9287942338240365 -0.17063621123177422 a28.930630159004064,28.930630159004064 0 0,0 0.006429478334860751,0.4979701825686876 l -7.930556719276613 0.03412977060262392" fill="#ff5f08" stroke="none" /><path d="M 120.99824983174949 100.27111621757518 l 16.173581649418743 0.20882313128800886 a37.17492968981861,37.17492968981861 0 0,0 -0.013768774896031639,0.6397808660565177 l -16.1675908118377 -0.4871938131346415" fill="#ffcc13" stroke="none" /><path d="M 120.9764740272857 100.99374915477107 l 30.9294267951671 1.46526492942856 a51.96411541108536,51.96411541108536 0 0,0 -0.05001830454093384,0.8931104279748103 l -30.899622139738636 -1.9974470737387937" fill="#84ff25" stroke="none" /><path d="M 120.92983693683757 101.71520430193887 l 6.234437947966424 0.5109134304673987 a27.255337645601216,27.255337645601216 0 0,0 -0.04234363782344603,0.4672585149432963 l -6.224719713865903 -0.6181533339592655" fill="#ff4706" stroke="none" /><path d="M 120.8583938346157 102.4346265915055 l 8.016295554758067 0.935675415745211 a29.07071762019115,29.07071762019115 0 0,0 -0.06229230561998385,0.49653096573748384 l -7.999001739891234 -1.0735241357700898" fill="#ff6108" stroke="none" /><path d="M 120.81339534386255 102.79330883721812 l 17.701035436742092 2.375607530462004 a38.85973590710644,38.85973590710644 0 0,0 -0.094680726901493,0.6621967834287388 l -17.657520658823998 -2.6799497858711523" fill="#ffe115" stroke="none" /><path d="M 120.70491114924044 103.5080841355445 l 7.704366432469677 1.30536979663204 a28.814169977145667,28.814169977145667 0 0,0 -0.08706483790920143,0.4883058480024759 l -7.680755152221288 -1.4377943953677341" fill="#ff5d08" stroke="none" /><path d="M 120.41448212921028 104.9243191809786 l 8.877264420506135 2.141346676532534 a30.131877637193845,30.131877637193845 0 0,0 -0.1259637112186331,0.5031624111451454 l -8.83908939499244 -2.293836927075075" fill="#ff6f0a" stroke="none" /><path d="M 120.32669344350535 105.2749913415812 l 20.941075779343283 5.434430037843979 a42.634733292380076,42.634733292380076 0 0,0 -0.19045934975302137,0.7087700930481997 l -20.844428353248485 -5.794091064067727" fill="#eeff19" stroke="none" /><path d="M 119.79798401119884 107.00284435728193 l 8.962003697448873 3.1699953382687505 a30.506123327504902,30.506123327504902 0 0,0 -0.17936981532044569,0.49354869549154495 l -8.9061096211232 -3.3237918307664267" fill="#ff740a" stroke="none" /><path d="M 119.26925614724726 108.34839909993367 l 6.667695909537144 2.8887771330894543 a28.266581181457955,28.266581181457955 0 0,0 -0.1972723560147568,0.44479708443225097 l -6.6169824687911145 -3.0031225540143933" fill="#ff5607" stroke="none" /><path d="M 118.64920377521936 109.65438752849418 l 16.28745181761879 8.431747199197474 a39.34054109186608,39.34054109186608 0 0,0 -0.3164993210736334,0.5986974395879683 l -16.139899988320266 -8.710859653871577" fill="#ffe715" stroke="none" /><line stroke="#e1ed5e" stroke-width="0.3" x1="174.80103733775053" x2="179.2010983576182" y1="140.37084112569926" y2="142.7455964860345" /><path d="M 175.68104954172406 140.8457921977663 a86.0,86.0 0 0,1 -30.038265399797805,32.042727171017184" fill="none" id="id89" stroke="none" /><text fill="#e1ed5e" style="font-size:6.75px; font-family:Arial;" text-anchor="middle"><textPath startOffset="22.206326154141568" xlink:href="#id89">May</textPath></text><path d="M 118.12598468904814 110.60418214915192 l 8.535708177472115 4.993615841494632 a30.889110842911535,30.889110842911535 0 0,0 -0.2724406695611652,0.45662623294254734 l -8.448486632212724 -5.139804168323284" fill="#ff7a0b" stroke="none" /><path d="M 117.94076556474637 110.91462005526583 l 18.767813324081736 11.417770939665228 a42.96807479498929,42.96807479498929 0 0,0 -0.389854172087486,0.6285690576758111 l -18.56849451232629 -11.739136328706312" fill="#eaff1a" stroke="none" /><path d="M 117.14729908036423 112.12312394758627 l 9.360597262123305 6.617933255862184 a32.46376123629226,32.46376123629226 0 0,0 -0.32652392326659563,0.4535131708279232 l -9.245293546481106 -6.778080032141238" fill="#ff8f0d" stroke="none" /><path d="M 115.80600337817218 113.82643327865902 l 4.965715811799476 4.343801320923625 a27.597495239802235,27.597495239802235 0 0,0 -0.31584827394089077,0.35485888405714683 l -4.890208688210252 -4.428634374721638" fill="#ff4c07" stroke="none" /><path d="M 115.56566222782051 114.09645910891815 l 6.145094430707614 5.565074655679433 a29.290491028015126,29.290491028015126 0 0,0 -0.34165766613720544,0.3708019183833611 l -6.048390356574684 -5.670027828864129" fill="#ff6409" stroke="none" /><path d="M 114.29624159901734 115.38237550388516 l 13.619324124886635 14.65403031608869 a41.00566405105228,41.00566405105228 0 0,0 -0.521163343316013,0.47607035745557463 l -13.365061232103757 -14.886293440130848" fill="#fffc17" stroke="none" /><path d="M 114.0293411484842 115.62618273729858 l 5.9622050788513175 6.6408326017110575 a29.924603467170343,29.924603467170343 0 0,0 -0.3862520288578362,0.34082250671370834 l -5.847010697086894 -6.742478250197055" fill="#ff6c0a" stroke="none" /><path d="M 113.75828350139079 115.86535959552629 l 14.451087502846477 16.66426627681417 a43.057463602134575,43.057463602134575 0 0,0 -0.5641235584749729,0.4807583349316084 l -14.162098467794456 -16.910549001968725" fill="#e9ff1a" stroke="none" /><path d="M 112.92097659922987 116.55440617244103 l 4.88011680029263 6.252424889138226 a28.93147886455064,28.93147886455064 0 0,0 -0.39521952992558357,0.3030374825216215 l -4.771768541873552 -6.3355017134872185" fill="#ff5f08" stroke="none" /><path d="M 112.04921762599082 117.19931262002967 l 5.652553742819969 8.068576893703913 a30.851563170638492,30.851563170638492 0 0,0 -0.4375678899522326,0.3009631846661874 l -5.512828968244854 -8.164680867735195" fill="#ff790b" stroke="none" /><path d="M 111.7513745106137 117.40417183066458 l 8.236867135408062 12.19907091221699 a35.71948746823965,35.71948746823965 0 0,0 -0.5125326343914947,0.33967868252434813 l -8.025659802276602 -12.339047615832657" fill="#ffba11" stroke="none" /><path d="M 111.1453310114006 117.79835938074945 l 7.118420859292305 11.3676491570784 a34.41250770320126,34.41250770320126 0 0,0 -0.5047508645274115,0.3100592068001409 l -6.921690794832585 -11.48849683070692" fill="#ffa90f" stroke="none" /><line stroke="#e1ed5e" stroke-width="0.3" x1="143.8653032363475" x2="146.44561519142675" y1="172.8068346515853" y2="177.08958963109032" /><path d="M 144.38136562736335 173.6633856474863 a86.0,86.0 0 0,1 -40.68145358897372,12.25698825130547" fill="none" id="id90" stroke="none" /><text fill="#e1ed5e" style="font-size:6.75px; font-family:Arial;" text-anchor="middle"><textPath startOffset="21.466115282336833" xlink:href="#id90">June</textPath></text><path d="M 110.21172684928248 118.3499491758327 l 5.633565792524579 10.123228666148586 a32.5851984085658,32.5851984085658 0 0,0 -0.49246660217203614,0.2685320570888077 l -5.458476378483893 -10.218701374997165" fill="#ff900d" stroke="none" /><path d="M 109.89434966115114 118.52300852407294 l 2.892026844586776 5.414103981432994 a27.1381056680037,27.1381056680037 0 0,0 -0.4139324825551838,0.21654991121557404 l -2.7984034595050966 -5.463083311593285" fill="#ff4606" stroke="none" /><path d="M 109.57404056367764 118.69057910512821 l 4.400852924511525 8.591408107009462 a30.652968441073945,30.652968441073945 0 0,0 -0.4716850937931767,0.23651269804982075 l -4.2523139230355875 -8.665888645968584" fill="#ff760a" stroke="none" /><path d="M 108.59647513512805 119.15986991738527 l 2.5740069552475116 5.736960516230546 a27.287943047646888,27.287943047646888 0 0,0 -0.43021303686631285,0.1885927525664626 l -2.474873243723445 -5.780417822091463" fill="#ff4806" stroke="none" /><path d="M 107.59598834532513 119.57807347666477 l 3.3235787131033736 8.566267520758245 a30.188422862460754,30.188422862460754 0 0,0 -0.4860764170513966,0.18379250902317135 l -3.1756320752917024 -8.622208279888047" fill="#ff700a" stroke="none" /><path d="M 107.2578585660854 119.70592522655815 l 1.6913479350216578 4.592205212619202 a25.893772221110112,25.893772221110112 0 0,0 -0.41957829468347224,0.15044584859280086 l -1.612050079708451 -4.6206386022519625" fill="#ff3405" stroke="none" /><path d="M 104.83641907484287 120.43548508189849 l 1.9095038834721443 8.068291337179058 a29.291171822040226,29.291171822040226 0 0,0 -0.49164513656860703,0.1118968324238741 l -1.7703385975106751 -8.099964903180616" fill="#ff6409" stroke="none" /><path d="M 103.06178313531738 120.77559828337769 l 0.43600553857995017 2.958496901488034 a23.990452264422004,23.990452264422004 0 0,0 -0.4090616685898419,0.056692219888138974 l -0.3850152788032778 -2.9655636868687756" fill="#ff1902" stroke="none" /><path d="M 101.98527174616119 120.90594882070398 l 1.38988769059691 14.636243618704187 a35.70208879916496,35.70208879916496 0 0,0 -0.6123004833102533,0.05283186212607653 l -1.137742889545115 -14.657999733108927" fill="#ffb911" stroke="none" /><path d="M 101.62511606390274 120.93702456842531 l 0.5705612935341847 7.350770868530868 a28.372880885469495,28.372880885469495 0 0,0 -0.4872532110135227,0.03360383421256549 l -0.4439453217417317 -7.359503047259719" fill="#ff5708" stroke="none" /><path d="M 101.26447882468166 120.96189622390904 l 0.48493853950241644 8.039068066310085 a29.053681193209805,29.053681193209805 0 0,0 -0.4994631222504587,0.025816538349270265 l -0.34648734883847815 -8.046224411421557" fill="#ff6108" stroke="none" /><line stroke="#e1ed5e" stroke-width="0.3" x1="102.19456741930631" x2="102.32365962044197" y1="184.97166512339345" y2="189.96999836594603" /><path d="M 102.22038585953345 185.97133177190398 a86.0,86.0 0 0,1 -42.740103519485714,-10.115201625700543" fill="none" id="id91" stroke="none" /><text fill="#e1ed5e" style="font-size:6.75px; font-family:Arial;" text-anchor="middle"><textPath startOffset="22.20632615414155" xlink:href="#id91">July</textPath></text><path d="M 99.81925306533755 120.99922214144158 l -0.05213380636608491 6.05691810488981 a27.057142466799686,27.057142466799686 0 0,0 -0.4656924744675401,-0.00801731827431786 l 0.15638597072629293 -6.055123309336333" fill="#ff4506" stroke="none" /><path d="M 98.73552117531835 120.96189622390904 l -0.4271440480886707 7.080979953103894 a28.093851502116237,28.093851502116237 0 0,0 -0.48246138308618614,-0.03327336170339427 l 0.5489681919537869 -7.072578246884214" fill="#ff5307" stroke="none" /><path d="M 97.65516085044442 120.86867818915974 l -2.0404569511069313 18.15972728003756 a39.274002283426064,39.274002283426064 0 0,0 -0.6711601145970825,-0.08126814305074913 l 2.352744488755403 -18.121913608261465" fill="#ffe715" stroke="none" /><path d="M 96.93821686468263 120.77559828337769 l -1.1939790110024175 8.101693423430412 a29.18920156095635,29.18920156095635 0 0,0 -0.4964445698798047,-0.07753443191698323 l 1.3332594444907395 -8.079940684166322" fill="#ff6209" stroke="none" /><path d="M 95.16358092515715 120.4354850818985 l -2.7232375310069306 11.50658763812077 a32.8244484744126,32.8244484744126 0 0,0 -0.5487102293837275,-0.13485962432896564 l 2.920901045133869 -11.458006755477774" fill="#ff940d" stroke="none" /><path d="M 94.81253420990036 120.34920634021253 l -2.1212581764167755 8.321196144589667 a29.58731864598892,29.58731864598892 0 0,0 -0.4924309827788073,-0.1300554981874389 l 2.264179602007072 -8.283449297098647" fill="#ff6809" stroke="none" /><path d="M 93.76903079525671 120.05430185196036 l -2.291770864154686 7.3760378482210145 a28.72386872183734,28.72386872183734 0 0,0 -0.47090547082564616,-0.15076906105373442 l 2.4183976800712723 -7.335495940507573" fill="#ff5c08" stroke="none" /><path d="M 92.40401165467489 119.57807347666478 l -3.4262523493738537 8.830900890852481 a30.472276162868617,30.472276162868617 0 0,0 -0.4873807299114118,-0.19393885082367562 l 3.5777541553271237 -8.77061519562274" fill="#ff740a" stroke="none" /><path d="M 91.7346041902142 119.30500536409082 l -3.0553487406767874 7.136200756181587 a28.762764788378036,28.762764788378036 0 0,0 -0.45346460767210556,-0.19878555790704033 l 3.177734023006636 -7.082550644980095" fill="#ff5c08" stroke="none" /><path d="M 91.40352486487194 119.15986991738527 l -1.8632465025925262 4.152813804790245 a25.551653548621612,25.551653548621612 0 0,0 -0.39973980722786606,-0.18350093949887478 l 1.9344543055878118 -4.120125794957296" fill="#ff2f04" stroke="none" /><path d="M 91.07499286063937 119.00905698771935 l -2.536340741776487 5.402062423913927 a26.96785579502874,26.96785579502874 0 0,0 -0.418499170228387,-0.20090503386232098 l 2.6289525800051163 -5.357603113552043" fill="#ff4306" stroke="none" /><line stroke="#e1ed5e" stroke-width="0.3" x1="58.666819895761336" x2="56.23545636021788" y1="174.27360380694188" y2="178.64263932499728" /><path d="M 58.180547188652646 175.14741091055294 a86.0,86.0 0 0,1 -31.652253787137756,-30.449443065178592" fill="none" id="id92" stroke="none" /><text fill="#e1ed5e" style="font-size:6.75px; font-family:Arial;" text-anchor="middle"><textPath startOffset="22.20632615414155" xlink:href="#id92">August</textPath></text><path d="M 89.1626897886671 117.98757091392108 l -5.407875523224706 8.97589370155147 a31.479111861996905,31.479111861996905 0 0,0 -0.4617248200548875,-0.28362909610902015 l 5.561579543211902 -8.881476138614072" fill="#ff820b" stroke="none" /><path d="M 88.8546689885994 117.79835938074946 l -3.790874496965216 6.053776832225806 a28.142754607722093,28.142754607722093 0 0,0 -0.4083623556905103,-0.26063617639782605 l 3.89451865470265 -5.987626227004175" fill="#ff5407" stroke="none" /><path d="M 88.24862548938628 117.40417183066458 l -5.123470664070834 7.5880284239363505 a30.155770148275916,30.155770148275916 0 0,0 -0.4276994536932607,-0.29417558422206297 l 5.253327002386987 -7.498712050349188" fill="#ff700a" stroke="none" /><path d="M 87.95078237400918 117.19931262002967 l -5.235348901825868 7.47304972259788 a30.124436984289474,30.124436984289474 0 0,0 -0.42213326516260724,-0.3011808763601808 l 5.36320949483736 -7.38182458439348" fill="#ff6f0a" stroke="none" /><path d="M 87.36589467227662 116.77436683061367 l -5.754128580934449 7.639786205938325 a30.564325851745757,30.564325851745757 0 0,0 -0.4175250961823666,-0.32014043956918214 l 5.884782405610302 -7.539606424541776" fill="#ff750a" stroke="none" /><path d="M 87.07902340077011 116.55440617244103 l -5.283007890368554 6.768610542533177 a29.58628330805522,29.58628330805522 0 0,0 -0.3987702766041203,-0.3168072250770339 l 5.398735659690032 -6.676669403451013" fill="#ff6809" stroke="none" /><path d="M 86.79598089348748 116.32954008644616 l -0.8027310712432573 0.9927453982581229 a22.276683437075153,22.276683437075153 0 0,0 -0.2960994182972118,-0.24366966291283615 l 0.8197006180851579 -0.9787806164881061" fill="#ff0000" stroke="none" /><path d="M 85.97065885151581 115.62618273729859 l -9.656651256114937 10.755786430834611 a35.45468281312157,35.45468281312157 0 0,0 -0.45061289601580146,-0.41162419658178867 l 9.840363701597596 -10.587969467666245" fill="#ffb610" stroke="none" /><path d="M 84.9287848128048 114.62390073753433 l -10.042604372888482 9.74453935341765 a34.993210846716494,34.993210846716494 0 0,0 -0.4157417548795509,-0.43590356787757617 l 10.20885267914699 -9.570228668957574" fill="#ffb010" stroke="none" /><path d="M 84.4343377721795 114.09645910891817 l -7.3103349869566445 6.620331130656761 a30.862544392856513,30.862544392856513 0 0,0 -0.3532161629599288,-0.39684210350430693 l 7.423209999564906 -6.493514857411588" fill="#ff790b" stroke="none" /><path d="M 84.19399662182784 113.82643327865904 l -7.197646289602419 6.296201120898659 a30.56285839406989,30.56285839406989 0 0,0 -0.34296983378524276,-0.3989514000427529 l 7.304958632958443 -6.171372621694376" fill="#ff750a" stroke="none" /><path d="M 83.95833913139862 113.55231037782056 l -4.251113546061416 3.5914242733024877 a26.56509610809851,26.56509610809851 0 0,0 -0.29209461688440924,-0.35184678267422076 l 4.312304162839361 -3.517716233514506" fill="#ff3e05" stroke="none" /><path d="M 83.72743513129214 113.27417163493432 l -1.2674984671283855 1.0339483870814254 a22.6357266371008,22.6357266371008 0 0,0 -0.2436920162033881,-0.304043259574158 l 1.2851083953866347 -1.011977293929008" fill="#ff0500" stroke="none" /><path d="M 83.06392112726016 112.41649034213515 l -4.93664525259558 3.619244369489889 a27.121225053537792,27.121225053537792 0 0,0 -0.27278813270648233,-0.37887885760498 l 4.99821317767767 -3.5337319064337684" fill="#ff4606" stroke="none" /><path d="M 82.85270091963577 112.12312394758628 l -9.746158662702063 6.89052479501449 a32.93595160132915,32.93595160132915 0 0,0 -0.3233041516595169,-0.4657437436285916 l 9.863323721523713 -6.721739789198888" fill="#ff950d" stroke="none" /><path d="M 82.6465618267979 111.8261652097733 l -14.527087926433632 9.90004056373148 a38.5797351170563,38.5797351170563 0 0,0 -0.36925747393356706,-0.5519898220187002 l 14.695348505777929 -9.648513827506957" fill="#ffde14" stroke="none" /><path d="M 82.24976979558568 111.22182372390057 l -6.891983284668039 4.357161605114284 a29.153789968427304,29.153789968427304 0 0,0 -0.26451561317519184,-0.4264833920432108 l 6.965963537511187 -4.237881881705809" fill="#ff6209" stroke="none" /><path d="M 82.05923443525364 110.91462005526583 l -10.385372353669652 6.318146957758799 a33.156271628431256,33.156271628431256 0 0,0 -0.2924369331490284,-0.49014112089874 l 10.492590162516912 -6.138443742973948" fill="#ff980e" stroke="none" /><line stroke="#e1ed5e" stroke-width="0.3" x1="26.63291911575756" x2="22.317208475507996" y1="142.92168965132927" y2="145.44649492493687" /><path d="M 25.769776987707644 143.4266507060508 a86.0,86.0 0 0,1 -11.730757126820373,-40.83630448921669" fill="none" id="id93" stroke="none" /><text fill="#e1ed5e" style="font-size:6.75px; font-family:Arial;" text-anchor="middle"><textPath startOffset="21.46611528233685" xlink:href="#id93">September</textPath></text><path d="M 81.51974371655577 109.97397251340807 l -10.105982563577351 5.45429623724438 a32.48391183434232,32.48391183434232 0 0,0 -0.26133692511695594,-0.4943509749296142 l 10.198371996919192 -5.27953024722864" fill="#ff8f0d" stroke="none" /><path d="M 81.35079622478065 109.6543875284942 l -20.200115866681212 10.457269331603461 a43.746409890376995,43.746409890376995 0 0,0 -0.3404331664933632,-0.671706934394289 l 20.377127702960845 -10.108008185506488" fill="#e1ff1b" stroke="none" /><path d="M 80.73074385275274 108.34839909993369 l -2.843946295035882 1.2321388282094667 a24.099386491070405,24.099386491070405 0 0,0 -0.16163690195879274,-0.38206188946162756 l 2.864734178186981 -1.1830024130816803" fill="#ff1b02" stroke="none" /><path d="M 80.45479744820244 107.68017299344265 l -10.278227334040398 4.038769298100786 a32.043261047964805,32.043261047964805 0 0,0 -0.1973036644752542,-0.5150976081717128 l 10.346225278109161 -3.8612481230959155" fill="#ff890c" stroke="none" /><path d="M 80.32549172779594 107.34259656027581 l -9.461475008652902 3.531056171392064 a31.09890424872369,31.09890424872369 0 0,0 -0.1828552468589964,-0.5031391061523666 l 9.520854516517124 -3.3676692682335805" fill="#ff7c0b" stroke="none" /><path d="M 80.20201598880116 107.00284435728193 l -25.437231766474255 8.997531003154918 a47.981629381749,47.981629381749 0 0,0 -0.26871807436083217,-0.781020508234973 l 25.58834067177832 -8.558337791830647" fill="#b0ff20" stroke="none" /><path d="M 79.86692584326677 105.97154293290107 l -10.100774054843367 2.9959262780472202 a31.535711213320663,31.535711213320663 0 0,0 -0.1498807704820407,-0.5217546245578167 l 10.15084746221151 -2.8216141779848076" fill="#ff820c" stroke="none" /><path d="M 79.76711848015287 105.62410040840567 l -6.18479984452891 1.7191785212304849 a27.419293100080807,27.419293100080807 0 0,0 -0.12248841100320682,-0.4558249441502664 l 6.213476331873889 -1.6124626439046794" fill="#ff4a06" stroke="none" /><path d="M 79.67330655649465 105.27499134158121 l -8.983159966107307 2.3312247598438347 a30.28072043849948,30.28072043849948 0 0,0 -0.12658593569021703,-0.5056478886081985 l 9.021957216092584 -2.1762490318382444" fill="#ff710a" stroke="none" /><path d="M 79.58551787078972 104.9243191809786 l -24.24317392890481 5.847864551758017 a45.9385044050929,45.9385044050929 0 0,0 -0.17880892152709488,-0.7703041540744666 l 24.340243416362462 -5.429691740334976" fill="#c7ff1e" stroke="none" /><path d="M 79.4281124754447 104.21870165774334 l -5.851856939982774 1.2000473240053784 a26.97363735306028,26.97363735306028 0 0,0 -0.08935989326392717,-0.4556441705735809 l 5.871646766222368 -1.0991394263638425" fill="#ff4406" stroke="none" /><path d="M 79.35854240842038 103.8639653848113 l -8.486485913931231 1.5886226863889559 a29.633896293508677,29.633896293508677 0 0,0 -0.08954172129403118,-0.5021975254083931 l 8.512574077564452 -1.442306410247349" fill="#ff6809" stroke="none" /><path d="M 79.18660465613746 102.79330883721812 l -11.218296704085269 1.5055769039286875 a32.318875507511066,32.318875507511066 0 0,0 -0.06925241050842873,-0.5520098498066541 l 11.242550623840545 -1.3122492998346247" fill="#ff8d0d" stroke="none" /><path d="M 79.1416061653843 102.43462659150553 l -3.4757492084275143 0.40569525704316245 a24.499345824789515,24.499345824789515 0 0,0 -0.04528610569753061,-0.41929309527838377 l 3.4822176156260967 -0.34580583987999663" fill="#ff2003" stroke="none" /><path d="M 79.07016306316243 101.71520430193888 l -6.3675461293714 0.5218216724216064 a27.388892045377006,27.388892045377006 0 0,0 -0.034462322962374836,-0.4702110163785045 l 6.37558501099811 -0.41213751954634126" fill="#ff4906" stroke="none" /><path d="M 79.04373962182676 101.35467743843564 l -6.351448226764478 0.4105772432161356 a27.364704883175385,27.364704883175385 0 0,0 -0.026340025836893186,-0.47031885554627434 l 6.357574603488903 -0.3011866713344236" fill="#ff4906" stroke="none" /><path d="M 79.0235259727143 100.99374915477108 l -6.698396288755489 0.3173329150368096 a27.705908813887874,27.705908813887874 0 0,0 -0.01846779194350217,-0.4765716502729404 l 6.702866213550192 -0.2019840177498724" fill="#ff4e07" stroke="none" /><path d="M 79.0095281055655 100.63252640178507 l -39.06952424676509 1.1773201534270157 a60.08725889100221,60.08725889100221 0 0,0 -0.022254996813521125,-1.0341022525934918 l 39.08400130626362 -0.504628085043395" fill="#31ff2f" stroke="none" /><line stroke="#e1ed5e" stroke-width="0.3" x1="15.007084014347285" x2="10.007500721073583" y1="101.09737516637583" y2="101.16192664675087" /><path d="M 14.007167355692545 101.11028546245083 a86.0,86.0 0 0,1 10.666146001902534,-42.60595125391555" fill="none" id="id94" stroke="none" /><text fill="#e1ed5e" style="font-size:6.75px; font-family:Arial;" text-anchor="middle"><textPath startOffset="22.20632615414155" xlink:href="#id94">October</textPath></text><path d="M 79.00486145842228 99.54816195383935 l -10.145373523556032 -0.2183393903962804 a31.14772270126999,31.14772270126999 0 0,0 0.016149805799155627,-0.5359334310331925 l 10.14011202330123 0.3929429688544672" fill="#ff7d0b" stroke="none" /><path d="M 79.01574976396665 99.18683210126434 l -19.778605706312867 -0.7664475528654234 a40.793450571769576,40.793450571769576 0 0,0 0.03322994033276631,-0.7014315201899645 l 19.762482157746604 1.106790179678397" fill="#fff917" stroke="none" /><path d="M 79.05617556472873 98.46500227214037 l -12.387098400335491 -0.9078651302704352 a33.42032309862972,33.42032309862972 0 0,0 0.04698820430505844,-0.573375109278843 l 12.369635712210934 1.1209541567570567" fill="#ff9b0e" stroke="none" /><path d="M 79.08570108090925 98.10471618934814 l -18.175625967545873 -1.6471013337821583 a39.250104715203,39.250104715203 0 0,0 0.06676793131907431,-0.6723439565939018 l 18.144580910544573 1.9597208210804904" fill="#ffe615" stroke="none" /><path d="M 79.16333360222342 97.38593545837743 l -12.178279531732533 -1.5278263851873561 a33.27374212765977,33.27374212765977 0 0,0 0.07618736418170408,-0.5676843569148062 l 12.150176168492996 1.7372290841668219" fill="#ff9a0e" stroke="none" /><path d="M 79.26566170972629 96.67025291283419 l -10.071260385650653 -1.6173532747336106 a31.20029986671312,31.20029986671312 0 0,0 0.08972038233150662,-0.5295347753002064 l 10.041928141798925 1.790473838349645" fill="#ff7e0b" stroke="none" /><path d="M 79.32604984820605 96.31383870115002 l -8.741903552794144 -1.5586797064900906 a29.879772528267765,29.879772528267765 0 0,0 0.09463959235503497,-0.5055684866535766 l 8.713778236529246 1.7089262706062398" fill="#ff6c09" stroke="none" /><path d="M 79.54389044137918 95.25157060432595 l -12.911657877576694 -2.997153277707863 a34.25495518354035,34.25495518354035 0 0,0 0.13827126800476208,-0.573223673349599 l 12.858153809311117 3.2189621827168584" fill="#ffa60f" stroke="none" /><path d="M 79.62865764111835 94.90015583598534 l -5.98221824393238 -1.4976126885364165 a27.166828916299096,27.166828916299096 0 0,0 0.1174689389072267,-0.4526557402055019 l 5.9555529731548456 1.6003648542907822" fill="#ff4606" stroke="none" /><path d="M 79.81627453868168 94.20196356495316 l -5.799969300931701 -1.6661162674553498 a27.03453289894334,27.03453289894334 0 0,0 0.13233288363575835,-0.4461606974194121 l 5.770430520184235 1.7657063516213012" fill="#ff4406" stroke="none" /><path d="M 79.91906864156998 93.8553929516997 l -12.268514857099719 -3.754069047771784 a33.830023040287756,33.830023040287756 0 0,0 0.17518235664888618,-0.555375943472846 l 12.20207701668263 3.964695157671045" fill="#ffa10e" stroke="none" /><path d="M 80.2630227832202 92.82701384747504 l -12.890327316131147 -4.684716323303768 a34.71521437480383,34.71521437480383 0 0,0 0.2089449431503592,-0.5598685667529749 l 12.80777778447916 4.905908027086084" fill="#ffad10" stroke="none" /><path d="M 80.38941819471856 92.48833698450439 l -6.721098409521117 -2.574458363734489 a28.197291136050406,28.197291136050406 0 0,0 0.17751732209760387,-0.4517622219984776 l 6.675787537541822 2.68976959062873" fill="#ff5507" stroke="none" /><path d="M 80.65960295795067 91.81776055985345 l -12.065404679282638 -5.104446915620009 a34.10073923064031,34.10073923064031 0 0,0 0.2333615727940594,-0.5386306844301287 l 11.9757523966459 5.311376744636737" fill="#ffa40f" stroke="none" /><path d="M 81.10775173730289 90.83032412892265 l -5.836111390685327 -2.8326564978374296 a27.487228915278667,27.487228915278667 0 0,0 0.21026419509033062,-0.42387978680700417 l 5.786487182641583 2.932695873143395" fill="#ff4b07" stroke="none" /><line stroke="#e1ed5e" stroke-width="0.3" x1="26.266209847984243" x2="21.928928074336255" y1="57.711370442889674" y2="55.22380399835377" /><path d="M 25.398753493254645 57.213857153982495 a86.0,86.0 0 0,1 29.58750427330803,-30.492523968695096" fill="none" id="id95" stroke="none" /><text fill="#e1ed5e" style="font-size:6.75px; font-family:Arial;" text-anchor="middle"><textPath startOffset="21.46611528233685" xlink:href="#id95">November</textPath></text><path d="M 81.96595687620814 89.24020034530311 l -7.858590579884032 -4.6887356111667895 a30.151048439040505,30.151048439040505 0 0,0 0.26975741270488857,-0.44341025855096383 l 7.776717368892924 4.823313642924828" fill="#ff700a" stroke="none" /><path d="M 82.54541684631803 88.32363383020206 l -52.36374946104589 -35.02909850939381 a84.0,84.0 0 0,0 0.8143021373250385,-1.194887906918337 l 51.75302285805211 35.92526443958256" fill="#4dd2ff" stroke="none" /><path d="M 83.39014120810768 87.1503855733568 l -5.49666595092739 -4.2522961204192375 a27.949486230781165,27.949486230781165 0 0,0 0.2976565973813905,-0.3779936511736388 l 5.422655272952029 4.346282165545924" fill="#ff5107" stroke="none" /><path d="M 83.84228863543731 86.58626213691792 l -5.386352340157959 -4.471618331265633 a28.000582978069467,28.000582978069467 0 0,0 0.31105899166460466,-0.3681957330743429 l 5.3085827350062305 4.563673013969092" fill="#ff5207" stroke="none" /><path d="M 84.31358615837235 86.03803664274999 l -15.561251892575376 -13.850560804440114 a41.83244092903358,41.83244092903358 0 0,0 0.4833765628563639,-0.5337564737450234 l 15.320531689102967 14.116370065454694" fill="#f8ff18" stroke="none" /><path d="M 84.80347519578584 85.50635884689758 l -5.767332033012263 -5.50057608395388 a28.969846675713075,28.969846675713075 0 0,0 0.34727360396754925,-0.35789597510015225 l 5.6717941653416 5.599036254604156" fill="#ff5f08" stroke="none" /><path d="M 85.05521093208273 85.24692304244772 l -4.611542865863339 -4.552385884066175 a27.480011176004254,27.480011176004254 0 0,0 0.3352092892521122,-0.3337697940349023 l 4.532497776443912 4.631091528751189" fill="#ff4b06" stroke="none" /><path d="M 85.31137513191541 84.99185889309783 l -9.422282470173906 -9.627241905313966 a34.47082750432132,34.47082750432132 0 0,0 0.4276299129248242,-0.4113796374229482 l 9.255169313636653 9.788004629499223" fill="#ffa90f" stroke="none" /><path d="M 85.83668400450813 84.49514656593479 l -7.454840195135196 -8.16095641986241 a32.05331859768354,32.05331859768354 0 0,0 0.410570976850599,-0.3686146768368898 l 7.313258230688626 8.288070105468579" fill="#ff890c" stroke="none" /><path d="M 86.10567301691215 84.25364557470407 l -10.970907293259778 -12.433261058056704 a37.581519453146925,37.581519453146925 0 0,0 0.488749810425302,-0.4238390193802121 l 10.755263684187701 12.620265070856597" fill="#ffd113" stroke="none" /><path d="M 86.65592168130627 83.78471172551755 l -4.1522388050811205 -5.045665020907484 a27.534510126829005,27.534510126829005 0 0,0 0.36856462946871327,-0.29802029841176747 l 4.064770777047907 5.116391416583388" fill="#ff4b07" stroke="none" /><path d="M 88.09926311788651 82.69761687909137 l -14.687734456828025 -21.354375890132026 a46.917926482096235,46.917926482096235 0 0,0 0.6693519296292921,-0.4519494108083357 l 14.317977832792193 21.604037213239028" fill="#bcff1f" stroke="none" /><path d="M 88.70189139769569 82.29822771554957 l -3.4074652640996064 -5.338785127270216 a27.333517676710713,27.333517676710713 0 0,0 0.3987841102113775,-0.24971857322984112 l 3.3150620015159866 5.396648041822988" fill="#ff4906" stroke="none" /><line stroke="#e1ed5e" stroke-width="0.3" x1="56.76296977257108" x2="54.21961505331056" y1="26.818313649435495" y2="22.513508569990535" /><path d="M 56.25429882871898 25.957352633546506 a86.0,86.0 0 0,1 42.26535254187918,-11.944610805530505" fill="none" id="id96" stroke="none" /><text fill="#e1ed5e" style="font-size:6.75px; font-family:Arial;" text-anchor="middle"><textPath startOffset="22.20632615414155" xlink:href="#id96">December</textPath></text><path d="M 89.3179101791058 81.91981866633112 l -13.272774318354777 -22.465095360584538 a47.093045963745496,47.093045963745496 0 0,0 0.7014694597914451,-0.4063363878319096 l 12.88410812609801 22.690235905806496" fill="#baff1f" stroke="none" /><path d="M 89.94658935756843 81.56283822128135 l -10.099156251354506 -18.521055615584157 a42.09555541114844,42.09555541114844 0 0,0 0.6391607791422325,-0.34141755267823687 l 9.778850425683968 18.69215189476414" fill="#f5ff19" stroke="none" /><path d="M 90.26544431104013 81.39251694778311 l -3.1742002191523038 -6.06744454184026 a27.84758572780025,27.84758572780025 0 0,0 0.42665088828059783,-0.21854715618772766 l 3.0692888432829424 6.121184223340493" fill="#ff5007" stroke="none" /><path d="M 90.58718382345135 81.22770947309562 l -4.428915273627676 -8.83273216816053 a30.88091332091474,30.88091332091474 0 0,0 0.47722588921891995,-0.2341726712704416 l 4.27621811739833 8.907659999565803" fill="#ff790b" stroke="none" /><path d="M 91.23893434514133 80.91482961587045 l -3.2527739434284224 -7.085866877046002 a28.796797273641566,28.796797273641566 0 0,0 0.4522713653206775,-0.2029209782255238 l 3.1303204596409704 7.140808185788055" fill="#ff5d08" stroke="none" /><path d="M 91.56875222667455 80.76684994638697 l -7.670181357257205 -17.49702451507573 a40.104385594265445,40.104385594265445 0 0,0 0.6346351769911803,-0.27171766252926316 l 7.367862422475716 17.626461705567777" fill="#fff116" stroke="none" /><path d="M 92.23578459929587 80.48803036053334 l -12.852534407716858 -32.29924058145384 a55.76245938998247,55.76245938998247 0 0,0 0.8948994083545668,-0.34720706734509693 l 12.294651834362613 32.51569035268949" fill="#5cff2a" stroke="none" /><path d="M 92.91201910852362 80.23233633223022 l -3.011569032310522 -8.398962222736076 a29.922562101510948,29.922562101510948 0 0,0 0.4863385204656956,-0.16967396028330917 l 2.866548507781541 8.449557036191596" fill="#ff6c0a" stroke="none" /><path d="M 94.28887869178378 79.79150937346287 l -1.761479440825764 -6.232898733485906 a27.477023733347135,27.477023733347135 0 0,0 0.4562521987460961,-0.12471096094396568 l 1.6539293528559453 6.2622962352561675" fill="#ff4b06" stroke="none" /><path d="M 94.63758080256005 79.69619591428918 l -1.9357574345381603 -7.32938590983051 a28.580702781443932,28.580702781443932 0 0,0 0.47674124473693924,-0.12153195837005626 l 1.8093073011162217 7.36162086436943" fill="#ff5a08" stroke="none" /><path d="M 94.98787191387505 79.60689891045804 l -5.3432871297227935 -21.740504774516044 a43.387502433308995,43.387502433308995 0 0,0 0.726795030375882,-0.1720089018843277 l 4.968268412384377 21.829259588541245" fill="#e5ff1a" stroke="none" /><path d="M 98.91598698831166 79.02799685794201 l -0.2703837723813827 -5.231015922135594 a26.237999137266375,26.237999137266375 0 0,0 0.4512425680087979,-0.0194314541924176 l 0.18030037198326074 5.234895102852204" fill="#ff3905" stroke="none" /></svg>