<?xml version="1.0" encoding="utf-8" ?>
<svg baseProfile="full" height="200mm" version="1.1" viewBox="0,0,200,200" width="200mm" xmlns="http://www.w3.org/2000/svg" xmlns:ev="http://www.w3.org/2001/xml-events" xmlns:xlink="http://www.w3.org/1999/xlink"><defs /><rect fill="#1a1a1a" height="200" width="200" x="0" y="0" /><text alignment-baseline="middle" fill="#e1ed5e" style="dominant-baseline: central; font-size:9.0px; font-family:Arial;" text-anchor="middle" x="100.0" y="100.0">2023</text><line stroke="#e1ed5e" stroke-width="0.3" x1="100.0" x2="100.0" y1="15.0" y2="10.0" /><path d="M 100.0 14.0 a86.0,86.0 0 0,1 42.46469731375804,11.215312516191453" fill="none" id="id97" stroke="none" /><text fill="#e1ed5e" style="font-size:6.75px; font-family:Arial;" text-anchor="middle"><textPath startOffset="22.20632615414155" xlink:href="#id97">January</textPath></text><path d="M 102.52436894288641 79.15227682838746 l 1.279513571446802 -10.566975483917826 a31.64415923674749,31.64415923674749 0 0,0 0.540188810244113,0.07013201109234764 l -1.4612171101987612 10.543385149661342" fill="#ff8c0c" stroke="none" /><path d="M 103.59715602781102 79.31037775812273 l 2.7364854505397718 -15.73933679949773 a36.97545227870057,36.97545227870057 0 0,0 0.6261262490348946,0.11442056991286166 l -3.0070068206775673 15.68990074823413" fill="#ffd113" stroke="none" /><path d="M 104.66035177308747 79.52364482259891 l 3.061705232240776 -13.452324381585406 a34.79634263841427,34.79634263841427 0 0,0 0.5828823390728624,0.13794941748547526 l -3.2928112582761617 13.397629051959063" fill="#ffb510" stroke="none" /><path d="M 105.71112130821622 79.79150937346287 l 3.8693272124882405 -13.691402876013525 a35.22765637027453,35.22765637027453 0 0,0 0.5821114936744234,0.16993430755173763 l -4.104428923886092 13.622770239543083" fill="#ffbb11" stroke="none" /><path d="M 106.0581310904928 79.89281104454417 l 2.738200901300505 -9.088202631807052 a30.491742266447584,30.491742266447584 0 0,0 0.5012474019958354,0.15574000774743402 l -2.894233676007058 9.039722489177098" fill="#ff7d0b" stroke="none" /><path d="M 108.09893153111575 80.62456947434976 l 2.8657804182944533 -6.855932684836955 a28.43078127688439,28.43078127688439 0 0,0 0.4499052570009373,0.19262595145055997 l -2.9833694330857057 6.805587205423604" fill="#ff6109" stroke="none" /><path d="M 108.43124777332544 80.76684994638697 l 3.593666225682892 -8.197780876495234 a29.950868574649327,29.950868574649327 0 0,0 0.47039676301765365,0.2110533158294961 l -3.7342451071673257 8.134707230149205" fill="#ff760a" stroke="none" /><path d="M 108.76106565485865 80.91482961587045 l 0.5888186061789257 -1.2826868176747825 a22.41137975868267,22.41137975868267 0 0,0 0.3492138938990537,0.16396060563269996 l -0.6108107113775774 1.2723612294020796" fill="#ff0d01" stroke="none" /><path d="M 109.41281617654863 81.2277094730956 l 4.337980304177161 -8.651377551905188 a30.678037335381486,30.678037335381486 0 0,0 0.4700160368580758,0.2407604696006213 l -4.4862568286239926 8.575424556992065" fill="#ff7f0b" stroke="none" /><path d="M 110.05341064243156 81.56283822128135 l 5.9487296064918915 -10.909500669338746 a33.42596430002339,33.42596430002339 0 0,0 0.5027836629483564,0.2797985640784395 l -6.135637358512284 10.805486707700126" fill="#ffa40f" stroke="none" /><path d="M 110.36928655335952 81.73862282372117 l 3.508478078206575 -6.178789752905266 a28.10541070142066,28.10541070142066 0 0,0 0.4186411572765878,0.24250397971155407 l -3.61431596794849 6.117481615803663" fill="#ff5d08" stroke="none" /><line stroke="#e1ed5e" stroke-width="0.3" x1="143.23703022742887" x2="145.7803849466894" y1="26.81831364943548" y2="22.513508569990506" /><path d="M 143.74570117128098 25.957352633546492 a86.0,86.0 0 0,1 28.547481713284135,27.462654790039103" fill="none" id="id98" stroke="none" /><text fill="#e1ed5e" style="font-size:6.75px; font-family:Arial;" text-anchor="middle"><textPath startOffset="19.985693538727396" xlink:href="#id98">February</textPath></text><path d="M 110.99172775467656 82.1063720568725 l 9.449987403824371 -15.383801568350474 a39.05446240204404,39.05446240204404 0 0,0 0.5697875854468489,0.3568009337344033 l -9.713394141643484 15.218856293293127" fill="#ffeb16" stroke="none" /><path d="M 111.60114157652 82.49532879139004 l 18.35657897504125 -27.697781063488026 a54.22846772735454,54.22846772735454 0 0,0 0.7736473505067508,0.5223701445495158 l -18.83063101995454 27.377699006639837" fill="#68ff28" stroke="none" /><path d="M 111.90073688211348 82.69761687909136 l 3.987401661235135 -5.797250362146108 a28.036155467968563,28.036155467968563 0 0,0 0.3952682190408117,0.2769106473658784 l -4.0866010198595975 5.727754872016294" fill="#ff5c08" stroke="none" /><path d="M 112.19680574252982 82.90503203632743 l 8.004204133336774 -11.218643317156463 a34.781336716215336,34.781336716215336 0 0,0 0.48437927743491,0.35192214474096745 l -8.196128727125473 11.079201937598821" fill="#ffb510" stroke="none" /><path d="M 112.48926042617603 83.11751280151076 l 2.116527764327981 -2.8610383375162534 a24.558824264544256,24.558824264544256 0 0,0 0.33768833169329077,0.2543398504180779 l -2.1654622497796545 2.8241818975923283" fill="#ff2c04" stroke="none" /><path d="M 112.77801427241765 83.33499621200491 l 4.979873617080583 -6.494719048132883 a29.184162556809056,29.184162556809056 0 0,0 0.39602553493455733,0.3091042116693654 l -5.09093170717457 6.408036447240291" fill="#ff6b09" stroke="none" /><path d="M 113.34407831869373 83.78471172551755 l 8.043729571475295 -9.774477538904254 a33.65867278104501,33.65867278104501 0 0,0 0.44420226082028236,0.372006618863843 l -8.210789369254693 9.634569762646592" fill="#ffa70f" stroke="none" /><path d="M 113.6212207817346 84.01681056812373 l 0.6811968190888068 -0.799318796336362 a22.050209333663208,22.050209333663208 0 0,0 0.28676423381716304,0.24867911774455717 l -0.6948548515527341 0.7874746851721313" fill="#ff0801" stroke="none" /><path d="M 113.89432698308785 84.25364557470405 l 19.87522880504144 -22.524473292515072 a51.03958417085652,51.03958417085652 0 0,0 0.6537660637919065,0.5869576271078498 l -20.260005856429338 22.179016656637927" fill="#8aff24" stroke="none" /><path d="M 114.42810811169701 84.74124197986012 l 4.364064866159606 -4.615311256431341 a27.351862730710614,27.351862730710614 0 0,0 0.3393151695125262,0.32642092423199665 l -4.442863279284553 4.539507245437043" fill="#ff5207" stroke="none" /><path d="M 114.68862486808459 84.99185889309783 l 4.733277368221783 -4.836238604930926 a27.767061288945502,27.767061288945502 0 0,0 0.33871081127560493,0.337256279410043 l -4.815823979664708 4.754046474870764" fill="#ff5808" stroke="none" /><path d="M 115.4437574822437 85.77008943001954 l 46.331272446731084 -42.689731709941405 a84.0,84.0 0 0,0 0.9706254375358574,1.0717888509218039 l -47.05924152488298 41.88589007175005" fill="#4dd2ff" stroke="none" /><path d="M 117.45458315368197 88.32363383020206 l 5.660283562116578 -3.786486501238482 a27.810013952087644,27.810013952087644 0 0,0 0.2627428732779638,0.4001754217547496 l -5.724623070752466 3.688493015506058" fill="#ff5908" stroke="none" /><line stroke="#e1ed5e" stroke-width="0.3" x1="172.23445277983987" x2="176.4835382374775" y1="55.19839476539836" y2="52.563006222186495" /><path d="M 173.08426987136738 54.67131705675599 a86.0,86.0 0 0,1 12.851231095245387,41.99856678651699" fill="none" id="id99" stroke="none" /><text fill="#e1ed5e" style="font-size:6.75px; font-family:Arial;" text-anchor="middle"><textPath startOffset="22.20632615414155" xlink:href="#id99">March</textPath></text><path d="M 117.84615892207809 88.93136811851018 l 11.643902571872967 -7.221838144260278 a34.701657318921775,34.701657318921775 0 0,0 0.3104711039766968,0.5103328620574948 l -11.766489474135888 7.020337508995702" fill="#ffb410" stroke="none" /><path d="M 118.3937258080291 89.86733742301442 l 6.3535585868233015 -3.5000231054486997 a28.253817509068647,28.253817509068647 0 0,0 0.23099769678412455,0.4280036496709085 l -6.412864382825891 3.390138472445332" fill="#ff5f08" stroke="none" /><path d="M 118.56541770881063 90.18545643968196 l 4.919701286101426 -2.600782989831713 a26.56484796779445,26.56484796779445 0 0,0 0.21022986389443288,0.4060971822223268 l -4.9637405831559755 2.515713085349042" fill="#ff4806" stroke="none" /><path d="M 118.73160827565052 90.50648371742162 l 7.262794348202897 -3.680914921294339 a29.142316402725655,29.142316402725655 0 0,0 0.22292482521150148,0.4494028445691657 l -7.325079186367806 3.5553524882262235" fill="#ff6b09" stroke="none" /><path d="M 119.196687751892 91.48605970444005 l 4.309631655451573 -1.911368621743276 a25.714472930652487,25.714472930652487 0 0,0 0.1759718405539843,0.4061672698858132 l -4.341894205848237 1.8369022072708598" fill="#ff3c05" stroke="none" /><path d="M 119.34039704204932 91.81776055985345 l 10.129275078875972 -4.285338810277622 a31.99847000006862,31.99847000006862 0 0,0 0.21024261489676607,0.5091191682671439 l -10.201539380658936 4.110345071557176" fill="#ff910d" stroke="none" /><path d="M 119.47837535516314 92.15188598940014 l 12.420836676153476 -5.004531464460845 a34.39113583361986,34.39113583361986 0 0,0 0.21651095162376807,0.5509967559040786 l -12.505141177658945 4.7899857036609825" fill="#ffb010" stroke="none" /><path d="M 119.61058180528143 92.48833698450437 l 20.42815458603222 -7.824827167412214 a42.875498165543604,42.875498165543604 0 0,0 0.25806029684912835,0.6914732960481373 l -20.559819471382976 7.472030734334743" fill="#e5ff1a" stroke="none" /><path d="M 120.28053869075195 94.5502522615342 l 2.0510199305609986 -0.551146170156718 a23.12378079293435,23.12378079293435 0 0,0 0.09998686271549903,0.3852901692510746 l -2.0602031251468 0.515759575356793" fill="#ff1702" stroke="none" /><path d="M 120.37134235888165 94.90015583598534 l 29.37894586136266 -7.35484402335664 a51.28557726926768,51.28557726926768 0 0,0 0.20701594152967578,0.8582147264425394 l -29.501194603153156 6.848044065254694" fill="#87ff25" stroke="none" /><path d="M 120.45610955862082 95.25157060432595 l 6.371143030448175 -1.4789186948343498 a27.540540040421654,27.540540040421654 0 0,0 0.10321881362744356,0.46270970231638475 l -6.3956562310776555 1.369030822968001" fill="#ff5507" stroke="none" /><path d="M 120.6074358757038 95.95851677861258 l 11.681545383665306 -2.290957980057126 a32.904074555252905,32.904074555252905 0 0,0 0.10421860473612693,0.5567399538232205 l -11.719249712311292 2.0895399487713426" fill="#ff9d0e" stroke="none" /><path d="M 120.78858239683441 97.02765380044208 l 14.449129387937893 -2.065932828094023 a35.596075449228366,35.596075449228366 0 0,0 0.08150484406847765,0.6073057584733732 l -14.482550231064208 1.8169087275559854" fill="#ffc011" stroke="none" /><path d="M 120.91429891909075 98.10471618934814 l 6.590835930059138 -0.5972710194699068 a27.617843374367297,27.617843374367297 0 0,0 0.03883005149621625,0.47382498116762717 l -6.600140465374849 0.4837321210945109" fill="#ff5608" stroke="none" /><path d="M 120.96714384426684 98.82574320788733 l 6.5334498418396825 -0.3659033347455889 a27.543687957582705,27.543687957582705 0 0,0 0.02243681509032072,0.47360570495833076 l -6.538780265163499 0.2533865231642583" fill="#ff5507" stroke="none" /><line stroke="#e1ed5e" stroke-width="0.3" x1="184.98032266829074" x2="189.97916517819016" y1="98.17113171792111" y2="98.06355123074" /><path d="M 185.9800911702706 98.14961562048488 a86.0,86.0 0 0,1 -9.607161424134198,41.387399972396054" fill="none" id="id100" stroke="none" /><text fill="#e1ed5e" style="font-size:6.75px; font-family:Arial;" text-anchor="middle"><textPath startOffset="21.466115282336823" xlink:href="#id100">April</textPath></text><path d="M 120.99980553446 99.90962569577887 l 26.982715628085142 -0.11612222536457474 a47.98296549746402,47.98296549746402 0 0,0 -0.003554629975337532,0.8259708207148982 l -26.980716700820302 -0.34835807355400816" fill="#abff21" stroke="none" /><path d="M 120.9764740272857 100.99374915477107 l 20.60352710633081 0.9760809953372475 a41.62663480383475,41.62663480383475 0 0,0 -0.04006791379322267,0.7154395168800098 l -20.583672841650056 -1.3305922285526806" fill="#f4ff19" stroke="none" /><path d="M 120.89721153311464 102.0752229133903 l 10.165709401427245 1.0095180903576142 a31.215712134209028,31.215712134209028 0 0,0 -0.05770105247884201,0.534240083620013 l -10.146826047447352 -1.1843544958624186" fill="#ff870c" stroke="none" /><path d="M 120.8583938346157 102.4346265915055 l 8.05611030275539 0.9403226596786105 a29.11080266770599,29.11080266770599 0 0,0 -0.062378199269504615,0.49721562263568 l -8.038730594239038 -1.0788560366016853" fill="#ff6a09" stroke="none" /><path d="M 120.49622156327973 104.57218783832717 l 16.66196868532793 3.7168631472119067 a38.071504682538986,38.071504682538986 0 0,0 -0.14818777366300212,0.63838905050585 l -16.595520345734375 -4.003120855066322" fill="#ffdf14" stroke="none" /><path d="M 120.41448212921028 104.9243191809786 l 14.742207843472348 3.5560704598874073 a36.16503640667643,36.16503640667643 0 0,0 -0.15118481021968563,0.60390816452386 l -14.678811718957602 -3.8093064638086633" fill="#ffc712" stroke="none" /><path d="M 120.32669344350535 105.2749913415812 l 0.5025492440525763 0.130416829400383 a21.519195812857408,21.519195812857408 0 0,0 -0.09613129308486315,0.35774030328758566 l -0.5002298746259359 -0.13904806586351692" fill="#ff0000" stroke="none" /><path d="M 120.23288151984713 105.62410040840565 l 3.3671752085455986 0.9359680897146772 a24.494839788889934,24.494839788889934 0 0,0 -0.11641739853459798,0.4052642368267967 l -3.350565173124901 -0.9937898020460558" fill="#ff2b04" stroke="none" /><path d="M 119.54520255179757 107.68017299344265 l 11.1947182946477 4.398899059137368 a33.02796868257477,33.02796868257477 0 0,0 -0.21247582025736395,0.5273475608635751 l -11.117339860132946 -4.590945987843757" fill="#ff9e0e" stroke="none" /><path d="M 119.26925614724726 108.34839909993367 l 6.167024440018742 2.671861378088346 a27.72093993928741,27.72093993928741 0 0,0 -0.1934643279872141,0.43621098652018175 l -6.120119027300255 -2.7776207011012155" fill="#ff5808" stroke="none" /><path d="M 119.12269723197855 108.67885076344098 l 3.610374560011701 1.6385712552132206 a24.96481023782863,24.96481023782863 0 0,0 -0.18096560971306497,0.38978382386552435 l -3.5816343334588048 -1.7004751463575756" fill="#ff3104" stroke="none" /><path d="M 118.81262510543309 109.33194174019688 l 20.291540514646094 10.065552938001986 a43.650871338764084,43.650871338764084 0 0,0 -0.33968968853186904,0.6702399818424787 l -20.115272156327958 -10.413347131547157" fill="#dcff1b" stroke="none" /><line stroke="#e1ed5e" stroke-width="0.3" x1="174.80103733775053" x2="179.2010983576182" y1="140.37084112569926" y2="142.7455964860345" /><path d="M 175.68104954172406 140.8457921977663 a86.0,86.0 0 0,1 -30.038265399797805,32.042727171017184" fill="none" id="id101" stroke="none" /><text fill="#e1ed5e" style="font-size:6.75px; font-family:Arial;" text-anchor="middle"><textPath startOffset="22.206326154141568" xlink:href="#id101">May</textPath></text><path d="M 118.30583269289576 110.29060199501023 l 12.158314173529597 6.83478179818834 a34.947718299818696,34.947718299818696 0 0,0 -0.2992989226310127,0.5218528995884462 l -12.038863254746202 -7.0430545436351" fill="#ffb711" stroke="none" /><path d="M 118.12598468904814 110.60418214915192 l 6.336201195343081 3.7068458768857435 a28.340854987183164,28.340854987183164 0 0,0 -0.24996515917569503,0.41895598474755735 l -6.271455160469159 -3.815363955519405" fill="#ff6008" stroke="none" /><path d="M 117.35343817320211 111.8261652097733 l 16.08327752917822 10.960565582238113 a40.46293436157846,40.46293436157846 0 0,0 -0.3971901229930387,0.5721819960106579 l -15.892226499023042 -11.23578884043579" fill="#fffc17" stroke="none" /><path d="M 116.0416608686014 113.55231037782055 l 7.139888638180706 6.031918245890188 a30.346766686438947,30.346766686438947 0 0,0 -0.34054489904605834,0.39613065310261664 l -7.035001229563866 -6.1539259981543335" fill="#ff7b0b" stroke="none" /><path d="M 114.0293411484842 115.62618273729858 l 4.215485701304231 4.695298888085437 a27.310004068648194,27.310004068648194 0 0,0 -0.3525040688075855,0.3110438557773945 l -4.134039279590057 -4.76716588563512" fill="#ff5207" stroke="none" /><path d="M 112.34349029814194 116.9893568818739 l 11.226771456315245 15.452325257734124 a40.10012442899634,40.10012442899634 0 0,0 -0.5619224175863321,0.4009167249823134 l -10.959121710880028 -15.643286244560658" fill="#fff717" stroke="none" /><path d="M 112.04921762599082 117.19931262002967 l 9.261520303792205 13.220093452214957 a37.14145684945606,37.14145684945606 0 0,0 -0.5267774865565116,0.36232235866714224 l -9.03258593261281 -13.377556600247193" fill="#ffd313" stroke="none" /><path d="M 111.7513745106137 117.40417183066458 l 3.5762378136228405 5.296525726364721 a27.39082636828988,27.39082636828988 0 0,0 -0.39302614319934676,0.26047629665198024 l -3.4845369716835295 -5.35730004410802" fill="#ff5307" stroke="none" /><line stroke="#e1ed5e" stroke-width="0.3" x1="143.8653032363475" x2="146.44561519142675" y1="172.8068346515853" y2="177.08958963109032" /><path d="M 144.38136562736335 173.6633856474863 a86.0,86.0 0 0,1 -40.68145358897372,12.25698825130547" fill="none" id="id102" stroke="none" /><text fill="#e1ed5e" style="font-size:6.75px; font-family:Arial;" text-anchor="middle"><textPath startOffset="21.466115282336833" xlink:href="#id102">June</textPath></text><path d="M 110.8373102113329 117.98757091392108 l 3.962206323866746 6.576398187034446 a28.677766085738714,28.677766085738714 0 0,0 -0.4250210568102153,0.25110993196531073 l -3.8484173960281485 -6.643626691293506" fill="#ff6509" stroke="none" /><path d="M 110.5260780823613 118.17145234162733 l 3.5770693533866837 6.175191250641033 a28.136414515772735,28.136414515772735 0 0,0 -0.4211769808309269,0.23915528175978548 l -3.470243605634559 -6.235849698195447" fill="#ff5d08" stroke="none" /><path d="M 110.21172684928248 118.3499491758327 l 6.1136078859233205 10.985839676620941 a33.572385405452806,33.572385405452806 0 0,0 -0.5073861561354566,0.276667387482736 l -5.923598917919215 -11.089447715863447" fill="#ffa60f" stroke="none" /><path d="M 109.57404056367764 118.69057910512821 l 6.660570457274416 13.002861037508252 a35.60950354998646,35.60950354998646 0 0,0 -0.5479558057873806,0.27475641639772275 l -6.435760743804275 -13.115585294815276" fill="#ffc011" stroke="none" /><path d="M 109.2508944713604 118.85261126421891 l 2.963489474560243 6.039363568836895 a27.72727152584342,27.72727152584342 0 0,0 -0.4302841210090585,0.20656252640732006 l -2.859092685550952 -6.089480371743774" fill="#ff5808" stroke="none" /><path d="M 108.92500713936063 119.00905698771935 l 2.6777424495599425 5.703228919295479 a27.300565429551824,27.300565429551824 0 0,0 -0.4271004512977791,0.1960608692365238 l -2.579174002494744 -5.748476858866077" fill="#ff5207" stroke="none" /><path d="M 108.2653958097858 119.30500536409082 l 3.375683783374044 7.884388726835712 a29.576644250590586,29.576644250590586 0 0,0 -0.4697454757077279,0.1963536469433164 l -3.2394668481688544 -7.941327416799002" fill="#ff710a" stroke="none" /><path d="M 107.59598834532513 119.57807347666477 l 2.8176754653015097 7.262340960148929 a28.789794044082228,28.789794044082228 0 0,0 -0.4635565097372704,0.1752774070288385 l -2.6922487348039645 -7.309766617284399" fill="#ff6609" stroke="none" /><path d="M 107.2578585660854 119.70592522655815 l 6.585279866418029 17.87979628729314 a40.053950409144875,40.053950409144875 0 0,0 -0.649027421130411,0.23271814192777435 l -6.276532884657883 -17.990501970260873" fill="#fff717" stroke="none" /><path d="M 106.57524785965236 119.94407469862006 l 4.220863953514304 12.802745657416597 a34.48057821024662,34.48057821024662 0 0,0 -0.5652822422243018,0.18098552293537307 l -3.9998603661990626 -12.873504027011677" fill="#ffb110" stroke="none" /><path d="M 104.83641907484287 120.43548508189849 l 3.332095258597019 14.079214785732031 a35.46814251364494,35.46814251364494 0 0,0 -0.5953240749772498,0.13549382125603793 l -3.0892510342269075 -14.134485340565753" fill="#ffbe11" stroke="none" /><path d="M 104.48393922423573 120.51570834832081 l 1.404147476286182 6.424502800086033 a27.576158936907937,27.576158936907937 0 0,0 -0.46460383299326635,0.0973622504621936 l -1.2933521818635378 -6.447721031274768" fill="#ff5607" stroke="none" /><path d="M 103.7750983002368 120.6578951692458 l 3.3710222258375038 18.446731241456792 a39.75221811790884,39.75221811790884 0 0,0 -0.6741806366171735,0.1172149453716156 l -3.0529926177482802 -18.502024765349415" fill="#fff316" stroke="none" /><path d="M 103.41894727170886 120.7198165907248 l 0.9052029581845937 5.485793661155779 a26.55997522371126,26.55997522371126 0 0,0 -0.4517271720645721,0.07055049403797843 l -0.8106399225115045 -5.500562462540864" fill="#ff4806" stroke="none" /><path d="M 101.62511606390274 120.93702456842531 l 0.6372203625345094 8.209566493267053 a29.23425963871687,29.23425963871687 0 0,0 -0.5020458422275618,0.03462402066931599 l -0.49581175952801726 -8.219318858452654" fill="#ff6c0a" stroke="none" /><path d="M 101.26447882468166 120.96189622390904 l 0.48759983203940743 8.083185640201378 a29.097878962429768,29.097878962429768 0 0,0 -0.5002229280617879,0.025855811630904748 l -0.3483888355641399 -8.090381258594485" fill="#ff6a09" stroke="none" /><line stroke="#e1ed5e" stroke-width="0.3" x1="102.19456741930631" x2="102.32365962044197" y1="184.97166512339345" y2="189.96999836594603" /><path d="M 102.22038585953345 185.97133177190398 a86.0,86.0 0 0,1 -42.740103519485714,-10.115201625700543" fill="none" id="id103" stroke="none" /><text fill="#e1ed5e" style="font-size:6.75px; font-family:Arial;" text-anchor="middle"><textPath startOffset="22.20632615414155" xlink:href="#id103">July</textPath></text><path d="M 100.54218724476979 120.99299961872073 l 0.7224428146075443 27.97233221162016 a48.98165993963941,48.98165993963941 0 0,0 -0.8430450646740548,0.014513785327565776 l -0.24083806004082156 -27.980623474226885" fill="#a0ff22" stroke="none" /><path d="M 100.18074693466247 120.99922214144158 l 0.05219111862004584 6.063576656275549 a27.063801264833188,27.063801264833188 0 0,0 -0.4658761065649984,0.0 l 0.052191118620041665 -6.063576656275549" fill="#ff4e07" stroke="none" /><path d="M 99.45781275523022 120.99299961872073 l -0.20536375121610198 7.951498661332915 a28.954150189146084,28.954150189146084 0 0,0 -0.4981211998997269,-0.01715630129546188 l 0.3422053027904719 -7.946785561611359" fill="#ff6809" stroke="none" /><path d="M 98.37488393609728 120.93702456842531 l -0.48718985429778944 6.276663049175898 a27.295542310795852,27.295542310795852 0 0,0 -0.46812593635996647,-0.04039187556035051 l 0.5951601083992977 -6.267346921336884" fill="#ff5207" stroke="none" /><path d="M 98.01472825383883 120.90594882070398 l -0.859666355155125 9.052735908072046 a30.093462138453248,30.093462138453248 0 0,0 -0.5152680019176915,-0.05340963520251455 l 1.01536695367841 -9.03659690441377" fill="#ff780b" stroke="none" /><path d="M 97.65516085044442 120.86867818915974 l -0.6001399015529925 5.341145245019089 a26.37475584839219,26.37475584839219 0 0,0 -0.4507226951287117,-0.05457624144713822 l 0.6919900197330935 -5.330023474846602" fill="#ff4506" stroke="none" /><path d="M 97.2962882734958 120.8252237178851 l -1.4361141334437826 11.06160757458144 a32.15444243063339,32.15444243063339 0 0,0 -0.5482660238447064,-0.07598467509348586 l 1.62630874847532 -11.03524833399535" fill="#ff930d" stroke="none" /><path d="M 96.93821686468263 120.77559828337769 l -1.4242123043158061 9.663931570921623 a30.768313779523066,30.768313779523066 0 0,0 -0.523301819965977,-0.0817289820331984 l 1.5903499878903005 -9.63798428154132" fill="#ff810b" stroke="none" /><path d="M 96.22490169976321 120.6578951692458 l -1.2185899639704276 6.668304167978114 a27.77873454097177,27.77873454097177 0 0,0 -0.4696357327743265,-0.09000680592866186 l 1.3331933113164491 -6.646340163700984" fill="#ff5808" stroke="none" /><path d="M 95.86986931433489 120.58985236759428 l -0.2196887125435643 1.0952094503446494 a22.117025904150516,22.117025904150516 0 0,0 -0.37262821965123283,-0.07808786642423446 l 0.2385083936241839 -1.091265603193874" fill="#ff0901" stroke="none" /><path d="M 95.51606077576429 120.51570834832081 l -1.5686905820036439 7.177349392961486 a28.346777147206218,28.346777147206218 0 0,0 -0.4757937035257649,-0.1082890978711555 l 1.6920044349222714 -7.149283561512643" fill="#ff6008" stroke="none" /><path d="M 95.16358092515715 120.4354850818985 l -1.1947895243001918 5.04838458413336 a26.187842414404358,26.187842414404358 0 0,0 -0.4377693361542419,-0.10759305195168019 l 1.2815121451976443 -5.02707027386765" fill="#ff4206" stroke="none" /><path d="M 94.46302465271185 120.25689768951611 l -5.563943043206166 20.35555838833984 a42.10227995950093,42.10227995950093 0 0,0 -0.697431949983053,-0.19710123552466316 l 5.913506161293832 -20.256768359476656" fill="#efff19" stroke="none" /><path d="M 93.08242187328487 119.8279376855182 l -4.2511940546614975 12.185248834320083 a33.9055391225895,33.9055391225895 0 0,0 -0.5493996071295595,-0.19699515241490748 l 4.460313222420784 -12.110266140865217" fill="#ffaa0f" stroke="none" /><path d="M 92.7421414339146 119.70592522655815 l -6.785132477143013 18.422419234188506 a40.63220703773724,40.63220703773724 0 0,0 -0.6542361521758366,-0.24737613199067995 l 7.101238850079133 -18.302894852091196" fill="#fffe18" stroke="none" /><path d="M 91.7346041902142 119.30500536409082 l -11.434482528826916 26.706857316289504 a50.051740368086286,50.051740368086286 0 0,0 -0.7890998301558001,-0.34591817603391917 l 11.892503033640459 -26.506074586961134" fill="#94ff23" stroke="none" /><path d="M 90.42595943632237 118.69057910512821 l -1.7589583581620238 3.4338636981108914 a24.85815427412537,24.85815427412537 0 0,0 -0.37915680763820153,-0.19835692169890762 l 1.817806068326721 -3.403077357467267" fill="#ff3004" stroke="none" /><line stroke="#e1ed5e" stroke-width="0.3" x1="58.666819895761336" x2="56.23545636021788" y1="174.27360380694188" y2="178.64263932499728" /><path d="M 58.180547188652646 175.14741091055294 a86.0,86.0 0 0,1 -31.652253787137756,-30.449443065178592" fill="none" id="id104" stroke="none" /><text fill="#e1ed5e" style="font-size:6.75px; font-family:Arial;" text-anchor="middle"><textPath startOffset="22.20632615414155" xlink:href="#id104">August</textPath></text><path d="M 89.7882731507175 118.34994917583269 l -6.2651933869953025 11.258231044067218 a33.8841148092544,33.8841148092544 0 0,0 -0.5072149177177382,-0.2880098677763381 l 6.458057071634248 -11.148718010496246" fill="#ffaa0f" stroke="none" /><path d="M 88.8546689885994 117.79835938074946 l -7.694654344565465 12.287856071312051 a35.49824514593475,35.49824514593475 0 0,0 -0.515093394826942,-0.32875697537903525 l 7.905029541439331 -12.153584667109211" fill="#ffbe11" stroke="none" /><path d="M 88.24862548938628 117.40417183066458 l -6.892547902280423 10.208089950161103 a33.317155394644104,33.317155394644104 0 0,0 -0.47253739801161904,-0.32501553117843485 l 7.067242184914934 -10.087933629617568" fill="#ffa20f" stroke="none" /><path d="M 87.65650970185807 116.9893568818739 l -9.046450016704735 12.451370247438547 a36.39074003885242,36.39074003885242 0 0,0 -0.503604571089592,-0.37255462220717245 l 9.259439558212893 -12.293805676491607" fill="#ffca12" stroke="none" /><path d="M 86.24171649860922 115.8653595955263 l -16.350578226719332 18.85466331141252 a45.95675734014324,45.95675734014324 0 0,0 -0.5931871672696253,-0.5234187064261316 l 16.672707746895544 -18.570421463214096" fill="#c2ff1e" stroke="none" /><path d="M 85.70375840098266 115.38237550388516 l -5.363333256333873 5.770803852886313 a28.878294277759903,28.878294277759903 0 0,0 -0.36120443193734847,-0.3415413356406578 l 5.461873522662037 -5.677627880499727" fill="#ff6709" stroke="none" /><path d="M 85.44109423537348 115.13401014063109 l -3.383216027789785 3.5168594742140447 a25.880005251233115,25.880005251233115 0 0,0 -0.31838574234146527,-0.31160746019703095 l 3.4432517225070445 -3.458101911094444" fill="#ff3e05" stroke="none" /><path d="M 84.4343377721795 114.09645910891817 l -12.69840951408591 11.499839058802017 a38.13172211325458,38.13172211325458 0 0,0 -0.4364105694090324,-0.4903119010877205 l 12.894478933143276 -11.27955298797343" fill="#ffdf14" stroke="none" /><path d="M 83.95833913139862 113.55231037782056 l -16.127959286811787 13.625216977597365 a42.1129725155807,42.1129725155807 0 0,0 -0.46305018143910215,-0.5577737730803021 l 16.360105468144425 -13.345581947403302" fill="#eeff19" stroke="none" /><path d="M 83.72743513129214 113.27417163493432 l -2.520939139298803 2.0564292775151882 a24.25331146948309,24.25331146948309 0 0,0 -0.2611066331716441,-0.3257706718618257 l 2.5559636845253078 -2.012730772075103" fill="#ff2703" stroke="none" /><path d="M 83.50135304334701 112.99209946851258 l -6.4787489913008205 5.101785106842577 a29.246356757300894,29.246356757300894 0 0,0 -0.30805213028205886,-0.39819890423461424 l 6.565607938800948 -4.98950820849471" fill="#ff6c0a" stroke="none" /><path d="M 83.28015986056508 112.70617746262583 l -10.192130498238434 7.745469917945964 a33.80124323426939,33.80124323426939 0 0,0 -0.3480541914814162,-0.4662754676924316 l 10.323945956414937 -7.568881570744226" fill="#ffa90f" stroke="none" /><path d="M 82.85270091963577 112.12312394758628 l -5.350053501876514 3.782482677037982 a27.55211780075981,27.55211780075981 0 0,0 -0.27045564615288814,-0.38961152981849717 l 5.414370055191536 -3.6898298850324744" fill="#ff5507" stroke="none" /><path d="M 82.6465618267979 111.8261652097733 l -7.852520379099683 5.351400822676788 a30.50260843500992,30.50260843500992 0 0,0 -0.2919490272528312,-0.43642418357878887 l 7.943472511763245 -5.2154397248921756" fill="#ff7d0b" stroke="none" /><line stroke="#e1ed5e" stroke-width="0.3" x1="26.63291911575756" x2="22.317208475507996" y1="142.92168965132927" y2="145.44649492493687" /><path d="M 25.769776987707644 143.4266507060508 a86.0,86.0 0 0,1 -11.730757126820373,-40.83630448921669" fill="none" id="id105" stroke="none" /><text fill="#e1ed5e" style="font-size:6.75px; font-family:Arial;" text-anchor="middle"><textPath startOffset="21.46611528233685" xlink:href="#id105">September</textPath></text><path d="M 81.69416730710424 110.29060199501025 l -52.60593032079221 29.572360929454124 a81.3482264516361,81.3482264516361 0 0,0 -0.6756690353545469,-1.226535560506575 l 53.10717576559827 -28.662454850549725" fill="#4aeaff" stroke="none" /><path d="M 80.58989483394504 108.01547362559985 l -11.490910714328978 4.745213432738279 a33.432138977944234,33.432138977944234 0 0,0 -0.21507593217637871,-0.533800825412947 l 11.570889260762744 -4.546713239482527" fill="#ffa40f" stroke="none" /><path d="M 80.45479744820244 107.68017299344265 l -34.222500289625074 13.447531269932478 a57.76976507035638,57.76976507035638 0 0,0 -0.35571243286362697,-0.9286529160636825 l 34.44890700208221 -12.856454787035638" fill="#44ff2d" stroke="none" /><path d="M 80.0844068197444 106.66101706037122 l -6.650968807297205 2.2244989788868015 a28.0131149842783,28.0131149842783 0 0,0 -0.14901342937698597,-0.458616178411579 l 6.68827448769044 -2.109683900497419" fill="#ff5c08" stroke="none" /><path d="M 79.76711848015287 105.62410040840567 l -8.005551629980866 2.225289865287971 a29.309077679552807,29.309077679552807 0 0,0 -0.13093052179844122,-0.4872411789616344 l 8.04267022812108 -2.087157753150798" fill="#ff6d0a" stroke="none" /><path d="M 79.67330655649465 105.27499134158121 l -5.346058752244279 1.387358633023682 a26.523142960224096,26.523142960224096 0 0,0 -0.11087770767820392,-0.4429013260873162 l 5.369147774217543 -1.295129467538974" fill="#ff4706" stroke="none" /><path d="M 79.23777060512086 103.15116336523772 l -2.2560386643930777 0.34240766030399067 a23.28187498804631,23.28187498804631 0 0,0 -0.05672567751791891,-0.39673925644088714 l 2.2615983929275956 -0.30352293188270296" fill="#ff1902" stroke="none" /><path d="M 79.18660465613746 102.79330883721812 l -2.182668978911845 0.2929300312029176 a23.202237924177272,23.202237924177272 0 0,0 -0.04971741374683432,-0.3962967049619885 l 2.187387901905528 -0.2553155719535205" fill="#ff1802" stroke="none" /><path d="M 79.1416061653843 102.43462659150553 l -0.8318795801234959 0.09709837501188573 a21.83752715195174,21.83752715195174 0 0,0 -0.04036583547366932,-0.3737375037786854 l 0.8334277170982171 -0.08276454934841819" fill="#ff0500" stroke="none" /><path d="M 79.10278846688536 102.07522291339032 l -5.56517662881079 0.5526566086997486 a26.59255042328644,26.59255042328644 0 0,0 -0.04131393778961672,-0.45589586087351536 l 5.573865162877482 -0.4567793592776671" fill="#ff4806" stroke="none" /><path d="M 79.0235259727143 100.99374915477108 l -3.2827584184904137 0.1555189113026836 a24.286440166189315,24.286440166189315 0 0,0 -0.01618849347445606,-0.4177530846219405 l 3.2849490448160705 -0.09898857966674636" fill="#ff2803" stroke="none" /><line stroke="#e1ed5e" stroke-width="0.3" x1="15.007084014347285" x2="10.007500721073583" y1="101.09737516637583" y2="101.16192664675087" /><path d="M 14.007167355692545 101.11028546245083 a86.0,86.0 0 0,1 10.666146001902534,-42.60595125391555" fill="none" id="id106" stroke="none" /><text fill="#e1ed5e" style="font-size:6.75px; font-family:Arial;" text-anchor="middle"><textPath startOffset="22.20632615414155" xlink:href="#id106">October</textPath></text><path d="M 79.00175016825051 100.2711162175752 l -5.254049055093213 0.06783698251926017 a26.254486971106047,26.254486971106047 0 0,0 -0.0019449607877932143,-0.45194039022285387 l 5.2544383131705095 0.022612885907269075" fill="#ff4306" stroke="none" /><path d="M 79.03285615573316 98.82574320788736 l -6.542057116384228 -0.36638538183175506 a27.552308719989735,27.552308719989735 0 0,0 0.03059540741971971,-0.4732974109351905 l 6.534781117960096 0.47894185701995734" fill="#ff5507" stroke="none" /><path d="M 79.12142395522702 97.74499172005258 l -4.982801845777932 -0.538171731418416 a26.01178042683295,26.01178042683295 0 0,0 0.051911644544605916,-0.44474726855110336 l 4.972799848229737 0.6238627382943812" fill="#ff4006" stroke="none" /><path d="M 79.16333360222342 97.38593545837743 l -7.346458064946802 -0.9216500935170587 a28.404045177799897,28.404045177799897 0 0,0 0.06503714929003142,-0.484602304684403 l 7.329504916598937 1.0479707402661211" fill="#ff6108" stroke="none" /><path d="M 79.26566170972629 96.67025291283419 l -19.59156883910369 -3.146228655178019 a40.84258864987132,40.84258864987132 0 0,0 0.1174479952029046,-0.6931847160373713 l 19.53450898238056 3.4829991595312184" fill="#feff18" stroke="none" /><path d="M 79.32604984820605 96.31383870115002 l -8.87533565848141 -1.5824706250323695 a30.015308998021197,30.015308998021197 0 0,0 0.09506888331548556,-0.5078617761300873 l 8.846781051256063 1.7350104786250293" fill="#ff770a" stroke="none" /><path d="M 79.54389044137918 95.25157060432595 l -20.060817853899383 -4.656671246589713 a41.59419821372378,41.59419821372378 0 0,0 0.16789636704638022,-0.6960388347423273 l 19.977688686592188 5.001295312991437" fill="#f5ff19" stroke="none" /><path d="M 79.91906864156998 93.8553929516997 l -4.7643731233100794 -1.45786070136303 a25.98243003791304,25.98243003791304 0 0,0 0.1345450849999687,-0.42654468720989763 l 4.738572554541907 1.5396555549993423" fill="#ff3f06" stroke="none" /><path d="M 80.14247586403 93.16781622104843 l -16.249983950079756 -5.590972771416704 a38.184904855965094,38.184904855965094 0 0,0 0.21919393523605404,-0.6196907718850919 l 16.151336934033893 5.869861169728407" fill="#ffe015" stroke="none" /><path d="M 80.2630227832202 92.82701384747504 l -21.51026781976241 -7.817451047016647 a43.886768285417844,43.886768285417844 0 0,0 0.26414695889376705,-0.7077825242297859 l 21.37251627236702 8.186556708275774" fill="#daff1c" stroke="none" /><path d="M 80.38941819471856 92.48833698450439 l -9.072449467914456 -3.475122961917034 a30.715236432959536,30.715236432959536 0 0,0 0.19336916063552995,-0.4921034220348161 l 9.011286757397235 3.630775388847613" fill="#ff800b" stroke="none" /><path d="M 80.52162464483688 92.15188598940014 l -18.433726650968985 -7.427210214361639 a40.87374473547857,40.87374473547857 0 0,0 0.2685566832973958,-0.6503313103296897 l 18.303148280785386 7.7434160951446405" fill="#fdff18" stroke="none" /><path d="M 80.803312248108 91.48605970444005 l -12.262861755239403 -5.438712875168978 a34.414819274468144,34.414819274468144 0 0,0 0.2448330600824061,-0.5394571940396476 l 12.167426378193644 5.648992078050696" fill="#ffb010" stroke="none" /><path d="M 81.10775173730289 90.83032412892265 l -12.806426617379454 -6.215818229531472 a35.235201402470594,35.235201402470594 0 0,0 0.2695324903274651,-0.5433610534046688 l 12.697534114098577 6.4353388714351025" fill="#ffbb11" stroke="none" /><path d="M 81.26839172434947 90.50648371742162 l -19.96625985195896 -10.11925992778538 a43.384167484229366,43.384167484229366 0 0,0 0.3433352088609823,-0.6632143421173249 l 19.78911520993786 10.46144699216304" fill="#dfff1b" stroke="none" /><path d="M 81.43458229118936 90.18545643968196 l -1.359661377798181 -0.7187802627973936 a22.537961029565814,22.537961029565814 0 0,0 0.1842659699479125,-0.34141685716269177 l 1.3470873086317967 0.7420781032925582" fill="#ff0f01" stroke="none" /><line stroke="#e1ed5e" stroke-width="0.3" x1="26.266209847984243" x2="21.928928074336255" y1="57.711370442889674" y2="55.22380399835377" /><path d="M 25.398753493254645 57.213857153982495 a86.0,86.0 0 0,1 29.58750427330803,-30.492523968695096" fill="none" id="id107" stroke="none" /><text fill="#e1ed5e" style="font-size:6.75px; font-family:Arial;" text-anchor="middle"><textPath startOffset="21.46611528233685" xlink:href="#id107">November</textPath></text><path d="M 81.96595687620814 89.24020034530311 l -5.111381346667886 -3.04964554378516 a26.952021271281975,26.952021271281975 0 0,0 0.24113614291084054,-0.39636441646572895 l 5.058129405470826 3.1371777334579636" fill="#ff4d07" stroke="none" /><path d="M 82.34701348167596 88.62581576622439 l -50.131931054739674 -32.30103978268266 a80.63696573702941,80.63696573702941 0 0,0 0.761840253178797,-1.1603349724467658 l 49.56849416620296 33.15919281910709" fill="#49f1ff" stroke="none" /><path d="M 82.54541684631803 88.32363383020206 l -16.620729255683194 -11.118553739708874 a40.996771695789235,40.996771695789235 0 0,0 0.39742570018223594,-0.5831731752617919 l 16.42687908983222 11.40300493824108" fill="#fcff18" stroke="none" /><path d="M 83.84228863543731 86.58626213691792 l -45.828608674927075 -38.04579309068991 a80.56293935812091,80.56293935812091 0 0,0 0.8949751761204783,-1.0593683188246357 l 45.16692288531947 38.82902035914367" fill="#49f2ff" stroke="none" /><path d="M 84.5562425177563 85.77008943001954 l -5.970695146692068 -5.501411044283052 a29.118788334036783,29.118788334036783 0 0,0 0.3428150486094901,-0.3656911917685786 l 5.87511277611212 5.60337165292968" fill="#ff6b09" stroke="none" /><path d="M 85.57189188830299 84.74124197986013 l -7.049772040006034 -7.455639008442911 a31.260888793874848,31.260888793874848 0 0,0 0.39417318562779946,-0.3663410174953796 l 6.920390970583378 7.575884612012941" fill="#ff870c" stroke="none" /><path d="M 85.83668400450813 84.49514656593479 l -21.54743979854382 -23.58839526436501 a52.94846714663769,52.94846714663769 0 0,0 0.6782169469562489,-0.6089098714314418 l 21.1382118639916 23.95580414456573" fill="#75ff27" stroke="none" /><path d="M 86.65592168130627 83.78471172551755 l -8.860359388897134 -10.766819429200455 a34.94382906957146,34.94382906957146 0 0,0 0.4677424567904548,-0.37821520408370524 l 8.673713533542179 10.917740730548296" fill="#ffb711" stroke="none" /><path d="M 86.93701828274178 83.55741782278169 l -4.296973876376774 -5.4086691388644725 a27.907798951038558,27.907798951038558 0 0,0 0.3787054361048533,-0.29558559980593063 l 4.203235885112495 5.481833127893623" fill="#ff5a08" stroke="none" /><path d="M 87.80319425747018 82.90503203632743 l -12.896942962710844 -18.076275988234638 a43.20546985285934,43.20546985285934 0 0,0 0.6091330582423136,-0.42673663442802656 l 12.583878764884869 18.295597465426606" fill="#e2ff1b" stroke="none" /><path d="M 88.09926311788651 82.69761687909137 l -2.19285162736014 -3.188168880610941 a24.86949855548649,24.86949855548649 0 0,0 0.35479928665176663,-0.23956206213716497 l 2.1376476463018337 3.2254428550467718" fill="#ff3004" stroke="none" /><path d="M 89.00827224532344 82.1063720568725 l -2.6130184759858883 -4.25377897463995 a25.992244096689635,25.992244096689635 0 0,0 0.38324689316502597,-0.23090196495317333 l 2.5394095166032153 4.298127549051742" fill="#ff4006" stroke="none" /><line stroke="#e1ed5e" stroke-width="0.3" x1="56.76296977257108" x2="54.21961505331056" y1="26.818313649435495" y2="22.513508569990535" /><path d="M 56.25429882871898 25.957352633546506 a86.0,86.0 0 0,1 42.26535254187918,-11.944610805530505" fill="none" id="id108" stroke="none" /><text fill="#e1ed5e" style="font-size:6.75px; font-family:Arial;" text-anchor="middle"><textPath startOffset="22.20632615414155" xlink:href="#id108">December</textPath></text><path d="M 89.94658935756843 81.56283822128135 l -11.367142293948312 -20.84644195778622 a44.74417962849461,44.74417962849461 0 0,0 0.6793763482653713,-0.36289931695046096 l 11.006620899154637 21.03902000123843" fill="#d0ff1d" stroke="none" /><path d="M 90.91171255644093 81.06846463323043 l -6.453487634473748 -13.443063960046254 a35.91185673490059,35.91185673490059 0 0,0 0.5595781903022082,-0.26272946347123866 l 6.221131232871931 13.552158406157501" fill="#ffc412" stroke="none" /><path d="M 91.23893434514133 80.91482961587045 l -4.188408501909176 -9.124060136787424 a31.039484008582235,31.039484008582235 0 0,0 0.48749413617119175,-0.2187244087870231 l 4.03073224727121 9.194804876090977" fill="#ff840c" stroke="none" /><path d="M 91.90106846888425 80.62456947434976 l -11.320412617008735 -27.082321580304782 a50.3530898543641,50.3530898543641 0 0,0 0.80257101858673,-0.327388869839695 l 10.852557728833624 27.273171336328055" fill="#91ff24" stroke="none" /><path d="M 92.23578459929587 80.48803036053334 l -1.2786163368842203 -3.213244591790745 a24.458294455887135,24.458294455887135 0 0,0 0.39251699938233414,-0.15229049764288177 l 1.2231161725022086 3.234777793324178" fill="#ff2a04" stroke="none" /><path d="M 92.91201910852362 80.23233633223022 l -3.20953444598984 -8.951067790651702 a30.509086494129583,30.509086494129583 0 0,0 0.4958714409541047,-0.17299980905791465 l 3.05498100097245 9.004988452881827" fill="#ff7d0b" stroke="none" /><path d="M 93.59665428221793 80.00007090966166 l -2.9910552242838477 -9.342130665355224 a30.809271977230836,30.809271977230836 0 0,0 0.5064672067939777,-0.1573618265069226 l 2.829802644779141 9.392232626744672" fill="#ff810b" stroke="none" /><path d="M 94.28887869178378 79.79150937346287 l -8.694290289970947 -30.764271033168974 a52.96922044480539,52.96922044480539 0 0,0 0.8795466178703615,-0.24041331572994704 l 8.163445782876863 30.909370889725217" fill="#75ff27" stroke="none" /><path d="M 94.63758080256005 79.69619591428918 l -0.9950620564206315 -3.767617618617791 a24.89680523201343,24.89680523201343 0 0,0 0.41529188442452886,-0.10586714819934144 l 0.9300612833111033 3.784187762985996" fill="#ff3004" stroke="none" /><path d="M 95.692805502759 79.44645832069477 l -1.0728141396025455 -5.119371820007945 a26.23057339205011,26.23057339205011 0 0,0 0.442714109956196,-0.0888042856191021 l 0.984533620179213 5.137080061704258" fill="#ff4306" stroke="none" /><path d="M 96.04723909329186 79.375362276772 l -2.169590626829527 -11.320447085512056 a32.52647585795003,32.52647585795003 0 0,0 0.5507892146864756,-0.10065320842789441 l 1.974406291040158 11.356115775290686" fill="#ff980e" stroke="none" /><path d="M 97.83486435360386 79.11191278185805 l -0.744790799384793 -7.185348965416635 a28.223846142441168,28.223846142441168 0 0,0 0.4836691925493209,-0.04593021779072614 l 0.6209964797452358 7.197104727722542" fill="#ff5e08" stroke="none" /><path d="M 99.27714615592234 79.0124445844662 l -2.153603013959154 -62.52835613843992 a83.56543236738088,83.56543236738088 0 0,0 1.4380153083807237,-0.037139692857064435 l 1.0769610703835517 62.55616262343934" fill="#4cd6ff" stroke="none" /></svg>