<?xml version="1.0" encoding="utf-8" ?>
<svg baseProfile="full" height="200mm" version="1.1" viewBox="0,0,200,200" width="200mm" xmlns="http://www.w3.org/2000/svg" xmlns:ev="http://www.w3.org/2001/xml-events" xmlns:xlink="http://www.w3.org/1999/xlink"><defs /><rect fill="#1a1a1a" height="200" width="200" x="0" y="0" /><text alignment-baseline="middle" fill="#e1ed5e" style="dominant-baseline: central; font-size:9.0px; font-family:Arial;" text-anchor="middle" x="100.0" y="100.0">2023</text><line stroke="#e1ed5e" stroke-width="0.3" x1="100.0" x2="100.0" y1="15.0" y2="10.0" /><path d="M 100.0 14.0 a86.0,86.0 0 0,1 42.46469731375804,11.215312516191453" fill="none" id="id97" stroke="none" /><text fill="#e1ed5e" style="font-size:6.75px; font-family:Arial;" text-anchor="middle"><textPath startOffset="22.20632615414155" xlink:href="#id97">January</textPath></text><path d="M 102.52436894288641 79.15227682838746 l 1.2621340061196205 -10.423444813488269 a31.499580183475864,31.499580183475864 0 0,0 0.5377207406648674,0.06981158482689034 l -1.4413694752923338 10.400174905497241" fill="#ff870c" stroke="none" /><path d="M 103.59715602781102 79.31037775812273 l 2.8163114453348643 -16.198468865113895 a37.44147206703793,37.44147206703793 0 0,0 0.6340176257203878,0.11586266856172517 l -3.0947241921581528 16.14759071520143" fill="#ffd413" stroke="none" /><path d="M 104.66035177308747 79.52364482259891 l 3.084702120165008 -13.553366635054505 a34.899968860193866,34.899968860193866 0 0,0 0.5846182081315113,0.13836024160797755 l -3.317544015259043 13.498260481305659" fill="#ffb310" stroke="none" /><path d="M 105.71112130821622 79.79150937346287 l 3.907336784028675 -13.825897667621 a35.367418942153506,35.367418942153506 0 0,0 0.584420968895287,0.1706085066986881 l -4.144747970647389 13.756590832003608" fill="#ffb911" stroke="none" /><path d="M 106.0581310904928 79.89281104454417 l 2.748692790217564 -9.12302564732186 a30.528111513657176,30.528111513657176 0 0,0 0.501845268477752,0.15592576777363046 l -2.9053234314060346 9.074359744665708" fill="#ff7a0b" stroke="none" /><path d="M 108.09893153111575 80.62456947434976 l 2.7477886899636146 -6.5736558775701806 a28.124836438922998,28.124836438922998 0 0,0 0.4450638075307096,0.19055309545234597 l -2.86053625528464 6.525383254155044" fill="#ff5908" stroke="none" /><path d="M 108.43124777332544 80.76684994638697 l 3.5068749543371203 -7.999794814406266 a29.73469455779413,29.73469455779413 0 0,0 0.46700161748042945,0.20953001299306057 l -3.64405869028433 7.938244470896674" fill="#ff6f0a" stroke="none" /><path d="M 108.76106565485865 80.91482961587045 l 0.5371892550302162 -1.1702170563109096 a22.28762582088155,22.28762582088155 0 0,0 0.34728556128543464,0.1630552276144884 l -0.5572530276152488 1.1607968460564182" fill="#ff0601" stroke="none" /><path d="M 109.41281617654863 81.2277094730956 l 4.34947240855774 -8.67429663564712 a30.7036762289353,30.7036762289353 0 0,0 0.47040884853001713,0.24096168299587778 l -4.498141744676513 8.598142427338741" fill="#ff7c0b" stroke="none" /><path d="M 110.05341064243156 81.56283822128135 l 6.147747564853589 -11.274483899974737 a33.841681639565465,33.841681639565465 0 0,0 0.5090367626300917,0.2832784072812369 l -6.340908416555716 11.166990095133318" fill="#ffa60f" stroke="none" /><path d="M 110.36928655335952 81.73862282372117 l 3.520379076956423 -6.199748632364044 a28.129512742815766,28.129512742815766 0 0,0 0.41900016667195034,0.242711941125802 l -3.6265759760937017 6.138232533848193" fill="#ff5908" stroke="none" /><line stroke="#e1ed5e" stroke-width="0.3" x1="143.23703022742887" x2="145.7803849466894" y1="26.81831364943548" y2="22.513508569990506" /><path d="M 143.74570117128098 25.957352633546492 a86.0,86.0 0 0,1 28.547481713284135,27.462654790039103" fill="none" id="id98" stroke="none" /><text fill="#e1ed5e" style="font-size:6.75px; font-family:Arial;" text-anchor="middle"><textPath startOffset="19.985693538727396" xlink:href="#id98">February</textPath></text><path d="M 110.99172775467656 82.1063720568725 l 9.589689346584414 -15.611224830868666 a39.321366829031206,39.321366829031206 0 0,0 0.5736816047123692,0.35923936824123404 l -9.856990103669046 15.443841121304487" fill="#ffeb16" stroke="none" /><path d="M 111.60114157652 82.49532879139004 l 18.21542939791682 -27.484804010971217 a53.97296346511778,53.97296346511778 0 0,0 0.7700022134817387,0.5199089317586866 l -18.6858363058051 27.16718316691386" fill="#6cff28" stroke="none" /><path d="M 111.90073688211348 82.69761687909136 l 3.780073783873034 -5.495818072591382 a27.67030539769704,27.67030539769704 0 0,0 0.3901102755461197,0.273297178325393 l -3.874115199002804 5.429936051502053" fill="#ff5307" stroke="none" /><path d="M 112.19680574252982 82.90503203632743 l 8.191589497325705 -11.481281491599297 a35.103969766772664,35.103969766772664 0 0,0 0.48887239870798405,0.3551865884293413 l -8.388007212387476 11.33857566835328" fill="#ffb610" stroke="none" /><path d="M 112.48926042617603 83.11751280151076 l 2.147700616681339 -2.9031765637072096 a24.61123969004443,24.61123969004443 0 0,0 0.33840905339403204,0.25488268306094836 l -2.1973558238337536 2.8657772911404136" fill="#ff2803" stroke="none" /><path d="M 112.77801427241765 83.33499621200491 l 5.06819248744356 -6.609903949148962 a29.329310013845948,29.329310013845948 0 0,0 0.39799516826583875,0.31064154172624 l -5.181220210868829 6.521684018199498" fill="#ff6909" stroke="none" /><path d="M 113.34407831869373 83.78471172551755 l 8.278813327161085 -10.060143643078188 a34.02863155612847,34.02863155612847 0 0,0 0.4490847030179117,0.3760955237928368 l -8.450755567138113 9.916146961891531" fill="#ffa80f" stroke="none" /><path d="M 113.6212207817346 84.01681056812373 l 0.6406617726513559 -0.7517548271282237 a21.987715964762828,21.987715964762828 0 0,0 0.2859515039795369,0.24797432643814302 l -0.6535070752776571 0.7406155072704094" fill="#ff0200" stroke="none" /><path d="M 113.89432698308785 84.25364557470407 l 20.242348110029578 -22.940527319439 a51.59445130577676,51.59445130577676 0 0,0 0.6608733572508415,0.5933386253499668 l -20.63423245487641 22.588689685319736" fill="#86ff25" stroke="none" /><path d="M 114.42810811169701 84.74124197986012 l 4.377343989851101 -4.629354881108909 a27.371190392754908,27.371190392754908 0 0,0 0.3395549399803547,0.3266515832320749 l -4.456382173443875 4.553320211114532" fill="#ff4f07" stroke="none" /><path d="M 114.68862486808459 84.99185889309783 l 4.858292592590353 -4.963973239362991 a27.945792772342852,27.945792772342852 0 0,0 0.3408910306770013,0.3394271362564615 l -4.943019423434677 4.879610252456411" fill="#ff5708" stroke="none" /><path d="M 115.4437574822437 85.77008943001954 l 46.331272446731084 -42.689731709941405 a84.0,84.0 0 0,0 0.9706254375358574,1.0717888509218039 l -47.05924152488298 41.88589007175005" fill="#4dd2ff" stroke="none" /><path d="M 117.45458315368197 88.32363383020206 l 5.797931421010355 -3.878567004610078 a27.975621174633062,27.975621174633062 0 0,0 0.2643074937618705,0.4025584460941808 l -5.86383555013015 3.7781904945382228" fill="#ff5708" stroke="none" /><line stroke="#e1ed5e" stroke-width="0.3" x1="172.23445277983987" x2="176.4835382374775" y1="55.19839476539836" y2="52.563006222186495" /><path d="M 173.08426987136738 54.67131705675599 a86.0,86.0 0 0,1 12.851231095245387,41.99856678651699" fill="none" id="id99" stroke="none" /><text fill="#e1ed5e" style="font-size:6.75px; font-family:Arial;" text-anchor="middle"><textPath startOffset="22.20632615414155" xlink:href="#id99">March</textPath></text><path d="M 117.84615892207809 88.93136811851018 l 11.91926675988131 -7.3926258663531845 a35.025684913510844,35.025684913510844 0 0,0 0.3133701356882493,0.5150981079422232 l -12.044752693855784 7.18635998520388" fill="#ffb510" stroke="none" /><path d="M 118.3937258080291 89.86733742301442 l 5.507329494822616 -3.033855786137626 a27.287683126209835,27.287683126209835 0 0,0 0.22309877066015193,0.41336813920215865 l -5.5587363647012324 2.9386066636030086" fill="#ff4d07" stroke="none" /><path d="M 118.56541770881063 90.18545643968196 l 5.050087281073029 -2.6697110930058696 a26.712332174040142,26.712332174040142 0 0,0 0.21139702979138061,0.40835177523378624 l -5.095293744024526 2.5823865955117387" fill="#ff4506" stroke="none" /><path d="M 118.73160827565052 90.50648371742162 l 7.333572431169568 -3.716786527896706 a29.221665688725416,29.221665688725416 0 0,0 0.22353180941508044,0.4506264876849027 l -7.396464253538056 3.590000451712853" fill="#ff6809" stroke="none" /><path d="M 119.196687751892 91.48605970444005 l 4.415581460616847 -1.958358515372944 a25.830375524747215,25.830375524747215 0 0,0 0.1767649967218293,0.4079979836765681 l -4.4486371671813565 1.882061387109773" fill="#ff3905" stroke="none" /><path d="M 119.34039704204932 91.81776055985345 l 10.375597009843961 -4.389548926241496 a32.26592886035372,32.26592886035372 0 0,0 0.2119999254857888,0.513374635247088 l -10.449618622215947 4.210299720541106" fill="#ff910d" stroke="none" /><path d="M 119.47837535516314 92.15188598940014 l 12.399726815793082 -4.9960260019756335 a34.36837689918693,34.36837689918693 0 0,0 0.21636767172234647,0.5506321241832466 l -12.48388803739713 4.7818448728966025" fill="#ffac10" stroke="none" /><path d="M 119.61058180528143 92.48833698450437 l 19.99262974375318 -7.658003159712657 a42.40911619999699,42.40911619999699 0 0,0 0.2552532234943338,0.6839517350463553 l -20.12148755574914 7.312728287636969" fill="#eeff19" stroke="none" /><path d="M 120.28053869075195 94.5502522615342 l 1.748374427319821 -0.46981984682796146 a22.81039880318657,22.81039880318657 0 0,0 0.09863180394431419,0.38006857504243835 l -1.756202563134438 0.4396548462366727" fill="#ff0e01" stroke="none" /><path d="M 120.37134235888165 94.90015583598534 l 29.70762158756608 -7.437126032789415 a51.6243958963702,51.6243958963702 0 0,0 0.20838359420772126,0.8638845297450495 l -29.831237982034622 6.924656271384959" fill="#85ff25" stroke="none" /><path d="M 120.45610955862082 95.25157060432595 l 6.539344416996965 -1.5179628936343517 a27.713213593396247,27.713213593396247 0 0,0 0.1038659744767484,0.46561079750832796 l -6.564504778475751 1.4051739265760599" fill="#ff5307" stroke="none" /><path d="M 120.6074358757038 95.95851677861258 l 12.02269170682183 -2.3578628171941243 a33.25171959122429,33.25171959122429 0 0,0 0.10531971701726824,0.5626221396585515 l -12.061497147748957 2.1505626000730103" fill="#ff9e0e" stroke="none" /><path d="M 120.78858239683441 97.02765380044208 l 14.52997095427835 -2.077491534594133 a35.6777391654329,35.6777391654329 0 0,0 0.08169183064975952,0.6086990256940836 l -14.563578783985946 1.8270741668353851" fill="#ffbd11" stroke="none" /><path d="M 120.91429891909075 98.10471618934814 l 6.771961955315638 -0.6136849200593745 a27.799711604571968,27.799711604571968 0 0,0 0.03908575403781758,0.47694519984595085 l -6.78152219317295 0.49702580300565485" fill="#ff5407" stroke="none" /><path d="M 120.96714384426684 98.82574320788733 l 6.715117339889513 -0.37607755280197236 a27.725640134158706,27.725640134158706 0 0,0 0.02258503152914344,0.4767343197243958 l -6.7205959796521535 0.2604321264545768" fill="#ff5307" stroke="none" /><line stroke="#e1ed5e" stroke-width="0.3" x1="184.98032266829074" x2="189.97916517819016" y1="98.17113171792111" y2="98.06355123074" /><path d="M 185.9800911702706 98.14961562048488 a86.0,86.0 0 0,1 -9.607161424134198,41.387399972396054" fill="none" id="id100" stroke="none" /><text fill="#e1ed5e" style="font-size:6.75px; font-family:Arial;" text-anchor="middle"><textPath startOffset="21.466115282336823" xlink:href="#id100">April</textPath></text><path d="M 120.99980553446 99.90962569577887 l 27.87754207968646 -0.11997318092839783 a48.87780023547108,48.87780023547108 0 0,0 -0.0036209203004501245,0.8413743576845953 l -27.875476862096505 -0.3599106549598822" fill="#a3ff21" stroke="none" /><path d="M 120.9764740272857 100.99374915477107 l 20.790509222625992 0.9849391723494536 a41.81382662821339,41.81382662821339 0 0,0 -0.040248096167256636,0.7186567942080587 l -20.770474775571206 -1.3426676828929356" fill="#f5ff19" stroke="none" /><path d="M 120.89721153311464 102.0752229133903 l 9.598852788692522 0.9532257075442514 a30.646067287164932,30.646067287164932 0 0,0 -0.056648085720554534,0.5244909191796785 l -9.581022401470916 -1.1183129486087213" fill="#ff7b0b" stroke="none" /><path d="M 120.8583938346157 102.4346265915055 l 7.957943219584617 0.9288644336525269 a29.011969135127607,29.011969135127607 0 0,0 -0.06216642023132225,0.4955275353301122 l -7.940775290106448 -1.0657097232700339" fill="#ff6509" stroke="none" /><path d="M 120.49622156327973 104.57218783832717 l 16.67368467613125 3.719476687980848 a38.083508641713124,38.083508641713124 0 0,0 -0.1482344973215491,0.6385903348039987 l -16.607189612879147 -4.005935680133412" fill="#ffdc14" stroke="none" /><path d="M 120.41448212921028 104.9243191809786 l 14.73759202474093 3.554957046156352 a36.16028819936231,36.16028819936231 0 0,0 -0.15116496074923036,0.6038288757563443 l -14.67421574969664 -3.8081137613100924" fill="#ffc312" stroke="none" /><path d="M 120.23288151984713 105.62410040840565 l 3.4548151041661934 0.9603292056668918 a24.58580250254133,24.58580250254133 0 0,0 -0.11684971989608517,0.4067692042013679 l -3.4377727473840087 -1.0196558853728417" fill="#ff2703" stroke="none" /><path d="M 119.54520255179757 107.68017299344265 l 11.499301652659456 4.518583307701926 a33.35522292828013,33.35522292828013 0 0,0 -0.21458111516535847,0.532572730171248 l -11.419817923236705 -4.7158554057159865" fill="#ff9f0e" stroke="none" /><path d="M 119.26925614724726 108.34839909993367 l 6.285731592236437 2.723291214048644 a27.850309240184252,27.850309240184252 0 0,0 -0.19436719581619102,0.4382467151243789 l -6.237923311688973 -2.8310862656657108" fill="#ff5507" stroke="none" /><path d="M 119.12269723197855 108.67885076344098 l 3.6920363305464146 1.6756335122239074 a25.0544888621579,25.0544888621579 0 0,0 -0.18161567461543637,0.3911840058327438 l -3.662646039091147 -1.7389375853354818" fill="#ff2e04" stroke="none" /><path d="M 118.81262510543309 109.33194174019688 l 20.154815319330428 9.997730847785858 a43.498248879881416,43.498248879881416 0 0,0 -0.33850198542467397,0.6678965309345599 l -19.979734664119484 -10.343181590423113" fill="#e1ff1b" stroke="none" /><line stroke="#e1ed5e" stroke-width="0.3" x1="174.80103733775053" x2="179.2010983576182" y1="140.37084112569926" y2="142.7455964860345" /><path d="M 175.68104954172406 140.8457921977663 a86.0,86.0 0 0,1 -30.038265399797805,32.042727171017184" fill="none" id="id101" stroke="none" /><text fill="#e1ed5e" style="font-size:6.75px; font-family:Arial;" text-anchor="middle"><textPath startOffset="22.206326154141568" xlink:href="#id101">May</textPath></text><path d="M 118.30583269289576 110.29060199501025 l 12.202134730368384 6.859415471902767 a34.997988162383955,34.997988162383955 0 0,0 -0.2997294433184478,0.5226035486956773 l -12.082253290897556 -7.068438866456759" fill="#ffb510" stroke="none" /><path d="M 118.12598468904814 110.60418214915192 l 6.310401110584476 3.6917521425073234 a28.31096409908934,28.31096409908934 0 0,0 -0.249701522789155,0.4185141149993797 l -6.245918712097094 -3.799828351392807" fill="#ff5c08" stroke="none" /><path d="M 117.35343817320211 111.8261652097733 l 16.12303562231909 10.987660257841682 a40.511047014968824,40.511047014968824 0 0,0 -0.3976624038846535,0.5728623518594024 l -15.9315123112723 -11.263563871888104" fill="#fffa17" stroke="none" /><path d="M 116.0416608686014 113.55231037782055 l 7.043626342438584 5.950593966548749 a30.220750544647714,30.220750544647714 0 0,0 -0.3391307729637715,0.3944857049911745 l -6.940153059904034 -6.070956770701452" fill="#ff760a" stroke="none" /><path d="M 114.0293411484842 115.62618273729858 l 4.309887937486639 4.800446134686916 a27.451311271805398,27.451311271805398 0 0,0 -0.3543279925221161,0.3126532563914938 l -4.226617592057936 -4.873922532850698" fill="#ff5007" stroke="none" /><path d="M 112.34349029814194 116.9893568818739 l 11.200488328538622 15.416149635848948 a40.05540890121793,40.05540890121793 0 0,0 -0.5612958195936655,0.4004696639517543 l -10.933465181096071 -15.606663561644922" fill="#fff417" stroke="none" /><path d="M 112.04921762599082 117.19931262002967 l 9.003192597775412 12.851350923686464 a36.69122995549982,36.69122995549982 0 0,0 -0.5203919160459168,0.35793030504321455 l -8.780643797106611 -13.004422018094774" fill="#ffca12" stroke="none" /><path d="M 111.7513745106137 117.40417183066458 l 3.6405186049950666 5.391727690819422 a27.505697749301312,27.505697749301312 0 0,0 -0.39467441241312895,0.261568679609502 l -3.5471694938419733 -5.453594391520243" fill="#ff5007" stroke="none" /><line stroke="#e1ed5e" stroke-width="0.3" x1="143.8653032363475" x2="146.44561519142675" y1="172.8068346515853" y2="177.08958963109032" /><path d="M 144.38136562736335 173.6633856474863 a86.0,86.0 0 0,1 -40.68145358897372,12.25698825130547" fill="none" id="id102" stroke="none" /><text fill="#e1ed5e" style="font-size:6.75px; font-family:Arial;" text-anchor="middle"><textPath startOffset="21.466115282336833" xlink:href="#id102">June</textPath></text><path d="M 110.8373102113329 117.98757091392108 l 4.064755692129203 6.74660776836301 a28.876481144320277,28.876481144320277 0 0,0 -0.42796612875026574,0.2528499323785826 l -3.948021692350555 -6.815576273035341" fill="#ff6309" stroke="none" /><path d="M 110.5260780823613 118.17145234162733 l 3.6818097665246876 6.356007449294259 a28.345376358796102,28.345376358796102 0 0,0 -0.42430495287953557,0.24093142592404218 l -3.571856046723953 -6.418442041012929" fill="#ff5c08" stroke="none" /><path d="M 110.21172684928248 118.3499491758327 l 6.047446833171792 10.86695165960593 a33.436327897424206,33.436327897424206 0 0,0 -0.5053298918820167,0.2755461482607065 l -5.859494129421127 -10.969438459626405" fill="#ffa00e" stroke="none" /><path d="M 109.57404056367764 118.69057910512821 l 6.715729076823875 13.110542484558943 a35.73049019118925,35.73049019118925 0 0,0 -0.5498175372315363,0.27568992719273316 l -6.489057631909578 -13.224200252660978" fill="#ffbe11" stroke="none" /><path d="M 109.2508944713604 118.85261126421891 l 3.017679253028688 6.149798168552904 a27.850285073491207,27.850285073491207 0 0,0 -0.4321930999063329,0.20747895228646834 l -2.9113734851221222 -6.200831397338932" fill="#ff5507" stroke="none" /><path d="M 108.92500713936063 119.00905698771935 l 2.732946640398797 5.82080637253793 a27.430457539385923,27.430457539385923 0 0,0 -0.42913253297291226,0.19699369826626517 l -2.6323461116584657 -5.86698714113827" fill="#ff4f07" stroke="none" /><path d="M 108.2653958097858 119.30500536409082 l 3.543097195017612 8.275406517656256 a30.001993710607074,30.001993710607074 0 0,0 -0.47650100830786324,0.19917746011806287 l -3.4001247272122876 -8.335169020794293" fill="#ff730a" stroke="none" /><path d="M 107.59598834532513 119.57807347666477 l 2.7239178836200666 7.020688032352721 a28.530590221511588,28.530590221511588 0 0,0 -0.45938296062756073,0.17369932787194772 l -2.6026647022322313 -7.0665356103313" fill="#ff5f08" stroke="none" /><path d="M 107.2578585660854 119.70592522655815 l 6.668935804518779 18.106931832297303 a40.29600179167316,40.29600179167316 0 0,0 -0.6529495806921685,0.23412448880286738 l -6.356266663196876 -18.21904386214013" fill="#fff717" stroke="none" /><path d="M 106.57524785965236 119.94407469862006 l 4.317517632364254 13.095916079585555 a34.789270338539446,34.789270338539446 0 0,0 -0.5703430094009526,0.18260582077157664 l -4.091453277872361 -13.168294747016839" fill="#ffb210" stroke="none" /><path d="M 104.83641907484287 120.43548508189849 l 3.3603498873863478 14.198600024311189 a35.59082567972173,35.59082567972173 0 0,0 -0.5973832818368098,0.1359624900330718 l -3.1154464561566764 -14.254339247921944" fill="#ffbc11" stroke="none" /><path d="M 104.48393922423573 120.51570834832081 l 1.4314914258022722 6.54961165310777 a27.70422109634449,27.70422109634449 0 0,0 -0.46676142753976374,0.09781439537731096 l -1.3185385368331304 -6.573282029211622" fill="#ff5307" stroke="none" /><path d="M 103.7750983002368 120.6578951692458 l 3.2559147126736367 17.8168459375476 a39.11190160580912,39.11190160580912 0 0,0 -0.6633211421234715,0.11532688305610676 l -2.9487445990781156 -17.870251399124715" fill="#ffe815" stroke="none" /><path d="M 103.41894727170886 120.7198165907248 l 0.8735251076741407 5.29381665759207 a26.365402213994436,26.365402213994436 0 0,0 -0.4484179101131149,0.07003365537957022 l -0.7822713339525087 -5.308068620318746" fill="#ff4106" stroke="none" /><path d="M 101.62511606390274 120.93702456842531 l 0.6495532911557166 8.368456578275962 a29.393627641284873,29.393627641284873 0 0,0 -0.5047827011069095,0.03481277048145881 l -0.5054078292698768 -8.378397693273707" fill="#ff6a09" stroke="none" /><path d="M 101.26447882468166 120.96189622390904 l 0.4951677309716717 8.208642475819873 a29.22356384894225,29.22356384894225 0 0,0 -0.5023835825213643,0.02596749278659016 l -0.35379608003682783 -8.215949775368665" fill="#ff6809" stroke="none" /><line stroke="#e1ed5e" stroke-width="0.3" x1="102.19456741930631" x2="102.32365962044197" y1="184.97166512339345" y2="189.96999836594603" /><path d="M 102.22038585953345 185.97133177190398 a86.0,86.0 0 0,1 -42.740103519485714,-10.115201625700543" fill="none" id="id103" stroke="none" /><text fill="#e1ed5e" style="font-size:6.75px; font-family:Arial;" text-anchor="middle"><textPath startOffset="22.20632615414155" xlink:href="#id103">July</textPath></text><path d="M 100.54218724476979 120.99299961872073 l 0.7331681383942628 28.387607045798223 a49.397073252464054,49.397073252464054 0 0,0 -0.8501949273697716,0.014636876697927247 l -0.24441352113182316 -28.39602139977531" fill="#9dff22" stroke="none" /><path d="M 100.18074693466247 120.99922214144158 l 0.05143325683778005 5.975528092973339 a26.975749440013573,26.975749440013573 0 0,0 -0.4643603830004669,0.0 l 0.051433256837775936 -5.975528092973339" fill="#ff4906" stroke="none" /><path d="M 99.45781275523022 120.99299961872073 l -0.2095364651629173 8.113062370438097 a29.11576777371381,29.11576777371381 0 0,0 -0.5009016353338136,-0.01725206511368398 l 0.349158452171374 -8.108253506898318" fill="#ff6709" stroke="none" /><path d="M 98.37488393609728 120.93702456842531 l -0.49667327266174277 6.398841746248104 a27.41808850307504,27.41808850307504 0 0,0 -0.4702276367165611,-0.04057321911061139 l 0.6067452271198456 -6.389344274858829" fill="#ff4f07" stroke="none" /><path d="M 98.01472825383883 120.90594882070398 l -0.8807217858982673 9.274460595568945 a30.31618431563679,30.31618431563679 0 0,0 -0.5190815083428456,-0.05380492073596877 l 1.0402358908467062 -9.257926306377216" fill="#ff770a" stroke="none" /><path d="M 97.65516085044442 120.86867818915974 l -0.6675008180611062 5.94064619134247 a26.978029316825406,26.978029316825406 0 0,0 -0.46103213818687144,-0.055824571428318724 l 0.7696603792993669 -5.928276091188803" fill="#ff4906" stroke="none" /><path d="M 97.2962882734958 120.8252237178851 l -1.4814739905962366 11.410989930603744 a32.506756988011574,32.506756988011574 0 0,0 -0.5542733462211729,-0.07681723523601791 l 1.6776759280042406 -11.383798129875121" fill="#ff940d" stroke="none" /><path d="M 96.93821686468263 120.77559828337769 l -1.4359105985986595 9.743309845567486 a30.84854943602865,30.84854943602865 0 0,0 -0.524666453249959,-0.08194210968705543 l 1.6034129154571357 -9.717149428533325" fill="#ff7e0b" stroke="none" /><path d="M 96.22490169976321 120.6578951692458 l -1.2494247186035794 6.837036497078288 a27.950261159829765,27.950261159829765 0 0,0 -0.47253561394849825,-0.09056257505746723 l 1.3669279471237725 -6.8145167236723525" fill="#ff5708" stroke="none" /><path d="M 95.86986931433489 120.58985236759428 l -0.2635612862795543 1.3139264559216677 a22.340099728824764,22.340099728824764 0 0,0 -0.3763865731703449,-0.07887546594595121 l 0.28613932087928595 -1.3091950092491753" fill="#ff0701" stroke="none" /><path d="M 95.51606077576429 120.51570834832081 l -1.554688782372053 7.113285893607899 a28.28120137163055,28.28120137163055 0 0,0 -0.47469303021250975,-0.10803858820854327 l 1.6769019619774252 -7.085470571821669" fill="#ff5b08" stroke="none" /><path d="M 95.16358092515715 120.4354850818985 l -1.1426333410830218 4.828007299293155 a25.961377372684176,25.961377372684176 0 0,0 -0.4339836309629866,-0.10666261772141933 l 1.2255702567892188 -4.807623423257706" fill="#ff3b05" stroke="none" /><path d="M 94.46302465271185 120.25689768951611 l -5.74613760920634 21.02211304165953 a42.79328644698287,42.79328644698287 0 0,0 -0.7088785985369803,-0.20033617274348503 l 6.1071473758479335 -20.920088075577524" fill="#e9ff1a" stroke="none" /><path d="M 93.08242187328487 119.8279376855182 l -4.220442272861601 12.097104630947488 a33.81218456902055,33.81218456902055 0 0,0 -0.5478869057721472,-0.19645275152747582 l 4.428048739263475 -12.022664338380054" fill="#ffa50f" stroke="none" /><path d="M 92.7421414339146 119.70592522655815 l -6.481537933427558 17.59812494363793 a39.75378189897579,39.75378189897579 0 0,0 -0.6400922617830734,-0.24202812288872877 l 6.783500415970915 -17.483948570642568" fill="#fff016" stroke="none" /><path d="M 91.7346041902142 119.30500536409082 l -11.696763129044479 27.319450894458175 a50.71812014363772,50.71812014363772 0 0,0 -0.7996057618944331,-0.350523667767262 l 12.165289565596655 -27.11406267339646" fill="#8fff24" stroke="none" /><path d="M 90.42595943632237 118.69057910512821 l -1.6942171552013656 3.3074749944857906 a24.716148894773646,24.716148894773646 0 0,0 -0.3769908259764619,-0.19722378246410077 l 1.7508988837043231 -3.2778217930769733" fill="#ff2904" stroke="none" /><line stroke="#e1ed5e" stroke-width="0.3" x1="58.666819895761336" x2="56.23545636021788" y1="174.27360380694188" y2="178.64263932499728" /><path d="M 58.180547188652646 175.14741091055294 a86.0,86.0 0 0,1 -31.652253787137756,-30.449443065178592" fill="none" id="id104" stroke="none" /><text fill="#e1ed5e" style="font-size:6.75px; font-family:Arial;" text-anchor="middle"><textPath startOffset="22.20632615414155" xlink:href="#id104">August</textPath></text><path d="M 89.7882731507175 118.34994917583269 l -6.300603776828245 11.321861697660012 a33.95693483249504,33.95693483249504 0 0,0 -0.5083049683890963,-0.2886288269961102 l 6.494557512138549 -11.211729704869269" fill="#ffa70f" stroke="none" /><path d="M 88.8546689885994 117.79835938074946 l -7.831228458161334 12.505955933343975 a35.7555776901705,35.7555776901705 0 0,0 -0.5188273905009515,-0.3311401880860787 l 8.04533765070921 -12.369301316434091" fill="#ffbe11" stroke="none" /><path d="M 88.24862548938628 117.40417183066458 l -7.091611348519411 10.502909455778806 a33.672886749069335,33.672886749069335 0 0,0 -0.4775827377658765,-0.32848576186727096 l 7.271350970908178 -10.379282904546434" fill="#ffa30f" stroke="none" /><path d="M 87.65650970185807 116.9893568818739 l -9.14512198233835 12.58718055699401 a36.55861081350826,36.55861081350826 0 0,0 -0.505927703001138,-0.3742732196570981 l 9.360434655758054 -12.427897388597145" fill="#ffc912" stroke="none" /><path d="M 86.24171649860922 115.8653595955263 l -15.897215530112472 18.331868283374448 a45.2647657390266,45.2647657390266 0 0,0 -0.5842552808311929,-0.515537355136844 l 16.21041316385025 -18.055507786465313" fill="#ccff1d" stroke="none" /><path d="M 85.70375840098266 115.38237550388516 l -5.427922951260078 5.840300645743013 a28.973171213355585,28.973171213355585 0 0,0 -0.36239113532419265,-0.34266343776320957 l 5.527649920975088 -5.7460025712338725" fill="#ff6509" stroke="none" /><path d="M 85.44109423537348 115.13401014063109 l -3.346494177940743 3.4786870416849167 a25.827037063973908,25.827037063973908 0 0,0 -0.3177341074033232,-0.3109696982590848 l 3.40587823771986 -3.420567240503262" fill="#ff3905" stroke="none" /><path d="M 84.43433777217949 114.09645910891817 l -12.307318147022754 11.145661807428587 a37.60409157700619,37.60409157700619 0 0,0 -0.43037193464509044,-0.48352743091531775 l 12.497348931316182 -10.932160206772405" fill="#ffd614" stroke="none" /><path d="M 83.95833913139862 113.55231037782056 l -16.611887381471384 14.034048942884134 a42.746478613926335,42.746478613926335 0 0,0 -0.4700158524962377,-0.5661643725948079 l 16.85099923386116 -13.746023313175565" fill="#eaff1a" stroke="none" /><path d="M 83.72743513129214 113.27417163493432 l -2.3753444867859415 1.9376619890036622 a24.065419288536887,24.065419288536887 0 0,0 -0.25908382095369725,-0.3232469025983399 l 2.4083462197945 -1.8964872528270627" fill="#ff2003" stroke="none" /><path d="M 83.50135304334701 112.99209946851258 l -6.5424228127371755 5.15192598347415 a29.327402812391142,29.327402812391142 0 0,0 -0.30890578908574134,-0.3993023733127386 l 6.630135419040985 -5.038545616048159" fill="#ff6909" stroke="none" /><path d="M 83.28015986056508 112.70617746262583 l -10.28561634089971 7.816514120354075 a33.91866078608297,33.91866078608297 0 0,0 -0.3492632497038891,-0.46789519876290125 l 10.418640857298683 -7.638306042081866" fill="#ffa70f" stroke="none" /><path d="M 82.85270091963577 112.12312394758628 l -5.309760848833737 3.753995810113614 a27.502772086899412,27.502772086899412 0 0,0 -0.26997126135809674,-0.388913737394472 l 5.373593017353968 -3.6620408105321296" fill="#ff5007" stroke="none" /><path d="M 82.6465618267979 111.8261652097733 l -8.00504412625026 5.45534397297434 a30.687182734246385,30.687182734246385 0 0,0 -0.293715639679856,-0.4390650294600726 l 8.097762871340846 -5.316742029308447" fill="#ff7c0b" stroke="none" /><line stroke="#e1ed5e" stroke-width="0.3" x1="26.63291911575756" x2="22.317208475507996" y1="142.92168965132927" y2="145.44649492493687" /><path d="M 25.769776987707644 143.4266507060508 a86.0,86.0 0 0,1 -11.730757126820373,-40.83630448921669" fill="none" id="id105" stroke="none" /><text fill="#e1ed5e" style="font-size:6.75px; font-family:Arial;" text-anchor="middle"><textPath startOffset="21.46611528233685" xlink:href="#id105">September</textPath></text><path d="M 81.69416730710424 110.29060199501025 l -52.560513211889905 29.546829755903136 a81.29612506390089,81.29612506390089 0 0,0 -0.675236287205912,-1.225749996916606 l 53.06132590854734 -28.63770924058871" fill="#4aebff" stroke="none" /><path d="M 80.58989483394504 108.01547362559985 l -11.415769865073793 4.71418374535341 a33.35084329093691,33.35084329093691 0 0,0 -0.2145529400436721,-0.5325028018298419 l 11.495225419374853 -4.516981575680763" fill="#ff9f0e" stroke="none" /><path d="M 80.45479744820244 107.68017299344265 l -34.75548258022764 13.656963542809722 a58.34241854237806,58.34241854237806 0 0,0 -0.3592384980894861,-0.9378583597077629 l 34.98541535791064 -13.0566816162688" fill="#40ff2d" stroke="none" /><path d="M 80.0844068197444 106.66101706037122 l -6.804942849048967 2.2759975061804605 a28.175472934027578,28.175472934027578 0 0,0 -0.14987707895299116,-0.4612742184935385 l 6.843112179018207 -2.1585243877091185" fill="#ff5a08" stroke="none" /><path d="M 79.76711848015287 105.62410040840567 l -8.104661896023032 2.2528393810194878 a29.411945656357982,29.411945656357982 0 0,0 -0.13139005716924385,-0.488951281027757 l 8.142240029534051 -2.112997166816192" fill="#ff6b09" stroke="none" /><path d="M 79.67330655649465 105.27499134158121 l -5.082705246077152 1.319015620488581 a26.2510660656283,26.2510660656283 0 0,0 -0.10974031372643321,-0.43835800263598496 l 5.1046568740986435 -1.2313297784552042" fill="#ff3f05" stroke="none" /><path d="M 79.23777060512086 103.15116336523772 l -2.229695035875823 0.3384093865390607 a23.25522967032341,23.25522967032341 0 0,0 -0.0566607569004305,-0.39628520179337945 l 2.235189843792853 -0.2999787127652807" fill="#ff1402" stroke="none" /><path d="M 79.18660465613746 102.79330883721812 l -2.1420688245821835 0.2874811955849027 a23.161273764950156,23.161273764950156 0 0,0 -0.04962963634968232,-0.39559703274173563 l 2.146699970178714 -0.25056640855575846" fill="#ff1302" stroke="none" /><path d="M 79.1416061653843 102.43462659150553 l -0.84306843536609 0.09840435689707375 a21.848791967543846,21.848791967543846 0 0,0 -0.04038665805535031,-0.3739302950242613 l 0.8446373949224922 -0.08387773998803037" fill="#ff0000" stroke="none" /><path d="M 79.10278846688536 102.07522291339032 l -5.631671943200448 0.5592600064705873 a26.659372812482722,26.659372812482722 0 0,0 -0.041417752428914774,-0.457041446767435 l 5.640464291906438 -0.462237171154586" fill="#ff4506" stroke="none" /><path d="M 79.0235259727143 100.99374915477108 l -3.343653485465438 0.15840378228993546 a24.347403529470107,24.347403529470107 0 0,0 -0.016229129524939323,-0.41880172052268205 l 3.345884747841578 -0.10082481475325661" fill="#ff2403" stroke="none" /><line stroke="#e1ed5e" stroke-width="0.3" x1="15.007084014347285" x2="10.007500721073583" y1="101.09737516637583" y2="101.16192664675087" /><path d="M 14.007167355692545 101.11028546245083 a86.0,86.0 0 0,1 10.666146001902534,-42.60595125391555" fill="none" id="id106" stroke="none" /><text fill="#e1ed5e" style="font-size:6.75px; font-family:Arial;" text-anchor="middle"><textPath startOffset="22.20632615414155" xlink:href="#id106">October</textPath></text><path d="M 79.00175016825051 100.2711162175752 l -5.387153194662692 0.06955553959677031 a26.387602204678167,26.387602204678167 0 0,0 -0.001954822108254004,-0.4542318138058551 l 5.387552314060449 0.023185752412760132" fill="#ff4106" stroke="none" /><path d="M 79.03285615573316 98.82574320788736 l -6.578874246310029 -0.36844731097206024 a27.589183543484268,27.589183543484268 0 0,0 0.030636354995467758,-0.4739308518081868 l 6.571557300310148 0.48163722703325884" fill="#ff5207" stroke="none" /><path d="M 79.12142395522702 97.74499172005258 l -4.8634165818410775 -0.5252774249243334 a25.891700851612033,25.891700851612033 0 0,0 0.05167200203941603,-0.4426941579138481 l 4.8536542267980725 0.6089153211630431" fill="#ff3a05" stroke="none" /><path d="M 79.16333360222342 97.38593545837743 l -7.187149472279081 -0.9016640297524194 a28.243487803498454,28.243487803498454 0 0,0 0.06466951876921322,-0.48186303029114275 l 7.170563954452034 1.0252454021082216" fill="#ff5b08" stroke="none" /><path d="M 79.26566170972629 96.67025291283419 l -20.143344782093898 -3.2348388781433535 a41.40143430197635,41.40143430197635 0 0,0 0.11905502608995888,-0.7026695033015686 l 20.08467789448372 3.5810941697607497" fill="#faff18" stroke="none" /><path d="M 79.32604984820605 96.31383870115002 l -8.968943750541039 -1.599160929675454 a30.11039338773961,30.11039338773961 0 0,0 0.09537004852260902,-0.5094706127090418 l 8.940087978108567 1.7533096198470686" fill="#ff740a" stroke="none" /><path d="M 79.54389044137918 95.25157060432595 l -19.530082925032485 -4.533472975172532 a41.0493520163437,41.0493520163437 0 0,0 0.16569707721588248,-0.6869213585407282 l 19.449153047555786 4.868979565372657" fill="#feff18" stroke="none" /><path d="M 79.91906864156998 93.8553929516997 l -4.6634621528344296 -1.4269827381168085 a25.876900551149518,25.876900551149518 0 0,0 0.13399862057205017,-0.42481224563852477 l 4.6382080484941755 1.5070451501817477" fill="#ff3a05" stroke="none" /><path d="M 80.14247586403 93.16781622104843 l -15.563976161720136 -5.354944792713401 a37.459428534903665,37.459428534903665 0 0,0 0.21502946211941648,-0.6079172455903764 l 15.46949361879091 5.622059664730388" fill="#ffd413" stroke="none" /><path d="M 80.2630227832202 92.82701384747504 l -21.9527861625329 -7.978274961948889 a44.357604578945086,44.357604578945086 0 0,0 0.26698084208751677,-0.7153759222709544 l 21.812200731943754 8.354974021249184" fill="#d7ff1c" stroke="none" /><path d="M 80.38941819471856 92.48833698450439 l -9.209603819363972 -3.527658744864592 a30.862108229474217,30.862108229474217 0 0,0 0.19429379867551588,-0.49445652499148807 l 9.147516470806764 3.6856642747518435" fill="#ff7e0b" stroke="none" /><path d="M 80.52162464483688 92.15188598940014 l -18.936112775047263 -7.629628717302368 a41.415376592000285,41.415376592000285 0 0,0 0.27211541900652236,-0.658949071125713 l 18.801975669154544 7.954452358881393" fill="#f9ff18" stroke="none" /><path d="M 80.803312248108 91.48605970444005 l -12.362465017452399 -5.482888007810851 a34.52377913949834,34.52377913949834 0 0,0 0.24560821967190596,-0.5411651554438133 l 12.26625448081714 5.694875172096735" fill="#ffae10" stroke="none" /><path d="M 81.10775173730289 90.83032412892265 l -12.834870614792528 -6.229624010247928 a35.26681881175766,35.26681881175766 0 0,0 0.26977434843309944,-0.5438486245872459 l 12.725736253406016 6.449632223334135" fill="#ffb811" stroke="none" /><path d="M 81.26839172434947 90.50648371742162 l -19.802172750063157 -10.036097630630477 a43.200209487184814,43.200209487184814 0 0,0 0.3418793953465269,-0.6604021737835318 l 19.626483921556517 10.375472526674345" fill="#e4ff1a" stroke="none" /><path d="M 81.43458229118936 90.18545643968196 l -1.334614453372247 -0.7055392932331235 a22.50962956828687,22.50962956828687 0 0,0 0.184034337450822,-0.3409876773244626 l 1.3222720167029531 0.7284079538900589" fill="#ff0a01" stroke="none" /><line stroke="#e1ed5e" stroke-width="0.3" x1="26.266209847984243" x2="21.928928074336255" y1="57.711370442889674" y2="55.22380399835377" /><path d="M 25.398753493254645 57.213857153982495 a86.0,86.0 0 0,1 29.58750427330803,-30.492523968695096" fill="none" id="id107" stroke="none" /><text fill="#e1ed5e" style="font-size:6.75px; font-family:Arial;" text-anchor="middle"><textPath startOffset="21.46611528233685" xlink:href="#id107">November</textPath></text><path d="M 81.96595687620814 89.24020034530311 l -5.239775776611037 -3.12625056981755 a27.10153200552487,27.10153200552487 0 0,0 0.24247379552755155,-0.3985631656555232 l 5.185186182797268 3.2159815086801475" fill="#ff4b07" stroke="none" /><path d="M 82.34701348167596 88.62581576622439 l -50.63383274027043 -32.62442541675333 a81.23402818791868,81.23402818791868 0 0,0 0.7674811674244102,-1.1689264718437162 l 50.0647549374881 33.491169952574715" fill="#4aebff" stroke="none" /><path d="M 82.54541684631803 88.32363383020206 l -16.463780762879185 -11.01356194152944 a40.807943448224414,40.807943448224414 0 0,0 0.39559518535391003,-0.5804871206248896 l 16.271761111856534 11.295327085424745" fill="#fffd17" stroke="none" /><path d="M 83.84228863543731 86.58626213691792 l -46.357886818904426 -38.485186895900576 a81.25083634877403,81.25083634877403 0 0,0 0.9026170364506458,-1.0684138710887272 l 45.688559168966655 39.277459716618424" fill="#4aebff" stroke="none" /><path d="M 84.5562425177563 85.77008943001954 l -6.075237616475583 -5.597736695439817 a29.260942331726653,29.260942331726653 0 0,0 0.3444886254448015,-0.3674764468497151 l 5.977981669060325 5.701482559167582" fill="#ff6909" stroke="none" /><path d="M 85.57189188830299 84.74124197986013 l -6.745299879516762 -7.133637885024065 a30.81773191420806,30.81773191420806 0 0,0 0.38858535477171197,-0.3611477376984561 l 6.6215066409501935 7.248690208797169" fill="#ff7e0b" stroke="none" /><path d="M 85.83668400450813 84.49514656593479 l -21.67741315571788 -23.730679589162865 a53.141179114761826,53.141179114761826 0 0,0 0.6806853946697797,-0.6111260681611562 l 21.26571677345213 24.1003046660933" fill="#75ff27" stroke="none" /><path d="M 86.65592168130627 83.78471172551755 l -9.07323983976865 -11.025504802325672 a35.27884579845554,35.27884579845554 0 0,0 0.4722268407863288,-0.3818412640737028 l 8.88210960041782 11.18005216366351" fill="#ffb811" stroke="none" /><path d="M 86.93701828274178 83.55741782278169 l -4.2669952024304365 -5.370934506711123 a27.859605348192023,27.859605348192023 0 0,0 0.37805145477814667,-0.29507515700715314 l 4.173911192492864 5.4435880529414975" fill="#ff5507" stroke="none" /><path d="M 87.80319425747018 82.90503203632743 l -12.93605659600825 -18.131097416260705 a43.2728142310994,43.2728142310994 0 0,0 0.6100825141147413,-0.4274017889423898 l 12.622042942309848 18.351084047967035" fill="#e3ff1b" stroke="none" /><path d="M 88.09926311788651 82.69761687909137 l -2.2405631690739263 -3.257536297284264 a24.95369018041817,24.95369018041817 0 0,0 0.3560004016803293,-0.24037306036611247 l 2.1841580729870573 3.295621269949042" fill="#ff2d04" stroke="none" /><path d="M 89.00827224532344 82.1063720568725 l -2.6577927796750744 -4.3266678552152555 a26.077786642725936,26.077786642725936 0 0,0 0.38450818922241176,-0.2316618817150121 l 2.5829225242350136 4.371776346388887" fill="#ff3d05" stroke="none" /><line stroke="#e1ed5e" stroke-width="0.3" x1="56.762969772571076" x2="54.21961505331055" y1="26.818313649435495" y2="22.513508569990535" /><path d="M 56.25429882871897 25.957352633546506 a86.0,86.0 0 0,1 42.265352541879196,-11.944610805530505" fill="none" id="id108" stroke="none" /><text fill="#e1ed5e" style="font-size:6.75px; font-family:Arial;" text-anchor="middle"><textPath startOffset="22.20632615414155" xlink:href="#id108">December</textPath></text><path d="M 89.94658935756843 81.56283822128135 l -11.407892367232353 -20.921174376500073 a44.82930014822679,44.82930014822679 0 0,0 0.6806687815681661,-0.36358969006101427 l 11.046078539135882 21.11444279306284" fill="#d1ff1c" stroke="none" /><path d="M 90.91171255644093 81.06846463323043 l -6.585650220568997 -13.718367826518826 a36.217240375684,36.217240375684 0 0,0 0.56433667512016,-0.2649636358975824 l 6.348535334149228 13.829696445056417" fill="#ffc412" stroke="none" /><path d="M 91.23893434514133 80.91482961587045 l -4.1961333368073195 -9.140887974407677 a31.058000195910548,31.058000195910548 0 0,0 0.48778494425112967,-0.21885488589563917 l 4.0381662740894155 9.211763190819845" fill="#ff810b" stroke="none" /><path d="M 91.90106846888425 80.62456947434976 l -11.33866313446961 -27.12598309685938 a50.400412253029394,50.400412253029394 0 0,0 0.8033252838325892,-0.32769655357195343 l 10.87005398104864 27.31714053661491" fill="#92ff23" stroke="none" /><path d="M 92.23578459929587 80.48803036053334 l -1.275694669067897 -3.205902253796936 a24.4503921733027,24.4503921733027 0 0,0 0.39239018022681715,-0.15224129378079446 l 1.2203213238414035 3.227386251468282" fill="#ff2603" stroke="none" /><path d="M 92.91201910852362 80.23233633223022 l -3.2458050582641778 -9.05222286928988 a30.616547683630962,30.616547683630962 0 0,0 0.49761803323227544,-0.17360916080853006 l 3.089505020968617 9.10675288327062" fill="#ff7b0b" stroke="none" /><path d="M 93.59665428221793 80.00007090966166 l -3.006062864700637 -9.389004871024856 a30.858490067685857,30.858490067685857 0 0,0 0.5072762927345644,-0.15761321344709142 l 2.844001199255344 9.439358219354473" fill="#ff7e0b" stroke="none" /><path d="M 94.28887869178378 79.79150937346287 l -8.726490557527777 -30.8782099201189 a53.08762199542918,53.08762199542918 0 0,0 0.8815126593285377,-0.24095070912811295 l 8.193680008975516 31.023847170073307" fill="#76ff27" stroke="none" /><path d="M 94.63758080256005 79.69619591428918 l -0.9254346385341173 -3.503986335849631 a24.624134312083328,24.624134312083328 0 0,0 0.41074358920711934,-0.1047076864764063 l 0.8649821606419986 3.5193970184949004" fill="#ff2803" stroke="none" /><path d="M 95.692805502759 79.44645832069477 l -1.0490780412843115 -5.006105310589713 a26.114846538990143,26.114846538990143 0 0,0 0.4407608964299525,-0.08841248936061649 l 0.9627507353872226 5.02342175602754" fill="#ff3d05" stroke="none" /><path d="M 96.04723909329186 79.375362276772 l -2.011389541884004 -10.494988591706946 a31.685994264889874,31.685994264889874 0 0,0 0.5365568644428849,-0.09805233739177152 l 1.8304375563382262 10.528056410449453" fill="#ff890c" stroke="none" /><path d="M 97.83486435360386 79.11191278185805 l -0.7321146874936411 -7.063056520964006 a28.100898487795476,28.100898487795476 0 0,0 0.481562251045027,-0.04573013830736175 l 0.6104273093583776 7.074612203786549" fill="#ff5908" stroke="none" /><path d="M 99.27714615592234 79.0124445844662 l -2.1665913163507846 -62.90546240747536 a83.9427622418208,83.9427622418208 0 0,0 1.444508497255383,-0.037307392768923725 l 1.0834561839005226 62.93343659238665" fill="#4dd3ff" stroke="none" /></svg>