<?xml version="1.0" encoding="utf-8" ?>
<svg baseProfile="full" height="200mm" version="1.1" viewBox="0,0,200,200" width="200mm" xmlns="http://www.w3.org/2000/svg" xmlns:ev="http://www.w3.org/2001/xml-events" xmlns:xlink="http://www.w3.org/1999/xlink"><defs /><rect fill="#1a1a1a" height="200" width="200" x="0" y="0" /><text alignment-baseline="middle" fill="#e1ed5e" style="dominant-baseline: central; font-size:9.0px; font-family:Arial;" text-anchor="middle" x="100.0" y="100.0">2017</text><line stroke="#e1ed5e" stroke-width="0.3" x1="100.0" x2="100.0" y1="15.0" y2="10.0" /><path d="M 100.0 14.0 a86.0,86.0 0 0,1 42.46469731375804,11.215312516191453" fill="none" id="id25" stroke="none" /><text fill="#e1ed5e" style="font-size:6.75px; font-family:Arial;" text-anchor="middle"><textPath startOffset="22.20632615414155" xlink:href="#id25">January</textPath></text><line stroke="#e1ed5e" stroke-width="0.3" x1="143.23703022742887" x2="145.7803849466894" y1="26.81831364943548" y2="22.513508569990506" /><path d="M 143.74570117128098 25.957352633546492 a86.0,86.0 0 0,1 28.547481713284135,27.462654790039103" fill="none" id="id26" stroke="none" /><text fill="#e1ed5e" style="font-size:6.75px; font-family:Arial;" text-anchor="middle"><textPath startOffset="19.985693538727396" xlink:href="#id26">February</textPath></text><line stroke="#e1ed5e" stroke-width="0.3" x1="172.23445277983987" x2="176.4835382374775" y1="55.19839476539836" y2="52.563006222186495" /><path d="M 173.08426987136738 54.67131705675599 a86.0,86.0 0 0,1 12.851231095245387,41.99856678651699" fill="none" id="id27" stroke="none" /><text fill="#e1ed5e" style="font-size:6.75px; font-family:Arial;" text-anchor="middle"><textPath startOffset="22.20632615414155" xlink:href="#id27">March</textPath></text><line stroke="#e1ed5e" stroke-width="0.3" x1="184.98032266829074" x2="189.97916517819016" y1="98.17113171792111" y2="98.06355123074" /><path d="M 185.9800911702706 98.14961562048488 a86.0,86.0 0 0,1 -9.607161424134198,41.387399972396054" fill="none" id="id28" stroke="none" /><text fill="#e1ed5e" style="font-size:6.75px; font-family:Arial;" text-anchor="middle"><textPath startOffset="21.466115282336823" xlink:href="#id28">April</textPath></text><path d="M 120.49622156327973 104.57218783832717 l 12.146810670194304 2.709645768087518 a33.445368200501775,33.445368200501775 0 0,0 -0.1301812128073,0.5608172576149667 l -12.098368891456452 -2.9183316830510497" fill="#ff720a" stroke="none" /><path d="M 120.23288151984713 105.62410040840565 l 12.11167998071162 3.3666635303122923 a33.57088760913506,33.57088760913506 0 0,0 -0.15955341760289948,0.5554263781176112 l -12.051933926222622 -3.5746473839344852" fill="#ff740a" stroke="none" /><path d="M 120.13307415673323 105.97154293290107 l 23.922256848037858 7.095428284218073 a45.952344083071154,45.952344083071154 0 0,0 -0.2314537021226263,0.7564040903583223 l -23.7965763734091 -7.5061593471284525" fill="#e3ff1b" stroke="none" /><line stroke="#e1ed5e" stroke-width="0.3" x1="174.80103733775053" x2="179.2010983576182" y1="140.37084112569926" y2="142.7455964860345" /><path d="M 175.68104954172406 140.8457921977663 a86.0,86.0 0 0,1 -30.038265399797805,32.042727171017184" fill="none" id="id29" stroke="none" /><text fill="#e1ed5e" style="font-size:6.75px; font-family:Arial;" text-anchor="middle"><textPath startOffset="22.206326154141568" xlink:href="#id29">May</textPath></text><path d="M 118.30583269289576 110.29060199501023 l 20.98259665717475 11.795341662038389 a45.07071763371212,45.07071763371212 0 0,0 -0.38599421897156033,0.6730134563264693 l -20.77645044205081 -12.154774964223172" fill="#eeff19" stroke="none" /><path d="M 117.94076556474637 110.91462005526583 l 18.538542343806398 11.27828939801235 a42.6997088454758,42.6997088454758 0 0,0 -0.38741925766408586,0.6246432003316593 l -18.341658446474348 -11.595728929709283" fill="#fff116" stroke="none" /><path d="M 117.55443506779139 111.5257021239791 l 27.373900794610964 17.972861291840818 a53.74681950554821,53.74681950554821 0 0,0 -0.5144258959364607,0.768996916202883 l -27.060471793263783 -18.441395122249506" fill="#85ff25" stroke="none" /><path d="M 117.35343817320211 111.8261652097733 l 7.632986497788378 5.201791049465418 a30.236942838283575,30.236942838283575 0 0,0 -0.2968102841368628,0.4275773514561871 l -7.54231530648938 -5.332409663108624" fill="#ff4306" stroke="none" /><path d="M 116.93607887273984 112.41649034213515 l 8.162831992358798 5.984485863533195 a31.12155606546271,31.12155606546271 0 0,0 -0.3204612315273015,0.429310188656824 l -8.058609494136405 -6.124108931699333" fill="#ff5007" stroke="none" /><path d="M 116.498646956653 112.99209946851258 l 7.481752364397294 5.89161469861211 a30.523011193895908,30.523011193895908 0 0,0 -0.328605052432812,0.4099853282465493 l -7.379229399909629 -6.019527860436909" fill="#ff4706" stroke="none" /><path d="M 115.80600337817218 113.82643327865902 l 47.418010134516535 41.47929983597707 a84.0,84.0 0 0,0 -0.9613646014066655,1.080103321036534 l -46.69698668346154 -42.289377326754476" fill="#4dd2ff" stroke="none" /><path d="M 113.48314897796784 116.09983520530334 l 4.244325630027503 5.06802552673323 a27.61053574177827,27.61053574177827 0 0,0 -0.36699644249594193,0.3020130871835622 l -4.1564590589868695 -5.14033373277397" fill="#ff1b02" stroke="none" /><path d="M 112.04921762599082 117.19931262002967 l 2.9366650815614435 4.191858954323337 a26.118171870326652,26.118171870326652 0 0,0 -0.3704341751339555,0.25478800345628194 l -2.8640740218046044 -4.241787747144713" fill="#ff0400" stroke="none" /><path d="M 111.7513745106137 117.40417183066458 l 8.341207857662656 12.35360295078103 a35.905946947117414,35.905946947117414 0 0,0 -0.5152081086127153,0.3414518409490229 l -8.127325050309976 -12.49535281282137" fill="#ff950d" stroke="none" /><path d="M 111.45004920935366 117.60387380957326 l 6.849651491552129 10.530994085015418 a33.562625600341356,33.562625600341356 0 0,0 -0.4870067995956941,0.3108307814311926 l -6.667362889909505 -10.647339295270418" fill="#ff740a" stroke="none" /><path d="M 111.1453310114006 117.79835938074945 l 7.0397085113649025 11.24195072293755 a34.26419812811689,34.26419812811689 0 0,0 -0.5025755105285931,0.30872292670081963 l -6.845153800904001 -11.361462116466749" fill="#ff7e0b" stroke="none" /><line stroke="#e1ed5e" stroke-width="0.3" x1="143.8653032363475" x2="146.44561519142675" y1="172.8068346515853" y2="177.08958963109032" /><path d="M 144.38136562736335 173.6633856474863 a86.0,86.0 0 0,1 -40.68145358897372,12.25698825130547" fill="none" id="id30" stroke="none" /><text fill="#e1ed5e" style="font-size:6.75px; font-family:Arial;" text-anchor="middle"><textPath startOffset="21.466115282336833" xlink:href="#id30">June</textPath></text><path d="M 109.89434966115114 118.52300852407294 l 2.652158203773744 4.965050831847754 a26.629002833599966,26.629002833599966 0 0,0 -0.40616723163094265,0.21248749894043475 l -2.5663000696163056 -5.009967749732905" fill="#ff0c01" stroke="none" /><path d="M 108.59647513512805 119.15986991738527 l 5.136681751119487 11.448663854826608 a33.548203196995864,33.548203196995864 0 0,0 -0.5289103086145703,0.23185873605544777 l -4.938850767847162 -11.53538714417651" fill="#ff730a" stroke="none" /><path d="M 104.83641907484287 120.43548508189849 l 2.774375477569929 11.722662533189876 a33.04649227607751,33.04649227607751 0 0,0 -0.554677269550559,0.12624274067556002 l -2.572178058626508 -11.76868200744312" fill="#ff6c0a" stroke="none" /><path d="M 104.13013068566511 120.58985236759428 l 2.2508854421815685 11.221291159561044 a32.444818065896364,32.444818065896364 0 0,0 -0.5485219596534403,0.10512553906084877 l -2.0573958679564237 -11.258373896970362" fill="#ff6309" stroke="none" /><path d="M 102.70371172650421 120.8252237178851 l 1.4233893337416872 10.96359535014056 a32.05560763581239,32.05560763581239 0 0,0 -0.5478037389484688,0.06633140386675386 l -1.234458171741838 -10.986472282732665" fill="#ff5e08" stroke="none" /><line stroke="#e1ed5e" stroke-width="0.3" x1="102.19456741930631" x2="102.32365962044197" y1="184.97166512339345" y2="189.96999836594603" /><path d="M 102.22038585953345 185.97133177190398 a86.0,86.0 0 0,1 -42.740103519485714,-10.115201625700543" fill="none" id="id31" stroke="none" /><text fill="#e1ed5e" style="font-size:6.75px; font-family:Arial;" text-anchor="middle"><textPath startOffset="22.20632615414155" xlink:href="#id31">July</textPath></text><path d="M 99.09653310690486 120.98055641714683 l -0.36087743879480766 8.380395034035438 a29.388161506093986,29.388161506093986 0 0,0 -0.5052131881472067,-0.026113751076539696 l 0.5050786953555032 -8.372941476196697" fill="#ff3605" stroke="none" /><line stroke="#e1ed5e" stroke-width="0.3" x1="58.666819895761336" x2="56.23545636021788" y1="174.27360380694188" y2="178.64263932499728" /><path d="M 58.180547188652646 175.14741091055294 a86.0,86.0 0 0,1 -31.652253787137756,-30.449443065178592" fill="none" id="id32" stroke="none" /><text fill="#e1ed5e" style="font-size:6.75px; font-family:Arial;" text-anchor="middle"><textPath startOffset="22.20632615414155" xlink:href="#id32">August</textPath></text><path d="M 85.18274418774928 114.88116024355367 l -7.692123906165467 7.725298794279959 a31.901789378295,31.901789378295 0 0,0 -0.3857980233391346,-0.3908113607901453 l 7.823962554560135 -7.591746939509148" fill="#ff5b08" stroke="none" /><path d="M 84.67929136418377 114.36230785411682 l -5.376059210149214 5.039754965225179 a28.368930908927158,28.368930908927158 0 0,0 -0.33090816797441097,-0.35913546117931977 l 5.462013786119356 -4.946468249244518" fill="#ff2603" stroke="none" /><path d="M 82.6465618267979 111.8261652097733 l -10.019454294726923 6.828140949278455 a33.124890646407295,33.124890646407295 0 0,0 -0.31704762635890527,-0.4739431838197238 l 10.135505026496558 -6.654660851252909" fill="#ff6d0a" stroke="none" /><path d="M 82.44556493220864 111.52570212397912 l -7.491290025613009 4.918550612771996 a29.961672074911508,29.961672074911508 0 0,0 -0.2793499846361645,-0.43355737970487285 l 7.574844873626219 -4.788871633145675" fill="#ff3f05" stroke="none" /><path d="M 82.05923443525364 110.91462005526583 l -9.984812624645878 6.0744585133634486 a32.687409010548976,32.687409010548976 0 0,0 -0.28830158441083836,-0.4832100385487185 l 10.08789508475495 -5.901686380928618" fill="#ff6709" stroke="none" /><line stroke="#e1ed5e" stroke-width="0.3" x1="26.63291911575756" x2="22.317208475507996" y1="142.92168965132927" y2="145.44649492493687" /><path d="M 25.769776987707644 143.4266507060508 a86.0,86.0 0 0,1 -11.730757126820373,-40.83630448921669" fill="none" id="id33" stroke="none" /><text fill="#e1ed5e" style="font-size:6.75px; font-family:Arial;" text-anchor="middle"><textPath startOffset="21.46611528233685" xlink:href="#id33">September</textPath></text><path d="M 80.58989483394504 108.01547362559985 l -17.434645722643655 7.199700453242343 a39.86272933831461,39.86272933831461 0 0,0 -0.256445262960554,-0.6364761117451446 l 17.555993599861594 -6.898524973654394" fill="#ffcc13" stroke="none" /><path d="M 79.76711848015287 105.62410040840567 l -6.340530370978788 1.7624666765309966 a27.580928063061215,27.580928063061215 0 0,0 -0.12321047227976006,-0.4585120027737091 l 6.369928919600321 -1.6530637405817485" fill="#ff1a02" stroke="none" /><path d="M 79.35854240842038 103.8639653848113 l -12.314056611780002 2.305122508108855 a33.527951948164265,33.527951948164265 0 0,0 -0.10130799200913101,-0.5681890202223563 l 12.35191104612832 -2.0928147371532853" fill="#ff730a" stroke="none" /><path d="M 79.23777060512086 103.15116336523772 l -10.682400335265678 1.6213089620132441 a31.80473598350227,31.80473598350227 0 0,0 -0.07749140470297212,-0.5419747040078178 l 10.70872579098525 -1.4371887860250259" fill="#ff5a08" stroke="none" /><path d="M 79.07016306316243 101.71520430193888 l -12.483708819823267 1.0230424219993237 a33.525557939482916,33.525557939482916 0 0,0 -0.042183838736159676,-0.5755649643389475 l 12.499469217223762 -0.8080043211636154" fill="#ff730a" stroke="none" /><path d="M 79.04373962182676 101.35467743843564 l -8.594854663616507 0.5555979687846186 a29.612793727450345,29.612793727450345 0 0,0 -0.028503934364123122,-0.508956895931494 l 8.603144948868161 -0.4075693565176871" fill="#ff3905" stroke="none" /><line stroke="#e1ed5e" stroke-width="0.3" x1="15.007084014347285" x2="10.007500721073583" y1="101.09737516637583" y2="101.16192664675087" /><path d="M 14.007167355692545 101.11028546245083 a86.0,86.0 0 0,1 10.666146001902534,-42.60595125391555" fill="none" id="id34" stroke="none" /><text fill="#e1ed5e" style="font-size:6.75px; font-family:Arial;" text-anchor="middle"><textPath startOffset="22.20632615414155" xlink:href="#id34">October</textPath></text><path d="M 79.00175016825051 100.2711162175752 l -7.470017604581487 0.09644817708150802 a28.470640217787206,28.470640217787206 0 0,0 -0.002109135816971242,-0.4900888851525392 l 7.470571037687961 0.032150186274706526" fill="#ff2803" stroke="none" /><path d="M 79.05617556472873 98.46500227214037 l -18.69510078663921 -1.3701861051351167 a39.7452448206286,39.7452448206286 0 0,0 0.0558808985261676,-0.6818885031448625 l 18.668745404293546 1.6917885254877576" fill="#ffca12" stroke="none" /><path d="M 79.12142395522702 97.74499172005258 l -13.233528354851442 -1.4292984324752345 a34.31049085224633,34.31049085224633 0 0,0 0.06847335999482074,-0.5866379324593617 l 13.206964641853034 1.656880103259458" fill="#ff7e0b" stroke="none" /><path d="M 79.46518482838121 95.60439243477599 l -6.472608627088194 -1.3855029719130507 a27.61923567526013,27.61923567526013 0 0,0 0.10351375592174004,-0.4640318707893498 l 6.447800484164416 1.4967130122523598" fill="#ff1b02" stroke="none" /><path d="M 80.52162464483688 92.15188598940014 l -13.61718288449509 -5.4865563391239744 a35.68093900852965,35.68093900852965 0 0,0 0.23443789403396337,-0.5677099558501986 l 13.520723303574925 5.720140865427484" fill="#ff920d" stroke="none" /><path d="M 80.803312248108 91.48605970444005 l -11.784098752808971 -5.226376264233897 a33.891081889092995,33.891081889092995 0 0,0 0.24110710046837183,-0.5312475359247859 l 11.692389335377246 5.428445809000754" fill="#ff780b" stroke="none" /><line stroke="#e1ed5e" stroke-width="0.3" x1="26.266209847984243" x2="21.928928074336255" y1="57.711370442889674" y2="55.22380399835377" /><path d="M 25.398753493254645 57.213857153982495 a86.0,86.0 0 0,1 29.58750427330803,-30.492523968695096" fill="none" id="id35" stroke="none" /><text fill="#e1ed5e" style="font-size:6.75px; font-family:Arial;" text-anchor="middle"><textPath startOffset="21.46611528233685" xlink:href="#id35">November</textPath></text><path d="M 82.34701348167596 88.62581576622439 l -8.236806184429673 -5.307144541370211 a30.798508014124117,30.798508014124117 0 0,0 0.290977505521823,-0.4431787037289221 l 8.14423204354993 5.4481413090768" fill="#ff4b07" stroke="none" /><path d="M 82.7489923806493 88.02491185347247 l -4.003105983325344 -2.778825913707237 a25.87306176571014,25.87306176571014 0 0,0 0.25711340369230923,-0.3636686756436437 l 3.954679959829157 2.8473210896826666" fill="#ff0000" stroke="none" /><path d="M 84.80347519578584 85.50635884689758 l -9.49665256280532 -9.057404648385223 a34.12337566570534,34.12337566570534 0 0,0 0.40905109991150407,-0.42156311506559996 l 9.339337199190702 9.219531959000946" fill="#ff7c0b" stroke="none" /><path d="M 85.57189188830299 84.74124197986013 l -14.155667013409458 -14.970632039843062 a41.6034640841511,41.6034640841511 0 0,0 0.5245842522050984,-0.48754389116750496 l 13.895874877409504 15.212080517085218" fill="#ffe315" stroke="none" /><line stroke="#e1ed5e" stroke-width="0.3" x1="56.76296977257108" x2="54.21961505331056" y1="26.818313649435495" y2="22.513508569990535" /><path d="M 56.25429882871898 25.957352633546506 a86.0,86.0 0 0,1 42.26535254187918,-11.944610805530505" fill="none" id="id36" stroke="none" /><text fill="#e1ed5e" style="font-size:6.75px; font-family:Arial;" text-anchor="middle"><textPath startOffset="22.20632615414155" xlink:href="#id36">December</textPath></text><path d="M 96.04723909329186 79.375362276772 l -2.4361280886569068 -12.71118098508316 a33.94252070115721,33.94252070115721 0 0,0 0.5747679030189308,-0.10503516045273205 l 2.2169650645350827 12.751231626886629" fill="#ff790b" stroke="none" /><path d="M 98.91598698831166 79.02799685794201 l -0.9106999472516801 -17.618978692412092 a38.64249938522305,38.64249938522305 0 0,0 0.6645758529696767,-0.02861803420131974 l 0.6072832618926793 17.632044453137606" fill="#ffbb11" stroke="none" /></svg>