<?xml version="1.0" encoding="utf-8" ?>
<svg baseProfile="full" height="200mm" version="1.1" viewBox="0,0,200,200" width="200mm" xmlns="http://www.w3.org/2000/svg" xmlns:ev="http://www.w3.org/2001/xml-events" xmlns:xlink="http://www.w3.org/1999/xlink"><defs /><rect fill="#1a1a1a" height="200" width="200" x="0" y="0" /><text alignment-baseline="middle" fill="#e1ed5e" style="dominant-baseline: central; font-size:9.0px; font-family:Arial;" text-anchor="middle" x="100.0" y="100.0">2022</text><line stroke="#e1ed5e" stroke-width="0.3" x1="100.0" x2="100.0" y1="15.0" y2="10.0" /><path d="M 100.0 14.0 a86.0,86.0 0 0,1 42.46469731375804,11.215312516191453" fill="none" id="id85" stroke="none" /><text fill="#e1ed5e" style="font-size:6.75px; font-family:Arial;" text-anchor="middle"><textPath startOffset="22.20632615414155" xlink:href="#id85">January</textPath></text><path d="M 100.0 79.0 l 0.0 -11.369324919240555 a32.369324919240555,32.369324919240555 0 0,0 0.5571847183588224,0.004795864780407941 l -0.19570423908629409 11.367640431068706" fill="#ff8d0d" stroke="none" /><path d="M 100.72285384407766 79.0124445844662 l 0.3022227324168441 -8.774825500894897 a29.780028539312664,29.780028539312664 0 0,0 0.5121585866038149,0.022054626093365486 l -0.4532221514099905 8.768323148277336" fill="#ff6a09" stroke="none" /><path d="M 105.01212808612495 79.60689891045804 l 3.4411614396755965 -14.001228998717313 a35.417905726159844,35.417905726159844 0 0,0 0.5907894074888356,0.1506053744437892 l -3.681659735849457 13.939920628104657" fill="#ffb610" stroke="none" /><path d="M 105.36241919743992 79.69619591428918 l 1.1617334059274778 -4.398687720094326 a25.549514058155715,25.549514058155715 0 0,0 0.424246165780351,0.11596250309952676 l -1.2372774609315398 4.378038676168506" fill="#ff2f04" stroke="none" /><path d="M 106.40334571778207 80.00007090966166 l 3.830561630396228 -11.96420814377506 a33.56246309096418,33.56246309096418 0 0,0 0.5486938146182311,0.18089572390252756 l -4.035938267256877 11.896498695613296" fill="#ff9d0e" stroke="none" /><path d="M 109.41281617654863 81.2277094730956 l 1.3228878377844862 -2.6382789549497443 a23.951363765361503,23.951363765361503 0 0,0 0.36695714759294085,0.1879697036900432 l -1.3681054729661826 2.6151167259472006" fill="#ff1802" stroke="none" /><line stroke="#e1ed5e" stroke-width="0.3" x1="143.23703022742887" x2="145.7803849466894" y1="26.81831364943548" y2="22.513508569990506" /><path d="M 143.74570117128098 25.957352633546492 a86.0,86.0 0 0,1 28.547481713284135,27.462654790039103" fill="none" id="id86" stroke="none" /><text fill="#e1ed5e" style="font-size:6.75px; font-family:Arial;" text-anchor="middle"><textPath startOffset="19.985693538727396" xlink:href="#id86">February</textPath></text><path d="M 110.99172775467656 82.1063720568725 l 3.0310773666768167 -4.934344433983443 a26.790957174419773,26.790957174419773 0 0,0 0.3908683889455774,0.24476174929938566 l -3.1155649079946572 4.881438343361113" fill="#ff4106" stroke="none" /><path d="M 111.2981086023043 82.29822771554956 l 4.829824937991147 -7.567325136938578 a29.977283478858382,29.977283478858382 0 0,0 0.43257644626220076,0.2813597535456092 l -4.959368410037628 7.483066459233441" fill="#ff6d0a" stroke="none" /><path d="M 111.90073688211348 82.69761687909136 l 15.290864958444393 -22.231262348025002 a47.98220852273025,47.98220852273025 0 0,0 0.6764779903611607,0.4739160631083678 l -15.671274088389206 21.964761442152696" fill="#b0ff20" stroke="none" /><path d="M 112.19680574252982 82.90503203632743 l 5.248075968814289 -7.355671021713891 a30.035939218151455,30.035939218151455 0 0,0 0.41829290962196736,0.3039075880034603 l -5.3739141947900455 7.264244198893756" fill="#ff6e0a" stroke="none" /><path d="M 113.06298171725822 83.55741782278167 l 3.8071937649001386 -4.792175147980138 a27.120430296344608,27.120430296344608 0 0,0 0.36302194217957523,0.29353849742534777 l -3.889119105644205 4.72593055329066" fill="#ff4606" stroke="none" /><path d="M 113.34407831869373 83.78471172551755 l 4.570835148656456 -5.554329630003006 a28.193268491786096,28.193268491786096 0 0,0 0.3720738986184052,0.31160118982042156 l -4.665766584233978 5.474827282788765" fill="#ff5507" stroke="none" /><path d="M 114.16331599549186 84.49514656593476 l 10.82573964386045 -11.851144643445966 a37.05136343730743,37.05136343730743 0 0,0 0.4671861396595654,0.43419860102871916 l -11.028133667314862 11.663041456342606" fill="#ffcb12" stroke="none" /><path d="M 114.68862486808459 84.99185889309783 l 2.945431092065745 -3.009501968181458 a25.21101726600541,25.21101726600541 0 0,0 0.3075314316625758,0.3062107939618495 l -2.9967983238956433 2.95835532356949" fill="#ff2a04" stroke="none" /><path d="M 116.60985879189232 87.15038557335679 l 5.424578514659934 -4.196528291646716 a27.8583454101045,27.8583454101045 0 0,0 0.29015668603509476,0.3818121870377527 l -5.4960111409191414 4.10253132872793" fill="#ff5007" stroke="none" /><path d="M 116.82858285166822 87.43820079747576 l 4.600019764689716 -3.433713053618587 a26.740258458477868,26.740258458477868 0 0,0 0.2721615706488316,0.3712280765036814 l -4.658443947852174 3.3540225334434117" fill="#ff4006" stroke="none" /><line stroke="#e1ed5e" stroke-width="0.3" x1="172.23445277983987" x2="176.4835382374775" y1="55.19839476539836" y2="52.563006222186495" /><path d="M 173.08426987136738 54.67131705675599 a86.0,86.0 0 0,1 12.851231095245387,41.99856678651699" fill="none" id="id87" stroke="none" /><text fill="#e1ed5e" style="font-size:6.75px; font-family:Arial;" text-anchor="middle"><textPath startOffset="22.20632615414155" xlink:href="#id87">March</textPath></text><path d="M 118.21658344932153 89.55222093294921 l 7.692156862914038 -4.411691999018486 a29.867485748388845,29.867485748388845 0 0,0 0.25194270829210674,0.44817796552880274 l -7.7669572124985775 4.27863052355489" fill="#ff6c09" stroke="none" /><path d="M 118.56541770881063 90.18545643968196 l 9.13445219537819 -4.8288964125292155 a31.332301654161427,31.332301654161427 0 0,0 0.24795871296682437,0.47897730977872083 l -9.21622034150513 4.67094638049015" fill="#ff800b" stroke="none" /><path d="M 118.73160827565052 90.50648371742162 l 12.041142007552049 -6.1026675353942155 a34.49932042339869,34.49932042339869 0 0,0 0.2639033517109995,0.5320130534485722 l -12.144405372216456 5.894494893446693" fill="#ffaa0f" stroke="none" /><path d="M 118.89224826269711 90.83032412892265 l 6.541827478415644 -3.1751878732200622 a28.271679640055503,28.271679640055503 0 0,0 0.20872820354864063,0.4396348290019544 l -6.5955138758060405 3.0621106285775674" fill="#ff5607" stroke="none" /><path d="M 119.04729006885535 91.15688171328212 l 6.472483884457867 -3.00499128181628 a28.13603673185324,28.13603673185324 0 0,0 0.2001646998844303,0.441036383358923 l -6.523250901305644 2.8931328896152944" fill="#ff5407" stroke="none" /><path d="M 119.196687751892 91.48605970444005 l 11.675630119028673 -5.178269242653814 a33.77242385085086,33.77242385085086 0 0,0 0.23111481230942363,0.5334448514624309 l -11.763035641180776 4.97652524660478" fill="#ffa00e" stroke="none" /><path d="M 119.7369772167798 92.82701384747503 l 5.246750319346329 -1.9068202274880828 a26.582504123914152,26.582504123914152 0 0,0 0.15259233221420873,0.4313990714740119 l -5.278795732370348 1.8162235295874565" fill="#ff3e05" stroke="none" /><path d="M 119.97218684219823 93.5106431181261 l 7.853592452265197 -2.5517868739270537 a29.25775578811963,29.25775578811963 0 0,0 0.15150573805747786,0.48031459231860546 l -7.89635367409088 2.416222115182029" fill="#ff6309" stroke="none" /><path d="M 120.08093135843002 93.85539295169968 l 3.5506406462984965 -1.086468110059466 a24.713147176361744,24.713147176361744 0 0,0 0.12096979969240824,0.40785002725404534 l -3.5688163431026068 1.0251886960588907" fill="#ff2303" stroke="none" /><path d="M 120.18372546131832 94.20196356495316 l 17.172915595623092 -4.933142323513523 a38.86742631825958,38.86742631825958 0 0,0 0.17918481245926868,0.6446231072307883 l -17.25528717864872 4.636807912863782" fill="#ffe215" stroke="none" /><path d="M 120.28053869075195 94.5502522615342 l 4.78716270014176 -1.2863972449934005 a25.956989468372427,25.956989468372427 0 0,0 0.11223761225391134,0.43249730461782654 l -4.808596644265974 1.2038035148267234" fill="#ff3505" stroke="none" /><path d="M 120.37134235888165 94.90015583598534 l 28.250064904646887 -7.072235402994213 a50.12185915617556,50.12185915617556 0 0,0 0.20231855459002904,0.838741024960348 l -28.367616259497733 6.584909146374459" fill="#98ff23" stroke="none" /><path d="M 120.53481517161879 95.60439243477599 l 3.5140994694494556 -0.7522153028292416 a24.59370601788675,24.59370601788675 0 0,0 0.08504820224183397,0.4147252383854331 l -3.5265269676062867 0.6916144082803967" fill="#ff2203" stroke="none" /><path d="M 120.78858239683441 97.02765380044208 l 9.18590135647779 -1.3133978289254733 a30.279320965887894,30.279320965887894 0 0,0 0.06933099513580161,0.5165964436578325 l -9.207148350671428 1.1550830432029764" fill="#ff710a" stroke="none" /><path d="M 120.83666639777658 97.38593545837742 l 12.321631440921218 -1.545810602798298 a33.41821773788904,33.41821773788904 0 0,0 0.06669265279257776,0.5713819206101207 l -12.346414446717384 1.3334849438633247" fill="#ff9b0e" stroke="none" /><path d="M 120.87857604477298 97.74499172005257 l 19.23683550263131 -2.077690702919387 a40.34871155432046,40.34871155432046 0 0,0 0.06863675960661893,0.6911628024113219 l -19.269749387920157 1.7462523698036305" fill="#fff417" stroke="none" /><path d="M 120.98425023603335 99.18683210126433 l 5.843966273763024 -0.22646154719208514 a26.84835247238368,26.84835247238368 0 0,0 0.0139206221467548,0.46195767812990746 l -5.846998590365423 0.1258337216371786" fill="#ff4206" stroke="none" /><line stroke="#e1ed5e" stroke-width="0.3" x1="184.98032266829074" x2="189.97916517819016" y1="98.17113171792111" y2="98.06355123074" /><path d="M 185.9800911702706 98.14961562048488 a86.0,86.0 0 0,1 -9.607161424134198,41.387399972396054" fill="none" id="id88" stroke="none" /><text fill="#e1ed5e" style="font-size:6.75px; font-family:Arial;" text-anchor="middle"><textPath startOffset="21.466115282336823" xlink:href="#id88">April</textPath></text><path d="M 120.99513854157772 99.54816195383933 l 8.027982209851789 -0.1727708435516447 a29.02984110216873,29.02984110216873 0 0,0 0.006451526752270001,0.4996778567952424 l -8.029766743721774 0.034556728695939586" fill="#ff6008" stroke="none" /><path d="M 120.99824983174949 100.27111621757518 l 15.771136308434995 0.20362700973014003 a36.77245080570322,36.77245080570322 0 0,0 -0.013619705585019369,0.6328542009303877 l -15.765294540164968 -0.47507102645064253" fill="#ffc712" stroke="none" /><path d="M 120.9764740272857 100.99374915477107 l 30.794609539304094 1.4588780345725347 a51.82914695216131,51.82914695216131 0 0,0 -0.049888390013793756,0.8907907168210812 l -30.764934798402773 -1.9887404677290395" fill="#85ff25" stroke="none" /><path d="M 120.92983693683757 101.71520430193887 l 6.161320421640744 0.5049214346348747 a27.181975007494046,27.181975007494046 0 0,0 -0.042229662314568636,0.46600080470026023 l -6.1517161630491 -0.6109036278837056" fill="#ff4606" stroke="none" /><path d="M 120.8583938346157 102.4346265915055 l 7.719533275098758 0.9010368264490732 a28.77194064233473,28.77194064233473 0 0,0 -0.06165209071163495,0.4914278230048759 l -7.7028796751402755 -1.0337824037413441" fill="#ff5d08" stroke="none" /><path d="M 120.81339534386255 102.79330883721812 l 16.798047788694777 2.2544200290708316 a37.948652429581216,37.948652429581216 0 0,0 -0.0924608959143181,0.6466712906746324 l -16.75675284176386 -2.543236791725873" fill="#ffd614" stroke="none" /><path d="M 120.70491114924044 103.5080841355445 l 7.683367018548342 1.3018118141658428 a28.792871277085116,28.792871277085116 0 0,0 -0.08700048180003989,0.4879449047650803 l -7.659820094409113 -1.4338754696641414" fill="#ff5d08" stroke="none" /><path d="M 120.41448212921028 104.9243191809786 l 8.62983240749524 2.081661880222453 a29.87734890409442,29.87734890409442 0 0,0 -0.12489967583992156,0.4989121187274588 l -8.592721417360258 -2.229901838347308" fill="#ff6c09" stroke="none" /><path d="M 120.32669344350535 105.2749913415812 l 20.209226874954517 5.2445075280798585 a41.87864243899661,41.87864243899661 0 0,0 -0.18708171463795992,0.6962006562739518 l -20.11595708397478 -5.591599117529358" fill="#f7ff18" stroke="none" /><path d="M 119.79798401119884 107.00284435728193 l 8.8242219108027 3.1212598505238582 a30.35997624919971,30.35997624919971 0 0,0 -0.17851050015398567,0.4911842292146256 l -8.76918714964349 -3.2726918767446147" fill="#ff720a" stroke="none" /><path d="M 119.26925614724726 108.34839909993367 l 6.654728433385681 2.8831589781693046 a28.252448980552025,28.252448980552025 0 0,0 -0.19717372744165523,0.44457470303708985 l -6.604113621212753 -2.997282017699082" fill="#ff5507" stroke="none" /><path d="M 118.64920377521936 109.65438752849418 l 15.728415556484762 8.142343277586622 a38.71103638886025,38.71103638886025 0 0,0 -0.3114348810434682,0.5891174276349528 l -15.585928167216402 -8.411875720307709" fill="#ffe014" stroke="none" /><line stroke="#e1ed5e" stroke-width="0.3" x1="174.80103733775053" x2="179.2010983576182" y1="140.37084112569926" y2="142.7455964860345" /><path d="M 175.68104954172406 140.8457921977663 a86.0,86.0 0 0,1 -30.038265399797805,32.042727171017184" fill="none" id="id89" stroke="none" /><text fill="#e1ed5e" style="font-size:6.75px; font-family:Arial;" text-anchor="middle"><textPath startOffset="22.206326154141568" xlink:href="#id89">May</textPath></text><path d="M 118.12598468904814 110.60418214915192 l 8.171155120001503 4.780342626782917 a30.46675507365457,30.46675507365457 0 0,0 -0.26871550928851873,0.4503826500547733 l -8.087658735014756 -4.920287370723795" fill="#ff740a" stroke="none" /><path d="M 117.94076556474637 110.91462005526583 l 18.30058857743098 11.133525511469479 a42.421179533231566,42.421179533231566 0 0,0 -0.3848921299083007,0.6205686657343387 l -18.106231807854716 -11.446890508569092" fill="#f1ff19" stroke="none" /><path d="M 117.14729908036423 112.12312394758627 l 9.132060010051374 6.456357638587189 a32.18387562451061,32.18387562451061 0 0,0 -0.32370880436032895,0.44960321688437627 l -9.019571413315441 -6.612594460922697" fill="#ff8b0c" stroke="none" /><path d="M 115.80600337817218 113.82643327865902 l 4.968010804157923 4.345808884629636 a27.6005443875453,27.6005443875453 0 0,0 -0.3158831708778446,0.35489809113576126 l -4.89246878363174 -4.430681145506264" fill="#ff4c07" stroke="none" /><path d="M 115.56566222782051 114.09645910891815 l 5.6211573116900215 5.090590623726362 a28.583635171943396,28.583635171943396 0 0,0 -0.33341257656701684,0.361853502079885 l -5.5326983271272825 -5.1865953806075815" fill="#ff5a08" stroke="none" /><path d="M 114.29624159901734 115.38237550388516 l 13.666516878651263 14.704808463229112 a41.074986314683116,41.074986314683116 0 0,0 -0.5220443977633963,0.47687517980365984 l -13.411372931421004 -14.937876409619355" fill="#fffd17" stroke="none" /><path d="M 114.0293411484842 115.62618273729858 l 5.837657158565386 6.50210844201317 a29.73817230847782,29.73817230847782 0 0,0 -0.3838456673711651,0.33869917248457365 l -5.724869138287633 -6.6016307562700325" fill="#ff6a09" stroke="none" /><path d="M 113.75828350139079 115.86535959552629 l 14.01190809978982 16.157826708554214 a42.387120716464466,42.387120716464466 0 0,0 -0.5553409646474103,0.47327361793745565 l -13.731701658565363 -16.39662471671462" fill="#f1ff19" stroke="none" /><path d="M 112.92097659922987 116.55440617244103 l 4.940940876421626 6.33035293533273 a29.030334054705932,29.030334054705932 0 0,0 -0.39656994488248193,0.3040729231259233 l -4.83124220304565 -6.414465200286024" fill="#ff6008" stroke="none" /><path d="M 112.04921762599082 117.19931262002967 l 5.561389020108053 7.938446406023255 a30.69267657431537,30.69267657431537 0 0,0 -0.4353144004836353,0.2994132140612721 l -5.423917735001535 -8.03300040944962" fill="#ff770a" stroke="none" /><path d="M 111.7513745106137 117.40417183066458 l 7.821412501021971 11.58376894578142 a34.977059651457196,34.977059651457196 0 0,0 -0.5018796684126469,0.3326184775620477 l -7.62085813386936 -11.716685444434788" fill="#ffb010" stroke="none" /><path d="M 111.1453310114006 117.79835938074945 l 7.1461532770778735 11.411936001295027 a34.46476104344761,34.46476104344761 0 0,0 -0.5055172986068824,0.31053001321068135 l -6.948656778538683 -11.533254481334087" fill="#ffa90f" stroke="none" /><line stroke="#e1ed5e" stroke-width="0.3" x1="143.8653032363475" x2="146.44561519142675" y1="172.8068346515853" y2="177.08958963109032" /><path d="M 144.38136562736335 173.6633856474863 a86.0,86.0 0 0,1 -40.68145358897372,12.25698825130547" fill="none" id="id90" stroke="none" /><text fill="#e1ed5e" style="font-size:6.75px; font-family:Arial;" text-anchor="middle"><textPath startOffset="21.466115282336833" xlink:href="#id90">June</textPath></text><path d="M 110.21172684928248 118.3499491758327 l 5.555569708435799 9.983073705085985 a32.42480264102924,32.42480264102924 0 0,0 -0.49004250894875584,0.2672102481845044 l -5.382904387618394 -10.07722460503026" fill="#ff8e0d" stroke="none" /><path d="M 109.89434966115114 118.52300852407294 l 2.9253059891178115 5.476405183526403 a27.208738105615616,27.208738105615616 0 0,0 -0.41500982600012787,0.21711352638757309 l -2.830605260591188 -5.525948128858692" fill="#ff4706" stroke="none" /><path d="M 109.57404056367764 118.69057910512821 l 4.3869030594823935 8.564174980713547 a30.622370370837732,30.622370370837732 0 0,0 -0.47121425346797285,0.23627660893627872 l -4.2388348983316595 -8.638419430559129" fill="#ff760a" stroke="none" /><path d="M 108.59647513512805 119.15986991738527 l 2.580517803338074 5.751471929397702 a27.3038481491859,27.3038481491859 0 0,0 -0.430463791641886,0.18870267609107028 l -2.481133337038434 -5.7950391587832275" fill="#ff4806" stroke="none" /><path d="M 107.59598834532513 119.57807347666477 l 3.2120592780921573 8.27883478739058 a29.88011431474203,29.88011431474203 0 0,0 -0.4811122122334036,0.18191547153112744 l -3.069076845098479 -8.332898509028338" fill="#ff6c09" stroke="none" /><path d="M 107.2578585660854 119.70592522655815 l 1.6503114801071264 4.480786492517999 a25.77503670906362,25.77503670906362 0 0,0 -0.41765432457832774,0.14975598136467363 l -1.5729375948990636 -4.508530014922633" fill="#ff3304" stroke="none" /><path d="M 104.83641907484287 120.43548508189849 l 1.9097141271016687 8.06917968669721 a29.29208471154622,29.29208471154622 0 0,0 -0.49166045919511625,0.11190031980378141 l -1.7705335185136903 -8.100856740078674" fill="#ff6409" stroke="none" /><path d="M 103.06178313531738 120.77559828337769 l 0.4206604788162646 2.8543736559167217 a23.885204361224577,23.885204361224577 0 0,0 -0.4072670845435307,0.05644350689160731 l -0.3714648030859034 -2.861191728300932" fill="#ff1702" stroke="none" /><path d="M 101.98527174616119 120.90594882070398 l 1.4014076013801384 14.757554298574055 a35.823945228601175,35.823945228601175 0 0,0 -0.6143903540474523,0.05301218496699951 l -1.1471729295911446 -14.779490735819717" fill="#ffbb11" stroke="none" /><path d="M 101.62511606390274 120.93702456842531 l 0.5794122334573211 7.464801091196524 a28.487254093952522,28.487254093952522 0 0,0 -0.48921736521105486,0.03373929378580153 l -0.4508321074673359 -7.47366872949861" fill="#ff5908" stroke="none" /><path d="M 101.26447882468166 120.96189622390904 l 0.49003464008124836 8.123548667641602 a29.138315360320046,29.138315360320046 0 0,0 -0.5009180719717294,0.025891742630832038 l -0.3501284996960394 -8.130780217034635" fill="#ff6209" stroke="none" /><line stroke="#e1ed5e" stroke-width="0.3" x1="102.19456741930631" x2="102.32365962044197" y1="184.97166512339345" y2="189.96999836594603" /><path d="M 102.22038585953345 185.97133177190398 a86.0,86.0 0 0,1 -42.740103519485714,-10.115201625700543" fill="none" id="id91" stroke="none" /><text fill="#e1ed5e" style="font-size:6.75px; font-family:Arial;" text-anchor="middle"><textPath startOffset="22.20632615414155" xlink:href="#id91">July</textPath></text><path d="M 99.81925306533755 120.99922214144158 l -0.05287032063660961 6.1424865091671705 a27.142714040723767,27.142714040723767 0 0,0 -0.46716528476351593,-0.008042674039222654 l 0.15859529529279348 -6.140666357848788" fill="#ff4606" stroke="none" /><path d="M 98.73552117531835 120.96189622390904 l -0.4196174124423662 6.956207159559699 a27.968851901104976,27.968851901104976 0 0,0 -0.48031473970464156,-0.03312531660758694 l 0.5392949129259378 -6.947953498435827" fill="#ff5107" stroke="none" /><path d="M 97.65516085044442 120.86867818915974 l -1.8977207175632496 16.8893985565 a37.99567967226298,37.99567967226298 0 0,0 -0.6493146417570933,-0.07862296051805753 l 2.188162782371732 -16.854230067256594" fill="#ffd714" stroke="none" /><path d="M 96.93821686468263 120.77559828337769 l -1.1682930988768139 7.927402767208488 a29.013028353776615,29.013028353776615 0 0,0 -0.49344824838467766,-0.07706646812190825 l 1.3045772108700087 -7.906117991739474" fill="#ff6008" stroke="none" /><path d="M 95.16358092515715 120.4354850818985 l -2.6324799100301743 11.123106392836135 a32.430373847913486,32.430373847913486 0 0,0 -0.5421226768504627,-0.133240564190646 l 2.823555871623848 -11.07614457033146" fill="#ff8e0d" stroke="none" /><path d="M 94.81253420990036 120.34920634021253 l -2.118539221933627 8.310530326626525 a29.57631172151819,29.57631172151819 0 0,0 -0.4922477910979611,-0.13000711559952413 l 2.2612774558430777 -8.27283186172342" fill="#ff6809" stroke="none" /><path d="M 93.76903079525671 120.05430185196036 l -2.2742021329063364 7.319493091212401 a28.66465749095299,28.66465749095299 0 0,0 -0.46993474878162833,-0.1504582665096317 l 2.3998582267789055 -7.279261978043062" fill="#ff5b08" stroke="none" /><path d="M 92.40401165467489 119.57807347666478 l -3.4098180482008837 8.788542748465382 a30.4268416112418,30.4268416112418 0 0,0 -0.4866540390394625,-0.1936496855285366 l 3.5605931632822045 -8.728546218530779" fill="#ff730a" stroke="none" /><path d="M 91.7346041902142 119.30500536409082 l -3.026029685597761 7.0677219405753755 a28.688273478968437,28.688273478968437 0 0,0 -0.45229020136433457,-0.1982707326943335 l 3.1472405616198387 -7.01458665458659" fill="#ff5b08" stroke="none" /><path d="M 91.40352486487194 119.15986991738527 l -2.3895373924159853 5.325813764566458 a26.837309414841716,26.837309414841716 0 0,0 -0.4198530976318025,-0.19273396462872416 l 2.480858485815207 -5.28389272960366" fill="#ff4206" stroke="none" /><path d="M 91.07499286063937 119.00905698771935 l -2.538686738271338 5.407059078859662 a26.973375782365736,26.973375782365736 0 0,0 -0.4185848318448597,-0.20094615664387572 l 2.6313842381164396 -5.362558645716224" fill="#ff4306" stroke="none" /><line stroke="#e1ed5e" stroke-width="0.3" x1="58.666819895761336" x2="56.23545636021788" y1="174.27360380694188" y2="178.64263932499728" /><path d="M 58.180547188652646 175.14741091055294 a86.0,86.0 0 0,1 -31.652253787137756,-30.449443065178592" fill="none" id="id92" stroke="none" /><text fill="#e1ed5e" style="font-size:6.75px; font-family:Arial;" text-anchor="middle"><textPath startOffset="22.20632615414155" xlink:href="#id92">August</textPath></text><path d="M 89.1626897886671 117.98757091392108 l -5.466769675061222 9.073645146505658 a31.59323401633678,31.59323401633678 0 0,0 -0.46339872468751686,-0.28465734505147233 l 5.622147599681048 -8.978199334625808" fill="#ff830c" stroke="none" /><path d="M 88.8546689885994 117.79835938074946 l -3.7373098183250546 5.968237569230677 a28.041828197345158,28.041828197345158 0 0,0 -0.4068978740764183,-0.25970147494216317 l 3.8394894944483964 -5.90302166546471" fill="#ff5207" stroke="none" /><path d="M 88.24862548938628 117.40417183066458 l -4.859532896082635 7.197127915870694 a29.68410675921908,29.68410675921908 0 0,0 -0.42100984925488244,-0.2895744132902708 l 4.982699629960408 -7.112412713215322" fill="#ff6909" stroke="none" /><path d="M 87.95078237400918 117.19931262002967 l -5.211624771376453 7.439185388090575 a30.083089342068863,30.083089342068863 0 0,0 -0.42155386129767974,-0.3007674870866842 l 5.33890596052302 -7.3483736391596715" fill="#ff6f0a" stroke="none" /><path d="M 87.36589467227662 116.77436683061367 l -5.744381351097498 7.6268447585919485 a30.548124322530484,30.548124322530484 0 0,0 -0.41730377459730306,-0.3199707396153919 l 5.874813854188289 -7.52683467714919" fill="#ff750a" stroke="none" /><path d="M 87.07902340077011 116.55440617244103 l -5.264187689023422 6.74449802635286 a29.55569550958561,29.55569550958561 0 0,0 -0.39835800769121105,-0.3164796937188882 l 5.379503189431992 -6.652884418628841" fill="#ff6709" stroke="none" /><path d="M 86.79598089348748 116.32954008644616 l -0.805128718305467 0.995710591923754 a22.280496714525015,22.280496714525015 0 0,0 -0.2961501039945643,-0.24371137379109256 l 0.8221489508447201 -0.9817040992754807" fill="#ff0000" stroke="none" /><path d="M 85.97065885151581 115.62618273729859 l -9.311474298520697 10.371320891149939 a34.93800023816956,34.93800023816956 0 0,0 -0.44404609544259976,-0.4056255799555081 l 9.488619943430152 -10.209502544607854" fill="#ffaf10" stroke="none" /><path d="M 84.9287848128048 114.62390073753433 l -10.14250508176184 9.8414750040621 a35.132410961656326,35.132410961656326 0 0,0 -0.4173955413902549,-0.437637556422298 l 10.310407174531052 -9.665430331057303" fill="#ffb210" stroke="none" /><path d="M 84.43433777217949 114.09645910891817 l -7.159828262494002 6.484030351675903 a30.659492240788964,30.659492240788964 0 0,0 -0.35089226830233644,-0.3942311832210749 l 7.270379380444677 -6.359824998713965" fill="#ff760a" stroke="none" /><path d="M 84.19399662182784 113.82643327865904 l -7.145765169342369 6.250817678257601 a30.49392866532103,30.49392866532103 0 0,0 -0.3421963191712974,-0.3980516277951983 l 7.252303998084446 -6.126888951300872" fill="#ff740a" stroke="none" /><path d="M 83.95833913139862 113.55231037782056 l -4.16319641151692 3.5171501501530753 a26.450004544914542,26.450004544914542 0 0,0 -0.2908291358216624,-0.35032242921227785 l 4.223121547232119 -3.4449664638270363" fill="#ff3c05" stroke="none" /><path d="M 83.72743513129214 113.27417163493432 l -1.2595369272963826 1.0274538456823863 a22.62545214516784,22.62545214516784 0 0,0 -0.24358140293725578,-0.3039052525170908 l 1.277036242288499 -1.005620759587036" fill="#ff0500" stroke="none" /><path d="M 83.06392112726016 112.41649034213515 l -4.979521649071824 3.6506787036562085 a27.17438991730389,27.17438991730389 0 0,0 -0.2733228704951965,-0.3796215616240184 l 5.041624311942628 -3.564423536581052" fill="#ff4606" stroke="none" /><path d="M 82.85270091963577 112.12312394758628 l -9.770489755401204 6.907726854137007 a32.965749468870115,32.965749468870115 0 0,0 -0.32359665191586917,-0.4661651120635633 l 9.887947314479208 -6.73852047988643" fill="#ff950d" stroke="none" /><path d="M 82.6465618267979 111.8261652097733 l -14.523889744227539 9.89786103995281 a38.57586488536748,38.57586488536748 0 0,0 -0.36922043085971973,-0.5519344476493729 l 14.692113280497988 -9.646389678097616" fill="#ffde14" stroke="none" /><path d="M 82.24976979558568 111.22182372390057 l -6.931133025028015 4.381912353701582 a29.200107370404154,29.200107370404154 0 0,0 -0.2649358561692539,-0.42716095755792116 l 7.0055335208652245 -4.261955064778396" fill="#ff6209" stroke="none" /><path d="M 82.05923443525364 110.91462005526583 l -10.45800940292457 6.362337145278497 a33.2412946464763,33.2412946464763 0 0,0 -0.293186832622733,-0.491397995550806 l 10.565977111245536 -6.18137705584158" fill="#ff990e" stroke="none" /><line stroke="#e1ed5e" stroke-width="0.3" x1="26.63291911575756" x2="22.317208475507996" y1="142.92168965132927" y2="145.44649492493687" /><path d="M 25.769776987707644 143.4266507060508 a86.0,86.0 0 0,1 -11.730757126820373,-40.83630448921669" fill="none" id="id93" stroke="none" /><text fill="#e1ed5e" style="font-size:6.75px; font-family:Arial;" text-anchor="middle"><textPath startOffset="21.46611528233685" xlink:href="#id93">September</textPath></text><path d="M 81.51974371655577 109.97397251340807 l -9.932324563860709 5.3605713402872475 a32.28657593498488,32.28657593498488 0 0,0 -0.2597493343915452,-0.4913478515763231 l 10.023126406477141 -5.188808473624798" fill="#ff8c0c" stroke="none" /><path d="M 81.35079622478065 109.6543875284942 l -20.117368727929122 10.41443249234664 a43.65323219042055,43.65323219042055 0 0,0 -0.33970806060416614,-0.6702762316840897 l 20.293655458319556 -10.066602048959865" fill="#e2ff1b" stroke="none" /><path d="M 80.73074385275274 108.34839909993369 l -2.842878516489933 1.2316762134938903 a24.098222805804426,24.098222805804426 0 0,0 -0.16162909700984446,-0.38204344086785846 l 2.8636585946920836 -1.182558246959873" fill="#ff1a02" stroke="none" /><path d="M 80.45479744820244 107.68017299344265 l -10.27887415258897 4.039023461665233 a32.04395601080717,32.04395601080717 0 0,0 -0.19730794365006313,-0.5151087797468322 l 10.346876375832544 -3.861491115085243" fill="#ff890c" stroke="none" /><path d="M 80.32549172779594 107.34259656027581 l -9.228700738502498 3.4441839847188263 a30.850447738119836,30.850447738119836 0 0,0 -0.18139437298971667,-0.49911940868446975 l 9.286619372497439 -3.2848167790282394" fill="#ff790b" stroke="none" /><path d="M 80.20201598880116 107.00284435728193 l -24.827669938136122 8.781919827412096 a47.335058580001714,47.335058580001714 0 0,0 -0.2650969955641717,-0.7704959582624653 l 24.975157764643523 -8.353251166060334" fill="#b7ff1f" stroke="none" /><path d="M 79.86692584326677 105.97154293290107 l -10.197127441455734 3.024505042542246 a31.636213556038307,31.636213556038307 0 0,0 -0.15035843113982247,-0.5234174239707463 l 10.247678509481661 -2.848530143066904" fill="#ff840c" stroke="none" /><path d="M 79.76711848015287 105.62410040840567 l -6.235964782496223 1.7334007538984195 a27.472397928291244,27.472397928291244 0 0,0 -0.12272564272177332,-0.45670777162742926 l 6.264878501559772 -1.6258020490954515" fill="#ff4a06" stroke="none" /><path d="M 79.67330655649465 105.27499134158121 l -8.657740657190768 2.2467750168647793 a29.944521857739616,29.944521857739616 0 0,0 -0.12518048656923111,-0.5000338180031227 l 8.695132458055056 -2.0974133594642645" fill="#ff6d0a" stroke="none" /><path d="M 79.58551787078972 104.9243191809786 l -24.240435643150263 5.847204030811231 a45.93568758120868,45.93568758120868 0 0,0 -0.17879795745137253,-0.7702569211232113 l 24.337494166532192 -5.4290784523394455" fill="#c7ff1e" stroke="none" /><path d="M 79.4281124754447 104.21870165774334 l -5.863125022031805 1.2023580831111285 a26.985139930193622,26.985139930193622 0 0,0 -0.08939799969545666,-0.45583847444698067 l 5.882952954702928 -1.1012558815961928" fill="#ff4406" stroke="none" /><path d="M 79.35854240842038 103.8639653848113 l -8.601879794608815 1.6102237752936035 a29.75129456751515,29.75129456751515 0 0,0 -0.08989645168207638,-0.5041870418091164 l 8.62832268863008 -1.4619179827512734" fill="#ff6a09" stroke="none" /><path d="M 79.18660465613746 102.79330883721812 l -10.743386604333077 1.4418405189417414 a31.839707551969546,31.839707551969546 0 0,0 -0.06822565646954103,-0.5438256098844092 l 10.766613770049467 -1.2566971547699235" fill="#ff860c" stroke="none" /><path d="M 79.1416061653843 102.43462659150553 l -3.370896751385714 0.3934567030047872 a24.393781531808163,24.393781531808163 0 0,0 -0.045090974130997045,-0.4174864193176632 l 3.377170027017763 -0.33537396180234186" fill="#ff1f03" stroke="none" /><path d="M 79.07016306316243 101.71520430193888 l -6.445078502649501 0.5281754658404204 a27.466684330321876,27.466684330321876 0 0,0 -0.03456020581368951,-0.4715465501164056 l 6.453215267127526 -0.41715577922725416" fill="#ff4a06" stroke="none" /><path d="M 79.04373962182676 101.35467743843564 l -6.360387771995042 0.41115512304847124 a27.37366308690325,27.37366308690325 0 0,0 -0.026348648598170953,-0.47047282074133223 l 6.366522771480745 -0.3016105859717014" fill="#ff4906" stroke="none" /><path d="M 79.0235259727143 100.99374915477108 l -6.76419612149813 0.32045014665958005 a27.771782443831498,27.771782443831498 0 0,0 -0.018511701006385977,-0.4777047480804365 l 6.768709955355717 -0.2039681515651468" fill="#ff4f07" stroke="none" /><path d="M 79.0095281055655 100.63252640178507 l -39.23906685860238 1.1824291466289796 a60.25687846251489,60.25687846251489 0 0,0 -0.02231782016564596,-1.0370214069071106 l 39.253606741453034 -0.5068179239317401" fill="#2fff30" stroke="none" /><line stroke="#e1ed5e" stroke-width="0.3" x1="15.007084014347285" x2="10.007500721073583" y1="101.09737516637583" y2="101.16192664675087" /><path d="M 14.007167355692545 101.11028546245083 a86.0,86.0 0 0,1 10.666146001902534,-42.60595125391555" fill="none" id="id94" stroke="none" /><text fill="#e1ed5e" style="font-size:6.75px; font-family:Arial;" text-anchor="middle"><textPath startOffset="22.20632615414155" xlink:href="#id94">October</textPath></text><path d="M 79.00486145842228 99.54816195383935 l -10.126362859843328 -0.21793026039072438 a31.128707635607235,31.128707635607235 0 0,0 0.016139946663685054,-0.535606254324972 l 10.121111218723998 0.39220666214069083" fill="#ff7d0b" stroke="none" /><path d="M 79.01574976396665 99.18683210126434 l -18.709830781856418 -0.7250310881470778 a39.72387347651339,39.72387347651339 0 0,0 0.03235867343676971,-0.6830404530610391 l 18.694578500186147 1.046982647831126" fill="#ffec16" stroke="none" /><path d="M 79.05617556472873 98.46500227214037 l -12.178288573503178 -0.8925612104570808 a33.21095320169276,33.21095320169276 0 0,0 0.046693835053643086,-0.5697830588016036 l 12.161120254630037 1.1020581864664627" fill="#ff990e" stroke="none" /><path d="M 79.08570108090925 98.10471618934814 l -18.008511179808917 -1.6319571516633273 a39.08230513673983,39.08230513673983 0 0,0 0.06648248925945456,-0.6694695940076788 l 17.977751564867233 1.9417022763754366" fill="#ffe415" stroke="none" /><path d="M 79.16333360222342 97.38593545837743 l -12.29754491258076 -1.54278882673951 a33.39394240106243,33.39394240106243 0 0,0 0.07646258847025371,-0.5697350975452341 l 12.269166325052673 1.7542422663494035" fill="#ff9b0e" stroke="none" /><path d="M 79.26566170972629 96.67025291283419 l -10.039193223137383 -1.6122035786363724 a31.16782183903984,31.16782183903984 0 0,0 0.08962698768233118,-0.528983554794005 l 10.009954373934828 1.7847729217462054" fill="#ff7d0b" stroke="none" /><path d="M 79.32604984820605 96.31383870115002 l -8.767807600849522 -1.5632983932298865 a29.9060851102934,29.9060851102934 0 0,0 0.09472293341910627,-0.5060136979503514 l 8.739598943520555 1.7139901686428105" fill="#ff6c0a" stroke="none" /><path d="M 79.54389044137918 95.25157060432595 l -12.160674229874571 -2.8228291806355306 a33.48400425777655,33.48400425777655 0 0,0 0.13515929890412728,-0.5603225523505865 l 12.11028213070963 3.0317369646455137" fill="#ff9c0e" stroke="none" /><path d="M 79.62865764111835 94.90015583598534 l -5.762355800835306 -1.442571436096527 a26.940181539621655,26.940181539621655 0 0,0 0.11648891923226082,-0.4488793246226729 l 5.736670549732738 1.5415471862680636" fill="#ff4306" stroke="none" /><path d="M 79.81627453868168 94.20196356495316 l -5.78856809070966 -1.662841122220259 a27.022670598540884,27.022670598540884 0 0,0 0.1322748181820411,-0.4459649295753609 l 5.759087375415912 1.762235438542159" fill="#ff4406" stroke="none" /><path d="M 79.91906864156998 93.8553929516997 l -12.456000253806135 -3.8114381044899632 a34.02608931134654,34.02608931134654 0 0,0 0.17619764863915569,-0.558594696535556 l 12.388547121398776 4.0252829674519335" fill="#ffa30f" stroke="none" /><path d="M 80.2630227832202 92.82701384747504 l -12.30022965265445 -4.470257831394626 a34.08735475897191,34.08735475897191 0 0,0 0.20516596341196466,-0.549742779844598 l 12.221459100740857 4.681323748268565" fill="#ffa40f" stroke="none" /><path d="M 80.38941819471856 92.48833698450439 l -6.8022713939019415 -2.6055509703019615 a28.2842152614498,28.2842152614498 0 0,0 0.17806455686182732,-0.45315487478367716 l 6.7564132871584235 2.7222548499814017" fill="#ff5607" stroke="none" /><path d="M 80.65960295795068 91.81776055985345 l -12.174396620387306 -5.150557559430776 a34.21908378986635,34.21908378986635 0 0,0 0.23417144006073923,-0.540499969741024 l 12.083934470483886 5.359356673758399" fill="#ffa60f" stroke="none" /><path d="M 81.10775173730289 90.83032412892265 l -5.880521407141873 -2.8542116590164093 a27.536593624688553,27.536593624688553 0 0,0 0.21064181157986217,-0.42464103860742924 l 5.830519582608598 2.9550122861228" fill="#ff4b07" stroke="none" /><line stroke="#e1ed5e" stroke-width="0.3" x1="26.266209847984243" x2="21.928928074336255" y1="57.711370442889674" y2="55.22380399835377" /><path d="M 25.398753493254645 57.213857153982495 a86.0,86.0 0 0,1 29.58750427330803,-30.492523968695096" fill="none" id="id95" stroke="none" /><text fill="#e1ed5e" style="font-size:6.75px; font-family:Arial;" text-anchor="middle"><textPath startOffset="21.46611528233685" xlink:href="#id95">November</textPath></text><path d="M 81.96595687620814 89.24020034530311 l -7.936803792355006 -4.735400604189217 a30.24212493534341,30.24212493534341 0 0,0 0.27057226198121376,-0.4447496565110459 l 7.854115732087576 4.871318033907338" fill="#ff710a" stroke="none" /><path d="M 82.54541684631803 88.32363383020206 l -52.36374946104589 -35.02909850939381 a84.0,84.0 0 0,0 0.8143021373250385,-1.194887906918337 l 51.75302285805211 35.92526443958256" fill="#4dd2ff" stroke="none" /><path d="M 83.39014120810768 87.1503855733568 l -5.6261235019222 -4.352446256295936 a28.113160624703045,28.113160624703045 0 0,0 0.2993996978724326,-0.3802072117826359 l 5.550369723455796 4.44864586203162" fill="#ff5307" stroke="none" /><path d="M 83.84228863543731 86.58626213691792 l -5.452327441834037 -4.526389251441497 a28.08633009311178,28.08633009311178 0 0,0 0.3120115579438176,-0.3693232710940599 l 5.373605270403096 4.619571472164672" fill="#ff5307" stroke="none" /><path d="M 84.31358615837235 86.03803664274999 l -15.6253034068452 -13.907570960122637 a41.91818913211215,41.91818913211215 0 0,0 0.48436738889363823,-0.5348505686027161 l 15.383592377335518 14.174474315994908" fill="#f7ff18" stroke="none" /><path d="M 84.80347519578584 85.50635884689758 l -5.752406936912362 -5.486341317134855 a28.949221761653053,28.949221761653053 0 0,0 0.3470263645424495,-0.3576411731396346 l 5.657116308666794 5.584546685824613" fill="#ff5f08" stroke="none" /><path d="M 85.05521093208273 85.24692304244772 l -4.694048167947027 -4.633832806168258 a27.595945321068697,27.595945321068697 0 0,0 0.3366234881808638,-0.33517791994402296 l 4.613588879598851 4.713946576762391" fill="#ff4c07" stroke="none" /><path d="M 85.31137513191541 84.99185889309783 l -9.479464422623112 -9.685667715683088 a34.55257926884779,34.55257926884779 0 0,0 0.4286440893307003,-0.41235527432186236 l 9.311337089679984 9.847406076767264" fill="#ffaa0f" stroke="none" /><path d="M 85.83668400450813 84.49514656593479 l -7.262589804127597 -7.950496232702614 a31.768268245601824,31.768268245601824 0 0,0 0.40691976672241414,-0.36533658433315647 l 7.124659049809211 8.074331825805048" fill="#ff850c" stroke="none" /><path d="M 86.10567301691215 84.25364557470407 l -11.056460429767363 -12.530217896000991 a37.71082516682749,37.71082516682749 0 0,0 0.49043143862894806,-0.4252973107873745 l 10.839135192491641 12.718680200208047" fill="#ffd313" stroke="none" /><path d="M 86.65592168130627 83.78471172551755 l -4.183331259215315 -5.083447555969556 a27.583441309727068,27.583441309727068 0 0,0 0.369219600383802,-0.298549906008265 l 4.095208260267012 5.1547035592419554" fill="#ff4c07" stroke="none" /><path d="M 88.09926311788651 82.69761687909137 l -14.879363407714955 -21.632983640067813 a47.256074279874525,47.256074279874525 0 0,0 0.6741760959536323,-0.4552067094451447 l 14.504782617354783 21.885902261811623" fill="#b8ff1f" stroke="none" /><path d="M 88.70189139769569 82.29822771554957 l -3.3816448889076165 -5.29833000172341 a27.285524875604057,27.285524875604057 0 0,0 0.39808391615980193,-0.2492801117789804 l 3.2899418203755726 5.355754454825321" fill="#ff4806" stroke="none" /><line stroke="#e1ed5e" stroke-width="0.3" x1="56.762969772571076" x2="54.21961505331055" y1="26.818313649435495" y2="22.513508569990535" /><path d="M 56.25429882871897 25.957352633546506 a86.0,86.0 0 0,1 42.265352541879196,-11.944610805530505" fill="none" id="id96" stroke="none" /><text fill="#e1ed5e" style="font-size:6.75px; font-family:Arial;" text-anchor="middle"><textPath startOffset="22.20632615414155" xlink:href="#id96">December</textPath></text><path d="M 89.3179101791058 81.91981866633112 l -13.063054244980178 -22.110129523421627 a46.680755708307636,46.680755708307636 0 0,0 0.6953282341212755,-0.40277899353505553 l 12.680529278393582 22.33171267434673" fill="#bfff1e" stroke="none" /><path d="M 89.94658935756843 81.56283822128135 l -9.865889682520306 -18.093263135984163 a41.6082980892558,41.6082980892558 0 0,0 0.6317624738707648,-0.3374656342217558 l 9.552982162121236 18.260407496707668" fill="#fbff18" stroke="none" /><path d="M 90.26544431104013 81.39251694778311 l -2.9838305245052923 -5.7035552201306565 a27.43690816681807,27.43690816681807 0 0,0 0.4203589264601863,-0.21532416896218992 l 2.8852111104563423 5.754071914405351" fill="#ff4a06" stroke="none" /><path d="M 90.58718382345135 81.22770947309562 l -4.426620788341893 -8.82815620029007 a30.87579432250898,30.87579432250898 0 0,0 0.47714678150145345,-0.23413385345704182 l 4.274002739830013 8.903045213881942" fill="#ff790b" stroke="none" /><path d="M 91.23893434514133 80.91482961587045 l -3.236388467154857 -7.050172634036571 a28.757521800166025,28.757521800166025 0 0,0 0.45165451991791955,-0.20264421767391821 l 3.114551828770163 7.104837182227018" fill="#ff5c08" stroke="none" /><path d="M 91.56875222667455 80.76684994638697 l -7.680283998867447 -17.520070406650923 a40.12954859261621,40.12954859261621 0 0,0 0.635033370946164,-0.2718881483998926 l 7.377566870130974 17.6496780830136" fill="#fff116" stroke="none" /><path d="M 92.23578459929587 80.48803036053334 l -12.809560055382894 -32.191243286847616 a55.64622595847162,55.64622595847162 0 0,0 0.893034045344617,-0.3464833354773883 l 12.253542845038602 32.40696932621555" fill="#5dff2a" stroke="none" /><path d="M 92.91201910852362 80.23233633223022 l -2.9937454919609277 -8.349254166747468 a29.869755194569144,29.869755194569144 0 0,0 0.48548023724431494,-0.1693745221202023 l 2.8495832506533274 8.39954954203988" fill="#ff6c09" stroke="none" /><path d="M 94.28887869178378 79.79150937346287 l -1.7770665097016796 -6.288052724843255 a27.53433795042099,27.53433795042099 0 0,0 0.4572038934351982,-0.12497109505297242 l 1.6685647270427588 6.317710360722524" fill="#ff4b07" stroke="none" /><path d="M 94.63758080256005 79.69619591428918 l -1.8891105561712174 -7.152766170735038 a28.398026938762058,28.398026938762058 0 0,0 0.4736941150253469,-0.12075517715939818 l 1.765707552460871 7.1842243440633" fill="#ff5708" stroke="none" /><path d="M 94.98787191387505 79.60689891045804 l -5.364939828564201 -21.828604214264328 a43.47822371334338,43.47822371334338 0 0,0 0.7283147254903837,-0.17236856461855032 l 4.988401416111283 21.917718691023747" fill="#e4ff1a" stroke="none" /><path d="M 98.91598698831166 79.02799685794201 l -0.26990199443553475 -5.221695140479697 a26.22866591270752,26.22866591270752 0 0,0 0.45108205469390267,-0.019424542151429487 l 0.17997910735230796 5.225567409155318" fill="#ff3905" stroke="none" /></svg>