<?xml version="1.0" encoding="utf-8" ?>
<svg baseProfile="full" height="200mm" version="1.1" viewBox="0,0,200,200" width="200mm" xmlns="http://www.w3.org/2000/svg" xmlns:ev="http://www.w3.org/2001/xml-events" xmlns:xlink="http://www.w3.org/1999/xlink"><defs /><rect fill="#1a1a1a" height="200" width="200" x="0" y="0" /><text alignment-baseline="middle" fill="#e1ed5e" style="dominant-baseline: central; font-size:9.0px; font-family:Arial;" text-anchor="middle" x="100.0" y="100.0">2018</text><line stroke="#e1ed5e" stroke-width="0.3" x1="100.0" x2="100.0" y1="15.0" y2="10.0" /><path d="M 100.0 14.0 a86.0,86.0 0 0,1 42.46469731375804,11.215312516191453" fill="none" id="id37" stroke="none" /><text fill="#e1ed5e" style="font-size:6.75px; font-family:Arial;" text-anchor="middle"><textPath startOffset="22.20632615414155" xlink:href="#id37">January</textPath></text><path d="M 100.72285384407766 79.0124445844662 l 0.24650742736368117 -7.157170615502879 a28.16141446441716,28.16141446441716 0 0,0 0.48432157174799717,0.020855905676957755 l -0.36966983150100985 7.151866983301726" fill="#ff5908" stroke="none" /><path d="M 102.16513564639614 79.11191278185805 l 3.1627879392565865 -30.51291055950398 a51.67639056931236,51.67639056931236 0 0,0 0.8839942921396678,0.09932705873386329 l -3.68754893490598 30.453947547299514" fill="#85ff25" stroke="none" /><line stroke="#e1ed5e" stroke-width="0.3" x1="143.23703022742887" x2="145.7803849466894" y1="26.81831364943548" y2="22.513508569990506" /><path d="M 143.74570117128098 25.957352633546492 a86.0,86.0 0 0,1 28.547481713284135,27.462654790039103" fill="none" id="id38" stroke="none" /><text fill="#e1ed5e" style="font-size:6.75px; font-family:Arial;" text-anchor="middle"><textPath startOffset="19.985693538727396" xlink:href="#id38">February</textPath></text><path d="M 117.2510076193507 88.02491185347247 l 7.15194114309515 -4.964644819429094 a29.706202403883182,29.706202403883182 0 0,0 0.28797409653920364,0.4225664525341613 l -7.236339705303086 4.840800343624527" fill="#ff6e0a" stroke="none" /><path d="M 117.65298651832404 88.62581576622439 l 6.079147294137884 -3.9169203033157576 a28.23175611358342,28.23175611358342 0 0,0 0.25969505669804027,0.4107752137935359 l -6.145669947081879 3.8116974418080156" fill="#ff5a08" stroke="none" /><line stroke="#e1ed5e" stroke-width="0.3" x1="172.23445277983987" x2="176.4835382374775" y1="55.19839476539836" y2="52.563006222186495" /><path d="M 173.08426987136738 54.67131705675599 a86.0,86.0 0 0,1 12.851231095245387,41.99856678651699" fill="none" id="id39" stroke="none" /><text fill="#e1ed5e" style="font-size:6.75px; font-family:Arial;" text-anchor="middle"><textPath startOffset="22.20632615414155" xlink:href="#id39">March</textPath></text><path d="M 117.84615892207809 88.93136811851018 l 7.355478347452104 -4.562050718908204 a29.655366455657877,29.655366455657877 0 0,0 0.2653226120500368,0.4361206123267068 l -7.432916757788365 4.434762333374416" fill="#ff6d0a" stroke="none" /><path d="M 118.21658344932153 89.55222093294921 l 22.66417572322654 -12.998612025786107 a47.127165475998396,47.127165475998396 0 0,0 0.39753415483905596,0.7071689034056559 l -22.88456751935803 12.606559612445656" fill="#b7ff1f" stroke="none" /><path d="M 118.73160827565052 90.50648371742162 l 6.314404783392543 -3.2002540168348768 a28.079077167314846,28.079077167314846 0 0,0 0.21479155202084338,0.43300666211585626 l -6.368556348366795 3.0910877662200704" fill="#ff5808" stroke="none" /><path d="M 119.7369772167798 92.82701384747503 l 11.153462780285093 -4.053489711062282 a32.86720315950193,32.86720315950193 0 0,0 0.1886685753940977,0.5333914690227111 l -11.221584436489001 3.860900615612956" fill="#ff980e" stroke="none" /><path d="M 120.45610955862082 95.25157060432595 l 6.9548449125867595 -1.6144120625988505 a28.139761485231745,28.139761485231745 0 0,0 0.10546462749102942,0.47277724550699485 l -6.981603927079826 1.4944566475418917" fill="#ff5908" stroke="none" /><path d="M 120.73433829027371 96.67025291283417 l 16.605138466242177 -2.6666349639858833 a37.81789420570327,37.81789420570327 0 0,0 0.09768561348549769,0.6436261407895563 l -16.648579973166974 2.380409710804245" fill="#ffd814" stroke="none" /><path d="M 120.78858239683441 97.02765380044208 l 10.362702255291053 -1.4816565207618428 a31.4680898007865,31.4680898007865 0 0,0 0.07205293617281493,0.5368780659944673 l -10.386671190521705 1.3030601127027113" fill="#ff860c" stroke="none" /><path d="M 120.87857604477298 97.74499172005257 l 11.784893177266461 -1.2728373638146158 a32.85343081788155,32.85343081788155 0 0,0 0.0558866180959418,0.5627706174048096 l -11.805056921044631 1.0697912157053713" fill="#ff980e" stroke="none" /><path d="M 120.94382443527127 98.46500227214037 l 12.379975551233244 -0.9073430882135214 a33.41318114460841,33.41318114460841 0 0,0 0.037103601759746446,0.5739762967804227 l -12.393759743997405 0.6941077271800634" fill="#ff9f0e" stroke="none" /><line stroke="#e1ed5e" stroke-width="0.3" x1="184.98032266829074" x2="189.97916517819016" y1="98.17113171792111" y2="98.06355123074" /><path d="M 185.9800911702706 98.14961562048488 a86.0,86.0 0 0,1 -9.607161424134198,41.387399972396054" fill="none" id="id40" stroke="none" /><text fill="#e1ed5e" style="font-size:6.75px; font-family:Arial;" text-anchor="middle"><textPath startOffset="21.466115282336823" xlink:href="#id40">April</textPath></text><path d="M 120.99513854157772 99.54816195383933 l 20.208067380739326 -0.43489942511759333 a41.21274659155624,41.21274659155624 0 0,0 0.009159028333437411,0.7093768380280872 l -20.21255941619048 0.08698632902904349" fill="#fcff18" stroke="none" /><path d="M 120.76222939487914 103.15116336523771 l 7.121447625684968 1.0808494809835967 a28.20300297694764,28.20300297694764 0 0,0 -0.07697841201819042,0.4793446451189041 l -7.1017874593054895 -1.2032733557957058" fill="#ff5908" stroke="none" /><path d="M 120.70491114924044 103.5080841355445 l 15.778656917498227 2.673416737386271 a37.00353620834632,37.00353620834632 0 0,0 -0.11180981040239149,0.6270887949102323 l -15.730300664756646 -2.9446242830297216" fill="#ffce13" stroke="none" /><path d="M 120.41448212921028 104.9243191809786 l 14.906679419674091 3.5957437923917452 a36.334225273598236,36.334225273598236 0 0,0 -0.1518920896607796,0.6067333943102112 l -14.842576015718251 -3.851805026099352" fill="#ffc512" stroke="none" /><path d="M 120.13307415673323 105.97154293290107 l 8.989611731559052 2.6663514964088537 a30.376702479367992,30.376702479367992 0 0,0 -0.1530019934220816,0.5000193671394555 l -8.942382965630838 -2.8206978361003667" fill="#ff770b" stroke="none" /><path d="M 119.9155931802556 106.66101706037122 l 14.135728296764217 4.727869589084981 a35.90542066938519,35.90542066938519 0 0,0 -0.20108603283619705,0.5844501377075001 l -14.05225143298479 -4.970492429881781" fill="#ffc011" stroke="none" /><path d="M 119.79798401119884 107.00284435728193 l 7.344557322378875 2.5978802575384092 a28.790475216199393,28.790475216199393 0 0,0 -0.16928215253956785,0.4657917799973394 l -7.298750908834081 -2.7239198345418796" fill="#ff6209" stroke="none" /><path d="M 119.54520255179757 107.68017299344265 l 3.7290617101593364 1.4653129821165651 a25.006624935495687,25.006624935495687 0 0,0 -0.16087284071577948,0.3992731975709222 l -3.7032862551861645 -1.5292855475303007" fill="#ff2d04" stroke="none" /><path d="M 119.41010516605496 108.01547362559984 l 7.69988140637071 3.179694071979879 a29.33058389691607,29.33058389691607 0 0,0 -0.1967230458541568,0.46499516935091284 l -7.644007379324244 -3.3117637669969553" fill="#ff6909" stroke="none" /><path d="M 119.12269723197855 108.67885076344098 l 3.679583573901845 1.6699818190971172 a25.040813600432863,25.040813600432863 0 0,0 -0.18151654499848832,0.3909704894568224 l -3.6502924120635254 -1.7330723758327702" fill="#ff2d04" stroke="none" /><path d="M 118.97047184881838 109.00673069616215 l 9.696796608314717 4.603809349738931 a31.73419419387256,31.73419419387256 0 0,0 -0.2385304384504298,0.4914433535899995 l -9.616112913249573 -4.770041659294206" fill="#ff890c" stroke="none" /><line stroke="#e1ed5e" stroke-width="0.3" x1="174.80103733775053" x2="179.2010983576182" y1="140.37084112569926" y2="142.7455964860345" /><path d="M 175.68104954172406 140.8457921977663 a86.0,86.0 0 0,1 -30.038265399797805,32.042727171017184" fill="none" id="id41" stroke="none" /><text fill="#e1ed5e" style="font-size:6.75px; font-family:Arial;" text-anchor="middle"><textPath startOffset="22.206326154141568" xlink:href="#id41">May</textPath></text><path d="M 118.48025628344425 109.97397251340804 l 13.091210342065494 7.065452454573278 a35.87616908374055,35.87616908374055 0 0,0 -0.29798334412908445,0.5409263247074982 l -12.9676505884849 -7.289749297678582" fill="#ffbf11" stroke="none" /><path d="M 117.94076556474637 110.91462005526583 l 7.241491325982363 4.405504668758988 a29.476300372847522,29.476300372847522 0 0,0 -0.2674417863236125,0.43120131487228164 l -7.164584899990787 -4.529502314996543" fill="#ff6b09" stroke="none" /><path d="M 117.14729908036423 112.12312394758627 l 5.944183473256511 4.202531995024363 a28.27973847970786,28.27973847970786 0 0,0 -0.28444058253559756,0.39506309126556205 l -5.87096309834531 -4.304228691741057" fill="#ff5b08" stroke="none" /><path d="M 116.71984013943494 112.70617746262583 l 6.14635060517883 4.670895228999433 a28.71977253564325,28.71977253564325 0 0,0 -0.3025056140920017,0.3910292843810588 l -6.06503817386876 -4.776002507493745" fill="#ff6108" stroke="none" /><path d="M 116.27256486870786 113.27417163493432 l 11.527601928157448 9.403518607433428 a35.87655095828351,35.87655095828351 0 0,0 -0.39447805363289484,0.4751742277443204 l -11.36402787463101 -9.60055409229152" fill="#ffbf11" stroke="none" /><path d="M 115.56566222782051 114.09645910891815 l 10.937717849445 9.905334585380775 a35.7563316919351,35.7563316919351 0 0,0 -0.4170781849921861,0.45265599586705774 l -10.765593256457093 -10.092141836049167" fill="#ffbe11" stroke="none" /><path d="M 115.32070863581623 114.36230785411682 l 6.049252622931146 5.670836155369 a29.291672931144813,29.291672931144813 0 0,0 -0.348003833117655,0.3648806277228713 l -5.950742238434526 -5.774123899674379" fill="#ff6809" stroke="none" /><path d="M 115.07121518719521 114.62390073753431 l 6.148028502864533 5.965554697527667 a29.56656858498367,29.56656858498367 0 0,0 -0.3575574893854805,0.3622038489933189 l -6.0444303884235175 -6.07049904050165" fill="#ff6c0a" stroke="none" /><path d="M 113.20401910651253 116.32954008644616 l 2.497475760090889 3.088652796572888 a24.97204749090681,24.97204749090681 0 0,0 -0.3365786158956022,0.2673984085027776 l -2.443939651477936 -3.131185119080792" fill="#ff2c04" stroke="none" /><path d="M 112.63410532772338 116.77436683061366 l 11.448825315405838 15.200664442682776 a40.02986601638903,40.02986601638903 0 0,0 -0.5539657474520859,0.40981061651445977 l -11.185474597535189 -15.395485007937005" fill="#fff316" stroke="none" /><path d="M 112.34349029814194 116.9893568818739 l 1.0409064324216297 1.43268479448728 a22.770895796316594,22.770895796316594 0 0,0 -0.3190882072979374,0.227660963589715 l -1.0160908972748077 -1.4503900199212143" fill="#ff0d01" stroke="none" /><path d="M 111.1453310114006 117.79835938074945 l 4.042490919237441 6.45559168232927 a28.616849532521698,28.616849532521698 0 0,0 -0.41974213754400336,0.2578399035519067 l -3.9307695817611283 -6.524220052709554" fill="#ff5f08" stroke="none" /><line stroke="#e1ed5e" stroke-width="0.3" x1="143.8653032363475" x2="146.44561519142675" y1="172.8068346515853" y2="177.08958963109032" /><path d="M 144.38136562736335 173.6633856474863 a86.0,86.0 0 0,1 -40.68145358897372,12.25698825130547" fill="none" id="id42" stroke="none" /><text fill="#e1ed5e" style="font-size:6.75px; font-family:Arial;" text-anchor="middle"><textPath startOffset="21.466115282336833" xlink:href="#id42">June</textPath></text><path d="M 108.59647513512805 119.15986991738527 l 3.4307237824509396 7.646415578594106 a29.380783786260157,29.380783786260157 0 0,0 -0.4632080987610199,0.203056818065615 l -3.298595009032166 -7.704336949954175" fill="#ff6a09" stroke="none" /><path d="M 108.2653958097858 119.30500536409082 l 5.971976250215438 13.948398382583898 a36.17307871766328,36.17307871766328 0 0,0 -0.5745121023897946,0.24014610539324524 l -5.7309926883281825 -14.049129530997117" fill="#ffc312" stroke="none" /><path d="M 107.2578585660854 119.70592522655815 l 5.274098197324757 14.31978644495176 a36.26015712972997,36.26015712972997 0 0,0 -0.587553438082827,0.21067575874646546 l -5.026825198612195 -14.408449744738185" fill="#ffc412" stroke="none" /><path d="M 105.88484417918355 120.15858648285463 l 2.0049872252448746 6.868101711186682 a28.1547742723723,28.1547742723723 0 0,0 -0.4663889732575548,0.13180618247612097 l -1.8864670838827138 -6.901596687001322" fill="#ff5908" stroke="none" /><path d="M 104.83641907484287 120.43548508189849 l 4.530999665859092 19.144986124007232 a40.67385197820815,40.67385197820815 0 0,0 -0.6827006318521738,0.15538044112712476 l -4.200778884614056 -19.220143298712042" fill="#fffb17" stroke="none" /><path d="M 104.48393922423573 120.51570834832081 l 1.5879229115254343 7.265344533750889 a28.436849492026266,28.436849492026266 0 0,0 -0.4791047695393594,0.10040106270539252 l -1.462626680556697 -7.291601577182822" fill="#ff5d08" stroke="none" /><path d="M 103.7750983002368 120.6578951692458 l 2.625557833198567 14.36744004139066 a35.6053718637502,35.6053718637502 0 0,0 -0.6038518957330842,0.10498739229007542 l -2.377856965993433 -14.410506012201742" fill="#ffbc11" stroke="none" /><path d="M 103.41894727170886 120.7198165907248 l 1.2214562627971053 7.402380828791938 a28.502479412593726,28.502479412593726 0 0,0 -0.4847649259245266,0.0757103117351785 l -1.0938554732640615 -7.422309447874222" fill="#ff5e08" stroke="none" /><path d="M 101.98527174616119 120.90594882070398 l 1.0524527850054515 11.082877748135182 a32.13273713175586,32.13273713175586 0 0,0 -0.5510851364056776,0.04754994441440332 l -0.8615233308582323 -11.09935194482825" fill="#ff8f0d" stroke="none" /><path d="M 101.26447882468166 120.96189622390904 l 2.042784819026697 33.86426292666045 a54.925820157850794,54.925820157850794 0 0,0 -0.9442322109123598,0.04880601989952582 l -1.4595645397008576 -33.894408753322175" fill="#63ff29" stroke="none" /><line stroke="#e1ed5e" stroke-width="0.3" x1="102.19456741930631" x2="102.32365962044197" y1="184.97166512339345" y2="189.96999836594603" /><path d="M 102.22038585953345 185.97133177190398 a86.0,86.0 0 0,1 -42.740103519485714,-10.115201625700543" fill="none" id="id43" stroke="none" /><text fill="#e1ed5e" style="font-size:6.75px; font-family:Arial;" text-anchor="middle"><textPath startOffset="22.20632615414155" xlink:href="#id43">July</textPath></text><path d="M 99.45781275523022 120.99299961872073 l -0.24796964310099653 9.601160250982876 a30.604361879320937,30.604361879320937 0 0,0 -0.5265110998563347,-0.018134106852626744 l 0.41320109463197424 -9.595469345704156" fill="#ff7a0b" stroke="none" /><path d="M 98.73552117531835 120.96189622390904 l -2.008356911856232 33.2935343361719 a54.354054117592035,54.354054117592035 0 0,0 -0.9334331436876676,-0.06437501467409243 l 2.5811528163228297 -33.254030976981525" fill="#69ff28" stroke="none" /><path d="M 97.65516085044442 120.86867818915974 l -1.231026697217013 10.955932730547863 a32.02487590522229,32.02487590522229 0 0,0 -0.5472785591698378,-0.06626781190941704 l 1.41943267943824 -10.933119389913097" fill="#ff8d0d" stroke="none" /><path d="M 96.22490169976321 120.6578951692458 l -1.7146605177986016 9.382875467191521 a30.53826046635978,30.53826046635978 0 0,0 -0.5162891171525054,-0.09894803808073027 l 1.875917249522802 -9.351970230762323" fill="#ff790b" stroke="none" /><path d="M 91.7346041902142 119.30500536409082 l -4.304292344095564 10.053285856316828 a31.93597225180549,31.93597225180549 0 0,0 -0.5034923879655615,-0.2207162666067509 l 4.476705406718868 -9.977705036415625" fill="#ff8c0c" stroke="none" /><path d="M 91.07499286063937 119.00905698771935 l -2.9981612608660173 6.385677610814484 a28.054491441302844,28.054491441302844 0 0,0 -0.4353620650674394,-0.209000248141498 l 3.1076359939336986 -6.333123086173424" fill="#ff5708" stroke="none" /><path d="M 90.7491055286396 118.85261126421891 l -2.507119057529596 5.10931576736165 a26.691287515074112,26.691287515074112 0 0,0 -0.4107231075910534,-0.20594509261800226 l 2.5946960728034103 -5.065402833834346" fill="#ff4406" stroke="none" /><path d="M 90.10565033884886 118.52300852407294 l -3.7694376322175893 7.056686673068768 a29.000342921715575,29.000342921715575 0 0,0 -0.4382879662542506,-0.23898954498930408 l 3.8903484103404806 -6.990756476319698" fill="#ff6409" stroke="none" /><line stroke="#e1ed5e" stroke-width="0.3" x1="58.666819895761336" x2="56.23545636021788" y1="174.27360380694188" y2="178.64263932499728" /><path d="M 58.180547188652646 175.14741091055294 a86.0,86.0 0 0,1 -31.652253787137756,-30.449443065178592" fill="none" id="id44" stroke="none" /><text fill="#e1ed5e" style="font-size:6.75px; font-family:Arial;" text-anchor="middle"><textPath startOffset="22.20632615414155" xlink:href="#id44">August</textPath></text><path d="M 89.4739219176387 118.17145234162733 l -7.179156719451453 12.393571770970645 a35.32274109396122,35.32274109396122 0 0,0 -0.5235034243708002,-0.30929505061218254 l 7.391428014850636 -12.268158148064714" fill="#ffb811" stroke="none" /><path d="M 88.8546689885994 117.79835938074946 l -11.997230838194264 19.158787281738867 a43.60514715483707,43.60514715483707 0 0,0 -0.6327277077381274,-0.403836759553836 l 12.325240347979316 -18.94943609336123" fill="#e0ff1b" stroke="none" /><path d="M 88.54995079064634 117.60387380957326 l -2.532953380189227 3.8942882126617677 a25.645571386760558,25.645571386760558 0 0,0 -0.36798378686197336,-0.24387958838952117 l 2.5996118657911627 -3.850110603180928" fill="#ff3605" stroke="none" /><path d="M 87.95078237400918 117.19931262002967 l -2.825326872591264 4.032932398087714 a25.92412587821756,25.92412587821756 0 0,0 -0.3632743712078525,-0.25918661832402595 l 2.8943285716480034 -3.983701517919469" fill="#ff3a05" stroke="none" /><path d="M 87.36589467227662 116.77436683061367 l -5.558656108364355 7.380256395546229 a30.2394178493592,30.2394178493592 0 0,0 -0.41308667847916314,-0.3167372501382058 l 5.684871515337005 -7.283479803580656" fill="#ff750a" stroke="none" /><path d="M 86.24171649860922 115.8653595955263 l -6.1218497765948605 7.059408834368887 a30.34410497468645,30.34410497468645 0 0,0 -0.39166674750447694,-0.34560036636082697 l 6.242458877005925 -6.952985326235772" fill="#ff770a" stroke="none" /><path d="M 85.70375840098266 115.38237550388516 l -5.906753553994717 6.35550963147547 a29.67653388303225,29.67653388303225 0 0,0 -0.37118866716949117,-0.3509820532371904 l 6.015278055555026 -6.252892941492348" fill="#ff6e0a" stroke="none" /><path d="M 85.44109423537348 115.13401014063109 l -7.072409277272576 7.351782850397639 a31.2013569717294,31.2013569717294 0 0,0 -0.3838510504564826,-0.3756790428084734 l 7.1979102801048525 -7.228953704666596" fill="#ff820c" stroke="none" /><path d="M 84.9287848128048 114.62390073753433 l -16.629254842869344 16.135697695292528 a44.170948550781475,44.170948550781475 0 0,0 -0.5247791563236719,-0.5502288473659506 l 16.904540550571973 -15.847061731344079" fill="#d9ff1c" stroke="none" /><path d="M 83.72743513129214 113.27417163493432 l -7.405757002385285 6.041167469875638 a30.557245480653005,30.557245480653005 0 0,0 -0.32897361238658074,-0.4104451634575585 l 7.508648526826727 -5.91279447283982" fill="#ff7a0b" stroke="none" /><path d="M 82.6465618267979 111.8261652097733 l -4.357130576231067 2.9693335419049833 a26.27271548079447,26.27271548079447 0 0,0 -0.2514635344793866,-0.37590386502628603 l 4.407597216121184 -2.893892762672876" fill="#ff3f05" stroke="none" /><path d="M 82.05923443525364 110.91462005526583 l -5.989622685201782 3.643905587386943 a28.010964829527644,28.010964829527644 0 0,0 -0.24705554174155886,-0.4140792985670641 l 6.051459102641573 -3.540264194933768" fill="#ff5708" stroke="none" /><line stroke="#e1ed5e" stroke-width="0.3" x1="26.63291911575756" x2="22.317208475507996" y1="142.92168965132927" y2="145.44649492493687" /><path d="M 25.769776987707644 143.4266507060508 a86.0,86.0 0 0,1 -11.730757126820373,-40.83630448921669" fill="none" id="id45" stroke="none" /><text fill="#e1ed5e" style="font-size:6.75px; font-family:Arial;" text-anchor="middle"><textPath startOffset="21.46611528233685" xlink:href="#id45">September</textPath></text><path d="M 81.87401531095188 110.60418214915194 l -10.083949407892566 5.899378055236626 a32.68283771604931,32.68283771604931 0 0,0 -0.27990205349082226,-0.4880328232755563 l 10.184003457535766 -5.724925386102763" fill="#ff960d" stroke="none" /><path d="M 81.35079622478065 109.6543875284942 l -6.2375015319775375 3.2290524424053637 a28.02376003556686,28.02376003556686 0 0,0 -0.2180800067906092,-0.43029254265348327 l 6.292160208554413 -3.121205688049195" fill="#ff5708" stroke="none" /><path d="M 80.45479744820244 107.68017299344265 l -6.848095291002493 2.690918979790365 a28.357815849180145,28.357815849180145 0 0,0 -0.1746108479777545,-0.4558538250842085 l 6.893400418573757 -2.572641587872999" fill="#ff5c08" stroke="none" /><path d="M 80.0844068197444 106.66101706037122 l -6.6860411686012515 2.236229364965654 a28.050097040535363,28.050097040535363 0 0,0 -0.14921015234161772,-0.4592216294412104 l 6.723543571959119 -2.12080883554664" fill="#ff5708" stroke="none" /><path d="M 79.86692584326677 105.97154293290107 l -15.731252214409263 4.665946554179018 a37.408636551517965,37.408636551517965 0 0,0 -0.17779320818538635,-0.6189214819709736 l 15.809238059480753 -4.394467596703449" fill="#ffd313" stroke="none" /><path d="M 79.76711848015287 105.62410040840567 l -13.110257766480895 3.6442365357816797 a34.60732591776572,34.60732591776572 0 0,0 -0.1545990389053692,-0.5753205360210084 l 13.17104488172804 -3.4180250665851326" fill="#ffaf10" stroke="none" /><path d="M 79.58551787078972 104.9243191809786 l -6.87780056583204 1.6590420974143205 a28.07506616960947,28.07506616960947 0 0,0 -0.10927809619838545,-0.47076717834915255 l 6.9053392279609795 -1.5404062617165937" fill="#ff5808" stroke="none" /><path d="M 79.4281124754447 104.21870165774334 l -9.209345153884192 1.8885714604966324 a30.400996772937038,30.400996772937038 0 0,0 -0.10071425633808465,-0.5135398232690865 l 9.240489343197941 -1.729767910159591" fill="#ff770b" stroke="none" /><path d="M 79.18660465613746 102.79330883721812 l -10.208650684083699 1.3700750742878005 a31.300177401327964,31.300177401327964 0 0,0 -0.06706955920788904,-0.5346103772148008 l 10.230721752538436 -1.194146942785591" fill="#ff840c" stroke="none" /><path d="M 79.04373962182676 101.35467743843564 l -13.808440040697073 0.8926202407089131 a34.83726082906763,34.83726082906763 0 0,0 -0.033532769830395805,-0.5987501313623843 l 13.821759161415 -0.6547983930110912" fill="#ffb210" stroke="none" /><line stroke="#e1ed5e" stroke-width="0.3" x1="15.007084014347285" x2="10.007500721073583" y1="101.09737516637583" y2="101.16192664675087" /><path d="M 14.007167355692545 101.11028546245083 a86.0,86.0 0 0,1 10.666146001902534,-42.60595125391555" fill="none" id="id46" stroke="none" /><text fill="#e1ed5e" style="font-size:6.75px; font-family:Arial;" text-anchor="middle"><textPath startOffset="22.20632615414155" xlink:href="#id46">October</textPath></text><path d="M 79.00175016825051 100.2711162175752 l -14.170252762528683 0.18295740653835643 a35.171433828888276,35.171433828888276 0 0,0 -0.0026055378542698526,-0.605435236529987 l 14.171302597672456 0.0609873081953059" fill="#ffb610" stroke="none" /><path d="M 79.00019446554 99.90962569577889 l -11.722119422352662 -0.050447057000294435 a32.722227973276134,32.722227973276134 0 0,0 0.007272114525893752,-0.5632332841818424 l 11.719514300709053 0.25221659924260875" fill="#ff960d" stroke="none" /><path d="M 79.08570108090925 98.10471618934814 l -18.16590136201621 -1.6462200760600298 a39.240340260897696,39.240340260897696 0 0,0 0.06675132111079192,-0.6721766940632857 l 18.134872915223188 1.958672300827746" fill="#ffea16" stroke="none" /><path d="M 79.16333360222342 97.38593545837743 l -18.12492494945717 -2.273862945514253 a39.26700186452166,39.26700186452166 0 0,0 0.0899102168880809,-0.6699355490557586 l 18.083098733511257 2.5855168366346706" fill="#ffea16" stroke="none" /><path d="M 79.26566170972629 96.67025291283419 l -15.09953415857336 -2.42484853763841 a36.29299912497254,36.29299912497254 0 0,0 0.10436507890501268,-0.6159686034657825 l 15.055557218148124 2.6844029294200205" fill="#ffc512" stroke="none" /><path d="M 79.3925641242962 95.95851677861259 l -10.712358544024228 -2.1008832723436237 a31.916425060418916,31.916425060418916 0 0,0 0.11037110760780636,-0.5382087181967041 l 10.674608140501428 2.28496764670373" fill="#ff8c0c" stroke="none" /><path d="M 79.46518482838121 95.60439243477599 l -5.859191018799102 -1.2541970382047323 a26.99192202931727,26.99192202931727 0 0,0 0.10116265568145816,-0.45349234941659516 l 5.836733976115606 1.3548675571712867" fill="#ff4906" stroke="none" /><path d="M 79.71946130924805 94.55025226153421 l -14.873436896151507 -3.996761640506991 a36.401078816590385,36.401078816590385 0 0,0 0.16781457119535953,-0.6037182997702193 l 14.802435554389787 4.252191243696153" fill="#ffc612" stroke="none" /><path d="M 80.02781315780177 93.51064311812611 l -16.81324802688791 -5.462955441584928 a38.67849516702122,38.67849516702122 0 0,0 0.21118956803267025,-0.6314299277020877 l 16.716721165083467 5.751558472209338" fill="#ffe315" stroke="none" /><path d="M 80.14247586403 93.16781622104843 l -11.71853799208828 -4.031882556675151 a33.39274826754896,33.39274826754896 0 0,0 0.19168537747364744,-0.5419203747485408 l 11.647399533804823 4.2330005578503025" fill="#ff9f0e" stroke="none" /><path d="M 80.38941819471856 92.48833698450439 l -21.58202105416654 -8.266805695105381 a44.11111657153575,44.11111657153575 0 0,0 0.27770353012750715,-0.706725193602485 l 21.43652397415734 8.637079893603628" fill="#daff1c" stroke="none" /><path d="M 80.95270993114464 91.15688171328213 l -6.473625729973069 -3.005521408407491 a28.137295638276804,28.137295638276804 0 0,0 0.20773605410319249,-0.4375451092401839 l 6.4209314820281245 3.116508933288207" fill="#ff5908" stroke="none" /><path d="M 81.10775173730289 90.83032412892265 l -7.518806298207636 -3.6493812559149648 a29.357657070075938,29.357657070075938 0 0,0 0.22457207864072135,-0.452723606965703 l 7.454874206613502 3.7782644513796293" fill="#ff6909" stroke="none" /><path d="M 81.6062741919709 89.86733742301443 l -6.216601718322583 -3.424576849991703 a28.09745472164144,28.09745472164144 0 0,0 0.2370118763366998,-0.4216176815071412 l 6.156732200693452 3.531078041433629" fill="#ff5808" stroke="none" /><line stroke="#e1ed5e" stroke-width="0.3" x1="26.266209847984243" x2="21.928928074336255" y1="57.711370442889674" y2="55.22380399835377" /><path d="M 25.398753493254645 57.213857153982495 a86.0,86.0 0 0,1 29.58750427330803,-30.492523968695096" fill="none" id="id47" stroke="none" /><text fill="#e1ed5e" style="font-size:6.75px; font-family:Arial;" text-anchor="middle"><textPath startOffset="21.46611528233685" xlink:href="#id47">November</textPath></text><path d="M 82.15384107792192 88.93136811851018 l -53.53847676623425 -33.20589564446946 a84.0,84.0 0 0,0 0.7726896150161493,-1.222209409143138 l 52.95895955497213 34.12255270132681" fill="#4dd2ff" stroke="none" /><path d="M 83.84228863543731 86.58626213691792 l -14.891474941948685 -12.362539270508954 a40.35428642863285,40.35428642863285 0 0,0 0.44829651067145837,-0.5306416686366756 l 14.676467817790101 12.617039888774745" fill="#fff717" stroke="none" /><path d="M 85.31137513191541 84.99185889309783 l -0.6269216479875055 -0.6405588433544815 a21.896295924633712,21.896295924633712 0 0,0 0.2716358091041903,-0.2613134331414588 l 0.6158025952708877 0.6512553632582538" fill="#ff0000" stroke="none" /><path d="M 85.57189188830299 84.74124197986013 l -10.390047669625487 -10.988219798547533 a36.12263419243757,36.12263419243757 0 0,0 0.4554756547961825,-0.42331498160295317 l 10.199364131034448 11.165439366225133" fill="#ffc312" stroke="none" /><path d="M 87.51073957382395 83.11751280151077 l -9.113649517154439 -12.319470173141912 a36.32409713061303,36.32409713061303 0 0,0 0.5058643969079971,-0.3675319977574446 l 8.900239803892662 12.474521405716025" fill="#ffc512" stroke="none" /><line stroke="#e1ed5e" stroke-width="0.3" x1="56.762969772571076" x2="54.21961505331055" y1="26.818313649435495" y2="22.513508569990535" /><path d="M 56.25429882871897 25.957352633546506 a86.0,86.0 0 0,1 42.265352541879196,-11.944610805530505" fill="none" id="id48" stroke="none" /><text fill="#e1ed5e" style="font-size:6.75px; font-family:Arial;" text-anchor="middle"><textPath startOffset="22.20632615414155" xlink:href="#id48">December</textPath></text><path d="M 89.63071344664047 81.73862282372117 l -13.534539243103964 -23.835711816199368 a48.41030664381607,48.41030664381607 0 0,0 0.7281737956865241,-0.4052279289225125 l 13.122241358345393 24.065155142682066" fill="#a9ff21" stroke="none" /><path d="M 91.56875222667455 80.76684994638697 l -2.904242587847348 -6.62508503911872 a28.233697310823903,28.233697310823903 0 0,0 0.4467864854294704,-0.19129065622570665 l 2.7897723446275697 6.674095223307213" fill="#ff5a08" stroke="none" /><path d="M 91.90106846888425 80.62456947434976 l -1.9321523373371563 -4.622373115912902 a26.009944698037273,26.009944698037273 0 0,0 0.4145689543593931,-0.16911308568972286 l 1.8522995133893827 4.654947087786202" fill="#ff3b05" stroke="none" /><path d="M 92.91201910852362 80.23233633223022 l -2.396589099996982 -6.683845230953426 a28.100522965638742,28.100522965638742 0 0,0 0.45672448492406864,-0.159342204769666 l 2.281182611009628 6.724108288895302" fill="#ff5808" stroke="none" /><path d="M 94.28887869178378 79.79150937346287 l -4.962522268956513 -17.559613838339526 a39.24737420621099,39.24737420621099 0 0,0 0.6516972489586763,-0.1781334761466084 l 4.659527130774114 17.64243385531243" fill="#ffea16" stroke="none" /><path d="M 98.55514903715128 79.0497635885617 l -1.4643409915174481 -21.232840443808957 a42.28327530836567,42.28327530836567 0 0,0 0.726543353839087,-0.043827079207406514 l 1.0986355888387382 21.25490079239667" fill="#efff19" stroke="none" /><path d="M 99.63851952072746 79.00311137660856 l -0.35290482288323066 -20.49876462388478 a41.501802187111366,41.501802187111366 0 0,0 0.7143853021557613,-0.006148939835143601 l 5.021493285039628e-15 20.501802187111366" fill="#f9ff18" stroke="none" /></svg>