<?xml version="1.0" encoding="utf-8" ?>
<svg baseProfile="full" height="200mm" version="1.1" viewBox="0,0,200,200" width="200mm" xmlns="http://www.w3.org/2000/svg" xmlns:ev="http://www.w3.org/2001/xml-events" xmlns:xlink="http://www.w3.org/1999/xlink"><defs /><rect fill="#1a1a1a" height="200" width="200" x="0" y="0" /><text alignment-baseline="middle" fill="#e1ed5e" style="dominant-baseline: central; font-size:9.0px; font-family:Arial;" text-anchor="middle" x="100.0" y="100.0">2021</text><line stroke="#e1ed5e" stroke-width="0.3" x1="100.0" x2="100.0" y1="15.0" y2="10.0" /><path d="M 100.0 14.0 a86.0,86.0 0 0,1 42.46469731375804,11.215312516191453" fill="none" id="id73" stroke="none" /><text fill="#e1ed5e" style="font-size:6.75px; font-family:Arial;" text-anchor="middle"><textPath startOffset="22.20632615414155" xlink:href="#id73">January</textPath></text><path d="M 100.0 79.0 l 0.0 -22.680122155581643 a43.68012215558164,43.68012215558164 0 0,0 0.7518814995943922,0.0064716814444700345 l -0.39040102032186386 22.67676185074573" fill="#f7ff18" stroke="none" /><path d="M 100.36148047927253 79.00311137660856 l 0.19348984782742734 -11.239015707751399 a32.240681135958575,32.240681135958575 0 0,0 0.5548058774147954,0.014328998976847897 l -0.3869223604370905 11.23401991663219" fill="#ff6d0a" stroke="none" /><path d="M 100.72285384407766 79.0124445844662 l 1.9202726457866373 -55.75377221353047 a76.78683144858111,76.78683144858111 0 0,0 1.320584196639536,0.05686713342994739 l -2.8796976748155045 55.712457353576326" fill="#44ffe4" stroke="none" /><path d="M 101.80526077348638 79.07773832637324 l 0.9935819004490148 -11.515223075072566 a32.55800880176095,32.55800880176095 0 0,0 0.5579432990346872,0.05298343916524836 l -1.1916503265739462 11.49641409139214" fill="#ff710a" stroke="none" /><path d="M 102.88285421437855 79.19881850522331 l 2.8768177431028024 -20.757625447450813 a41.95602764227249,41.95602764227249 0 0,0 0.7145131877556863,0.10530067044964843 l -3.2336999112871445 20.705030292840195" fill="#fff116" stroke="none" /><path d="M 103.2404852339499 79.25152402106235 l 7.540806998170764 -48.28297047125806 a69.86828222591868,69.86828222591868 0 0,0 1.1866655089157871,0.19580997671353872 l -8.370801713225427 48.1460142316049" fill="#3bff98" stroke="none" /><path d="M 103.95276090670814 79.375362276772 l 2.5394058728744136 -13.250061766040357 a34.49120895216858,34.49120895216858 0 0,0 0.5821353824160351,0.1167708812673125 l -2.767107664757574 13.204386928695836" fill="#ff8d0d" stroke="none" /><path d="M 104.66035177308747 79.52364482259891 l 5.738882697139861 -25.215135283709756 a46.859965622315045,46.859965622315045 0 0,0 0.7849631397943277,0.18577541404743292 l -6.172069523896712 25.112613957521454" fill="#d0ff1d" stroke="none" /><path d="M 105.01212808612495 79.60689891045804 l 2.785798005401905 -11.334718379698868 a32.672039722087334,32.672039722087334 0 0,0 0.5449869096750941,0.13892929791591116 l -2.980493803762024 11.28508608561409" fill="#ff730a" stroke="none" /><path d="M 106.74666289553966 80.11325718540242 l 7.545534119189117 -22.24152870099527 a44.48660648329263,44.48660648329263 0 0,0 0.723051398614439,0.25225843549020144 l -7.927267521866829 22.108349412332863" fill="#edff1a" stroke="none" /><path d="M 107.76421540070413 80.48803036053334 l 5.309107948325792 -13.342127665725158 a35.359630839805206,35.359630839805206 0 0,0 0.5635923241658436,0.22990345998775155 l -5.537984142080024 13.248763319553827" fill="#ff990e" stroke="none" /><path d="M 108.09893153111575 80.62456947434976 l 4.525689468885354 -10.827006198060166 a32.73481693004254,32.73481693004254 0 0,0 0.5180148262673193,0.22178691451705138 l -4.711388052942989 10.747499755580323" fill="#ff740a" stroke="none" /><path d="M 108.43124777332544 80.76684994638697 l 9.237679607365896 -21.07276204096103 a44.00860761896104,44.00860761896104 0 0,0 0.6911821778148783,0.31011329570864377 l -9.599043903647555 20.910628414735857" fill="#f3ff19" stroke="none" /><path d="M 110.05341064243156 81.56283822128135 l 30.16023192729467 -55.311485336155954 a84.0,84.0 0 0,0 1.2635036437118596,0.7031384097592803 l -31.107859660078564 54.7841315288365" fill="#4dd2ff" stroke="none" /><path d="M 110.36928655335952 81.73862282372117 l 10.590485354832369 -18.650930953566217 a42.44797439120099,42.44797439120099 0 0,0 0.632279289990273,0.36625697556663156 l -10.90996137728797 18.465869820609537" fill="#fff717" stroke="none" /><line stroke="#e1ed5e" stroke-width="0.3" x1="143.23703022742887" x2="145.7803849466894" y1="26.81831364943548" y2="22.513508569990506" /><path d="M 143.74570117128098 25.957352633546492 a86.0,86.0 0 0,1 28.547481713284135,27.462654790039103" fill="none" id="id74" stroke="none" /><text fill="#e1ed5e" style="font-size:6.75px; font-family:Arial;" text-anchor="middle"><textPath startOffset="19.985693538727396" xlink:href="#id74">February</textPath></text><path d="M 110.68208982089419 81.91981866633111 l 5.557572978877101 -9.406579509999384 a31.925674143662036,31.925674143662036 0 0,0 0.47073332268821466,0.28361155984855213 l -5.718668367782953 9.309521340692218" fill="#ff6809" stroke="none" /><path d="M 112.19680574252982 82.90503203632743 l 13.01049655091584 -18.23543199952994 a43.40098213719375,43.40098213719375 0 0,0 0.6044200238508508,0.439136852105655 l -13.32246189112048 18.00877591260761" fill="#fbff18" stroke="none" /><path d="M 113.89432698308785 84.25364557470407 l 37.543849035373526 -42.54821080001778 a77.74408200573578,77.74408200573578 0 0,0 0.9958239923323442,0.894060612700296 l -38.27068401530186 41.89565117854818" fill="#45ffee" stroke="none" /><path d="M 114.16331599549186 84.49514656593476 l 12.079198448878065 -13.223330017522397 a38.90987135407977,38.90987135407977 0 0,0 0.49062034176747865,0.4559781379364166 l -12.30502667444039 13.013447293511339" fill="#ffc912" stroke="none" /><path d="M 114.42810811169701 84.74124197986012 l 38.85298488078171 -41.089815107177735 a77.55021962546479,77.55021962546479 0 0,0 0.9620538892366988,0.9254950792114067 l -39.55452201363082 40.414936941204026" fill="#45ffec" stroke="none" /><path d="M 114.68862486808459 84.99185889309783 l 8.536594914472756 -8.722288314901832 a33.20457972164856,33.20457972164856 0 0,0 0.40503926643697385,0.40329989910583847 l -8.685469981077054 8.574052565145875" fill="#ff7b0b" stroke="none" /><path d="M 114.94478906791727 85.2469230424477 l 9.146248848258644 -9.028920550036823 a33.85205331039168,33.85205331039168 0 0,0 0.40579864596443116,0.4182111753743753 l -9.300311757926185 8.870145179112333" fill="#ff840c" stroke="none" /><path d="M 115.19652480421416 85.50635884689758 l 18.726743695542808 -17.860577111291466 a46.87839145285002,46.87839145285002 0 0,0 0.5518985838383367,0.588726929222807 l -19.03140960135161 17.535580765190602" fill="#cfff1d" stroke="none" /><path d="M 116.15771136456269 86.58626213691792 l 7.278966617955767 -6.0428205408796325 a30.46039296829636,30.46039296829636 0 0,0 0.3314402726286129,0.40630658430370953 l -7.381905382660789 5.916629786967822" fill="#ff5307" stroke="none" /><path d="M 117.45458315368197 88.32363383020206 l 18.7271699818456 -12.527672079407463 a43.53107772074173,43.53107772074173 0 0,0 0.4112720136328967,0.6263954925139085 l -18.940038630836423 12.20345852291588" fill="#f9ff18" stroke="none" /><path d="M 117.65298651832404 88.62581576622439 l 17.409349046241832 -11.217203572693824 a41.71016876331858,41.71016876331858 0 0,0 0.3836787409998621,0.60688762761283 l -17.59985538348765 10.915868297366789" fill="#ffee16" stroke="none" /><line stroke="#e1ed5e" stroke-width="0.3" x1="172.23445277983987" x2="176.4835382374775" y1="55.19839476539836" y2="52.563006222186495" /><path d="M 173.08426987136738 54.67131705675599 a86.0,86.0 0 0,1 12.851231095245387,41.99856678651699" fill="none" id="id75" stroke="none" /><text fill="#e1ed5e" style="font-size:6.75px; font-family:Arial;" text-anchor="middle"><textPath startOffset="22.20632615414155" xlink:href="#id75">March</textPath></text><path d="M 119.7369772167798 92.82701384747503 l 10.319451360767484 -3.750385932933507 a31.97982108384246,31.97982108384246 0 0,0 0.1835747099005098,0.5189904253250336 l -10.382479151477803 3.5721978811818587" fill="#ff6909" stroke="none" /><path d="M 120.78858239683441 97.02765380044208 l 6.043102454442494 -0.8640412449064557 a27.104560143678526,27.104560143678526 0 0,0 0.062061699785027326,0.4624317498040553 l -6.057080153285357 0.7598911530377361" fill="#ff2203" stroke="none" /><path d="M 120.83666639777658 97.38593545837742 l 16.462564639402213 -2.065311488243774 a37.591610712946704,37.591610712946704 0 0,0 0.07502148261933818,0.6427382482351458 l -16.49567647502514 1.7816295016837758" fill="#ffb711" stroke="none" /><path d="M 120.87857604477298 97.74499172005257 l 6.71698613506947 -0.7254737736133015 a27.756050246624593,27.756050246624593 0 0,0 0.047215518786567434,0.4754538307003842 l -6.728478779538266 0.6097444122084823" fill="#ff2b04" stroke="none" /><line stroke="#e1ed5e" stroke-width="0.3" x1="184.98032266829074" x2="189.97916517819016" y1="98.17113171792111" y2="98.06355123074" /><path d="M 185.9800911702706 98.14961562048488 a86.0,86.0 0 0,1 -9.607161424134198,41.387399972396054" fill="none" id="id76" stroke="none" /><text fill="#e1ed5e" style="font-size:6.75px; font-family:Arial;" text-anchor="middle"><textPath startOffset="21.466115282336823" xlink:href="#id76">April</textPath></text><path d="M 120.99513854157772 99.54816195383933 l 12.147722182370307 -0.2614320951164504 a33.15053500716773,33.15053500716773 0 0,0 0.007367300520113012,0.5706055443327844 l -12.150422490008136 0.05229029272320321" fill="#ff7a0b" stroke="none" /><path d="M 120.99824983174949 100.27111621757518 l 30.78204428047205 0.39743842850821676 a51.784609911275425,51.784609911275425 0 0,0 -0.019179878560535327,0.8912135908224331 l -30.770642339226505 -0.9272418351207647" fill="#95ff23" stroke="none" /><path d="M 120.9904718944345 100.63252640178507 l 23.78933404751792 0.7168672501321562 a44.8001326273344,44.8001326273344 0 0,0 -0.029862204988852576,0.7706108210373036 l -23.773469709677865 -1.126255318183466" fill="#e9ff1a" stroke="none" /><path d="M 120.9764740272857 100.99374915477107 l 19.67674106628908 0.9321750060491009 a40.6988093353809,40.6988093353809 0 0,0 -0.039174831009558875,0.6994929238386133 l -19.657779884391992 -1.2707396462231375" fill="#ffe115" stroke="none" /><path d="M 120.92983693683757 101.71520430193887 l 15.22298056972637 1.2475262870094639 a36.274012546251434,36.274012546251434 0 0,0 -0.05635496685580416,0.621872363270151 l -15.19925100659349 -1.5093800388281855" fill="#ffa50f" stroke="none" /><path d="M 120.81339534386255 102.79330883721812 l 52.52439126228604 7.0491548283451655 a73.99530414355306,73.99530414355306 0 0,0 -0.18028761699143347,1.2609311733312971 l -52.395269594278005 -7.952231473656872" fill="#40ffc6" stroke="none" /><path d="M 118.81262510543309 109.33194174019688 l 4.0327016939379945 2.0004086113720634 a25.501590559429175,25.501590559429175 0 0,0 -0.1984525643708495,0.39156573670334616 l -3.997670459780876 -2.069528559778104" fill="#ff0901" stroke="none" /><line stroke="#e1ed5e" stroke-width="0.3" x1="174.80103733775053" x2="179.2010983576182" y1="140.37084112569926" y2="142.7455964860345" /><path d="M 175.68104954172406 140.8457921977663 a86.0,86.0 0 0,1 -30.038265399797805,32.042727171017184" fill="none" id="id77" stroke="none" /><text fill="#e1ed5e" style="font-size:6.75px; font-family:Arial;" text-anchor="middle"><textPath startOffset="22.206326154141568" xlink:href="#id77">May</textPath></text><path d="M 118.30583269289576 110.29060199501025 l 17.20351180466259 9.670933623628482 a40.7354446508254,40.7354446508254 0 0,0 -0.34886611458553224,0.6082774767921858 l -17.034493693924677 -9.965630946278981" fill="#ffe115" stroke="none" /><path d="M 118.12598468904814 110.60418214915192 l 14.591291989525995 8.536293100914037 a37.90485438648668,37.90485438648668 0 0,0 -0.3343192350595845,0.5603382679663356 l -14.442191878768183 -8.786193462766477" fill="#ffbc11" stroke="none" /><path d="M 117.94076556474637 110.91462005526583 l 17.85509616179968 10.862501377266826 a41.89972236940571,41.89972236940571 0 0,0 -0.3801608904508111,0.6129404012694261 l -17.665470631680908 -11.168238109901525" fill="#fff016" stroke="none" /><path d="M 117.75023020441432 111.22182372390056 l 23.669868656674836 14.964261903883733 a49.00342508609016,49.00342508609016 0 0,0 -0.4568872528439763,0.7090991625490484 l -23.408776540453808 -15.369482666354235" fill="#b6ff1f" stroke="none" /><path d="M 115.56566222782051 114.09645910891815 l 11.913008628236371 10.788570157457201 a37.07211935678709,37.07211935678709 0 0,0 -0.4324261333169678,0.4693131625169998 l -11.72553608692368 -10.992034574775536" fill="#ffb010" stroke="none" /><path d="M 113.75828350139079 115.86535959552629 l 11.350204566908317 13.088484251584278 a38.324421021051066,38.324421021051066 0 0,0 -0.5021129196708323,0.42791152325064113 l -11.123226170660438 -13.281920165057866" fill="#ffc112" stroke="none" /><path d="M 112.34349029814194 116.9893568818739 l 7.185649126229249 9.890197544191421 a33.22495647552208,33.22495647552208 0 0,0 -0.4655807963883994,0.3321795362862821 l -7.014341001991965 -10.012421342321922" fill="#ff7b0b" stroke="none" /><line stroke="#e1ed5e" stroke-width="0.3" x1="143.8653032363475" x2="146.44561519142675" y1="172.8068346515853" y2="177.08958963109032" /><path d="M 144.38136562736335 173.6633856474863 a86.0,86.0 0 0,1 -40.68145358897372,12.25698825130547" fill="none" id="id78" stroke="none" /><text fill="#e1ed5e" style="font-size:6.75px; font-family:Arial;" text-anchor="middle"><textPath startOffset="21.466115282336833" xlink:href="#id78">June</textPath></text><path d="M 108.92500713936063 119.00905698771935 l 6.436436488806962 13.708738391253853 a36.14454432970114,36.14454432970114 0 0,0 -0.565459028129051,0.25957450580010233 l -6.199509464910491 -13.817499967388029" fill="#ffa40f" stroke="none" /><path d="M 106.91757812671514 119.82793768551818 l 4.669632970820979 13.384625350613303 a35.17581277593841,35.17581277593841 0 0,0 -0.5734164467493857,0.19453399186801573 l -4.438546791134367 -13.463022329379443" fill="#ff960d" stroke="none" /><path d="M 106.57524785965236 119.94407469862006 l 3.445241426619241 10.450123529017402 a32.00339812328067,32.00339812328067 0 0,0 -0.5246708027810567,0.16798302249263414 l -3.2648492787472443 -10.507879398169743" fill="#ff6a09" stroke="none" /><path d="M 106.2309692047433 120.05430185196036 l 3.829520166460901 12.325266077051685 a33.90648707338491,33.90648707338491 0 0,0 -0.5588516049960394,0.16837740425568726 l -3.616793587024616 -12.389358850413098" fill="#ff850c" stroke="none" /><path d="M 105.88484417918355 120.15858648285463 l 3.1022561957522723 10.626806404705864 a32.07036620293931,32.07036620293931 0 0,0 -0.5312514680701919,0.15013697140412102 l -2.918873559577475 -10.678632169448504" fill="#ff6a09" stroke="none" /><path d="M 105.53697534728816 120.25689768951611 l 3.559712423475544 13.023126498433884 a34.50086576231528,34.50086576231528 0 0,0 -0.5742086816765134,0.1516537317322619 l -3.3350132989875334 -13.082471579469729" fill="#ff8d0d" stroke="none" /><path d="M 104.83641907484287 120.43548508189849 l 4.532522240783044 19.15141951132603 a40.68046308301693,40.68046308301693 0 0,0 -0.6828115976252856,0.15540569657581146 l -4.202190493764896 -19.226601941479526" fill="#ffe015" stroke="none" /><path d="M 104.48393922423573 120.51570834832081 l 1.0315941201103247 4.71993107926956 a25.831349275482047,25.831349275482047 0 0,0 -0.43520723506979037,0.0912019075495613 l -0.9501954236111563 -4.7369889675456625" fill="#ff0e01" stroke="none" /><path d="M 103.06178313531738 120.77559828337769 l 2.720565005474266 18.4602772827311 a39.65967071800382,39.65967071800382 0 0,0 -0.6762378174791445,0.09372039960958313 l -2.402398596808291 -18.504372247833285" fill="#ffd313" stroke="none" /><path d="M 101.62511606390274 120.93702456842531 l 0.7439128863013192 9.584129234348111 a30.612956858484868,30.612956858484868 0 0,0 -0.5257224878970329,0.036256900777240995 l -0.5788276376253559 -9.595514479641636" fill="#ff5507" stroke="none" /><path d="M 100.90346689309514 120.98055641714683 l 0.7062559827596806 16.400870474040204 a37.41606986520914,37.41606986520914 0 0,0 -0.6436983125056855,0.02217027140172168 l -0.42383731857934276 -16.41059754386802" fill="#ffb510" stroke="none" /><line stroke="#e1ed5e" stroke-width="0.3" x1="102.19456741930631" x2="102.32365962044197" y1="184.97166512339345" y2="189.96999836594603" /><path d="M 102.22038585953345 185.97133177190398 a86.0,86.0 0 0,1 -42.740103519485714,-10.115201625700543" fill="none" id="id79" stroke="none" /><text fill="#e1ed5e" style="font-size:6.75px; font-family:Arial;" text-anchor="middle"><textPath startOffset="22.20632615414155" xlink:href="#id79">July</textPath></text><path d="M 99.81925306533755 120.99922214144158 l -0.1036689677068472 12.044285487416913 a33.044731634921014,33.044731634921014 0 0,0 -0.5687475261685436,-0.009791504447731789 l 0.3109761837680588 -12.040716505690021" fill="#ff780b" stroke="none" /><path d="M 98.73552117531835 120.96189622390904 l -0.83108490079955 13.777308962215265 a34.80235285567914,34.80235285567914 0 0,0 -0.5976678310604593,-0.04121867286900623 l 1.0681154926389393 -13.760961944829974" fill="#ff910d" stroke="none" /><path d="M 98.37488393609728 120.93702456842531 l -1.4264187202525327 18.37712668907372 a39.43240233153976,39.43240233153976 0 0,0 -0.6762763697526536,-0.058351970804817826 l 1.7425394077467278 -18.349850465990237" fill="#ffd013" stroke="none" /><path d="M 98.01472825383883 120.90594882070398 l -1.5423838533262644 16.242107893727727 a37.3151774977318,37.3151774977318 0 0,0 -0.6389200704790865,-0.06622667769170715 l 1.8217365204109441 -16.21315184758026" fill="#ffb410" stroke="none" /><path d="M 97.2962882734958 120.8252237178851 l -2.94427107227305 22.678121770571302 a43.8684485522714,43.8684485522714 0 0,0 -0.7480017702647545,-0.10366622955103694 l 3.3342014337246355 -22.62408097552766" fill="#f5ff19" stroke="none" /><path d="M 95.86986931433489 120.58985236759428 l -3.267974657807739 16.291764320882525 a37.616294504228506,37.616294504228506 0 0,0 -0.6337602945229942,-0.13281063165322007 l 3.5479264137601203 -16.233097708502765" fill="#ffb811" stroke="none" /><path d="M 95.16358092515715 120.4354850818985 l -12.902664388236255 54.518064200446176 a77.02408475360781,77.02408475360781 0 0,0 -1.2875739023054562,-0.3164543386692758 l 13.839191575284921 -54.287888603462875" fill="#44ffe6" stroke="none" /><path d="M 93.08242187328487 119.8279376855182 l -1.2794792080079669 3.6673866982901777 a24.88417201453803,24.88417201453803 0 0,0 -0.40321890411773625,-0.1445799531751644 l 1.3424176727554298 -3.6448192040750556" fill="#ff0000" stroke="none" /><path d="M 92.40401165467489 119.57807347666478 l -12.25324515661132 31.581793322703618 a54.87553226660779,54.87553226660779 0 0,0 -0.877692129968501,-0.3492518120156593 l 12.795058362621678 -31.366194666281892" fill="#73ff27" stroke="none" /><line stroke="#e1ed5e" stroke-width="0.3" x1="58.666819895761336" x2="56.23545636021788" y1="174.27360380694188" y2="178.64263932499728" /><path d="M 58.180547188652646 175.14741091055294 a86.0,86.0 0 0,1 -31.652253787137756,-30.449443065178592" fill="none" id="id80" stroke="none" /><text fill="#e1ed5e" style="font-size:6.75px; font-family:Arial;" text-anchor="middle"><textPath startOffset="22.20632615414155" xlink:href="#id80">August</textPath></text><path d="M 89.7882731507175 118.34994917583269 l -10.706256003779005 19.238592691754402 a43.0169790474915,43.0169790474915 0 0,0 -0.6439257336620736,-0.36563783700265867 l 11.035830504362286 -19.05145168895711" fill="#fffe18" stroke="none" /><path d="M 87.95078237400918 117.19931262002967 l -4.61456793045571 6.586933600657301 a29.042507783288645,29.042507783288645 0 0,0 -0.4069722081598976,-0.2903638647397797 l 4.727267466464494 -6.506525474073301" fill="#ff3f05" stroke="none" /><path d="M 87.65650970185807 116.9893568818739 l -6.52269168416975 8.977714906898917 a32.097065907540255,32.097065907540255 0 0,0 -0.4441852265808144,-0.32859761165548407 l 6.676261881169129 -8.864107346503665" fill="#ff6b09" stroke="none" /><path d="M 85.70375840098266 115.38237550388516 l -14.594701764869825 15.703510699614533 a42.438413371758706,42.438413371758706 0 0,0 -0.5308119256224094,-0.5019158072858666 l 14.862849524883051 -15.449960255582734" fill="#fff717" stroke="none" /><path d="M 84.9287848128048 114.62390073753433 l -11.30597623156823 10.970414269703364 a36.753573810335766,36.753573810335766 0 0,0 -0.43665599424231905,-0.45783206423541145 l 11.493138777189506 -10.774175088885452" fill="#ffac0f" stroke="none" /><path d="M 84.19399662182784 113.82643327865904 l -18.412023145254555 16.10607080437225 a45.46238159004233,45.46238159004233 0 0,0 -0.5101690835450001,-0.5934419009756116 l 18.686534738370334 -15.786751804235111" fill="#e1ff1b" stroke="none" /><path d="M 83.95833913139862 113.55231037782056 l -11.872267394434411 10.029924827346267 a36.54188293377503,36.54188293377503 0 0,0 -0.40179366384908427,-0.48398635151887104 l 12.04315705817703 -9.824077218713636" fill="#ffa90f" stroke="none" /><path d="M 82.6465618267979 111.8261652097733 l -21.52982083028703 14.672321158177192 a47.053986127902874,47.053986127902874 0 0,0 -0.4503669090359547,-0.6732374224241046 l 21.779190844733716 -14.299546821547267" fill="#cdff1d" stroke="none" /><path d="M 82.44556493220864 111.52570212397912 l -21.54597455321635 14.14642417783314 a46.77499440285155,46.77499440285155 0 0,0 -0.4361103056973449,-0.6768528791819876 l 21.786289722290743 -13.773449698729703" fill="#d1ff1d" stroke="none" /><path d="M 82.24976979558568 111.22182372390057 l -32.92972167907133 20.818407857479293 a59.95860207427181,59.95860207427181 0 0,0 -0.5440111357727155,-0.8771191677822181 l 33.283197454512 -20.24849235833181" fill="#3cff2e" stroke="none" /><line stroke="#e1ed5e" stroke-width="0.3" x1="26.63291911575756" x2="22.317208475507996" y1="142.92168965132927" y2="145.44649492493687" /><path d="M 25.769776987707644 143.4266507060508 a86.0,86.0 0 0,1 -11.730757126820373,-40.83630448921669" fill="none" id="id81" stroke="none" /><text fill="#e1ed5e" style="font-size:6.75px; font-family:Arial;" text-anchor="middle"><textPath startOffset="21.46611528233685" xlink:href="#id81">September</textPath></text><path d="M 81.87401531095188 110.60418214915194 l -7.383268922271543 4.319408288767107 a29.55394341480295,29.55394341480295 0 0,0 -0.2531056061418051,-0.4413109586432754 l 7.456526524565725 -4.191677484265525" fill="#ff4606" stroke="none" /><path d="M 81.69416730710424 110.29060199501025 l -12.821781794841465 7.207749329468485 a35.708831999549844,35.708831999549844 0 0,0 -0.29659346150733645,-0.5384032840303197 l 12.943951665800318 -6.985975527040343" fill="#ff9e0e" stroke="none" /><path d="M 81.18737489456691 109.33194174019688 l -13.48385990927302 6.688625027135227 a36.05165050107529,36.05165050107529 0 0,0 -0.27098264882186046,-0.5583045189823505 l 13.596995814709599 -6.455531552187592" fill="#ffa20f" stroke="none" /><path d="M 80.45479744820244 107.68017299344265 l -35.63581439817878 14.002884780288777 a59.288275620501494,59.288275620501494 0 0,0 -0.3650625328936923,-0.9530630767895971 l 35.87157121066598 -13.387398136666022" fill="#43ff2d" stroke="none" /><line stroke="#e1ed5e" stroke-width="0.3" x1="15.007084014347285" x2="10.007500721073583" y1="101.09737516637583" y2="101.16192664675087" /><path d="M 14.007167355692545 101.11028546245083 a86.0,86.0 0 0,1 10.666146001902534,-42.60595125391555" fill="none" id="id82" stroke="none" /><text fill="#e1ed5e" style="font-size:6.75px; font-family:Arial;" text-anchor="middle"><textPath startOffset="22.20632615414155" xlink:href="#id82">October</textPath></text><path d="M 79.00175016825051 100.2711162175752 l -16.734242901822814 0.21606203735451573 a37.73563767238025,37.73563767238025 0 0,0 -0.0027954968480597216,-0.6495750167859896 l 16.73548269596038 0.07202245763514921" fill="#ffb911" stroke="none" /><path d="M 79.00019446554 99.90962569577889 l -21.395172455955382 -0.09207579666511258 a42.39537058273129,42.39537058273129 0 0,0 0.00942185203578183,-0.7297328234165257 l 21.390417596801885 0.4603448781421103" fill="#fff717" stroke="none" /><path d="M 79.00486145842228 99.54816195383935 l -14.3445220329802 -0.3087095993986753 a35.34784353035031,35.34784353035031 0 0,0 0.018327529556785908,-0.6082014805555164 l 14.337082808967768 0.555581227379186" fill="#ff990e" stroke="none" /><path d="M 79.03285615573316 98.82574320788736 l -17.22197605544341 -0.9645101167289143 a38.248963418696746,38.248963418696746 0 0,0 0.0424734867437061,-0.657046040714904 l 17.20282197769529 1.26081522169683" fill="#ffc011" stroke="none" /><path d="M 79.05617556472873 98.46500227214037 l -24.679584057155385 -1.8087959803776723 a45.745779683267784,45.745779683267784 0 0,0 0.06431751229657355,-0.7848365603028832 l 24.64479206103931 2.233346457888334" fill="#ddff1b" stroke="none" /><path d="M 79.16333360222342 97.38593545837743 l -15.509627858909335 -1.9457607788961193 a36.63120409087371,36.63120409087371 0 0,0 0.08387499295325007,-0.6249661206593363 l 15.473836866898251 2.2124452416201152" fill="#ffaa0f" stroke="none" /><path d="M 79.21141760316559 97.0276538004421 l -25.380880951884784 -3.628951873613762 a46.63900172773411,46.63900172773411 0 0,0 0.12047099902875129,-0.7937533626018535 l 25.314654059416732 4.065304348607707" fill="#d2ff1c" stroke="none" /><path d="M 79.54389044137918 95.25157060432595 l -24.172084556080648 -5.611010076568566 a45.81477595840161,45.81477595840161 0 0,0 0.1849328697462786,-0.7666661371427781 l 24.071918886073558 6.02626144537074" fill="#dcff1b" stroke="none" /><path d="M 79.71946130924805 94.55025226153421 l -22.315591487023482 -5.9966032507011 a44.107247217313315,44.107247217313315 0 0,0 0.20334119259695238,-0.7315264591950728 l 22.20906352386017 6.379841013315116" fill="#f2ff19" stroke="none" /><line stroke="#e1ed5e" stroke-width="0.3" x1="26.266209847984243" x2="21.928928074336255" y1="57.711370442889674" y2="55.22380399835377" /><path d="M 25.398753493254645 57.213857153982495 a86.0,86.0 0 0,1 29.58750427330803,-30.492523968695096" fill="none" id="id83" stroke="none" /><text fill="#e1ed5e" style="font-size:6.75px; font-family:Arial;" text-anchor="middle"><textPath startOffset="21.46611528233685" xlink:href="#id83">November</textPath></text><path d="M 82.95767976084542 87.72973835380427 l -22.652846976290924 -16.309772116106657 a48.91344017871289,48.91344017871289 0 0,0 0.49783956746517954,-0.6790526105391519 l 22.36874479631211 16.69728717031731" fill="#b7ff1f" stroke="none" /><path d="M 83.39014120810768 87.1503855733568 l -11.616093686065089 -8.986369293070668 a35.686336016681786,35.686336016681786 0 0,0 0.3800525442230135,-0.4826281362230917 l 11.459687061248104 9.184989823246807" fill="#ff9d0e" stroke="none" /><path d="M 84.5562425177563 85.77008943001954 l -20.747636589238926 -19.116915915234365 a49.212070079121574,49.212070079121574 0 0,0 0.5793729465256583,-0.6180346637430949 l 20.415496320742815 19.47121999585551" fill="#b3ff20" stroke="none" /><path d="M 85.05521093208273 85.24692304244772 l -11.377347808890011 -11.231398920024045 a36.987131226870304,36.987131226870304 0 0,0 0.4511799464208483,-0.44924243634640243 l 11.18233206230185 11.425577207020556" fill="#ffaf10" stroke="none" /><line stroke="#e1ed5e" stroke-width="0.3" x1="56.762969772571076" x2="54.21961505331055" y1="26.818313649435495" y2="22.513508569990535" /><path d="M 56.25429882871897 25.957352633546506 a86.0,86.0 0 0,1 42.265352541879196,-11.944610805530505" fill="none" id="id84" stroke="none" /><text fill="#e1ed5e" style="font-size:6.75px; font-family:Arial;" text-anchor="middle"><textPath startOffset="22.20632615414155" xlink:href="#id84">December</textPath></text><path d="M 90.26544431104013 81.39251694778311 l -13.1466624496902 -25.12968301195929 a49.360812785384866,49.360812785384866 0 0,0 0.7562535160853354,-0.38738242398483264 l 12.712148446016101 25.35225796125663" fill="#b2ff20" stroke="none" /><path d="M 90.58718382345135 81.22770947309562 l -5.98515822197641 -11.936398935778271 a34.35289251421356,34.35289251421356 0 0,0 0.530880984864988,-0.2605009936824451 l 5.778805970100996 12.037655089595546" fill="#ff8b0c" stroke="none" /><path d="M 90.91171255644093 81.06846463323043 l -7.89510956475802 -16.446062789933553 a39.242964022602536,39.242964022602536 0 0,0 0.6114834705419578,-0.28709968851762374 l 7.6108478829164525 16.579527461091182" fill="#ffcd13" stroke="none" /><path d="M 91.90106846888425 80.62456947434976 l -8.29800567746739 -19.851684371885412 a42.51618624720098,42.51618624720098 0 0,0 0.6776596828820394,-0.2764343996688959 l 7.95506212499697 19.991579657737883" fill="#fff817" stroke="none" /><path d="M 92.23578459929587 80.48803036053334 l -7.884432826678824 -19.814083715995267 a42.32515403233654,42.32515403233654 0 0,0 0.6792518787085355,-0.26353917612782135 l 7.542197782970613 19.94686559601364" fill="#fff617" stroke="none" /><path d="M 92.91201910852362 80.23233633223022 l -12.118654603534715 -33.79770515417486 a56.90468859478259,56.90468859478259 0 0,0 0.9248854414559057,-0.32267436992227594 l 11.535087158015525 34.001300377269345" fill="#5cff2a" stroke="none" /><path d="M 97.11714578562143 79.19881850522333 l -3.107418407717972 -22.421520296365358 a43.63582606314486,43.63582606314486 0 0,0 0.7448952834776372,-0.09670878643318234 l 2.721008395732477 22.471687405962676" fill="#f8ff18" stroke="none" /><path d="M 97.47563105711357 79.15227682838746 l -1.6704949870113779 -13.795929928118493 a34.896698747658945,34.896698747658945 0 0,0 0.5969550537023723,-0.06707485580823871 l 1.4327732297992877 13.82264073739733" fill="#ff920d" stroke="none" /><path d="M 99.63851952072746 79.00311137660856 l -0.6631723309930786 -38.52090602513015 a59.526614158753986,59.526614158753986 0 0,0 1.024652810265605,-0.00881951023239316 l 9.436298942300633e-15 38.526614158753986" fill="#41ff2d" stroke="none" /></svg>