<?xml version="1.0" encoding="utf-8" ?>
<svg baseProfile="full" height="200mm" version="1.1" viewBox="0,0,200,200" width="200mm" xmlns="http://www.w3.org/2000/svg" xmlns:ev="http://www.w3.org/2001/xml-events" xmlns:xlink="http://www.w3.org/1999/xlink"><defs /><rect fill="#1a1a1a" height="200" width="200" x="0" y="0" /><text alignment-baseline="middle" fill="#e1ed5e" style="dominant-baseline: central; font-size:9.0px; font-family:Arial;" text-anchor="middle" x="100.0" y="100.0">2020</text><line stroke="#e1ed5e" stroke-width="0.3" x1="100.0" x2="100.0" y1="15.0" y2="10.0" /><path d="M 100.0 14.0 a86.0,86.0 0 0,1 42.35913384403234,11.155469271406648" fill="none" id="id61" stroke="none" /><text fill="#e1ed5e" style="font-size:6.75px; font-family:Arial;" text-anchor="middle"><textPath startOffset="22.145653131862478" xlink:href="#id61">January</textPath></text><path d="M 100.0 79.0 l 0.0 -13.237858432890192 a34.23785843289019,34.23785843289019 0 0,0 0.5877383679539816,0.0050450270150501665 l -0.2272454431051268 13.235907804069576" fill="#ffa50f" stroke="none" /><path d="M 101.44090949804482 79.04949213459386 l 1.7760363322859967 -25.823178485042906 a46.88418150384483,46.88418150384483 0 0,0 0.8024584993841596,0.062115362954579374 l -2.2190638264453897 25.788885355093274" fill="#beff1f" stroke="none" /><path d="M 102.51750503828377 79.15144685158666 l 0.7895652305575007 -6.538732762433415 a27.586231046040325,27.586231046040325 0 0,0 0.4696518766382953,0.06080583818896469 l -0.9016949290865877 6.524215328044053" fill="#ff4a06" stroke="none" /><path d="M 103.94208987418118 79.37332000966035 l 3.2856742475740384 -17.19203605708939 a38.503192824437285,38.503192824437285 0 0,0 0.6481435229389438,0.12964685690582062 l -3.580314256043939 17.13309980352071" fill="#ffdb14" stroke="none" /><path d="M 104.9986988182912 79.60360301121754 l 1.53036755479033 -6.2444218627531445 a27.42921684599177,27.42921684599177 0 0,0 0.45636300842677935,0.11600569214842522 l -1.6373358564425038 6.217230938769451" fill="#ff4806" stroke="none" /><path d="M 106.04205211174951 79.88797359093562 l 5.265640750211817 -17.527605500615422 a39.30147335859863,39.30147335859863 0 0,0 0.6444681187133101,0.1996578705772129 l -5.565749501796757 17.434631042231562" fill="#ffe515" stroke="none" /><path d="M 106.38641147887787 79.99465700312896 l 3.0098759334712724 -9.42839349238111 a30.89716913981286,30.89716913981286 0 0,0 0.503884661973227,0.16563689681171553 l -3.1712833330922416 9.375335674167372" fill="#ff780b" stroke="none" /><line stroke="#e1ed5e" stroke-width="0.3" x1="143.13028292997686" x2="145.6673583964461" y1="26.7553504044142" y2="22.446841604673864" /><path d="M 143.63769802327073 25.89364864446614 a86.0,86.0 0 0,1 29.32050498858742,28.57503671076993" fill="none" id="id62" stroke="none" /><text fill="#e1ed5e" style="font-size:6.75px; font-family:Arial;" text-anchor="middle"><textPath startOffset="20.669276256404974" xlink:href="#id62">February</textPath></text><path d="M 115.8921839302757 86.27271002978787 l 3.6463139611298656 -3.1495991543054127 a25.818254905661586,25.818254905661586 0 0,0 0.2868352014404771,0.3378911460600291 l -3.699843726077455 3.0865412257958313" fill="#ff3104" stroke="none" /><path d="M 117.21940702142032 87.97951657250589 l 4.797290223458601 -3.348881152308528 a26.85055539759934,26.85055539759934 0 0,0 0.26059136963044843,0.3802105961582601 l -4.854071329904375 3.2660358210802194" fill="#ff4006" stroke="none" /><path d="M 117.62189284568427 88.57770195909679 l 7.927168745425338 -5.138295007449019 a30.44680262851002,30.44680262851002 0 0,0 0.28051988834166863,0.4410238575881055 l -8.014206325392896 5.001457475182241" fill="#ff720a" stroke="none" /><path d="M 117.81537515405839 88.88188828441811 l 2.2681063207883563 -1.4154660925901335 a23.673546435293854,23.673546435293854 0 0,0 0.212196182574996,0.3466065170740341 l -2.2920704678187547 1.3763224593915446" fill="#ff1202" stroke="none" /><line stroke="#e1ed5e" stroke-width="0.3" x1="172.87174338648825" x2="177.1583165268699" y1="56.24261187166439" y2="53.66864786411523" /><path d="M 173.72905801456457 55.72781907015455 a86.0,86.0 0 0,1 12.242430191666344,42.057860355516425" fill="none" id="id63" stroke="none" /><text fill="#e1ed5e" style="font-size:6.75px; font-family:Arial;" text-anchor="middle"><textPath startOffset="22.145653131862474" xlink:href="#id63">March</textPath></text><path d="M 119.16976305983485 91.42560881287824 l 5.762833994906778 -2.577642345632626 a27.313041716546127,27.313041716546127 0 0,0 0.18776560966315758,0.42964446041760623 l -5.806233486586906 2.4783358154391704" fill="#ff4606" stroke="none" /><path d="M 119.58574465831526 92.42381321644754 l 6.551616114862239 -2.5343058579728353 a28.02469785103089,28.02469785103089 0 0,0 0.16970865057250065,0.45017235824415913 l -6.59415544924918 2.4214652195345185" fill="#ff5007" stroke="none" /><path d="M 120.05942366710727 93.78553927170692 l 13.580851109743124 -4.207382389389701 a35.21765041895311,35.21765041895311 0 0,0 0.17394782391807678,0.5790157323596149 l -13.651075253664827 3.9736290534393626" fill="#ffb110" stroke="none" /><path d="M 120.26092885502905 94.47779374421319 l 13.810270026086892 -3.764050507152959 a35.3140362726183,35.3140362726183 0 0,0 0.15439047643188925,0.5862457863771852 l -13.87284998332351 3.526424216402975" fill="#ffb310" stroke="none" /><path d="M 120.592083275326 95.88100663000786 l 8.407789701111065 -1.6817934141059547 a29.574342933766964,29.574342933766964 0 0,0 0.0953050209355716,0.49867614160342866 l -8.435421014328794 1.5372147074692115" fill="#ff6609" stroke="none" /><path d="M 120.65975698304385 96.23510406497455 l 5.849407941342472 -1.0659569809432123 a26.945741127013683,26.945741127013683 0 0,0 0.07902182786257834,0.4557769038777801 l -5.866844586697285 0.9653870441448397" fill="#ff4106" stroke="none" /><path d="M 120.93736805541906 98.37931529534042 l 9.017692187435882 -0.6980264071788551 a30.044667669542157,30.044667669542157 0 0,0 0.03538981267887992,0.5145601093546911 l -9.028345961279829 0.5431228736698298" fill="#ff6c0a" stroke="none" /><line stroke="#e1ed5e" stroke-width="0.3" x1="184.99686870605535" x2="189.99668451229388" y1="99.2704041080226" y2="99.22748670261217" /><path d="M 185.99683186730306 99.26182062694052 a86.0,86.0 0 0,1 -10.086455211305974,41.156179273409016" fill="none" id="id64" stroke="none" /><text fill="#e1ed5e" style="font-size:6.75px; font-family:Arial;" text-anchor="middle"><textPath startOffset="21.40746469413373" xlink:href="#id64">April</textPath></text><path d="M 120.65975698304385 103.76489593502545 l 2.226649409032284 0.4057696959200807 a23.263319826465295,23.263319826465295 0 0,0 -0.07496738602299345,0.3922610418743333 l -2.2193557307271314 -0.4439333028277285" fill="#ff0c01" stroke="none" /><path d="M 120.35273937422433 105.17358676015961 l 5.8315639657411475 1.4823607559379013 a27.01702016759753,27.01702016759753 0 0,0 -0.11811650708077154,0.44850761638941206 l -5.8052579778556455 -1.5822488767001166" fill="#ff4206" stroke="none" /><path d="M 120.16314734710363 105.8691983318838 l 11.563559463025488 3.365983630565364 a33.04349422950666,33.04349422950666 0 0,0 -0.16320918197253614,0.5432702858769319 l -11.504073961049322 -3.5639915200330194" fill="#ff950d" stroke="none" /><path d="M 120.05942366710727 106.21446072829308 l 10.320755801275569 3.19739652931809 a31.804690873655694,31.804690873655694 0 0,0 -0.16604363445475195,0.520129319994591 l -10.26434745104356 -3.3740948830040645" fill="#ff840c" stroke="none" /><path d="M 119.31412917781788 108.2440532568976 l 12.402485659091198 5.293883630481576 a34.48506041577284,34.48506041577284 0 0,0 -0.23707020479216806,0.5424630229238738 l -12.309781572282064 -5.506008723181295" fill="#ffa80f" stroke="none" /><line stroke="#e1ed5e" stroke-width="0.3" x1="174.33088141563837" x2="178.70328620479359" y1="141.23008692659167" y2="143.65538615756765" /><path d="M 175.20536237346943 141.71514677278685 a86.0,86.0 0 0,1 -30.301960400862466,31.631185727798858" fill="none" id="id65" stroke="none" /><text fill="#e1ed5e" style="font-size:6.75px; font-family:Arial;" text-anchor="middle"><textPath startOffset="22.145653131862474" xlink:href="#id65">May</textPath></text><path d="M 118.36410011445183 110.18625677009912 l 8.655500140881065 4.801060022497889 a30.897871489791104,30.897871489791104 0 0,0 -0.26125862230686187,0.4616189522985377 l -8.571808153552825 -4.94893574489555" fill="#ff780b" stroke="none" /><path d="M 118.18653347947321 110.5 l 6.314180019133237 3.6454935337583283 a28.29098706751666,28.29098706751666 0 0,0 -0.24643644290607675,0.4185029562069691 l -6.250669866097394 -3.753347658258847" fill="#ff5407" stroke="none" /><path d="M 118.00360718960297 110.81064883170644 l 23.31315647796161 13.998880623623688 a48.19323304942592,48.19323304942592 0 0,0 -0.4319766836365955,0.7056014484122762 l -23.069411829869612 -14.39701918816052" fill="#afff20" stroke="none" /><path d="M 117.81537515405839 111.11811171558189 l 4.021659086492904 2.5098127105915773 a25.74055921281635,25.74055921281635 0 0,0 -0.2371591816826749,0.37285362469822203 l -3.977982213184339 -2.5784800099684713" fill="#ff3004" stroke="none" /><path d="M 116.1254893667686 113.45245675266167 l 7.452460433264329 6.217107549369253 a30.705235328923997,30.705235328923997 0 0,0 -0.3411284919538753,0.40184850576627273 l -7.3446373778033385 -6.344122837585082" fill="#ff750a" stroke="none" /><path d="M 115.6541949942343 113.99807769240083 l 5.380594740734032 4.811360995558004 a28.218032584686192,28.218032584686192 0 0,0 -0.3259885515601725,0.35831852295357325 l -5.29720848833198 -4.903017094069249" fill="#ff5307" stroke="none" /><path d="M 115.41159269507618 114.26474011684316 l 3.827512095887418 3.5426880545156916 a26.21540866047644,26.21540866047644 0 0,0 -0.30852311031698476,0.3276408516184301 l -3.7661331518341736 -3.6078703660786187" fill="#ff3705" stroke="none" /><path d="M 115.16444852881244 114.52719865689866 l 4.841352360459189 4.637906045498884 a27.704391483572454,27.704391483572454 0 0,0 -0.33194240777866674,0.34060215291096385 l -4.761023151529715 -4.720330890477586" fill="#ff4c07" stroke="none" /><path d="M 114.65682725009322 115.03919595460226 l 6.735223308539192 6.910932455349863 a30.65008914043273,30.65008914043273 0 0,0 -0.3799553101874022,0.36398859222269475 l -6.615595512486478 -7.025533177878137" fill="#ff740a" stroke="none" /><path d="M 113.31354834802062 116.24036423190432 l 1.8099218853404986 2.207810410933368 a23.85486322643665,23.85486322643665 0 0,0 -0.31891592733823354,0.2568960961896972 l -1.7717551876470126 -2.238554800916469" fill="#ff1502" stroke="none" /><path d="M 113.03279911837588 116.46651593811092 l 10.264695163383182 12.969107017799468 a37.53970083273327,37.53970083273327 0 0,0 -0.5087345494459257,0.395595062702567 l -10.040550669302027 -13.143403132122828" fill="#ffcf13" stroke="none" /><path d="M 111.8722381534696 117.32195027204791 l 3.043956563185264 4.4412235954313095 a26.384249119717108,26.384249119717108 0 0,0 -0.3757917546419409,0.25284946357624677 l -2.9672685204463196 -4.492822733064678" fill="#ff3905" stroke="none" /><path d="M 111.27062007382361 117.71928675628689 l 8.111873599415738 12.75321264467371 a36.11446082575106,36.11446082575106 0 0,0 -0.5259570280920614,0.32823608514305325 l -7.891752442533961 -12.89058452665831" fill="#ffbd11" stroke="none" /><line stroke="#e1ed5e" stroke-width="0.3" x1="143.1302829299769" x2="145.66735839644613" y1="173.24464959558577" y2="177.55315839532614" /><path d="M 143.63769802327073 174.10635135553383 a86.0,86.0 0 0,1 -40.68552437913181,11.842963189579606" fill="none" id="id66" stroke="none" /><text fill="#e1ed5e" style="font-size:6.75px; font-family:Arial;" text-anchor="middle"><textPath startOffset="21.407464694133747" xlink:href="#id66">June</textPath></text><path d="M 110.34350942703117 118.27599006163325 l 6.201893925705947 10.958152312724147 a33.59144909748556,33.59144909748556 0 0,0 -0.5042809312495733,0.2797161319072979 l -6.012868806300278 -11.063001360064588" fill="#ff9c0e" stroke="none" /><path d="M 108.07796709384702 119.3841803445677 l 4.909656265245821 11.781387738983522 a33.763456494975756,33.763456494975756 0 0,0 -0.536912174823228,0.21835750733087633 l -4.7066896292321525 -11.86393250289369" fill="#ff9e0e" stroke="none" /><path d="M 107.407793817531 119.65005319985036 l 6.692074794254062 17.751523458073052 a39.97104241032655,39.97104241032655 0 0,0 -0.6441254462546416,0.2365317859317929 l -6.386360196345294 -17.86378609301357" fill="#ffee16" stroke="none" /><path d="M 106.0420521117495 120.11202640906438 l 2.6061214464925735 8.674930700309849 a30.057940806223392,30.057940806223392 0 0,0 -0.49544072659526484,0.1442155748813645 l -2.4568207075157016 -8.718389969493732" fill="#ff6c0a" stroke="none" /><path d="M 105.3480935250658 120.30758222061773 l 3.198672132193329 12.145879090720538 a33.560011237880026,33.560011237880026 0 0,0 -0.55836620408626,0.14193450560466894 l -2.9897006348816717 -12.198998828160477" fill="#ff9c0e" stroke="none" /><path d="M 104.64783097203109 120.47920084513623 l 3.806046332788684 16.77014240494468 a38.1966178351866,38.1966178351866 0 0,0 -0.6406802075994544,0.13963326930623177 l -3.5176037085700935 -16.83300713238463" fill="#ffd814" stroke="none" /><path d="M 103.94208987418118 120.62667999033965 l 2.296603792721756 12.016801495909997 a33.23429226285071,33.23429226285071 0 0,0 -0.5612880533640946,0.10228538081175213 l -2.0899810058066044 -12.054455050653113" fill="#ff970e" stroke="none" /><path d="M 103.2317021107853 120.74984581791261 l 1.9489685587006638 12.513776242566806 a33.66463873514887,33.66463873514887 0 0,0 -0.5717776888387925,0.08403163001320821 l -1.7338657642541857 -12.545388945878896" fill="#ff9d0e" stroke="none" /><path d="M 102.15924093988457 120.88869738790638 l 1.148040968199127 11.106254948515682 a32.16543313293724,32.16543313293724 0 0,0 -0.5497232378724415,0.052059362171616 l -0.9572181669416703 -11.124326066192483" fill="#ff890c" stroke="none" /><path d="M 101.44090949804482 120.95050786540614 l 0.4849768049589598 7.051456306325356 a28.06811421394447,28.06811421394447 0 0,0 -0.4809747345180453,0.028934245662978798 l -0.3638577183084494 -7.058742529813027" fill="#ff5107" stroke="none" /><path d="M 100.72087961077811 120.9876233191556 l 0.44287022368680723 12.893683348841257 a33.901286925544085,33.901286925544085 0 0,0 -0.5817891639920788,0.014984825116196223 l -0.2214677456239846 -12.8993858913075" fill="#ffa00e" stroke="none" /><line stroke="#e1ed5e" stroke-width="0.3" x1="101.45913802915013" x2="101.54496967792366" y1="184.9874750549273" y2="189.98673829345242" /><path d="M 101.47630435890484 185.9873277026323 a86.0,86.0 0 0,1 -42.54439059252881,-10.42667462771756" fill="none" id="id67" stroke="none" /><text fill="#e1ed5e" style="font-size:6.75px; font-family:Arial;" text-anchor="middle"><textPath startOffset="22.145653131862474" xlink:href="#id67">July</textPath></text><path d="M 100.0 121.0 l 1.5667338569532462e-15 12.79335281032921 a33.79335281032921,33.79335281032921 0 0,0 -0.580107837859274,-0.004979528091437363 l 0.21961491301042033 -12.791467680432207" fill="#ff9f0e" stroke="none" /><path d="M 99.27912038922189 120.98762331915562 l -0.4774406027208161 13.900162214824354 a34.908359325512016,34.908359325512016 0 0,0 -0.5987186556542338,-0.025711555201616453 l 0.7159850189758886 -13.889918091196908" fill="#ffad10" stroke="none" /><path d="M 98.19965949673042 120.92268563240118 l -1.0927060368132917 12.698900488741643 a33.74582598758711,33.74582598758711 0 0,0 -0.5767329371846815,-0.05461720877836364 l 1.3105385373829885 -12.678271524458095" fill="#ff9e0e" stroke="none" /><path d="M 96.41257539226777 120.69131181640829 l -2.0457936204798055 11.799593954428854 a32.97562896164497,32.97562896164497 0 0,0 -0.5569195348572995,-0.10148929121680235 l 2.2480478888881623 -11.762736489280686" fill="#ff940d" stroke="none" /><path d="M 95.00130118170881 120.39639698878247 l -3.060984549074666 12.489861523763295 a33.85948161056489,33.85948161056489 0 0,0 -0.5633487451840001,-0.1432010480676427 l 3.2749385874840446 -12.43547524386039" fill="#ffa00e" stroke="none" /><path d="M 93.95794788825049 120.11202640906438 l -1.9512650345257474 6.49512668537751 a27.78189544995098,27.78189544995098 0 0,0 -0.45556933022721713,-0.14113654303808107 l 2.062474997624598 -6.46067355453278" fill="#ff4d07" stroke="none" /><path d="M 93.27111125876986 119.89276391827306 l -4.088840318381251 12.087929861982671 a33.76074698038608,33.76074698038608 0 0,0 -0.5473971180128533,-0.19041313285772163 l 4.295743208439126 -12.01595829655636" fill="#ff9e0e" stroke="none" /><path d="M 91.92203290615298 119.3841803445677 l -7.375977867278345 17.699661751007742 a40.1750639007714,40.1750639007714 0 0,0 -0.6343162877277331,-0.27075190445297653 l 7.6787292301765095 -17.57043519689536" fill="#fff016" stroke="none" /><path d="M 91.59046798132341 119.24265499422711 l -7.671234665584038 17.553286166430336 a40.15634872659852,40.15634872659852 0 0,0 -0.6292817217227981,-0.2814697099862441 l 7.97142979016247 -17.419012705534236" fill="#fff016" stroke="none" /><path d="M 90.93487009805054 118.94263497670748 l -5.543003767486357 11.582745992357845 a33.84075136001977,33.84075136001977 0 0,0 -0.5218562135815756,-0.25526602461109976 l 5.741020230330002 -11.485886217649524" fill="#ff9f0e" stroke="none" /><line stroke="#e1ed5e" stroke-width="0.3" x1="58.13341422392154" x2="55.67067388415222" y1="173.97424548756322" y2="178.32567169271397" /><path d="M 57.64086615596768 174.84453072859336 a86.0,86.0 0 0,1 -31.369924170532247,-30.572349798747897" fill="none" id="id68" stroke="none" /><text fill="#e1ed5e" style="font-size:6.75px; font-family:Arial;" text-anchor="middle"><textPath startOffset="22.145653131862474" xlink:href="#id68">August</textPath></text><path d="M 89.65649057296885 118.27599006163327 l -3.0322086116517286 5.357622076171083 a27.15616791321116,27.15616791321116 0 0,0 -0.40373143650248833,-0.23309445354502772 l 3.1237325160146168 -5.304780725349883" fill="#ff4406" stroke="none" /><path d="M 89.03521579738668 117.91015095944536 l -6.399969653433816 10.453869452492233 a33.257365055126,33.257365055126 0 0,0 -0.4843473912282395,-0.30226859430458963 l 6.5784811734517685 -10.342465061346097" fill="#ff980e" stroke="none" /><path d="M 88.4268655584334 117.5232005979908 l -9.098193439042552 13.775824476647587 a37.50910245487742,37.50910245487742 0 0,0 -0.5342434178287406,-0.35946281404137703 l 9.333333144968297 -13.61761198854909" fill="#ffcf13" stroke="none" /><path d="M 87.83215693770417 117.11559508785305 l -4.052894102790317 5.700903113408354 a27.99472993881119,27.99472993881119 0 0,0 -0.389285369123127,-0.28181258641352563 l 4.150160482287398 -5.630489755621763" fill="#ff5007" stroke="none" /><path d="M 87.2517909369889 116.68781488649013 l -8.679745809610543 11.362065888363828 a35.298060307991875,35.298060307991875 0 0,0 -0.4783560446343075,-0.3719725536183059 l 8.87351179888008 -11.211392283124729" fill="#ffb210" stroke="none" /><line stroke="#e1ed5e" stroke-width="0.3" x1="26.387840678322732" x2="22.057713659400548" y1="142.50000000000003" y2="145.00000000000006" /><path d="M 25.521815274538298 143.00000000000003 a86.0,86.0 0 0,1 -11.493303480769221,-40.785679425670985" fill="none" id="id69" stroke="none" /><text fill="#e1ed5e" style="font-size:6.75px; font-family:Arial;" text-anchor="middle"><textPath startOffset="21.40746469413373" xlink:href="#id69">September</textPath></text><path d="M 81.29705330413844 109.54985784667822 l -4.212202097894049 2.150780404312912 a25.729535163319905,25.729535163319905 0 0,0 -0.19748041479264605,-0.3950931164707249 l 4.248502425898432 -2.0781554316784345" fill="#ff3004" stroke="none" /><path d="M 80.28708602549918 107.23885506374661 l -3.70579822578942 1.360820439163826 a24.947755407558837,24.947755407558837 0 0,0 -0.14417406447841125,-0.40328051798214587 l 3.7286124603117745 -1.2970049648007584" fill="#ff2503" stroke="none" /><path d="M 80.05021161711548 106.5578916946017 l -2.306479693839784 0.7581856878730644 a23.427899115571076,23.427899115571076 0 0,0 -0.12231068467987785,-0.38313647770672216 l 2.3191550942969164 -0.7184801764749505" fill="#ff0e01" stroke="none" /><path d="M 79.64726062577567 105.17358676015961 l -8.016323510884446 2.037718088877583 a29.271259737240612,29.271259737240612 0 0,0 -0.11961139047793547,-0.4880552906370595 l 8.050122427878675 -1.899806973632424" fill="#ff6209" stroke="none" /><path d="M 79.48165901384964 104.47187691870673 l -14.085967328716666 3.069971018488441 a35.416629205193296,35.416629205193296 0 0,0 -0.12436682440359714,-0.5951402760684491 l 14.13659186394463 -2.8277142911345825" fill="#ffb410" stroke="none" /><path d="M 79.407916724674 104.11899336999214 l -5.262568495849241 1.0526610859963785 a26.366816797271547,26.366816797271547 0 0,0 -0.08496858349468907,-0.4445915331500177 l 5.279863371626087 -0.9621669878130463" fill="#ff3905" stroke="none" /><path d="M 79.17382384314188 102.69636545807758 l -11.851015285035006 1.5343511942395178 a32.94992873926023,32.94992873926023 0 0,0 -0.06781081800017405,-0.561570849557364 l 11.87560818929484 -1.3306866677587545" fill="#ff930d" stroke="none" /><path d="M 79.0935383218832 101.97986365728391 l -21.291608380639374 2.0163374504483174 a42.38686990067956,42.38686990067956 0 0,0 -0.062382123514865544,-0.7249748350452457 l 21.32308412685198 -1.6505415680274096" fill="#f3ff19" stroke="none" /><path d="M 79.00696218219943 100.54070618675478 l -28.375365363250094 0.7308487574069333 a49.38477583853951,49.38477583853951 0 0,0 -0.014553383964826049,-0.8476616550085044 l 28.383730178813586 -0.2436401864293765" fill="#a1ff22" stroke="none" /><line stroke="#e1ed5e" stroke-width="0.3" x1="15.003131293944662" x2="10.003315487706104" y1="100.72959589197737" y2="100.7725132973878" /><path d="M 14.003168132696942 100.73817937305945 a86.0,86.0 0 0,1 10.791469493833604,-42.45332614584628" fill="none" id="id70" stroke="none" /><text fill="#e1ed5e" style="font-size:6.75px; font-family:Arial;" text-anchor="middle"><textPath startOffset="22.145653131862435" xlink:href="#id70">October</textPath></text><path d="M 79.00696218219943 99.45929381324524 l -10.008257237364147 -0.2577772047019954 a31.01157640017374,31.01157640017374 0 0,0 0.01827514117491597,-0.5320607953796763 l 10.00235740919238 0.4295442646458103" fill="#ff790b" stroke="none" /><path d="M 79.03789590574601 98.7389718711861 l -23.929939422611177 -1.4395657323826268 a44.973200667989474,44.973200667989474 0 0,0 0.05297423039308421,-0.7702336836699771 l 23.901701231053032 1.8501428402069289" fill="#d4ff1c" stroke="none" /><path d="M 79.0935383218832 98.0201363427161 l -11.953011567490094 -1.1319626229405775 a33.00649094916106,33.00649094916106 0 0,0 0.058260554860048594,-0.5636180185561489 l 11.931818620148382 1.336985163779639" fill="#ff940d" stroke="none" /><path d="M 79.13060592940154 97.66154086499901 l -13.441401182204185 -1.5061370385458988 a34.52552085946563,34.52552085946563 0 0,0 0.07105338011163846,-0.5884239153864069 l 13.413565715832878 1.736654630855742" fill="#ffa80f" stroke="none" /><path d="M 79.2786578344484 96.59031103205396 l -14.59810197320566 -2.402112124461684 a35.79441529356929,35.79441529356929 0 0,0 0.10497169517205826,-0.6054488426099762 l 14.554715460541367 2.6523539999922527" fill="#ffb911" stroke="none" /><path d="M 79.407916724674 95.88100663000787 l -4.2063558703055 -0.8413889799278477 a25.289681237947356,25.289681237947356 0 0,0 0.08880566604801424,-0.42496726005274627 l 4.191292493433118 0.913472691266003" fill="#ff2904" stroke="none" /><path d="M 79.64726062577567 94.8264132398404 l -1.3959186889562076 -0.3548370720350963 a22.44031188770615,22.44031188770615 0 0,0 0.0981074612054376,-0.37253001009569164 l 1.3896217469460446 0.37874758650357254" fill="#ff0000" stroke="none" /><path d="M 79.73907114497095 94.47779374421319 l -31.940132307643484 -8.705425091907733 a54.10523339081886,54.10523339081886 0 0,0 0.25192815750528297,-0.8940041553329644 l 31.78598565806362 9.25243717114371" fill="#6eff28" stroke="none" /><path d="M 80.28708602549916 92.7611449362534 l -5.002717878216724 -1.8370672997441408 a26.329352909389513,26.329352909389513 0 0,0 0.15944218119502168,-0.42293932849045995 l 4.970445013207266 1.9226749084287458" fill="#ff3805" stroke="none" /><path d="M 80.5471966667186 92.08871423366112 l -10.5429503238024 -4.287726113449891 a32.38149360822758,32.38149360822758 0 0,0 0.21383220375087514,-0.5131194461216022 l 10.467792275515047 4.4680780690127575" fill="#ff8c0c" stroke="none" /><path d="M 81.1358732173502 90.77261029715801 l -8.502603259605408 -4.159049325155826 a30.465302608967747,30.465302608967747 0 0,0 0.23382857707351923,-0.46781378970108933 l 8.429954769320144 4.304394971020686" fill="#ff720a" stroke="none" /><path d="M 81.63589988554816 89.8137432299009 l -12.611879804752478 -6.995597129408856 a35.42213199934451,35.42213199934451 0 0,0 0.2995137515663091,-0.5292121001642945 l 12.4899326881648 7.211065999672256" fill="#ffb410" stroke="none" /><line stroke="#e1ed5e" stroke-width="0.3" x1="26.387840678322718" x2="22.05771365940052" y1="57.49999999999999" y2="54.99999999999999" /><path d="M 25.521815274538284 56.99999999999999 a86.0,86.0 0 0,1 29.574782752854787,-30.34633250058573" fill="none" id="id71" stroke="none" /><text fill="#e1ed5e" style="font-size:6.75px; font-family:Arial;" text-anchor="middle"><textPath startOffset="21.40746469413373" xlink:href="#id71">November</textPath></text><path d="M 81.81346652052679 89.5 l -18.040301129240472 -10.415572713228899 a41.831145426457795,41.831145426457795 0 0,0 0.36438172542302727,-0.6187998312224176 l 17.858845693687666 10.72372371274489" fill="#f9ff18" stroke="none" /><path d="M 82.37810715431573 88.57770195909679 l -10.59653879004408 -6.8685484199569515 a33.627889440686516,33.627889440686516 0 0,0 0.3181447525019088,-0.48171170441656774 l 10.477069598621442 7.04944000271258" fill="#ff9c0e" stroke="none" /><path d="M 82.98947788004972 87.6856937992154 l -14.077612679368897 -10.191105945330204 a38.37923528637761,38.37923528637761 0 0,0 0.3909162341749338,-0.5303529492948853 l 13.900594425610146 10.431265203893952" fill="#ffda14" stroke="none" /><path d="M 84.10781606972428 86.27271002978789 l -4.351224426861789 -3.758484025547364 a26.749726618128328,26.749726618128328 0 0,0 0.3031494751069942,-0.34492845429016206 l 4.286063887796202 3.832624757648826" fill="#ff3e05" stroke="none" /><path d="M 84.58840730492382 85.73525988315684 l -20.609981874326763 -19.0762915337133 a49.083380343884876,49.083380343884876 0 0,0 0.5776510053569001,-0.6134453498116335 l 20.27947503523359 19.427278343469442" fill="#a5ff21" stroke="none" /><path d="M 85.08716467003674 85.21462403516908 l -5.04662660459593 -5.0034933030574 a28.106573388065144,28.106573388065144 0 0,0 0.34264332784783136,-0.3397147699936064 l 4.959991356618121 5.0893880832796805" fill="#ff5107" stroke="none" /><path d="M 86.40962598614128 83.9905735841838 l -40.77112204157617 -48.0282792474486 a84.0,84.0 0 0,0 1.107302663352364,-0.9237512643524726 l 39.940645044061895 48.721092695712954" fill="#4dd2ff" stroke="none" /><path d="M 87.83215693770416 82.88440491214696 l -2.6007232439585324 -3.658242940122464 a25.488485579861212,25.488485579861212 0 0,0 0.35878673599779376,-0.25046100650860154 l 2.537541416786973 3.702348762436192" fill="#ff2c04" stroke="none" /><path d="M 88.72937992617638 82.28071324371311 l -19.95042729583865 -31.36538538695404 a58.17266401212985,58.17266401212985 0 0,0 0.8472041608939943,-0.528718055346677 l 19.40905900615496 31.703239239142253" fill="#44ff2d" stroke="none" /><line stroke="#e1ed5e" stroke-width="0.3" x1="56.869717070023135" x2="54.33264160355391" y1="26.7553504044142" y2="22.446841604673864" /><path d="M 56.362301976729285 25.89364864446614 a86.0,86.0 0 0,1 42.16139366436587,-11.88097634709845" fill="none" id="id72" stroke="none" /><text fill="#e1ed5e" style="font-size:6.75px; font-family:Arial;" text-anchor="middle"><textPath startOffset="22.145653131862474" xlink:href="#id72">December</textPath></text><path d="M 90.61103034731259 81.2157712731953 l -4.823888706516735 -9.651008807971202 a31.78943340794119,31.78943340794119 0 0,0 0.49022296147277317,-0.23979261584220482 l 4.657505495781908 9.732395173910621" fill="#ff840c" stroke="none" /><path d="M 90.93487009805054 81.0573650232925 l -4.689680089788638 -9.799627700789486 a31.863968078866975,31.863968078866975 0 0,0 0.4954259618375051,-0.23188436566325618 l 4.52076541407961 9.878688298023286" fill="#ff850c" stroke="none" /><path d="M 91.92203290615298 80.6158196554323 l -3.1090641135979173 -7.460622057585569 a29.082521954723955,29.082521954723955 0 0,0 0.46247516495767255,-0.18808462344114535 l 2.9805344874498036 7.512893937606006" fill="#ff5f08" stroke="none" /><path d="M 93.95794788825049 79.88797359093562 l -3.1367894969201378 -10.44135204975357 a31.90235208452202,31.90235208452202 0 0,0 0.5258418931206436,-0.15306491138555808 l 2.95708759141787 10.49366065544165" fill="#ff850c" stroke="none" /><path d="M 95.35216902796891 79.52079915486377 l -3.7368215578089483 -16.465125273555746 a37.883843923372126,37.883843923372126 0 0,0 0.6354339825117664,-0.13848987896605874 l 3.4536251586780637 16.526846610655518" fill="#ffd413" stroke="none" /><path d="M 95.70440661134978 79.44403061299748 l -1.9373960093291327 -9.271141249890176 a30.47140767639001,30.47140767639001 0 0,0 0.5129404621153449,-0.10260245815853856 l 1.7779590616828111 9.30303310471158" fill="#ff720a" stroke="none" /><path d="M 97.12497278360702 79.19773525538626 l -2.557500520951977 -18.504799752149026 a39.68069652828299,39.68069652828299 0 0,0 0.6755585262705782,-0.08746457637860759 l 2.2394641727906053 18.545975924728026" fill="#ffea16" stroke="none" /><path d="M 97.84075906011542 79.11130261209362 l -1.560186263290709 -15.093386810454863 a36.173809890273894,36.173809890273894 0 0,0 0.618228388745083,-0.05854687118379205 l 1.3008583111606105 15.11794543714384" fill="#ffbe11" stroke="none" /><path d="M 98.1996594967304 79.07731436759882 l -0.52466294060824 -6.097378662192757 a27.119909946348166,27.119909946348166 0 0,0 0.46417792826769083,-0.03593030731430766 l 0.41991601756533203 6.105486736502118" fill="#ff4306" stroke="none" /><path d="M 99.27912038922189 79.0123766808444 l -0.42459558229882477 -12.361637104212884 a33.36892692616301,33.36892692616301 0 0,0 0.572653189901686,-0.014749514831158847 l 0.2123290783263948 12.367104336394089" fill="#ff990e" stroke="none" /></svg>