<?xml version="1.0" encoding="utf-8" ?>
<svg baseProfile="full" height="200mm" version="1.1" viewBox="0,0,200,200" width="200mm" xmlns="http://www.w3.org/2000/svg" xmlns:ev="http://www.w3.org/2001/xml-events" xmlns:xlink="http://www.w3.org/1999/xlink"><defs /><rect fill="#1a1a1a" height="200" width="200" x="0" y="0" /><text alignment-baseline="middle" fill="#e1ed5e" style="dominant-baseline: central; font-size:9.0px; font-family:Arial;" text-anchor="middle" x="100.0" y="100.0">2021</text><line stroke="#e1ed5e" stroke-width="0.3" x1="100.0" x2="100.0" y1="15.0" y2="10.0" /><path d="M 100.0 14.0 a86.0,86.0 0 0,1 42.46469731375804,11.215312516191453" fill="none" id="id73" stroke="none" /><text fill="#e1ed5e" style="font-size:6.75px; font-family:Arial;" text-anchor="middle"><textPath startOffset="22.20632615414155" xlink:href="#id73">January</textPath></text><path d="M 100.0 79.0 l 0.0 -23.463533632775437 a44.46353363277544,44.46353363277544 0 0,0 0.7653666403678976,0.006587752308518479 l -0.40388616109536923 23.460057257075476" fill="#d8ff1c" stroke="none" /><path d="M 100.36148047927253 79.00311137660856 l 0.2037580365983791 -11.835451831830694 a32.837205641580404,32.837205641580404 0 0,0 0.5650710234998086,0.014594117415092882 l -0.4074556952930555 11.83019092227324" fill="#ff950d" stroke="none" /><path d="M 100.72285384407766 79.0124445844662 l 1.9410538889187416 -56.35714106245073 a77.39055806544795,77.39055806544795 0 0,0 1.3309671205639184,0.05731424397519195 l -2.910861841871992 56.31537909195134" fill="#45ffed" stroke="none" /><path d="M 101.80526077348638 79.07773832637324 l 1.023085211335554 -11.857154833449187 a32.901211034766206,32.901211034766206 0 0,0 0.5638247209387401,0.05354195104306405 l -1.2270350593645383 11.837787337890944" fill="#ff950d" stroke="none" /><path d="M 102.88285421437855 79.19881850522331 l 2.978580375299982 -21.491891846064398 a42.69731218780454,42.69731218780454 0 0,0 0.7271372995562152,0.1071611363713517 l -3.3480866552848534 21.43743622553208" fill="#edff1a" stroke="none" /><path d="M 103.2404852339499 79.25152402106235 l 7.696487591825963 -49.279776450807105 a70.87717201578948,70.87717201578948 0 0,0 1.2038008195001493,0.1986374497809651 l -8.543617617464987 49.13999273808651" fill="#3dffaa" stroke="none" /><path d="M 103.95276090670814 79.375362276772 l 2.668797353192666 -13.925198074312188 a35.178632540595586,35.178632540595586 0 0,0 0.593737573399996,0.11909817163094916 l -2.9081013360597874 13.877195946604031" fill="#ffb310" stroke="none" /><path d="M 104.66035177308747 79.52364482259891 l 5.7407428499390285 -25.223308303956845 a46.86834765240301,46.86834765240301 0 0,0 0.7851035493009998,0.185808644441213 l -6.174070086202551 25.120753747374764" fill="#bcff1f" stroke="none" /><path d="M 105.01212808612495 79.60689891045804 l 3.010305021374282 -12.248181522173308 a33.612687537627295,33.612687537627295 0 0,0 0.5606774129446892,0.14292915656295963 l -3.2206913230039964 12.19454936944148" fill="#ff9f0e" stroke="none" /><path d="M 106.74666289553966 80.11325718540242 l 7.4780362915940115 -22.04256931044749 a44.276509372847954,44.276509372847954 0 0,0 0.7196366402959117,0.25106709336340444 l -7.856354935953197 21.910581363911877" fill="#daff1c" stroke="none" /><path d="M 107.76421540070413 80.48803036053334 l 5.613278514823868 -14.10652774383113 a36.18232593091258,36.18232593091258 0 0,0 0.5767051488041336,0.2352525104011287 l -5.85526753321639 14.007814347246422" fill="#ffc011" stroke="none" /><path d="M 108.09893153111575 80.62456947434976 l 4.790395958841119 -11.460275189916931 a33.42118355355507,33.42118355355507 0 0,0 0.5288762918436923,0.22643722724009652 l -4.9869560084751265 11.376118434714044" fill="#ff9c0e" stroke="none" /><path d="M 108.43124777332544 80.76684994638697 l 9.346495150487407 -21.32098931707581 a44.27963825013064,44.27963825013064 0 0,0 0.6954388801293054,0.31202315395723296 l -9.712116149083492 21.156945832602048" fill="#daff1c" stroke="none" /><path d="M 110.05341064243156 81.56283822128135 l 30.16023192729467 -55.311485336155954 a84.0,84.0 0 0,0 1.263503643711855,0.7031384097592803 l -31.10785966007856 54.7841315288365" fill="#4dd2ff" stroke="none" /><path d="M 110.36928655335952 81.73862282372117 l 11.474468327862981 -20.20771563733892 a44.23822701254729,44.23822701254729 0 0,0 0.6589458075935916,0.3817039437670847 l -11.8206108679219 20.007207536181784" fill="#dbff1b" stroke="none" /><line stroke="#e1ed5e" stroke-width="0.3" x1="143.23703022742887" x2="145.7803849466894" y1="26.81831364943548" y2="22.513508569990506" /><path d="M 143.74570117128098 25.957352633546492 a86.0,86.0 0 0,1 28.547481713284135,27.462654790039103" fill="none" id="id74" stroke="none" /><text fill="#e1ed5e" style="font-size:6.75px; font-family:Arial;" text-anchor="middle"><textPath startOffset="19.985693538727396" xlink:href="#id74">February</textPath></text><path d="M 110.68208982089419 81.91981866633111 l 5.652862684073868 -9.56786397568694 a32.113004885369335,32.113004885369335 0 0,0 0.473495451440413,0.28527571151608205 l -5.8167202017319175 9.469141654712242" fill="#ff8b0c" stroke="none" /><path d="M 112.19680574252982 82.90503203632743 l 13.123964226913694 -18.394467596803736 a43.59634650113095,43.59634650113095 0 0,0 0.607140748767565,0.44111357446465166 l -13.438650292035048 18.16583478752241" fill="#e2ff1b" stroke="none" /><path d="M 113.89432698308785 84.25364557470405 l 37.61455556876964 -42.62834207491827 a77.85094844144912,77.85094844144912 0 0,0 0.9971928445705189,0.8952895817552602 l -38.342759400936146 41.974553484393724" fill="#45fff2" stroke="none" /><path d="M 114.16331599549186 84.49514656593476 l 12.005333528173312 -13.14246867334208 a38.800351568226404,38.800351568226404 0 0,0 0.4892393905359335,0.45469469426819753 l -12.229780802504091 12.933869392999242" fill="#ffe115" stroke="none" /><path d="M 114.42810811169701 84.74124197986012 l 38.883412598644775 -41.12199459879114 a77.59450693397244,77.59450693397244 0 0,0 0.962603298092002,0.9260236100949206 l -39.5854991403492 40.44658790193392" fill="#45ffef" stroke="none" /><path d="M 114.68862486808459 84.99185889309783 l 9.04924046761307 -9.246085257668948 a33.937497657304874,33.937497657304874 0 0,0 0.41397961579556897,0.41220185576305035 l -9.20705588357596 9.08894755125578" fill="#ffa30f" stroke="none" /><path d="M 114.94478906791727 85.2469230424477 l 9.856881780289015 -9.73043746587752 a34.85061484945511,34.85061484945511 0 0,0 0.4177688185489021,0.4305474904305485 l -10.022914862541027 9.559325779896858" fill="#ffaf10" stroke="none" /><path d="M 115.19652480421416 85.50635884689758 l 18.735005961061184 -17.868457222901046 a46.88980903536453,46.88980903536453 0 0,0 0.5520330028622266,0.5888703180653972 l -19.039806285893874 17.543317487957594" fill="#bcff1f" stroke="none" /><path d="M 116.15771136456269 86.58626213691792 l 7.660833758723572 -6.359837326809985 a30.95670149709653,30.95670149709653 0 0,0 0.3368406177346214,0.41292676885968294 l -7.769172868534603 6.2270263883422015" fill="#ff7b0b" stroke="none" /><path d="M 117.45458315368197 88.32363383020206 l 20.042079632956828 -13.40729013911101 a45.1130749778639,45.1130749778639 0 0,0 0.4262183745218288,0.6491598255586317 l -20.269894642836583 13.060312249574704" fill="#d0ff1d" stroke="none" /><path d="M 117.65298651832404 88.62581576622439 l 18.043569399195018 -11.625844860206945 a42.464637555224805,42.464637555224805 0 0,0 0.39061886243271615,0.6178652330458381 l -18.241015857873688 11.313531979446902" fill="#f0ff19" stroke="none" /><line stroke="#e1ed5e" stroke-width="0.3" x1="172.23445277983987" x2="176.4835382374775" y1="55.19839476539836" y2="52.563006222186495" /><path d="M 173.08426987136738 54.67131705675599 a86.0,86.0 0 0,1 12.851231095245387,41.99856678651699" fill="none" id="id75" stroke="none" /><text fill="#e1ed5e" style="font-size:6.75px; font-family:Arial;" text-anchor="middle"><textPath startOffset="22.20632615414155" xlink:href="#id75">March</textPath></text><path d="M 119.7369772167798 92.82701384747503 l 11.463101321917813 -4.16602127792913 a33.19665631247811,33.19665631247811 0 0,0 0.1905597450421345,0.5387380602853548 l -11.533114147769757 3.968085591217161" fill="#ff990e" stroke="none" /><path d="M 120.78858239683441 97.02765380044208 l 6.062096549528497 -0.8667570157688076 a27.12374740662854,27.12374740662854 0 0,0 0.06210563313596856,0.4627591042983873 l -6.076118181722301 0.7622795694057559" fill="#ff4706" stroke="none" /><path d="M 120.83666639777658 97.38593545837742 l 16.893885425410332 -2.119422849017344 a38.026312518564566,38.026312518564566 0 0,0 0.0758890159156309,0.6501707437241261 l -16.92786479432955 1.8283083669683653" fill="#ffd814" stroke="none" /><path d="M 120.87857604477298 97.74499172005257 l 6.8076532051722465 -0.7352663472716722 a27.847244611033126,27.847244611033126 0 0,0 0.04737064853981768,0.47701596614512737 l -6.819300979394293 0.6179748504221099" fill="#ff5107" stroke="none" /><line stroke="#e1ed5e" stroke-width="0.3" x1="184.98032266829074" x2="189.97916517819016" y1="98.17113171792111" y2="98.06355123074" /><path d="M 185.9800911702706 98.14961562048488 a86.0,86.0 0 0,1 -9.607161424134198,41.387399972396054" fill="none" id="id76" stroke="none" /><text fill="#e1ed5e" style="font-size:6.75px; font-family:Arial;" text-anchor="middle"><textPath startOffset="21.466115282336823" xlink:href="#id76">April</textPath></text><path d="M 120.99513854157772 99.54816195383933 l 12.320781678878523 -0.2651565223031045 a33.32363457588339,33.32363457588339 0 0,0 0.007405769779880749,0.5735850308964073 l -12.32352045577612 0.05303523334623441" fill="#ff9b0e" stroke="none" /><path d="M 120.99824983174949 100.27111621757518 l 30.597146761509194 0.39505114783568895 a51.59969698142024,51.59969698142024 0 0,0 -0.019111390885433174,0.8880312376775877 l -30.585813307938754 -0.9216722013033916" fill="#87ff25" stroke="none" /><path d="M 120.9904718944345 100.63252640178507 l 24.77183668716076 0.7464739622881795 a45.783081249750566,45.783081249750566 0 0,0 -0.030517404237932307,0.7875186023436349 l -24.755317150071626 -1.1727698116458207" fill="#c9ff1d" stroke="none" /><path d="M 120.9764740272857 100.99374915477107 l 20.83672103932667 0.9871284322663967 a41.8600902733547,41.8600902733547 0 0,0 -0.04029262745723522,0.7194519303050548 l -20.816642060981906 -1.3456520789068749" fill="#f7ff18" stroke="none" /><path d="M 120.92983693683757 101.71520430193887 l 15.199745147520726 1.245622139535943 a36.25069923197235,36.25069923197235 0 0,0 -0.0563187475086387,0.6214726857922898 l -15.176051803735012 -1.5070762138768032" fill="#ffc112" stroke="none" /><path d="M 120.81339534386255 102.79330883721812 l 52.24427761888802 7.01156154274221 a73.7126791122127,73.7126791122127 0 0,0 -0.1795990085183386,1.2561150472743055 l -52.11584455935308 -7.909822061996924" fill="#40ffc8" stroke="none" /><path d="M 118.81262510543309 109.33194174019688 l 4.854220380343117 2.4079202944599074 a26.418628576070734,26.418628576070734 0 0,0 -0.2055889249678078,0.4056464531878502 l -4.81205278558904 -2.491120959350452" fill="#ff3d05" stroke="none" /><line stroke="#e1ed5e" stroke-width="0.3" x1="174.80103733775053" x2="179.2010983576182" y1="140.37084112569926" y2="142.7455964860345" /><path d="M 175.68104954172406 140.8457921977663 a86.0,86.0 0 0,1 -30.038265399797805,32.042727171017184" fill="none" id="id77" stroke="none" /><text fill="#e1ed5e" style="font-size:6.75px; font-family:Arial;" text-anchor="middle"><textPath startOffset="22.206326154141568" xlink:href="#id77">May</textPath></text><path d="M 118.30583269289576 110.29060199501023 l 17.973356208674613 10.103700736312085 a41.6185911733284,41.6185911733284 0 0,0 -0.35642954978443864,0.6214649635853396 l -17.796774662737793 -10.411585545755738" fill="#faff18" stroke="none" /><path d="M 118.12598468904814 110.60418214915192 l 15.256445637374197 8.925425639639887 a38.67547329875201,38.67547329875201 0 0,0 -0.3411160617310211,0.571730140420403 l -15.10054869994495 -9.186717873946394" fill="#ffe015" stroke="none" /><path d="M 117.94076556474637 110.91462005526583 l 18.496897463818947 11.252953910478677 a42.65096273837238,42.65096273837238 0 0,0 -0.38697697875543186,0.6239301059062388 l -18.30045584539555 -11.56968034775019" fill="#edff19" stroke="none" /><path d="M 117.75023020441432 111.22182372390056 l 24.51531763764313 15.498760855318071 a50.00366161237019,50.00366161237019 0 0,0 -0.46621303604960784,0.723572985182672 l -24.24489973821647 -15.918455440422196" fill="#99ff23" stroke="none" /><path d="M 115.56566222782051 114.09645910891815 l 13.213516075269755 11.96632602673104 a38.82666445663442,38.82666445663442 0 0,0 -0.4528919487713019,0.4915247631450416 l -13.005577718502728 -12.192002044677414" fill="#ffe215" stroke="none" /><path d="M 113.75828350139079 115.86535959552629 l 12.100642668325015 13.953851674195999 a39.469854615885595,39.469854615885595 0 0,0 -0.5171199828245198,0.4407008680414958 l -11.858657208923448 -14.160076932460441" fill="#ffea16" stroke="none" /><path d="M 112.34349029814194 116.9893568818739 l 7.191868381985969 9.898757615373755 a33.23553730539568,33.23553730539568 0 0,0 -0.46572906539223186,0.33228532228373037 l -7.020411988744852 -10.021087199501705" fill="#ff9a0e" stroke="none" /><line stroke="#e1ed5e" stroke-width="0.3" x1="143.8653032363475" x2="146.44561519142675" y1="172.8068346515853" y2="177.08958963109032" /><path d="M 144.38136562736335 173.6633856474863 a86.0,86.0 0 0,1 -40.68145358897372,12.25698825130547" fill="none" id="id78" stroke="none" /><text fill="#e1ed5e" style="font-size:6.75px; font-family:Arial;" text-anchor="middle"><textPath startOffset="21.466115282336833" xlink:href="#id78">June</textPath></text><path d="M 108.92500713936063 119.00905698771935 l 6.588346058735249 14.032285210506437 a36.501978325963755,36.501978325963755 0 0,0 -0.5710508618039566,0.2621414423781292 l -6.345827201163873 -14.14361372321864" fill="#ffc412" stroke="none" /><path d="M 106.91757812671514 119.82793768551818 l 5.221710259723816 14.967051147827005 a36.851778389132704,36.851778389132704 0 0,0 -0.6007371017947584,0.2038026414098177 l -4.96330342499183 -15.054716776134946" fill="#ffc912" stroke="none" /><path d="M 106.57524785965236 119.94407469862006 l 4.568539717704021 13.857317524501486 a35.590983658653556,35.590983658653556 0 0,0 -0.5834864752805509,0.18681394348925157 l -4.329331897332529 -13.933904314650443" fill="#ffb911" stroke="none" /><path d="M 106.2309692047433 120.05430185196036 l 4.150641879860244 13.358792573511783 a34.98875144667898,34.98875144667898 0 0,0 -0.5766896423231261,0.17375185857468703 l -3.920077263096871 -13.428259801192196" fill="#ffb110" stroke="none" /><path d="M 105.88484417918355 120.15858648285463 l 3.0978568377710434 10.611736364508818 a32.05466714366216,32.05466714366216 0 0,0 -0.5309914102886395,0.15006347647740734 l -2.914734259377798 -10.663488634324745" fill="#ff8a0c" stroke="none" /><path d="M 105.53697534728816 120.25689768951611 l 3.534011327446591 12.929099626339912 a34.4033896164494,34.4033896164494 0 0,0 -0.5725863557442266,0.151225260708454 l -3.310934528890867 -12.98801623635195" fill="#ffa90f" stroke="none" /><path d="M 104.83641907484287 120.43548508189849 l 4.8220388745314695 20.374723935192492 a41.9375603722783,41.9375603722783 0 0,0 -0.7039116673737372,0.16020800375462982 l -4.47060705776487 -20.454708672524806" fill="#f6ff19" stroke="none" /><path d="M 104.48393922423573 120.51570834832081 l 1.0760241069816794 4.923214979204176 a26.03943187375979,26.03943187375979 0 0,0 -0.4387130160221059,0.09193657803418874 l -0.9911196295301955 -4.941007537964905" fill="#ff3705" stroke="none" /><path d="M 103.06178313531738 120.77559828337769 l 2.69594585490787 18.29322509136405 a39.49081415989859,39.49081415989859 0 0,0 -0.673358641019712,0.09332137198742145 l -2.3806586227013273 -18.336921028844074" fill="#ffea16" stroke="none" /><path d="M 101.62511606390274 120.93702456842531 l 0.74453738539512 9.592174907614343 a30.62102673193029,30.62102673193029 0 0,0 -0.5258610734627578,0.036266458449247266 l -0.579313551153432 -9.603569710579876" fill="#ff770a" stroke="none" /><path d="M 100.90346689309514 120.98055641714683 l 0.8651921511122487 20.091729842912553 a41.11034971199977,41.11034971199977 0 0,0 -0.7072539374515874,0.024359255630485258 l -0.5192178619860089 -20.10364589696913" fill="#fffe18" stroke="none" /><line stroke="#e1ed5e" stroke-width="0.3" x1="102.19456741930631" x2="102.32365962044197" y1="184.97166512339345" y2="189.96999836594603" /><path d="M 102.22038585953345 185.97133177190398 a86.0,86.0 0 0,1 -42.740103519485714,-10.115201625700543" fill="none" id="id79" stroke="none" /><text fill="#e1ed5e" style="font-size:6.75px; font-family:Arial;" text-anchor="middle"><textPath startOffset="22.20632615414155" xlink:href="#id79">July</textPath></text><path d="M 99.81925306533755 120.99922214144158 l -0.10448131447453136 12.138664129369205 a33.139113772871106,33.139113772871106 0 0,0 -0.5703719789880329,-0.009819470876200167 l 0.3134129833552322 -12.135067181213845" fill="#ff990e" stroke="none" /><path d="M 98.73552117531835 120.96189622390904 l -0.8828308146782001 14.635126788471618 a35.661729992125245,35.661729992125245 0 0,0 -0.6124260881051085,-0.04223648868178094 l 1.1346196635622385 -14.617761955273552" fill="#ffba11" stroke="none" /><path d="M 98.37488393609728 120.93702456842531 l -1.4898379966585127 19.194182761385886 a40.25191598604592,40.25191598604592 0 0,0 -0.6903312506745006,-0.05956468507060945 l 1.820013565074555 -19.165693824036612" fill="#fff316" stroke="none" /><path d="M 98.01472825383883 120.90594882070398 l -1.719936828555499 18.111833496927215 a39.19331457746598,39.19331457746598 0 0,0 -0.6710780168114091,-0.06955998031496173 l 2.0314474419725013 -18.079544148156494" fill="#ffe615" stroke="none" /><path d="M 97.2962882734958 120.8252237178851 l -2.9612432042651666 22.808848889975522 a44.000272802741804,44.000272802741804 0 0,0 -0.7502495081257867,-0.10397774553714195 l 3.3534213035777842 -22.754496578945776" fill="#ddff1b" stroke="none" /><path d="M 95.86986931433489 120.58985236759428 l -3.3242686752162376 16.572405684518483 a37.902526213477216,37.902526213477216 0 0,0 -0.6385827337011778,-0.13382122067070631 l 3.6090428703468023 -16.512728483121236" fill="#ffd614" stroke="none" /><path d="M 95.16358092515715 120.4354850818985 l -12.968499542404121 54.796239703859435 a77.30994464625371,77.30994464625371 0 0,0 -1.2923524821310277,-0.31762879732813176 l 13.90980530927836 -54.564889648217274" fill="#45ffec" stroke="none" /><path d="M 93.08242187328487 119.8279376855182 l -2.6817291049161076 7.686672504119127 a29.14104447707634,29.14104447707634 0 0,0 -0.47219654373181974,-0.16931288063390673 l 2.8136452092776536 -7.639372082445262" fill="#ff6309" stroke="none" /><path d="M 92.40401165467489 119.57807347666478 l -12.242000430997711 31.552810910635596 a54.84444490481226,54.84444490481226 0 0,0 -0.8771949114147591,-0.34905395849170395 l 12.78331641845433 -31.337410107737824" fill="#65ff29" stroke="none" /><path d="M 91.07499286063937 119.00905698771935 l -0.5093414956338091 1.0848284338074925 a22.198449619288063,22.198449619288063 0 0,0 -0.3444854057600395,-0.16537392910845405 l 0.5279395693940907 -1.075900228199476" fill="#ff0000" stroke="none" /><line stroke="#e1ed5e" stroke-width="0.3" x1="58.666819895761336" x2="56.23545636021788" y1="174.27360380694188" y2="178.64263932499728" /><path d="M 58.180547188652646 175.14741091055294 a86.0,86.0 0 0,1 -31.652253787137756,-30.449443065178592" fill="none" id="id80" stroke="none" /><text fill="#e1ed5e" style="font-size:6.75px; font-family:Arial;" text-anchor="middle"><textPath startOffset="22.20632615414155" xlink:href="#id80">August</textPath></text><path d="M 89.7882731507175 118.34994917583269 l -11.953715698329637 21.48021375465154 a45.58232905853336,45.58232905853336 0 0,0 -0.6823267307692024,-0.38744292536454794 l 12.321691196020046 -21.27126766349236" fill="#cbff1d" stroke="none" /><path d="M 87.95078237400918 117.19931262002967 l -9.730914542347259 13.890116892868464 a37.95954141856481,37.95954141856481 0 0,0 -0.5319264612796195,-0.37951540659950983 l 9.968568331475764 -13.720557224424736" fill="#ffd714" stroke="none" /><path d="M 87.65650970185807 116.9893568818739 l -6.854285064509348 9.43411404054626 a32.661206261600384,32.661206261600384 0 0,0 -0.45199225828001754,-0.334373067066783 l 7.01566229320793 -9.314731024739707" fill="#ff920d" stroke="none" /><path d="M 85.70375840098266 115.38237550388516 l -15.269751791955876 16.42984656408812 a43.430006194992856,43.430006194992856 0 0,0 -0.5432145876004548,-0.5136432983212371 l 15.550302213947145 -16.164568629020955" fill="#e4ff1a" stroke="none" /><path d="M 84.9287848128048 114.62390073753433 l -11.352362813284113 11.015424095264274 a36.81820816157648,36.81820816157648 0 0,0 -0.43742389172757756,-0.4586372016786913 l 11.540293256390648 -10.818379777003083" fill="#ffc812" stroke="none" /><path d="M 84.19399662182784 113.82643327865904 l -19.085653368701383 16.695334460473834 a46.357372838235975,46.357372838235975 0 0,0 -0.5202124831404917,-0.6051246436984632 l 19.370208361412654 -16.36433271761384" fill="#c2ff1e" stroke="none" /><path d="M 83.95833913139862 113.55231037782056 l -12.024733513249563 10.158731201026 a36.74147501600045,36.74147501600045 0 0,0 -0.4039882643336285,-0.48662988917792943 l 12.197817777476729 -9.95024005473431" fill="#ffc712" stroke="none" /><path d="M 82.6465618267979 111.8261652097733 l -22.855053265258956 15.575451567315946 a48.65769605884823,48.65769605884823 0 0,0 -0.46571646693795415,-0.6961829288322235 l 23.11977283760764 -15.1797317242779" fill="#a8ff21" stroke="none" /><path d="M 82.44556493220864 111.52570212397912 l -22.596429818142603 14.836120794747899 a48.03163185533931,48.03163185533931 0 0,0 -0.44782666292093365,-0.6950369257791671 l 22.84846134444058 -14.444962269047284" fill="#afff20" stroke="none" /><path d="M 82.24976979558568 111.22182372390057 l -32.980519278424104 20.85052246664039 a60.01869986309615,60.01869986309615 0 0,0 -0.5445564097655158,-0.8779983230776311 l 33.33454032785758 -20.279727812197493" fill="#31ff2f" stroke="none" /><line stroke="#e1ed5e" stroke-width="0.3" x1="26.63291911575756" x2="22.317208475507996" y1="142.92168965132927" y2="145.44649492493687" /><path d="M 25.769776987707644 143.4266507060508 a86.0,86.0 0 0,1 -11.730757126820373,-40.83630448921669" fill="none" id="id81" stroke="none" /><text fill="#e1ed5e" style="font-size:6.75px; font-family:Arial;" text-anchor="middle"><textPath startOffset="21.46611528233685" xlink:href="#id81">September</textPath></text><path d="M 81.87401531095188 110.60418214915194 l -7.467170925764151 4.368493187765834 a29.65114873101451,29.65114873101451 0 0,0 -0.2539380910029492,-0.4427624661690379 l 7.5412610129194775 -4.239310875738489" fill="#ff6a09" stroke="none" /><path d="M 81.69416730710424 110.29060199501025 l -13.09661440502135 7.36224615318897 a36.0241131949263,36.0241131949263 0 0,0 -0.29921215094209735,-0.5431569660041751 l 13.221402965414965 -7.135718668786972" fill="#ffbe11" stroke="none" /><path d="M 81.18737489456691 109.33194174019688 l -13.680073831107814 6.785956307427898 a36.27067853865313,36.27067853865313 0 0,0 -0.27262897560480004,-0.5616964397810916 l 13.794856063327334 -6.549470911681521" fill="#ffc112" stroke="none" /><path d="M 80.45479744820244 107.68017299344265 l -35.78317054861809 14.060787517496152 a59.44659985126987,59.44659985126987 0 0,0 -0.3660374009278498,-0.9556081496042006 l 36.01990222913945 -13.442755801058794" fill="#37ff2e" stroke="none" /><line stroke="#e1ed5e" stroke-width="0.3" x1="15.007084014347285" x2="10.007500721073583" y1="101.09737516637583" y2="101.16192664675087" /><path d="M 14.007167355692545 101.11028546245083 a86.0,86.0 0 0,1 10.666146001902534,-42.60595125391555" fill="none" id="id82" stroke="none" /><text fill="#e1ed5e" style="font-size:6.75px; font-family:Arial;" text-anchor="middle"><textPath startOffset="22.20632615414155" xlink:href="#id82">October</textPath></text><path d="M 79.00175016825051 100.2711162175752 l -20.674379923484093 0.26693461266913354 a41.67610309773104,41.67610309773104 0 0,0 -0.003087410788194859,-0.7174055359636292 l 20.675911631561792 0.08898040149817102" fill="#f9ff18" stroke="none" /><path d="M 79.00019446554 99.90962569577889 l -22.019157029080283 -0.09476116303902199 a43.01936093417146,43.01936093417146 0 0,0 0.00956052625143828,-0.740473294243465 l 22.01426349571113 0.47377071534295895" fill="#e9ff1a" stroke="none" /><path d="M 79.00486145842228 99.54816195383935 l -15.401008563345766 -0.33144633003420215 a36.40457469188756,36.40457469188756 0 0,0 0.01887543487893156,-0.6263837907845482 l 15.393021434011189 0.5965002682437448" fill="#ffc312" stroke="none" /><path d="M 79.03285615573316 98.82574320788736 l -18.32969646734115 -1.026547570523004 a39.35841966236215,39.35841966236215 0 0,0 0.04370548026316996,-0.6761044351677706 l 18.309310396073567 1.3419110699437864" fill="#ffe815" stroke="none" /><path d="M 79.05617556472873 98.46500227214037 l -26.803749752093868 -1.9644786029762855 a47.87564281937129,47.87564281937129 0 0,0 0.06731205079596789,-0.8213775148833732 l 26.7659632174784 2.425570035067437" fill="#b1ff20" stroke="none" /><path d="M 79.16333360222342 97.38593545837743 l -16.276079419581368 -2.0419159799909465 a37.40366368046671,37.40366368046671 0 0,0 0.0856437047453346,-0.6381450779187379 l 16.2385197157782 2.3217793999743437" fill="#ffd013" stroke="none" /><path d="M 79.21141760316559 97.0276538004421 l -26.85208693969724 -3.839304529853904 a48.12516971910067,48.12516971910067 0 0,0 0.12430984926164584,-0.8190465892327521 l 26.782021196996293 4.300950231478748" fill="#aeff20" stroke="none" /><path d="M 79.54389044137918 95.25157060432595 l -25.47884699435326 -5.914345818747427 a47.15628281360712,47.15628281360712 0 0,0 0.19034790686754963,-0.7891149619403673 l 25.373266287224894 6.352046012347191" fill="#b9ff1f" stroke="none" /><path d="M 79.71946130924805 94.55025226153421 l -22.935014553604383 -6.163053437637808 a44.74864459814968,44.74864459814968 0 0,0 0.20629813315833553,-0.74216414765993 l 22.825529649879687 6.556928888716681" fill="#d5ff1c" stroke="none" /><line stroke="#e1ed5e" stroke-width="0.3" x1="26.266209847984243" x2="21.928928074336255" y1="57.711370442889674" y2="55.22380399835377" /><path d="M 25.398753493254645 57.213857153982495 a86.0,86.0 0 0,1 29.58750427330803,-30.492523968695096" fill="none" id="id83" stroke="none" /><text fill="#e1ed5e" style="font-size:6.75px; font-family:Arial;" text-anchor="middle"><textPath startOffset="21.46611528233685" xlink:href="#id83">November</textPath></text><path d="M 82.95767976084542 87.72973835380427 l -23.827574584190735 -17.155561592519838 a50.360970762560186,50.360970762560186 0 0,0 0.5125724915269956,-0.6991483024022704 l 23.528739480150104 17.56317233859361" fill="#95ff23" stroke="none" /><path d="M 83.39014120810768 87.1503855733568 l -11.76936380503151 -9.104941157920331 a35.88011686326345,35.88011686326345 0 0,0 0.3821162725847771,-0.4852488616676351 l 11.610893451852762 9.306182413541013" fill="#ffbc11" stroke="none" /><path d="M 84.5562425177563 85.77008943001954 l -20.741931738265265 -19.111659453569278 a49.20431277843975,49.20431277843975 0 0,0 0.57928161994366,-0.6179372429129869 l 20.409882796351145 19.465866113360313" fill="#a2ff22" stroke="none" /><path d="M 85.05521093208273 85.24692304244772 l -10.29015784099048 -10.158155450945372 a35.45944226303591,35.45944226303591 0 0,0 0.4325447454201842,-0.4306872608210825 l 10.113777295402981 10.333778562416567" fill="#ffb711" stroke="none" /><line stroke="#e1ed5e" stroke-width="0.3" x1="56.76296977257108" x2="54.21961505331056" y1="26.818313649435495" y2="22.513508569990535" /><path d="M 56.25429882871898 25.957352633546506 a86.0,86.0 0 0,1 42.26535254187918,-11.944610805530505" fill="none" id="id84" stroke="none" /><text fill="#e1ed5e" style="font-size:6.75px; font-family:Arial;" text-anchor="middle"><textPath startOffset="22.20632615414155" xlink:href="#id84">December</textPath></text><path d="M 90.26544431104013 81.39251694778311 l -13.964831617989981 -26.693603279039422 a51.12581912807612,51.12581912807612 0 0,0 0.7832950532329651,-0.4012341496108496 l 13.503276077168252 26.930029953962777" fill="#8dff24" stroke="none" /><path d="M 90.58718382345135 81.22770947309562 l -6.363446364081739 -12.690831485324559 a35.196853644996494,35.196853644996494 0 0,0 0.5439233485061992,-0.266900824878824 l 6.144051748565114 12.798487470338213" fill="#ffb410" stroke="none" /><path d="M 90.91171255644093 81.06846463323043 l -7.980983853026367 -16.624944909974833 a39.44139085107101,39.44139085107101 0 0,0 0.6145753553866055,-0.28855136990983526 l 7.693630286340153 16.759861262524677" fill="#ffe915" stroke="none" /><path d="M 91.90106846888425 80.62456947434976 l -8.581816361645556 -20.53065716880369 a43.2520887974131,43.2520887974131 0 0,0 0.6893891330709463,-0.28121913690990585 l 8.227143358986229 20.67533719189717" fill="#e6ff1a" stroke="none" /><path d="M 92.23578459929587 80.48803036053334 l -7.934036824135496 -19.938741732603486 a42.45931877311584,42.45931877311584 0 0,0 0.6814050109135845,-0.26437455797246545 l 7.589648648222234 20.0723589944665" fill="#f0ff19" stroke="none" /><path d="M 92.91201910852362 80.23233633223022 l -12.670868422682481 -35.33777378821063 a58.54076667959351,58.54076667959351 0 0,0 0.9514770077941743,-0.3319516452786059 l 12.060709410825021 35.55064628666145" fill="#40ff2d" stroke="none" /><path d="M 97.11714578562143 79.19881850522333 l -3.224829839067613 -23.26870031708377 a44.49110346359224,44.49110346359224 0 0,0 0.7594954906728978,-0.09860431235587945 l 2.8238196198868577 23.320762952603786" fill="#d8ff1c" stroke="none" /><path d="M 97.47563105711357 79.15227682838746 l -1.7693219405635825 -14.612101025198445 a35.71883135646187,35.71883135646187 0 0,0 0.6110187397601071,-0.06865507480228916 l 1.5175364972937575 14.640392053471334" fill="#ffba11" stroke="none" /><path d="M 99.63851952072746 79.00311137660856 l -0.6654170217159995 -38.6512907175428 a59.657018171928364,59.657018171928364 0 0,0 1.0268975009885257,-0.00883883099411949 l 9.468238713766627e-15 38.657018171928364" fill="#35ff2f" stroke="none" /></svg>