<?xml version="1.0" encoding="utf-8" ?>
<svg baseProfile="full" height="200mm" version="1.1" viewBox="0,0,200,200" width="200mm" xmlns="http://www.w3.org/2000/svg" xmlns:ev="http://www.w3.org/2001/xml-events" xmlns:xlink="http://www.w3.org/1999/xlink"><defs /><rect fill="#1a1a1a" height="200" width="200" x="0" y="0" /><text alignment-baseline="middle" fill="#e1ed5e" style="dominant-baseline: central; font-size:9.0px; font-family:Arial;" text-anchor="middle" x="100.0" y="100.0">2020</text><line stroke="#e1ed5e" stroke-width="0.3" x1="100.0" x2="100.0" y1="15.0" y2="10.0" /><path d="M 100.0 14.0 a86.0,86.0 0 0,1 42.35913384403234,11.155469271406648" fill="none" id="id61" stroke="none" /><text fill="#e1ed5e" style="font-size:6.75px; font-family:Arial;" text-anchor="middle"><textPath startOffset="22.145653131862478" xlink:href="#id61">January</textPath></text><path d="M 100.0 79.0 l 0.0 -12.832374941864636 a33.832374941864636,33.832374941864636 0 0,0 0.5807777046369469,0.00498527809207385 l -0.22028477978809216 12.830484061966997" fill="#ff9e0e" stroke="none" /><path d="M 101.44090949804482 79.04949213459386 l 1.721361872340015 -25.02822383682287 a46.08734890580618,46.08734890580618 0 0,0 0.7888201021599266,0.06105966475417137 l -2.150750969275175 24.994986405073647" fill="#c8ff1d" stroke="none" /><path d="M 102.51750503828377 79.15144685158666 l 0.7733604568075243 -6.404533989582215 a27.45105743424033,27.45105743424033 0 0,0 0.4673505640614561,0.060507887202009975 l -0.883188842759772 6.3903145061798075" fill="#ff4606" stroke="none" /><path d="M 103.94208987418118 79.37332000966035 l 3.2212722625645673 -16.85505765783132 a38.16011549024033,38.16011549024033 0 0,0 0.6423683303973584,0.12849165665380324 l -3.5101370784928827 16.79727660451466" fill="#ffd614" stroke="none" /><path d="M 104.9986988182912 79.60360301121754 l 1.5620323139746088 -6.373624885850568 a27.562243452923287,27.562243452923287 0 0,0 0.45857628425163927,0.11656829820815681 l -1.6712138914516423 6.3458713558071445" fill="#ff4806" stroke="none" /><path d="M 106.04205211174951 79.88797359093562 l 5.132818588631252 -17.085483722780598 a38.83983129699379,38.83983129699379 0 0,0 0.6368980821335921,0.19731265389416633 l -5.425357303636473 16.994854481079784" fill="#ffde14" stroke="none" /><path d="M 106.38641147887787 79.99465700312896 l 2.920637859091365 -9.14885649539074 a30.60373368420903,30.60373368420903 0 0,0 0.4990991871393085,0.1640638161821985 l -3.0772597838784157 9.09737175780652" fill="#ff720a" stroke="none" /><line stroke="#e1ed5e" stroke-width="0.3" x1="143.13028292997686" x2="145.6673583964461" y1="26.7553504044142" y2="22.446841604673864" /><path d="M 143.63769802327073 25.89364864446614 a86.0,86.0 0 0,1 29.32050498858742,28.57503671076993" fill="none" id="id62" stroke="none" /><text fill="#e1ed5e" style="font-size:6.75px; font-family:Arial;" text-anchor="middle"><textPath startOffset="20.669276256404974" xlink:href="#id62">February</textPath></text><path d="M 115.8921839302757 86.27271002978787 l 4.362861265817338 -3.7685356498791966 a26.765103587029436,26.765103587029436 0 0,0 0.2973544845309142,0.3502828350902065 l -4.426910313855366 3.6930860323394383" fill="#ff3c05" stroke="none" /><path d="M 117.21940702142032 87.97951657250589 l 4.744834740139282 -3.312263151053508 a26.786583093074835,26.786583093074835 0 0,0 0.25997050238179753,0.37930473228763584 l -4.800994979336405 3.230323683695824" fill="#ff3d05" stroke="none" /><path d="M 117.62189284568427 88.57770195909679 l 7.69193841584563 -4.9858215497876675 a30.166478774288898,30.166478774288898 0 0,0 0.2779371404175243,0.4369633488683229 l -7.776393247889045 4.853044526240673" fill="#ff6c0a" stroke="none" /><path d="M 117.81537515405839 88.88188828441811 l 4.5205762124208375 -2.8211738969217004 a26.328661318659453,26.328661318659453 0 0,0 0.23599511967502762,0.3854802922673771 l -4.568339296551267 2.7431564885297686" fill="#ff3605" stroke="none" /><line stroke="#e1ed5e" stroke-width="0.3" x1="172.87174338648825" x2="177.1583165268699" y1="56.24261187166439" y2="53.66864786411523" /><path d="M 173.72905801456457 55.72781907015455 a86.0,86.0 0 0,1 12.242430191666344,42.057860355516425" fill="none" id="id63" stroke="none" /><text fill="#e1ed5e" style="font-size:6.75px; font-family:Arial;" text-anchor="middle"><textPath startOffset="22.145653131862474" xlink:href="#id63">March</textPath></text><path d="M 119.16976305983485 91.42560881287824 l 5.615477899255296 -2.5117318383415865 a27.151616768359638,27.151616768359638 0 0,0 0.18665588141957212,0.4271051850237745 l -5.657767662691838 2.4149645835419626" fill="#ff4206" stroke="none" /><path d="M 119.58574465831526 92.42381321644754 l 6.369860145388424 -2.4639987444174336 a27.82981757328104,27.82981757328104 0 0,0 0.16852851763633397,0.44704191542274974 l -6.411219346839198 2.354288548800526" fill="#ff4c07" stroke="none" /><path d="M 120.05942366710727 93.78553927170692 l 13.204620576797158 -4.090825208556467 a34.82377862467914,34.82377862467914 0 0,0 0.17200240334908296,0.5725400599991839 l -13.272899300149868 3.8635475449665595" fill="#ffab0f" stroke="none" /><path d="M 120.26092885502905 94.47779374421319 l 13.491673271783295 -3.677215545030677 a34.98381785626397,34.98381785626397 0 0,0 0.15294678480077822,0.5807638541030775 l -13.552809537388804 3.445071186554801" fill="#ffad10" stroke="none" /><path d="M 120.592083275326 95.88100663000786 l 9.209559262518331 -1.842169781253574 a30.391995065629082,30.391995065629082 0 0,0 0.09793995195397676,0.5124632141075914 l -9.239825506754464 1.683804002112668" fill="#ff6f0a" stroke="none" /><path d="M 120.65975698304385 96.23510406497455 l 5.731146687652261 -1.0444058410312225 a26.82553224316608,26.82553224316608 0 0,0 0.07866929995539695,0.4537436165898035 l -5.748230805099893 0.9458691915208264" fill="#ff3d05" stroke="none" /><path d="M 120.93736805541906 98.37931529534042 l 9.066032613202106 -0.7017682618593803 a30.093152700631247,30.093152700631247 0 0,0 0.03544692351754338,0.5153904884147518 l -9.076743497884715 0.5460343492902945" fill="#ff6b09" stroke="none" /><line stroke="#e1ed5e" stroke-width="0.3" x1="184.99686870605535" x2="189.99668451229388" y1="99.2704041080226" y2="99.22748670261217" /><path d="M 185.99683186730306 99.26182062694052 a86.0,86.0 0 0,1 -10.086455211305974,41.156179273409016" fill="none" id="id64" stroke="none" /><text fill="#e1ed5e" style="font-size:6.75px; font-family:Arial;" text-anchor="middle"><textPath startOffset="21.40746469413373" xlink:href="#id64">April</textPath></text><path d="M 120.65975698304385 103.76489593502545 l 2.5876447341801407 0.4715550695490069 a23.630260339576214,23.630260339576214 0 0,0 -0.0761498729293793,0.3984483130399493 l -2.5791685689686026 -0.5159059476222707" fill="#ff0f01" stroke="none" /><path d="M 120.35273937422433 105.17358676015961 l 5.687373825742265 1.4457081862013417 a26.868244472871574,26.868244472871574 0 0,0 -0.11746607023427501,0.4460378017390812 l -5.66171827470326 -1.5431264923132262" fill="#ff3e05" stroke="none" /><path d="M 120.16314734710363 105.8691983318838 l 12.199402911110807 3.551068391421296 a33.70572776774988,33.70572776774988 0 0,0 -0.16648010100127913,0.5541581115148579 l -12.136646490105898 -3.7599641065268776" fill="#ff9c0e" stroke="none" /><path d="M 120.05942366710727 106.21446072829308 l 10.16573568999492 3.1493709025784296 a31.642401946968747,31.642401946968747 0 0,0 -0.16519636814029826,0.5174752703320535 l -10.110174606077367 -3.3234152066018665" fill="#ff800b" stroke="none" /><path d="M 119.31412917781788 108.2440532568976 l 12.440553147139383 5.310132377496584 a34.52645069755319,34.52645069755319 0 0,0 -0.23735474547325627,0.5431141076864792 l -12.347564519649161 -5.522908554958907" fill="#ffa70f" stroke="none" /><line stroke="#e1ed5e" stroke-width="0.3" x1="174.33088141563837" x2="178.70328620479359" y1="141.23008692659167" y2="143.65538615756765" /><path d="M 175.20536237346943 141.71514677278685 a86.0,86.0 0 0,1 -30.301960400862466,31.631185727798858" fill="none" id="id65" stroke="none" /><text fill="#e1ed5e" style="font-size:6.75px; font-family:Arial;" text-anchor="middle"><textPath startOffset="22.145653131862474" xlink:href="#id65">May</textPath></text><path d="M 118.36410011445183 110.18625677009912 l 8.838149738175117 4.902372675195108 a31.1067377843152,31.1067377843152 0 0,0 -0.2630247025487236,0.4647394468633671 l -8.752691670605016 -5.053368892157597" fill="#ff790b" stroke="none" /><path d="M 118.18653347947321 110.5 l 6.375110549369218 3.680671791791939 a28.36134358358388,28.36134358358388 0 0,0 -0.2470493027371421,0.41954372618407476 l -6.31098753650231 -3.789566686269563" fill="#ff5307" stroke="none" /><path d="M 118.00360718960297 110.81064883170644 l 23.939570540710577 14.375024269966538 a48.92390303012429,48.92390303012429 0 0,0 -0.4385259930546043,0.7162992531468827 l -23.689276583200567 -14.783860639237977" fill="#a7ff21" stroke="none" /><path d="M 117.81537515405839 111.11811171558189 l 4.6564950015984765 2.9059972738787305 a26.48887655679213,26.48887655679213 0 0,0 -0.24405376106880902,0.38369304865242243 l -4.605923548903777 -2.985503997209825" fill="#ff3905" stroke="none" /><path d="M 116.1254893667686 113.45245675266167 l 7.232671896265881 6.033752134754949 a30.4190077812206,30.4190077812206 0 0,0 -0.3379485660989596,0.39810256110499187 l -7.128028766659807 -6.157021478309498" fill="#ff700a" stroke="none" /><path d="M 115.6541949942343 113.99807769240083 l 5.2379771016471555 4.6838314232625144 a28.026711956450278,28.026711956450278 0 0,0 -0.32377832183224825,0.35588909330732477 l -5.156801078973027 -4.773058092127512" fill="#ff4e07" stroke="none" /><path d="M 115.41159269507618 114.26474011684316 l 3.723352610590556 3.4462795899357404 a26.07347983880878,26.07347983880878 0 0,0 -0.3068527826836586,0.32586702155525427 l -3.6636439941706374 -3.509688071435492" fill="#ff3304" stroke="none" /><path d="M 115.16444852881244 114.52719865689866 l 4.178174438343054 4.00259659780314 a26.78601081592219,26.78601081592219 0 0,0 -0.320938755514438,0.32931143631901244 l -4.108848881677806 -4.07373072618989" fill="#ff3d05" stroke="none" /><path d="M 114.65682725009322 115.03919595460226 l 6.552864937069319 6.723816701326076 a30.38880982428039,30.38880982428039 0 0,0 -0.37671634852698554,0.3608857402202925 l -6.436476102677021 -6.835314571851948" fill="#ff6f0a" stroke="none" /><path d="M 113.31354834802062 116.24036423190432 l 2.664596594394493 3.2503745878154353 a25.202976323032892,25.202976323032892 0 0,0 -0.3369388660688712,0.27141409985420667 l -2.6084069579703693 -3.295636981463046" fill="#ff2603" stroke="none" /><path d="M 113.03279911837588 116.46651593811092 l 10.01338067769357 12.651579374927161 a37.13475296608192,37.13475296608192 0 0,0 -0.5032467334559184,0.3913277037959791 l -9.79472399960242 -12.821608130343934" fill="#ffc912" stroke="none" /><path d="M 111.8722381534696 117.32195027204791 l 2.9792127615403188 4.346760453939381 a26.269728182976422,26.269728182976422 0 0,0 -0.3741606290576672,0.2517519694883255 l -2.9041558443856483 -4.397262097484828" fill="#ff3505" stroke="none" /><path d="M 111.27062007382361 117.71928675628689 l 8.406654487571847 13.216657162659223 a36.66371176409612,36.66371176409612 0 0,0 -0.533956106151196,0.33322810146120857 l -8.178534252630936 -13.359021060961979" fill="#ffc312" stroke="none" /><line stroke="#e1ed5e" stroke-width="0.3" x1="143.1302829299769" x2="145.66735839644613" y1="173.24464959558577" y2="177.55315839532614" /><path d="M 143.63769802327073 174.10635135553383 a86.0,86.0 0 0,1 -40.68552437913181,11.842963189579606" fill="none" id="id66" stroke="none" /><text fill="#e1ed5e" style="font-size:6.75px; font-family:Arial;" text-anchor="middle"><textPath startOffset="21.407464694133747" xlink:href="#id66">June</textPath></text><path d="M 110.34350942703117 118.27599006163325 l 6.045881069384159 10.682492544466713 a33.27470263866806,33.27470263866806 0 0,0 -0.49952587591513553,0.27707858286918874 l -5.86161100531293 -10.784704042769045" fill="#ff960d" stroke="none" /><path d="M 108.07796709384702 119.3841803445677 l 4.788774751742935 11.491316111946436 a33.44920517975386,33.44920517975386 0 0,0 -0.5319148974525905,0.21632515812878816 l -4.590805393099903 -11.571828526654514" fill="#ff980e" stroke="none" /><path d="M 107.407793817531 119.65005319985036 l 6.49516277259887 17.229190926077145 a39.4128259485005,39.4128259485005 0 0,0 -0.6351298983304899,0.23322849613272248 l -6.198443722614253 -17.338150271218588" fill="#ffe615" stroke="none" /><path d="M 106.0420521117495 120.11202640906438 l 2.534511379518819 8.436564077266278 a29.809049969362768,29.809049969362768 0 0,0 -0.4913382946338711,0.14302141672688684 l -2.389313072503341 -8.478829188295682" fill="#ff6709" stroke="none" /><path d="M 105.3480935250658 120.30758222061773 l 3.119890230775635 11.846731378916688 a33.25066363166904,33.25066363166904 0 0,0 -0.5532193271260928,0.14062618960810025 l -2.9160656104241447 -11.898542800360058" fill="#ff960d" stroke="none" /><path d="M 104.64783097203109 120.47920084513623 l 3.757401526029172 16.555804410793066 a37.97682908897423,37.97682908897423 0 0,0 -0.6369936429889708,0.13882979970788215 l -3.4726454664210658 -16.617865668634668" fill="#ffd313" stroke="none" /><path d="M 103.94208987418118 120.62667999033965 l 2.3924616951646214 12.518370547185084 a33.74493915715022,33.74493915715022 0 0,0 -0.5699122779749546,0.1038570018238881 l -2.1772146836386095 -12.557595722940336" fill="#ff9c0e" stroke="none" /><path d="M 103.2317021107853 120.74984581791261 l 1.8964470652628553 12.176550578318869 a33.32334757513971,33.32334757513971 0 0,0 -0.5659810227219688,0.08317971971319585 l -1.6871409369332009 -12.207311371330947" fill="#ff970d" stroke="none" /><path d="M 102.15924093988457 120.88869738790638 l 1.1567303356990042 11.190316696718247 a32.249942792849104,32.249942792849104 0 0,0 -0.5511675499600869,0.05219614002796163 l -0.9644632223539021 -11.208524592251392" fill="#ff880c" stroke="none" /><path d="M 101.44090949804482 120.95050786540614 l 0.47910343594298965 6.966058809860462 a27.982514979917116,27.982514979917116 0 0,0 -0.4795079074790987,0.02884600499076863 l -0.35945117633142576 -6.973256792675922" fill="#ff4e07" stroke="none" /><path d="M 100.72087961077811 120.9876233191556 l 0.43663809091628664 12.712241603080868 a33.71973818117099,33.71973818117099 0 0,0 -0.5786735568340199,0.014904578127624057 l -0.21835122001152296 -12.717863898558537" fill="#ff9c0e" stroke="none" /><line stroke="#e1ed5e" stroke-width="0.3" x1="101.45913802915013" x2="101.54496967792366" y1="184.9874750549273" y2="189.98673829345242" /><path d="M 101.47630435890484 185.9873277026323 a86.0,86.0 0 0,1 -42.54439059252881,-10.42667462771756" fill="none" id="id67" stroke="none" /><text fill="#e1ed5e" style="font-size:6.75px; font-family:Arial;" text-anchor="middle"><textPath startOffset="22.145653131862474" xlink:href="#id67">July</textPath></text><path d="M 100.0 121.0 l 1.548802083884298e-15 12.646928771321122 a33.64692877132112,33.64692877132112 0 0,0 -0.577594274521645,-0.0049579521732502916 l 0.21710134967279138 -12.645065217342307" fill="#ff9b0e" stroke="none" /><path d="M 99.27912038922189 120.98762331915562 l -0.485920821390716 14.1470545286683 a35.1553972350399,35.1553972350399 0 0,0 -0.6029556409478987,-0.02589350958075211 l 0.7287022229394534 -14.136628450661718" fill="#ffaf10" stroke="none" /><path d="M 98.19965949673042 120.92268563240118 l -1.0774581669704058 12.521697128206737 a33.567967817913605,33.567967817913605 0 0,0 -0.5736932526727119,-0.05432934749473204 l 1.2922509830281328 -12.501356025206821" fill="#ff9a0e" stroke="none" /><path d="M 96.41257539226777 120.69131181640829 l -2.0823630049155537 12.010516445918507 a33.18969814974595,33.18969814974595 0 0,0 -0.560534911316173,-0.1021481332421355 l 2.288232649782784 -11.973000138745006" fill="#ff950d" stroke="none" /><path d="M 95.00130118170881 120.39639698878247 l -3.016597621054945 12.308747710366507 a33.673007985668086,33.673007985668086 0 0,0 -0.5602462262558087,-0.1424123998884023 l 3.2274491405361325 -12.255150078642842" fill="#ff9b0e" stroke="none" /><path d="M 93.95794788825049 120.11202640906438 l -1.9929086986223072 6.6337448992872385 a27.92663384840457,27.92663384840457 0 0,0 -0.4579427599077244,-0.14187183762010153 l 2.106492091401665 -6.598556473860487" fill="#ff4d07" stroke="none" /><path d="M 93.27111125876986 119.89276391827306 l -4.033157379740988 11.923313148102523 a33.58696766014252,33.58696766014252 0 0,0 -0.5445794582280499,-0.18943300452073056 l 4.23724261001406 -11.8523217110132" fill="#ff9a0e" stroke="none" /><path d="M 91.92203290615298 119.3841803445677 l -7.229294625381734 17.347675368615132 a39.79373676189569,39.79373676189569 0 0,0 -0.6282955875307425,-0.268182025551845 l 7.5260252880829075 -17.22101869340388" fill="#ffea16" stroke="none" /><path d="M 91.59046798132341 119.24265499422711 l -7.523581715202222 17.215427320448544 a39.787634754033604,39.787634754033604 0 0,0 -0.6235036823632281,-0.27888526647440204 l 7.817998800421085 -17.083738303064287" fill="#ffea16" stroke="none" /><path d="M 90.93487009805054 118.94263497670748 l -5.467956288923474 11.425925625996271 a33.666898688644196,33.666898688644196 0 0,0 -0.5191752418785571,-0.2539546270059481 l 5.6632917800641005 -11.330377248893102" fill="#ff9b0e" stroke="none" /><line stroke="#e1ed5e" stroke-width="0.3" x1="58.13341422392154" x2="55.67067388415222" y1="173.97424548756322" y2="178.32567169271397" /><path d="M 57.64086615596768 174.84453072859336 a86.0,86.0 0 0,1 -31.369924170532247,-30.572349798747897" fill="none" id="id68" stroke="none" /><text fill="#e1ed5e" style="font-size:6.75px; font-family:Arial;" text-anchor="middle"><textPath startOffset="22.145653131862474" xlink:href="#id68">August</textPath></text><path d="M 89.65649057296885 118.27599006163327 l -3.014523441216748 5.326374074572773 a27.12026244207928,27.12026244207928 0 0,0 -0.4031976289533267,-0.23278625961282381 l 3.1055135380304746 -5.273840917683778" fill="#ff4206" stroke="none" /><path d="M 89.03521579738668 117.91015095944536 l -6.3588386663268635 10.38668507616671 a33.17859006847007,33.17859006847007 0 0,0 -0.48320014281521223,-0.3015526264447371 l 6.53620293793179 -10.275996652880425" fill="#ff950d" stroke="none" /><path d="M 88.4268655584334 117.5232005979908 l -9.000649108743419 13.628129928065382 a37.33210365246789,37.33210365246789 0 0,0 -0.5317224178857413,-0.3577665727710715 l 9.233267814726164 -13.47161368123719" fill="#ffcb12" stroke="none" /><path d="M 87.83215693770417 117.11559508785305 l -4.028673102514694 5.666833243241724 a27.952927870590553,27.952927870590553 0 0,0 -0.3887040835171237,-0.2813917804622469 l 4.125358196405771 -5.596840691406412" fill="#ff4d07" stroke="none" /><path d="M 87.2517909369889 116.68781488649013 l -8.915004191616987 11.670026662305782 a35.68559913777699,35.68559913777699 0 0,0 -0.4836079349688096,-0.37605645530818943 l 9.114022071221024 -11.5152691553768" fill="#ffb610" stroke="none" /><line stroke="#e1ed5e" stroke-width="0.3" x1="26.387840678322732" x2="22.057713659400534" y1="142.50000000000003" y2="145.00000000000006" /><path d="M 25.521815274538284 143.00000000000003 a86.0,86.0 0 0,1 -11.493303480769212,-40.785679425670985" fill="none" id="id69" stroke="none" /><text fill="#e1ed5e" style="font-size:6.75px; font-family:Arial;" text-anchor="middle"><textPath startOffset="21.40746469413373" xlink:href="#id69">September</textPath></text><path d="M 81.29705330413844 109.54985784667822 l -5.523244414251514 2.8202079525913835 a27.201596710156203,27.201596710156203 0 0,0 -0.20877884373915745,-0.417697542881248 l 5.570843171202409 -2.7249785535463813" fill="#ff4306" stroke="none" /><path d="M 80.28708602549918 107.23885506374661 l -4.784352811001841 1.756880622391494 a26.096730456035118,26.096730456035118 0 0,0 -0.15081403669302237,-0.4218537020272998 l 4.813807017738807 -1.6744919639832727" fill="#ff3304" stroke="none" /><path d="M 80.05021161711548 106.5578916946017 l -3.2956403873686577 1.0833424550638715 a24.46913194297929,24.46913194297929 0 0,0 -0.12774667786916127,-0.40016464894810533 l 3.313751781015074 -1.0266087724243746" fill="#ff1c02" stroke="none" /><path d="M 79.64726062577567 105.17358676015961 l -8.102092637671253 2.0595202655092284 a29.359756505631605,29.359756505631605 0 0,0 -0.11997301555369479,-0.48953084435101724 l 8.136253179741242 -1.9201335965501114" fill="#ff6108" stroke="none" /><path d="M 79.48165901384964 104.47187691870673 l -13.837641748688522 3.0158496141116506 a35.162474291591316,35.162474291591316 0 0,0 -0.12347434987339498,-0.590869462362015 l 13.887373809386284 -2.777863700464226" fill="#ffaf10" stroke="none" /><path d="M 79.407916724674 104.11899336999214 l -5.864070295384557 1.1729782919438219 a26.98023398393265,26.98023398393265 0 0,0 -0.08694535565655596,-0.45493484040531185 l 5.883341943323269 -1.0721408865051956" fill="#ff4006" stroke="none" /><path d="M 79.17382384314188 102.69636545807758 l -11.570376119798361 1.4980168357078087 a32.666947243973645,32.666947243973645 0 0,0 -0.06722844324524987,-0.5567479511537097 l 11.594386649303273 -1.2991752076307" fill="#ff8e0d" stroke="none" /><path d="M 79.0935383218832 101.97986365728391 l -20.8593761005915 1.9754046041375766 a41.9527037552669,41.9527037552669 0 0,0 -0.061743147195723116,-0.7175489616464713 l 20.890212870484962 -1.6170345951154432" fill="#f9ff18" stroke="none" /><path d="M 79.00696218219943 100.54070618675478 l -27.86610391327646 0.7177319889303405 a48.875345495858085,48.875345495858085 0 0,0 -0.014403258035235619,-0.8389175722409586 l 27.87431860291036 -0.2392675007203295" fill="#a8ff21" stroke="none" /><line stroke="#e1ed5e" stroke-width="0.3" x1="15.003131293944662" x2="10.003315487706104" y1="100.72959589197737" y2="100.7725132973878" /><path d="M 14.003168132696942 100.73817937305945 a86.0,86.0 0 0,1 10.791469493833604,-42.45332614584628" fill="none" id="id70" stroke="none" /><text fill="#e1ed5e" style="font-size:6.75px; font-family:Arial;" text-anchor="middle"><textPath startOffset="22.145653131862435" xlink:href="#id70">October</textPath></text><path d="M 79.00696218219943 99.45929381324524 l -9.902086934213969 -0.2550426343048396 a30.905370886445603,30.905370886445603 0 0,0 0.01821255419991378,-0.5302386438908671 l 9.896249693017204 0.4249875427598451" fill="#ff760a" stroke="none" /><path d="M 79.03789590574601 98.7389718711861 l -24.543047802743125 -1.47644881004895 a45.58741744340851,45.58741744340851 0 0,0 0.05369772039355253,-0.7807530694925573 l 24.51408612118451 1.897545303695832" fill="#ceff1d" stroke="none" /><path d="M 79.0935383218832 98.0201363427161 l -12.6019898232458 -1.1934215385007911 a33.658372820933515,33.658372820933515 0 0,0 0.05941120730629525,-0.5747495371858323 l 12.579646223457841 1.4095755979695361" fill="#ff9b0e" stroke="none" /><path d="M 79.13060592940154 97.66154086499901 l -13.672590560361987 -1.5320422905833775 a34.758157079036266,34.758157079036266 0 0,0 0.07153214449593755,-0.5923887712893098 l 13.644276329606383 1.7665247387961236" fill="#ffaa0f" stroke="none" /><path d="M 79.2786578344484 96.59031103205396 l -14.896150788160378 -2.451155943541607 a36.09647222907294,36.09647222907294 0 0,0 0.10585751571971201,-0.610558020131193 l 14.851878454948432 2.7065069965933923" fill="#ffbb11" stroke="none" /><path d="M 79.407916724674 95.88100663000787 l -4.3563411192615265 -0.8713902303009338 a25.44263760404027,25.44263760404027 0 0,0 0.08934277807561795,-0.42753753554157276 l 4.340740630361542 0.9460442171279155" fill="#ff2a04" stroke="none" /><path d="M 79.64726062577567 94.8264132398404 l -1.5390175582921244 -0.3912122450365106 a22.587961607028948,22.587961607028948 0 0,0 0.09875297536686915,-0.3749811325090161 l 1.5320751021205294 0.41757388191831124" fill="#ff0000" stroke="none" /><path d="M 79.73907114497095 94.47779374421319 l -32.65252655038761 -8.899591310644128 a54.84361410399694,54.84361410399694 0 0,0 0.2553662517699305,-0.906204738981328 l 32.4949418065431 9.45880397352847" fill="#67ff28" stroke="none" /><path d="M 80.28708602549916 92.7611449362534 l -5.610532909551665 -2.0602653983657655 a26.97685310517713,26.97685310517713 0 0,0 0.16336323629637076,-0.4333403929961583 l 5.574338989440858 2.1562740715560684" fill="#ff4006" stroke="none" /><path d="M 80.5471966667186 92.08871423366112 l -10.6679720447241 -4.338571358953343 a32.51645904710928,32.51645904710928 0 0,0 0.21472345223914577,-0.5152581180458319 l 10.591922747948477 4.521061986440438" fill="#ff8c0c" stroke="none" /><path d="M 81.1358732173502 90.77261029715801 l -8.379839142007585 -4.098999243450348 a30.328638638286346,30.328638638286346 0 0,0 0.23277964799469417,-0.4657152288937122 l 8.308239580801144 4.2422463285078305" fill="#ff6e0a" stroke="none" /><path d="M 81.63589988554816 89.8137432299009 l -12.77363292716462 -7.085318859740673 a35.60710243347876,35.60710243347876 0 0,0 0.3010777790691546,-0.5319755868996017 l 12.650121783074097 7.303551216739381" fill="#ffb510" stroke="none" /><line stroke="#e1ed5e" stroke-width="0.3" x1="26.387840678322718" x2="22.05771365940052" y1="57.49999999999999" y2="54.99999999999999" /><path d="M 25.521815274538284 56.99999999999999 a86.0,86.0 0 0,1 29.574782752854787,-30.34633250058573" fill="none" id="id71" stroke="none" /><text fill="#e1ed5e" style="font-size:6.75px; font-family:Arial;" text-anchor="middle"><textPath startOffset="21.40746469413373" xlink:href="#id71">November</textPath></text><path d="M 81.81346652052679 89.5 l -18.262980811310115 -10.544136887614867 a42.08827377522973,42.08827377522973 0 0,0 0.36662151279737987,-0.6226034798483512 l 18.07928558838296 10.856091535756791" fill="#f7ff18" stroke="none" /><path d="M 82.37810715431573 88.57770195909679 l -10.617087400094324 -6.881867780730256 a33.652377207967476,33.652377207967476 0 0,0 0.3183764249259147,-0.4820624859943136 l 10.497386536247681 7.06311014506363" fill="#ff9b0e" stroke="none" /><path d="M 82.98947788004972 87.6856937992154 l -14.214591197088952 -10.290267828677454 a38.5483393768833,38.5483393768833 0 0,0 0.39263866386251867,-0.5326897559682937 l 14.035850513642615 10.53276389391461" fill="#ffdb14" stroke="none" /><path d="M 84.10781606972428 86.27271002978789 l -4.378124132639953 -3.7817193507204365 a26.78527200470451,26.78527200470451 0 0,0 0.3035523040942535,-0.34538679973136593 l 4.312560764587106 3.8563184282631027" fill="#ff3d05" stroke="none" /><path d="M 84.58840730492382 85.73525988315684 l -21.10502944491143 -19.53450017441537 a49.75793742490606,49.75793742490606 0 0,0 0.5855897123752941,-0.6218759815577721 l 20.766583898799865 19.893917615917655" fill="#9eff22" stroke="none" /><path d="M 85.08716467003674 85.21462403516908 l -5.005210922100741 -4.962431598627452 a28.04825253135646,28.04825253135646 0 0,0 0.341932346393433,-0.339009865267261 l 4.919286655577331 5.047621474123387" fill="#ff4f07" stroke="none" /><path d="M 86.40962598614128 83.9905735841838 l -40.77112204157617 -48.0282792474486 a84.0,84.0 0 0,0 1.107302663352364,-0.9237512643524726 l 39.940645044061895 48.721092695712954" fill="#4dd2ff" stroke="none" /><path d="M 87.83215693770416 82.88440491214696 l -2.722212455638925 -3.8291327308617378 a25.6981590143579,25.6981590143579 0 0,0 0.3617381882114926,-0.25252134937509374 l 2.656079176253667 3.8752988960419583" fill="#ff2d04" stroke="none" /><path d="M 88.72937992617638 82.28071324371311 l -19.992448473823444 -31.43144965827828 a58.250960035942256,58.250960035942256 0 0,0 0.8483444338775643,-0.52942967002265 l 19.449939911156182 31.770015125142468" fill="#44ff2d" stroke="none" /><line stroke="#e1ed5e" stroke-width="0.3" x1="56.869717070023135" x2="54.33264160355391" y1="26.7553504044142" y2="22.446841604673864" /><path d="M 56.362301976729285 25.89364864446614 a86.0,86.0 0 0,1 42.16139366436587,-11.88097634709845" fill="none" id="id72" stroke="none" /><text fill="#e1ed5e" style="font-size:6.75px; font-family:Arial;" text-anchor="middle"><textPath startOffset="22.145653131862474" xlink:href="#id72">December</textPath></text><path d="M 90.61103034731259 81.2157712731953 l -4.891857119645663 -9.786991164463995 a31.941456124864015,31.941456124864015 0 0,0 0.49256729474681094,-0.24093934672257517 l 4.7231295756368 9.869524261283784" fill="#ff840c" stroke="none" /><path d="M 90.93487009805054 81.0573650232925 l -4.720878787863035 -9.864820980506828 a31.93624201941155,31.93624201941155 0 0,0 0.4965496883746852,-0.23241032642293566 l 4.550840385616827 9.944407538500307" fill="#ff840c" stroke="none" /><path d="M 91.92203290615298 80.6158196554323 l -3.040064129199396 -7.295047213591458 a28.903145181392873,28.903145181392873 0 0,0 0.4596226852805312,-0.18692454478914303 l 2.9143869827284243 7.346159014959892" fill="#ff5b08" stroke="none" /><path d="M 93.95794788825049 79.88797359093562 l -3.161204822166696 -10.522622726845182 a31.987210973636973,31.987210973636973 0 0,0 0.527240610017194,-0.15347205748902545 l 2.980104199767878 10.575338478636729" fill="#ff850c" stroke="none" /><path d="M 95.35216902796891 79.52079915486377 l -3.7121943267486395 -16.356613149474942 a37.772572266683525,37.772572266683525 0 0,0 0.633567598728396,-0.1380831093072478 l 3.430864311401125 16.4179277169159" fill="#ffd113" stroke="none" /><path d="M 95.70440661134978 79.44403061299748 l -1.951648238994413 -9.339343328203759 a30.54108299150752,30.54108299150752 0 0,0 0.5141133415803818,-0.10283706689995113 l 1.7910384118830542 9.371469791766577" fill="#ff710a" stroke="none" /><path d="M 97.12497278360702 79.19773525538626 l -2.512419705159301 -18.178617426056487 a39.35141368662909,39.35141368662909 0 0,0 0.66995253013905,-0.08673876794342866 l 2.199989353129457 18.21906779020031" fill="#ffe515" stroke="none" /><path d="M 97.84075906011542 79.11130261209362 l -1.6225975427155668 -15.69715932394176 a36.7807995243219,36.7807995243219 0 0,0 0.6286021432536829,-0.05952927652130837 l 1.3528958360768681 15.722700355968252" fill="#ffc412" stroke="none" /><path d="M 98.1996594967304 79.07731436759882 l -0.5199064874797209 -6.042101466933014 a27.064428488525326,27.064428488525326 0 0,0 0.46322832083166227,-0.035856801693021884 l 0.41610917187284147 6.050136035621089" fill="#ff4106" stroke="none" /><path d="M 99.27912038922189 79.0123766808444 l -0.4176881630247173 -12.160535128702767 a33.167706358141004,33.167706358141004 0 0,0 0.5691999892516739,-0.014660572631760524 l 0.20887485970229944 12.165913418684573" fill="#ff950d" stroke="none" /></svg>