<?xml version="1.0" encoding="utf-8" ?>
<svg baseProfile="full" height="200mm" version="1.1" viewBox="0,0,200,200" width="200mm" xmlns="http://www.w3.org/2000/svg" xmlns:ev="http://www.w3.org/2001/xml-events" xmlns:xlink="http://www.w3.org/1999/xlink"><defs /><rect fill="#1a1a1a" height="200" width="200" x="0" y="0" /><text alignment-baseline="middle" fill="#e1ed5e" style="dominant-baseline: central; font-size:9.0px; font-family:Arial;" text-anchor="middle" x="100.0" y="100.0">2019</text><line stroke="#e1ed5e" stroke-width="0.3" x1="100.0" x2="100.0" y1="15.0" y2="10.0" /><path d="M 100.0 14.0 a86.0,86.0 0 0,1 42.46469731375804,11.215312516191453" fill="none" id="id49" stroke="none" /><text fill="#e1ed5e" style="font-size:6.75px; font-family:Arial;" text-anchor="middle"><textPath startOffset="22.20632615414155" xlink:href="#id49">January</textPath></text><path d="M 100.72285384407766 79.0124445844662 l 0.21983375964480273 -6.382719342991763 a27.386503980526495,27.386503980526495 0 0,0 0.47099461816062893,0.020282019021494128 l -0.3296692101947632 6.377989597446073" fill="#ff4106" stroke="none" /><path d="M 101.80526077348638 79.07773832637324 l 2.225819485713971 -25.796371583718177 a46.892220052908684,46.892220052908684 0 0,0 0.8035872253331816,0.07631028984679025 l -2.6695318381373965 25.75423574935621" fill="#c1ff1e" stroke="none" /><path d="M 103.95276090670814 79.375362276772 l 2.1138496729518534 -11.029603038222724 a32.23033853544098,32.23033853544098 0 0,0 0.5439768862479247,0.10911664591248366 l -2.3033929686669032 10.991582436233033" fill="#ff840c" stroke="none" /><path d="M 107.76421540070413 80.48803036053334 l 2.544588240415859 -6.394712914254721 a27.882389306701473,27.882389306701473 0 0,0 0.44441359311282097,0.18128746319149827 l -2.6542857031170675 6.3499645648796434" fill="#ff4806" stroke="none" /><path d="M 109.08828744355905 81.06846463323043 l 2.0832561595461643 -4.339567592620507 a25.81370991203346,25.81370991203346 0 0,0 0.39891859864345125,0.19574762386988898 l -2.1576460252000476 4.303064808615786" fill="#ff2a04" stroke="none" /><path d="M 110.36928655335952 81.73862282372117 l 3.2632683109071707 -5.746950202043282 a27.608809022338008,27.608809022338008 0 0,0 0.41124407975848026,0.23821911496474946 l -3.361709123130978 5.6899269296884825" fill="#ff4406" stroke="none" /><line stroke="#e1ed5e" stroke-width="0.3" x1="143.23703022742887" x2="145.7803849466894" y1="26.81831364943548" y2="22.513508569990506" /><path d="M 143.74570117128098 25.957352633546492 a86.0,86.0 0 0,1 28.547481713284135,27.462654790039103" fill="none" id="id50" stroke="none" /><text fill="#e1ed5e" style="font-size:6.75px; font-family:Arial;" text-anchor="middle"><textPath startOffset="19.985693538727396" xlink:href="#id50">February</textPath></text><path d="M 110.99172775467656 82.1063720568725 l 8.022721480072828 -13.060330137332866 a36.327631364400276,36.327631364400276 0 0,0 0.5300043090349006,0.33188864969496595 l -8.246344941479991 12.920297146314956" fill="#ffbb11" stroke="none" /><path d="M 111.2981086023043 82.29822771554956 l 5.157739710647738 -8.081098976312934 a30.586784632386323,30.586784632386323 0 0,0 0.44137163423084286,0.2870803884544838 l -5.296078370662861 7.991119663698922" fill="#ff6e0a" stroke="none" /><path d="M 115.19652480421416 85.50635884689758 l 11.12639390323612 -10.611765692433258 a36.375506898995994,36.375506898995994 0 0,0 0.4282482850152705,0.4568254117061216 l -11.307409510221854 10.41867086384908" fill="#ffbc11" stroke="none" /><path d="M 117.45458315368197 88.32363383020206 l 5.289339863080386 -3.5383411046861593 a27.363723278104015,27.363723278104015 0 0,0 0.2585264175005004,0.39375347033126956 l -5.349462915938811 3.446769570377216" fill="#ff4106" stroke="none" /><path d="M 117.65298651832404 88.62581576622439 l 10.776514701985006 -6.943531254110198 a33.81974630789955,33.81974630789955 0 0,0 0.31109722326899625,0.4920810970517856 l -10.894439521499958 6.757002509344206" fill="#ff9a0e" stroke="none" /><line stroke="#e1ed5e" stroke-width="0.3" x1="172.23445277983987" x2="176.4835382374775" y1="55.19839476539836" y2="52.563006222186495" /><path d="M 173.08426987136738 54.67131705675599 a86.0,86.0 0 0,1 12.851231095245387,41.99856678651699" fill="none" id="id51" stroke="none" /><text fill="#e1ed5e" style="font-size:6.75px; font-family:Arial;" text-anchor="middle"><textPath startOffset="22.20632615414155" xlink:href="#id51">March</textPath></text><path d="M 118.21658344932153 89.55222093294921 l 15.569183462250475 -8.929412560840667 a38.94808854343305,38.94808854343305 0 0,0 0.32854077484451466,0.5844373788835947 l -15.720581878387426 8.66009167202228" fill="#ffdd14" stroke="none" /><path d="M 119.196687751892 91.48605970444005 l 11.773233912456469 -5.221557589091732 a33.879196419560365,33.879196419560365 0 0,0 0.23184548897882915,0.5351313539565085 l -11.86137011127798 5.01812709054862" fill="#ff9b0e" stroke="none" /><path d="M 119.47837535516314 92.15188598940014 l 5.5389849087745 -2.231735669655403 a26.971683005555796,26.971683005555796 0 0,0 0.16980145066098098,0.4321261708026052 l -5.576579909317182 2.1360604939570136" fill="#ff3b05" stroke="none" /><path d="M 119.7369772167798 92.82701384747503 l 5.921091532177236 -2.1518952523303203 a27.29999826265236,27.29999826265236 0 0,0 0.1567109849742997,0.4430430574505344 l -5.957255597961345 2.0496545684531715" fill="#ff4006" stroke="none" /><path d="M 120.08093135843002 93.85539295169968 l 51.03413500374487 -15.616043900089178 a74.36987692200508,74.36987692200508 0 0,0 0.36403737048145846,1.22735304059259 l -51.29537827133803 14.735261472750059" fill="#41ffce" stroke="none" /><path d="M 120.53481517161879 95.60439243477599 l 6.193205074861003 -1.325694867595771 a27.333502662923088,27.333502662923088 0 0,0 0.09452277183289437,0.46092660453634643 l -6.215107142608894 1.2188926068960126" fill="#ff4006" stroke="none" /><path d="M 120.67395015179393 96.31383870115 l 12.347145960962237 -2.201493728018961 a33.54187338541627,33.54187338541627 0 0,0 0.09645387118426968,0.5692762076701493 l -12.383211693666729 1.9886317320329743" fill="#ff960d" stroke="none" /><path d="M 120.96714384426684 98.82574320788733 l 5.241442638106586 -0.2935449703583991 a26.249656139042294,26.249656139042294 0 0,0 0.021382709602402943,0.4513552041320744 l -5.245718955942485 0.20327865960332492" fill="#ff3104" stroke="none" /><path d="M 120.98425023603335 99.18683210126433 l 29.308482486335514 -1.1357430859083042 a50.33048001668271,50.33048001668271 0 0,0 0.026095887838842466,0.8659954725931902 l -29.32369006863 0.631077465890115" fill="#9aff23" stroke="none" /><line stroke="#e1ed5e" stroke-width="0.3" x1="184.98032266829074" x2="189.97916517819016" y1="98.17113171792111" y2="98.06355123074" /><path d="M 185.9800911702706 98.14961562048488 a86.0,86.0 0 0,1 -9.607161424134198,41.387399972396054" fill="none" id="id52" stroke="none" /><text fill="#e1ed5e" style="font-size:6.75px; font-family:Arial;" text-anchor="middle"><textPath startOffset="21.466115282336823" xlink:href="#id52">April</textPath></text><path d="M 120.99824983174949 100.27111621757518 l 6.553102529377518 0.08460954533748338 a27.553648719278158,27.553648719278158 0 0,0 -0.010205264406565244,0.47419853615660884 l -6.550675202285945 -0.19739789728420704" fill="#ff4306" stroke="none" /><path d="M 120.92983693683757 101.71520430193887 l 9.691688882224998 0.7942358325108458 a30.72417831734321,30.72417831734321 0 0,0 -0.04773279626945002,0.5267274293236199 l -9.676581489678473 -0.9609446503830362" fill="#ff700a" stroke="none" /><path d="M 120.81339534386255 102.79330883721812 l 3.755764108236968 0.5040508240352297 a24.78943680115286,24.78943680115286 0 0,0 -0.06039881231880821,0.42242915268323944 l -3.746531244901558 -0.5686254486988784" fill="#ff1b02" stroke="none" /><path d="M 120.64145759157962 103.86396538481128 l 9.527377211281381 1.7834717141026217 a30.692867887320446,30.692867887320446 0 0,0 -0.10168118457571285,0.5184701695211436 l -9.495266093730004 -1.9472056106917102" fill="#ff6f0a" stroke="none" /><path d="M 120.49622156327973 104.57218783832717 l 5.878480388049582 1.3113400660265022 a27.022968075745542,27.022968075745542 0 0,0 -0.10518295797086563,0.45312543004472117 l -5.855036864148164 -1.4123341534197884" fill="#ff3c05" stroke="none" /><path d="M 120.32669344350535 105.2749913415812 l 5.838597907237723 1.5151777387331875 a27.031997107289868,27.031997107289868 0 0,0 -0.1207582689980179,0.449386442120345 l -5.8116515618979285 -1.6154551140290807" fill="#ff3c05" stroke="none" /><path d="M 120.02730092923936 106.31721596034902 l 29.976034344141578 9.455347141177334 a52.43193001648683,52.43193001648683 0 0,0 -0.27890727985787694,0.8583883436169252 l -29.808834813267456 -9.969934384772055" fill="#83ff25" stroke="none" /><path d="M 119.12269723197855 108.67885076344098 l 1.750079092413636 0.7942747345220966 a22.92188688106337,22.92188688106337 0 0,0 -0.16615681015351974,0.3578869870669196 l -1.736147665420285 -0.8242817888678469" fill="#ff0000" stroke="none" /><path d="M 118.97047184881838 109.00673069616215 l 7.576007654205251 3.5969089876770806 a29.386515739102187,29.386515739102187 0 0,0 -0.22088408613608201,0.4550866411455375 l -7.5129703114544535 -3.7267845847878935" fill="#ff5d08" stroke="none" /><path d="M 118.64920377521936 109.65438752849418 l 5.169632034275167 2.6762338832357537 a26.82128191789258,26.82128191789258 0 0,0 -0.21578039553433243,0.4081751893857256 l -5.122799130515941 -2.7648240877076136" fill="#ff3905" stroke="none" /><line stroke="#e1ed5e" stroke-width="0.3" x1="174.80103733775053" x2="179.2010983576182" y1="140.37084112569926" y2="142.7455964860345" /><path d="M 175.68104954172406 140.8457921977663 a86.0,86.0 0 0,1 -30.038265399797805,32.042727171017184" fill="none" id="id53" stroke="none" /><text fill="#e1ed5e" style="font-size:6.75px; font-family:Arial;" text-anchor="middle"><textPath startOffset="22.206326154141568" xlink:href="#id53">May</textPath></text><path d="M 118.48025628344425 109.97397251340804 l 3.9374575258961233 2.1250837939505174 a25.474321501585145,25.474321501585145 0 0,0 -0.2115867915758644,0.38409148624831063 l -3.9002943248687516 -2.192545798596634" fill="#ff2503" stroke="none" /><path d="M 113.75828350139079 115.86535959552629 l 4.603032994535526 5.30798581676239 a28.025854124569722,28.025854124569722 0 0,0 -0.36718476276593737,0.3129228207324394 l -4.510982755192542 -5.386433027717776" fill="#ff4a06" stroke="none" /><path d="M 112.92097659922987 116.55440617244103 l 2.955036421419256 3.7860043162253447 a25.80271474630664,25.80271474630664 0 0,0 -0.35247893274250786,0.27026581515419984 l -2.8894287601832547 -3.8363094732069163" fill="#ff2a04" stroke="none" /><path d="M 112.63410532772338 116.77436683061366 l 7.026747013249802 9.329448264732077 a32.67963092364341,32.67963092364341 0 0,0 -0.45224723369452524,0.3345616917828345 l -6.865114809136713 -9.44901990525468" fill="#ff8a0c" stroke="none" /><path d="M 111.45004920935366 117.60387380957326 l 2.789322204863635 4.288442364819481 a26.115765463635313,26.115765463635313 0 0,0 -0.37894995191637915,0.24186378870945524 l -2.715090450900325 -4.335820582352746" fill="#ff2f04" stroke="none" /><line stroke="#e1ed5e" stroke-width="0.3" x1="143.8653032363475" x2="146.44561519142675" y1="172.8068346515853" y2="177.08958963109032" /><path d="M 144.38136562736335 173.6633856474863 a86.0,86.0 0 0,1 -40.68145358897372,12.25698825130547" fill="none" id="id54" stroke="none" /><text fill="#e1ed5e" style="font-size:6.75px; font-family:Arial;" text-anchor="middle"><textPath startOffset="21.466115282336833" xlink:href="#id54">June</textPath></text><path d="M 110.5260780823613 118.17145234162733 l 6.46209729436735 11.15569275591136 a33.8921752356289,33.8921752356289 0 0,0 -0.5073355750972754,0.28807838018540244 l -6.269112952348877 -11.26527430189139" fill="#ff9b0e" stroke="none" /><path d="M 110.21172684928248 118.3499491758327 l 3.317178202341428 5.9607990223927905 a27.82164175337931,27.82164175337931 0 0,0 -0.4204740204231091,0.22927596137204664 l -3.214081370049669 -6.017015635524608" fill="#ff4706" stroke="none" /><path d="M 108.92500713936063 119.00905698771935 l 4.2442672993499295 9.039714781700024 a30.986503304100843,30.986503304100843 0 0,0 -0.4847646683169395,0.22253168301877774 l -4.088034635265571 -9.111433535052875" fill="#ff730a" stroke="none" /><path d="M 108.59647513512805 119.15986991738527 l 2.475061448102314 5.516430238877111 a27.04623285627341,27.04623285627341 0 0,0 -0.42640231081449015,0.18692224225225915 l -2.3797384626300704 -5.558217034423825" fill="#ff3c05" stroke="none" /><path d="M 107.93186726928326 119.44442032107085 l 2.6278987830519904 6.442110888160484 a27.957488390886613,27.957488390886613 0 0,0 -0.4471586246334767,0.17793364504393766 l -2.5166190823766477 -6.486391377610491" fill="#ff4906" stroke="none" /><path d="M 107.59598834532513 119.57807347666477 l 0.8021510662449981 2.0674824394635603 a23.217640631519945,23.217640631519945 0 0,0 -0.3738369381525292,0.14135314205405775 l -0.7664439073321941 -2.080983831624249" fill="#ff0400" stroke="none" /><path d="M 106.91757812671514 119.82793768551818 l 2.3893827479608687 6.848716612314923 a28.25355562135229,28.25355562135229 0 0,0 -0.46057367815859246,0.1562515980653143 l -2.2711393368650494 -6.88883119727836" fill="#ff4d07" stroke="none" /><line stroke="#e1ed5e" stroke-width="0.3" x1="102.19456741930631" x2="102.32365962044197" y1="184.97166512339345" y2="189.96999836594603" /><path d="M 102.22038585953345 185.97133177190398 a86.0,86.0 0 0,1 -42.740103519485714,-10.115201625700543" fill="none" id="id55" stroke="none" /><text fill="#e1ed5e" style="font-size:6.75px; font-family:Arial;" text-anchor="middle"><textPath startOffset="22.20632615414155" xlink:href="#id55">July</textPath></text><path d="M 99.81925306533755 120.99922214144158 l -0.06331347970441041 7.355775229845653 a28.356047704353415,28.356047704353415 0 0,0 -0.48804850836570474,-0.008402197672074842 l 0.1899216779627831 -7.353595554894419" fill="#ff4f07" stroke="none" /><path d="M 98.01472825383883 120.90594882070398 l -0.6399994022750857 6.739528115038125 a27.769847741884732,27.769847741884732 0 0,0 -0.4754824783432153,-0.049285703010829074 l 0.7559144772238943 -6.727513043571535" fill="#ff4606" stroke="none" /><path d="M 97.2962882734958 120.8252237178851 l -0.3854272038086979 2.968736521571829 a23.993651727230507,23.993651727230507 0 0,0 -0.40911622269247394,-0.05669978058966308 l 0.4364720176880028 -2.961662175489561" fill="#ff1001" stroke="none" /><path d="M 94.46302465271185 120.25689768951611 l -1.6851634350266236 6.165131891036277 a27.39129306452327,27.39129306452327 0 0,0 -0.45374176773618574,-0.12823195586626066 l 1.791036370867423 -6.135211141831495" fill="#ff4106" stroke="none" /><path d="M 93.76903079525671 120.05430185196036 l -2.8330996704939033 9.118298309919975 a30.54828873734148,30.54828873734148 0 0,0 -0.5008154169650239,-0.16034528128259515 l 2.9896364325498674 -9.068180181977674" fill="#ff6d0a" stroke="none" /><path d="M 93.42475214034765 119.94407469862007 l -0.8356045401290491 2.5345598709827133 a23.66875039804778,23.66875039804778 0 0,0 -0.38583474499075426,-0.13089609405157765 l 0.8791090180570291 -2.5198007900330124" fill="#ff0b01" stroke="none" /><path d="M 92.7421414339146 119.70592522655815 l -1.702539208586957 4.622590814385855 a25.926153224781014,25.926153224781014 0 0,0 -0.41744783173477534,-0.15784305037103843 l 1.7818572610820154 -4.592599513908183" fill="#ff2c04" stroke="none" /><path d="M 92.06813273071674 119.44442032107085 l -2.5230629737829906 6.185113201371126 a27.679930544807338,27.679930544807338 0 0,0 -0.4396212778962479,-0.18376172981497357 l 2.6291557111767005 -6.14076642853618" fill="#ff4506" stroke="none" /><path d="M 91.7346041902142 119.30500536409082 l -2.611395946921104 6.099285977737519 a27.63480807784381,27.63480807784381 0 0,0 -0.4356816006845369,-0.19099001023809248 l 2.715998222263384 -6.053431414204973" fill="#ff4406" stroke="none" /><path d="M 90.7491055286396 118.85261126421891 l -2.907495475531705 5.925252106417542 a27.60016230594694,27.60016230594694 0 0,0 -0.42470879030896785,-0.21295780427077515 l 3.0090581735234334 -5.874326461237464" fill="#ff4406" stroke="none" /><path d="M 90.42595943632237 118.69057910512821 l -2.844058167498282 5.552211086391474 a27.238246132364615,27.238246132364615 0 0,0 -0.41545990644851816,-0.21734898720605522 l 2.939208976473296 -5.502432680240703" fill="#ff3f05" stroke="none" /><path d="M 90.10565033884886 118.52300852407294 l -3.147828793597819 5.892985549628431 a27.681025729776305,27.681025729776305 0 0,0 -0.41834886241467695,-0.2281171557817257 l 3.248800467881136 -5.83792774208694" fill="#ff4506" stroke="none" /><line stroke="#e1ed5e" stroke-width="0.3" x1="58.666819895761336" x2="56.23545636021788" y1="174.27360380694188" y2="178.64263932499728" /><path d="M 58.180547188652646 175.14741091055294 a86.0,86.0 0 0,1 -31.652253787137756,-30.449443065178592" fill="none" id="id56" stroke="none" /><text fill="#e1ed5e" style="font-size:6.75px; font-family:Arial;" text-anchor="middle"><textPath startOffset="22.20632615414155" xlink:href="#id56">August</textPath></text><path d="M 87.95078237400918 117.19931262002967 l -3.4933128855044284 4.986430012498671 a27.08832646838019,27.08832646838019 0 0,0 -0.3795882959024774,-0.27082617043207313 l 3.57862850925579 -4.925559580222378" fill="#ff3d05" stroke="none" /><path d="M 87.65650970185807 116.9893568818739 l -3.561410375693946 4.9018608524835985 a27.059033229914796,27.059033229914796 0 0,0 -0.3744648448836543,-0.27702014005484166 l 3.6452601909961646 -4.839830763688988" fill="#ff3c05" stroke="none" /><path d="M 87.07902340077011 116.55440617244103 l -2.3145915070943963 2.9654637664158314 a24.761822589468924,24.761822589468924 0 0,0 -0.3337451595529164,-0.26514733941872465 l 2.365294159364671 -2.9251825129919764" fill="#ff1b02" stroke="none" /><path d="M 86.79598089348748 116.32954008644616 l -10.081377553202778 12.467738614557659 a37.033673301248,37.033673301248 0 0,0 -0.49224783181406406,-0.40508645352119865 l 10.29449551356153 -12.292357042179278" fill="#ffc412" stroke="none" /><path d="M 86.51685102203217 116.09983520530335 l -3.8868836420555213 4.641214467150008 a27.05381996568789,27.05381996568789 0 0,0 -0.35444951728712615,-0.30206956825015036 l 3.966198635919704 -4.573620508676906" fill="#ff3c05" stroke="none" /><path d="M 85.97065885151581 115.62618273729859 l -4.10544642821832 4.57273477254209 a27.14529036539252,27.14529036539252 0 0,0 -0.3450042965893453,-0.31515324496144576 l 4.1835502742745225 -4.5013887609940655" fill="#ff3d05" stroke="none" /><path d="M 85.70375840098266 115.38237550388516 l -2.1058335485185533 2.265820857015868 a24.09329582971858,24.09329582971858 0 0,0 -0.30135454504229986,-0.284949531939803 l 2.144523927951668 -2.2292366883301367" fill="#ff1101" stroke="none" /><path d="M 85.18274418774928 114.88116024355367 l -2.131438346896332 2.1406308962551046 a24.020816124927517,24.020816124927517 0 0,0 -0.2904910213686933,-0.29426587097524465 l 2.1679699933205585 -2.1036245312991952" fill="#ff1001" stroke="none" /><path d="M 84.9287848128048 114.62390073753433 l -7.777474793783201 7.546638937886975 a31.837014045703036,31.837014045703036 0 0,0 -0.37824411562185806,-0.3965874430294714 l 7.906225460784016 -7.411644378275003" fill="#ff7f0b" stroke="none" /><path d="M 84.4343377721795 114.09645910891817 l -4.5214361957194775 4.094669376329287 a27.099975620722685,27.099975620722685 0 0,0 -0.310154253104124,-0.34846159128513904 l 4.591249298471935 -4.016233615303282" fill="#ff3d05" stroke="none" /><path d="M 83.72743513129214 113.27417163493432 l -4.675680048009632 3.8141362451515146 a27.03403838303452,27.03403838303452 0 0,0 -0.29104342110597503,-0.36312141780147766 l 4.740641381170468 -3.7330869937717774" fill="#ff3c05" stroke="none" /><path d="M 83.50135304334701 112.99209946851258 l -3.137735055762023 2.470855098445543 a24.99380848284845,24.99380848284845 0 0,0 -0.26326000229348995,-0.34029904076977285 l 3.179801875273582 -2.4164780635625176" fill="#ff1e03" stroke="none" /><path d="M 83.06392112726016 112.41649034213515 l -4.897618663201975 3.5906324768591724 a27.07283378284143,27.07283378284143 0 0,0 -0.27230140821868737,-0.37820283986155956 l 4.958699863796269 -3.5057960315464722" fill="#ff3c05" stroke="none" /><path d="M 82.6465618267979 111.8261652097733 l -5.0193650505438585 3.420638592965381 a27.07410848555616,27.07410848555616 0 0,0 -0.2591338918747515,-0.38737000860459575 l 5.0775020478293404 -3.333731670154962" fill="#ff3c05" stroke="none" /><path d="M 82.44556493220864 111.52570212397912 l -2.554073460079193 1.676926075373678 a24.05538414961999,24.05538414961999 0 0,0 -0.22428224886154743,-0.34809103088864163 l 2.5825605723177856 -1.6327134445635882" fill="#ff1101" stroke="none" /><path d="M 82.24976979558568 111.22182372390057 l -2.690049487064936 1.7006687127305284 a24.18255248398496,24.18255248398496 0 0,0 -0.2194110167278401,-0.35376042095391536 l 2.718925143460732 -1.6541119604113488" fill="#ff1302" stroke="none" /><path d="M 82.05923443525364 110.91462005526583 l -10.016380450221495 6.093663425265636 a32.724359737913176,32.724359737913176 0 0,0 -0.2886274882853484,-0.48375627218835315 l 10.119788814205076 -5.920345059191172" fill="#ff8b0c" stroke="none" /><line stroke="#e1ed5e" stroke-width="0.3" x1="26.63291911575756" x2="22.317208475507996" y1="142.92168965132927" y2="145.44649492493687" /><path d="M 25.769776987707644 143.4266507060508 a86.0,86.0 0 0,1 -11.730757126820373,-40.83630448921669" fill="none" id="id57" stroke="none" /><text fill="#e1ed5e" style="font-size:6.75px; font-family:Arial;" text-anchor="middle"><textPath startOffset="21.46611528233685" xlink:href="#id57">September</textPath></text><path d="M 81.87401531095188 110.60418214915194 l -8.895798819620797 5.204278424800078 a31.306296646322885,31.306296646322885 0 0,0 -0.2681130933191761,-0.46747777752188086 l 8.98406390909235 -5.05038080141989" fill="#ff780b" stroke="none" /><path d="M 81.35079622478065 109.6543875284942 l -6.1528889696621825 3.1852499039046713 a27.928481768996384,27.928481768996384 0 0,0 -0.21733855435901847,-0.4288295866643443 l 6.206806193807468 -3.0788661055376423" fill="#ff4906" stroke="none" /><path d="M 80.73074385275274 108.34839909993369 l -10.306501591105569 4.465288537821562 a32.23222047386278,32.23222047386278 0 0,0 -0.21618460132080092,-0.5109965376235102 l 10.381837173618676 -4.287217474531893" fill="#ff840c" stroke="none" /><path d="M 80.45479744820244 107.68017299344265 l -5.678115079137201 2.2311821005118375 a27.10075113552173,27.10075113552173 0 0,0 -0.1668705785302697,-0.4356464240224606 l 5.71567993726098 -2.133112109656219" fill="#ff3d05" stroke="none" /><path d="M 80.20201598880116 107.00284435728193 l -17.1160722511091 6.0542118790837005 a39.15525848843869,39.15525848843869 0 0,0 -0.21928654357277977,-0.6373493413782315 l 17.217749625625107 -5.758689834616172" fill="#ffdf14" stroke="none" /><path d="M 79.97269907076064 106.31721596034903 l -4.400905017347223 1.3881784427065031 a25.61465105511858,25.61465105511858 0 0,0 -0.12901639586805455,-0.4216330465355106 l 4.424148185721408 -1.312218423618945" fill="#ff2703" stroke="none" /><path d="M 79.67330655649465 105.27499134158121 l -5.913847003746758 1.5347056729567354 a27.10973877398454,27.10973877398454 0 0,0 -0.11332992079868243,-0.45269669853549804 l 5.939388238840502 -1.4326811350238455" fill="#ff3d05" stroke="none" /><path d="M 79.4281124754447 104.21870165774334 l -6.029802644327419 1.2365388631026537 a27.155286206952617,27.155286206952617 0 0,0 -0.08996167054679305,-0.4587126199741593 l 6.050194247849879 -1.1325625160605395" fill="#ff3e05" stroke="none" /><path d="M 79.29508885075956 103.50808413554451 l -13.120566699517306 2.223049959314546 a34.30756257314204,34.30756257314204 0 0,0 -0.09364044280155921,-0.5830991267121014 l 13.156888896680156 -1.996871602909231" fill="#ffa00e" stroke="none" /><path d="M 79.1416061653843 102.43462659150553 l -6.008581481439689 0.7013316733747584 a27.049373317557663,27.049373317557663 0 0,0 -0.04999973419173549,-0.46293544100199324 l 6.019763517132477 -0.5977999104879831" fill="#ff3c05" stroke="none" /><path d="M 79.04373962182676 101.35467743843564 l -7.500750007786828 0.4848716623829486 a28.516405471253936,28.516405471253936 0 0,0 -0.027448600673561915,-0.49011320395344854 l 7.5079849593479215 -0.3556867420940624" fill="#ff5107" stroke="none" /><path d="M 79.0095281055655 100.63252640178507 l -42.14532843694207 1.2700063668095718 a63.16445926641838,63.16445926641838 0 0,0 -0.02339472403379058,-1.087060898047294 l 42.16094522366087 -0.5443556529721489" fill="#33ff50" stroke="none" /><line stroke="#e1ed5e" stroke-width="0.3" x1="15.007084014347285" x2="10.007500721073583" y1="101.09737516637583" y2="101.16192664675087" /><path d="M 14.007167355692545 101.11028546245083 a86.0,86.0 0 0,1 10.666146001902534,-42.60595125391555" fill="none" id="id58" stroke="none" /><text fill="#e1ed5e" style="font-size:6.75px; font-family:Arial;" text-anchor="middle"><textPath startOffset="22.20632615414155" xlink:href="#id58">October</textPath></text><path d="M 79.00486145842228 99.54816195383935 l -6.724165228219384 -0.14471129460580848 a27.725722219597024,27.725722219597024 0 0,0 0.014375530236423007,-0.477053862959169 l 6.720678003527316 0.2604353049899719" fill="#ff4606" stroke="none" /><path d="M 79.05617556472873 98.46500227214037 l -9.26497008609249 -0.6790406439278978 a30.28982060603404,30.28982060603404 0 0,0 0.04258678992418995,-0.5196667054584343 l 9.251908812348802 0.8384212665941104" fill="#ff6a09" stroke="none" /><path d="M 79.26566170972629 96.67025291283419 l -5.9932562154280715 -0.962462710243384 a27.070045677948087,27.070045677948087 0 0,0 0.0778433174787532,-0.4594356662171617 l 5.975801036429096 1.0654841647763738" fill="#ff3c05" stroke="none" /><path d="M 79.32604984820605 96.31383870115002 l -4.77893568649436 -0.8520833052177984 a25.85430450782398,25.85430450782398 0 0,0 0.08188954038818635,-0.4374571992184805 l 4.763560422196312 0.9342185818988515" fill="#ff2b04" stroke="none" /><path d="M 79.3925641242962 95.95851677861259 l -14.851902417620746 -2.912721155049931 a36.13482573238306,36.13482573238306 0 0,0 0.1249588803178395,-0.6093438786728548 l 14.79956424138791 3.167940689886188" fill="#ffb811" stroke="none" /><path d="M 79.62865764111835 94.90015583598534 l -5.929421196753404 -1.4843952623997676 a27.11240255738637,27.11240255738637 0 0,0 0.11723360019140677,-0.45174888413274367 l 5.90299126469169 1.586240572081375" fill="#ff3d05" stroke="none" /><path d="M 79.91906864156998 93.8553929516997 l -5.67000286249906 -1.7349762782874483 a26.9295088453402,26.9295088453402 0 0,0 0.13944935294030456,-0.44209255679283016 l 5.639298025790551 1.832319001506693" fill="#ff3a05" stroke="none" /><path d="M 80.2630227832202 92.82701384747504 l -5.780631539271344 -2.100848044187362 a27.150549853272018,27.150549853272018 0 0,0 0.1634145200529234,-0.4378696691540305 l 5.743612430716793 2.200040850370734" fill="#ff3e05" stroke="none" /><path d="M 80.52162464483688 92.15188598940014 l -5.656077248006592 -2.278913835765531 a27.09792244180437,27.09792244180437 0 0,0 0.17804407749565215,-0.43114785598527344 l 5.616011483624738 2.375936262204116" fill="#ff3d05" stroke="none" /><path d="M 81.26839172434947 90.50648371742162 l -6.316953451322076 -3.2015457276229604 a28.081934478109122,28.081934478109122 0 0,0 0.22223583851797585,-0.4292889037700475 l 6.2609081796439865 3.309807353653343" fill="#ff4b07" stroke="none" /><path d="M 81.6062741919709 89.86733742301443 l -5.33503122132968 -2.938940797944253 a27.09097128103422,27.09097128103422 0 0,0 0.2285218358286392,-0.4065148467874789 l 5.28365174420861 3.0303391546665166" fill="#ff3d05" stroke="none" /><line stroke="#e1ed5e" stroke-width="0.3" x1="26.266209847984243" x2="21.928928074336255" y1="57.711370442889674" y2="55.22380399835377" /><path d="M 25.398753493254645 57.213857153982495 a86.0,86.0 0 0,1 29.58750427330803,-30.492523968695096" fill="none" id="id59" stroke="none" /><text fill="#e1ed5e" style="font-size:6.75px; font-family:Arial;" text-anchor="middle"><textPath startOffset="21.46611528233685" xlink:href="#id59">November</textPath></text><path d="M 81.96595687620814 89.24020034530311 l -54.10212937137559 -32.27939896409068 a84.0,84.0 0 0,0 0.7515368068551229,-1.2353289071717022 l 53.53847676623425 33.20589564446946" fill="#4dd2ff" stroke="none" /><path d="M 83.6137871275137 86.86637796730984 l -2.1326202368816625 -1.709304544523476 a23.73309185734505,23.73309185734505 0 0,0 0.25824034652823014,-0.3165721301613272 l 2.10288139827704 1.7457608442928854" fill="#ff0c01" stroke="none" /><path d="M 84.5562425177563 85.77008943001954 l -4.457323839784419 -4.106987544611413 a27.0609473272999,27.0609473272999 0 0,0 0.31858811798784403,-0.33984759135529397 l 4.385968399826116 4.183104552844758" fill="#ff3c05" stroke="none" /><path d="M 85.05521093208273 85.24692304244772 l -2.1805719116653273 -2.152599483209619 a24.064078719135345,24.064078719135345 0 0,0 0.29354073665704933,-0.2922801794469051 l 2.1431953748409622 2.1898155133066357" fill="#ff1101" stroke="none" /><path d="M 85.31137513191541 84.99185889309783 l -9.050100483359637 -9.24696398102083 a33.93872720267349,33.93872720267349 0 0,0 0.42102891079824606,-0.40502947860714705 l 8.889588328948964 9.401376546390287" fill="#ff9b0e" stroke="none" /><path d="M 85.83668400450813 84.49514656593479 l -4.090555903395615 -4.47800993539837 a27.065082075316973,27.065082075316973 0 0,0 0.3466766522892138,-0.31124972137761303 l 4.0128682635104305 4.5477586655452615" fill="#ff3c05" stroke="none" /><path d="M 87.22198572758235 83.33499621200491 l -8.589433376858318 -11.202283602942956 a35.11628575993885,35.11628575993885 0 0,0 0.4828553609000868,-0.36367664718850007 l 8.395331862199841 11.348476839637309" fill="#ffab0f" stroke="none" /><path d="M 88.09926311788651 82.69761687909137 l -7.187670594305642 -10.450094948026367 a33.683339189464746,33.683339189464746 0 0,0 0.48054144275599403,-0.32446372723963063 l 7.006724457143108 10.572270587564663" fill="#ff980e" stroke="none" /><line stroke="#e1ed5e" stroke-width="0.3" x1="56.76296977257108" x2="54.21961505331056" y1="26.818313649435495" y2="22.513508569990535" /><path d="M 56.25429882871898 25.957352633546506 a86.0,86.0 0 0,1 42.26535254187918,-11.944610805530505" fill="none" id="id60" stroke="none" /><text fill="#e1ed5e" style="font-size:6.75px; font-family:Arial;" text-anchor="middle"><textPath startOffset="22.20632615414155" xlink:href="#id60">December</textPath></text><path d="M 89.3179101791058 81.91981866633112 l -13.940966825535536 -23.596057737627692 a48.40665059411934,48.40665059411934 0 0,0 0.7210361179166652,-0.4176706591584298 l 13.532733975153548 23.83253255417617" fill="#afff20" stroke="none" /><path d="M 91.56875222667455 80.76684994638697 l -5.188610282082261 -11.836127084383751 a33.92345081690693,33.92345081690693 0 0,0 0.5368244618218956,-0.2298402188267012 l 4.984102062470058 11.923686831173239" fill="#ff9b0e" stroke="none" /><path d="M 93.59665428221793 80.00007090966166 l -3.8663818357002557 -12.076087401534386 a33.67993672811227,33.67993672811227 0 0,0 0.5536574668915007,-0.17202407002963838 l 3.6579389960980264 12.14085160644655" fill="#ff980e" stroke="none" /><path d="M 93.94186890950719 79.89281104454417 l -3.483353744879938 -11.561395899291776 a33.07475169318731,33.07475169318731 0 0,0 0.5465363039954682,-0.15954893414852236 l 3.2838272231610484 11.619643162358997" fill="#ff900d" stroke="none" /><path d="M 94.63758080256005 79.69619591428918 l -1.5418285160433993 -5.837847242239586 a27.038020834396725,27.038020834396725 0 0,0 0.45100849361137946,-0.11497210714454673 l 1.4411111337470204 5.863522345552996" fill="#ff3c05" stroke="none" /><path d="M 95.33964822691252 79.52364482259891 l -3.4414006417918226 -15.120605756844144 a36.50728721702263,36.50728721702263 0 0,0 0.6139435286718428,-0.13418427591863824 l 3.180614388966459 15.17760353085865" fill="#ffbd11" stroke="none" /><path d="M 96.04723909329186 79.375362276772 l -2.899266824892676 -15.127737127966933 a36.40305744762359,36.40305744762359 0 0,0 0.6164335635784097,-0.11264929359977698 l 2.638438140211373 15.175401902917447" fill="#ffbc11" stroke="none" /><path d="M 97.83486435360386 79.11191278185805 l -0.6369983518339961 -6.145424261555344 a27.17834980029071,27.17834980029071 0 0,0 0.4657526276322248,-0.04422882406670889 l 0.5311205971115349 6.1554786301372335" fill="#ff3e05" stroke="none" /></svg>