<?xml version="1.0" encoding="utf-8" ?>
<svg baseProfile="full" height="200mm" version="1.1" viewBox="0,0,200,200" width="200mm" xmlns="http://www.w3.org/2000/svg" xmlns:ev="http://www.w3.org/2001/xml-events" xmlns:xlink="http://www.w3.org/1999/xlink"><defs /><rect fill="#1a1a1a" height="200" width="200" x="0" y="0" /><text alignment-baseline="middle" fill="#e1ed5e" style="dominant-baseline: central; font-size:9.0px; font-family:Arial;" text-anchor="middle" x="100.0" y="100.0">2017</text><line stroke="#e1ed5e" stroke-width="0.3" x1="100.0" x2="100.0" y1="15.0" y2="10.0" /><path d="M 100.0 14.0 a86.0,86.0 0 0,1 42.46469731375804,11.215312516191453" fill="none" id="id25" stroke="none" /><text fill="#e1ed5e" style="font-size:6.75px; font-family:Arial;" text-anchor="middle"><textPath startOffset="22.20632615414155" xlink:href="#id25">January</textPath></text><line stroke="#e1ed5e" stroke-width="0.3" x1="143.23703022742887" x2="145.7803849466894" y1="26.81831364943548" y2="22.513508569990506" /><path d="M 143.74570117128098 25.957352633546492 a86.0,86.0 0 0,1 28.547481713284135,27.462654790039103" fill="none" id="id26" stroke="none" /><text fill="#e1ed5e" style="font-size:6.75px; font-family:Arial;" text-anchor="middle"><textPath startOffset="19.985693538727396" xlink:href="#id26">February</textPath></text><line stroke="#e1ed5e" stroke-width="0.3" x1="172.23445277983987" x2="176.4835382374775" y1="55.19839476539836" y2="52.563006222186495" /><path d="M 173.08426987136738 54.67131705675599 a86.0,86.0 0 0,1 12.851231095245387,41.99856678651699" fill="none" id="id27" stroke="none" /><text fill="#e1ed5e" style="font-size:6.75px; font-family:Arial;" text-anchor="middle"><textPath startOffset="22.20632615414155" xlink:href="#id27">March</textPath></text><line stroke="#e1ed5e" stroke-width="0.3" x1="184.98032266829074" x2="189.97916517819016" y1="98.17113171792111" y2="98.06355123074" /><path d="M 185.9800911702706 98.14961562048488 a86.0,86.0 0 0,1 -9.607161424134198,41.387399972396054" fill="none" id="id28" stroke="none" /><text fill="#e1ed5e" style="font-size:6.75px; font-family:Arial;" text-anchor="middle"><textPath startOffset="21.466115282336823" xlink:href="#id28">April</textPath></text><path d="M 120.49622156327973 104.57218783832717 l 12.352820889327395 2.755601429504593 a33.656441962972494,33.656441962972494 0 0,0 -0.13100278661164597,0.564356576061505 l -12.303557536785197 -2.9678266629146632" fill="#ff740a" stroke="none" /><path d="M 120.23288151984713 105.62410040840565 l 12.30467239794332 3.420309311389361 a33.771197226818046,33.771197226818046 0 0,0 -0.16050543544800863,0.5587404771294439 l -12.24397432560921 -3.631607264023387" fill="#ff760a" stroke="none" /><path d="M 120.13307415673323 105.97154293290107 l 24.06456247972801 7.137636651535249 a46.100777364656906,46.100777364656906 0 0,0 -0.23220133389695158,0.7588473942545024 l -23.938134373324928 -7.550811018341809" fill="#e1ff1b" stroke="none" /><line stroke="#e1ed5e" stroke-width="0.3" x1="174.80103733775053" x2="179.2010983576182" y1="140.37084112569926" y2="142.7455964860345" /><path d="M 175.68104954172406 140.8457921977663 a86.0,86.0 0 0,1 -30.038265399797805,32.042727171017184" fill="none" id="id29" stroke="none" /><text fill="#e1ed5e" style="font-size:6.75px; font-family:Arial;" text-anchor="middle"><textPath startOffset="22.206326154141568" xlink:href="#id29">May</textPath></text><path d="M 118.30583269289576 110.29060199501025 l 21.276186743699583 11.960382978693717 a45.40751694355254,45.40751694355254 0 0,0 -0.38887863247499654,0.6780426743976368 l -21.067156115072205 -12.324845498949669" fill="#eaff1a" stroke="none" /><path d="M 117.94076556474637 110.91462005526583 l 18.87667040541504 11.48399630105186 a43.09549403469506,43.09549403469506 0 0,0 -0.3910102611708466,0.6304330413849663 l -18.67619550457623 -11.807225673802101" fill="#fff617" stroke="none" /><path d="M 117.55443506779139 111.5257021239791 l 26.434107860102994 17.355822157312755 a52.62256506224356,52.62256506224356 0 0,0 -0.5036653410872972,0.7529113467146379 l -26.131439413604973 -17.8082704182332" fill="#92ff23" stroke="none" /><path d="M 117.35343817320211 111.8261652097733 l 7.747136991268013 5.279583276065906 a30.3750803266099,30.3750803266099 0 0,0 -0.2981662620668861,0.4295307387979985 l -7.65510982203899 -5.412155277050925" fill="#ff4406" stroke="none" /><path d="M 116.93607887273984 112.41649034213515 l 8.155022742608319 5.978760602400747 a31.111872935973743,31.111872935973743 0 0,0 -0.32036152354372427,0.42917661351877656 l -8.050899952369502 -6.118250095428839" fill="#ff4f07" stroke="none" /><path d="M 116.498646956653 112.99209946851258 l 7.574755951782819 5.964851725952343 a30.641389103322503,30.641389103322503 0 0,0 -0.3298794869532761,0.41157538126409393 l -7.47095855277469 -6.0943549407946875" fill="#ff4806" stroke="none" /><path d="M 115.80600337817218 113.82643327865902 l 47.41801013451653 41.47929983597707 a84.0,84.0 0 0,0 -0.9613646014066468,1.080103321036534 l -46.696986683461546 -42.289377326754476" fill="#4dd2ff" stroke="none" /><path d="M 113.48314897796784 116.09983520530334 l 4.284845591718462 5.116409231965267 a27.673645568488677,27.673645568488677 0 0,0 -0.3678352919158106,0.30270340314753635 l -4.1961401712579605 -5.1894077539699826" fill="#ff1b02" stroke="none" /><path d="M 112.04921762599082 117.19931262002967 l 2.9435006367894343 4.20161617300317 a26.13008522970346,26.13008522970346 0 0,0 -0.37060314237545056,0.2549042206657078 l -2.8707406097911004 -4.2516611830339714" fill="#ff0300" stroke="none" /><path d="M 111.7513745106137 117.40417183066458 l 8.547303434237477 12.658837272520023 a36.274244894235196,36.274244894235196 0 0,0 -0.5204927509874161,0.3449542137522337 l -8.328135984510096 -12.804089507363575" fill="#ff9a0e" stroke="none" /><path d="M 111.45004920935366 117.60387380957326 l 7.077997050611446 10.882063878093064 a33.98142351575366,33.98142351575366 0 0,0 -0.49308372083811985,0.3147093600876859 l -6.8896315277263955 -11.002287667004559" fill="#ff790b" stroke="none" /><path d="M 111.1453310114006 117.79835938074945 l 7.229243994625268 11.54462640327592 a34.621320329727254,34.621320329727254 0 0,0 -0.5078136565410674,0.31194062381016835 l -7.029451138151892 -11.667355493914465" fill="#ff820c" stroke="none" /><line stroke="#e1ed5e" stroke-width="0.3" x1="143.8653032363475" x2="146.44561519142675" y1="172.8068346515853" y2="177.08958963109032" /><path d="M 144.38136562736335 173.6633856474863 a86.0,86.0 0 0,1 -40.68145358897372,12.25698825130547" fill="none" id="id30" stroke="none" /><text fill="#e1ed5e" style="font-size:6.75px; font-family:Arial;" text-anchor="middle"><textPath startOffset="21.466115282336833" xlink:href="#id30">June</textPath></text><path d="M 109.89434966115114 118.52300852407294 l 2.5682249360066427 4.8079210873424 a26.450860895678595,26.450860895678595 0 0,0 -0.4034500657567629,0.21106600617625387 l -2.4850839677233845 -4.851416512463371" fill="#ff0801" stroke="none" /><path d="M 108.59647513512805 119.15986991738527 l 5.213200427768085 11.619209092007216 a33.73512774273837,33.73512774273837 0 0,0 -0.531857301590491,0.23315061117195107 l -5.01242245151984 -11.707224256473621" fill="#ff750a" stroke="none" /><path d="M 104.83641907484287 120.43548508189849 l 2.696065765050938 11.39177785649308 a32.706467158847104,32.706467158847104 0 0,0 -0.5489700313351281,0.12494379183890031 l -2.499575584322948 -11.436498381909665" fill="#ff6609" stroke="none" /><path d="M 104.13013068566511 120.58985236759428 l 2.0598270683708617 10.268811925911422 a31.473365548921414,31.473365548921414 0 0,0 -0.5320982880138242,0.1019779033024484 l -1.8827611657853334 -10.302747027562338" fill="#ff5407" stroke="none" /><path d="M 102.70371172650421 120.8252237178851 l 1.8156586775948107 13.985033162215151 a35.10240295062451,35.10240295062451 0 0,0 -0.5998709430466405,0.07263601717566999 l -1.5746603114967899 -14.014214708116173" fill="#ff890c" stroke="none" /><line stroke="#e1ed5e" stroke-width="0.3" x1="102.19456741930631" x2="102.32365962044197" y1="184.97166512339345" y2="189.96999836594603" /><path d="M 102.22038585953345 185.97133177190398 a86.0,86.0 0 0,1 -42.740103519485714,-10.115201625700543" fill="none" id="id31" stroke="none" /><text fill="#e1ed5e" style="font-size:6.75px; font-family:Arial;" text-anchor="middle"><textPath startOffset="22.20632615414155" xlink:href="#id31">July</textPath></text><path d="M 99.09653310690486 120.98055641714683 l -0.36241042854594 8.415994543222052 a29.423794006874942,29.423794006874942 0 0,0 -0.5058257480488348,-0.026145413426545343 l 0.5072242450082638 -8.408509323033304" fill="#ff3605" stroke="none" /><line stroke="#e1ed5e" stroke-width="0.3" x1="58.666819895761336" x2="56.23545636021788" y1="174.27360380694188" y2="178.64263932499728" /><path d="M 58.180547188652646 175.14741091055294 a86.0,86.0 0 0,1 -31.652253787137756,-30.449443065178592" fill="none" id="id32" stroke="none" /><text fill="#e1ed5e" style="font-size:6.75px; font-family:Arial;" text-anchor="middle"><textPath startOffset="22.20632615414155" xlink:href="#id32">August</textPath></text><path d="M 85.18274418774928 114.88116024355367 l -7.779909838586531 7.813463333249958 a32.02620543780031,32.02620543780031 0 0,0 -0.3873026245155642,-0.39233551383820275 l 7.913253088157629 -7.67838732543109" fill="#ff5d08" stroke="none" /><path d="M 84.67929136418377 114.36230785411682 l -5.293333898353517 4.962204610109096 a28.255539838774673,28.255539838774673 0 0,0 -0.3295855227394113,-0.3576999910023275 l 5.377965829088658 -4.870353364305425" fill="#ff2403" stroke="none" /><path d="M 82.6465618267979 111.8261652097733 l -9.643026225186503 6.571609621275944 a32.66936192746121,32.66936192746121 0 0,0 -0.3126876331253628,-0.46742558550723173 l 9.754716963722597 -6.404647121562891" fill="#ff6609" stroke="none" /><path d="M 82.44556493220864 111.52570212397912 l -7.611139010305246 4.997239769790698 a30.10504488462128,30.10504488462128 0 0,0 -0.28068673220117124,-0.4356320416110334 l 7.696030605883463 -4.865486128258217" fill="#ff4006" stroke="none" /><path d="M 82.05923443525364 110.91462005526583 l -10.128893838408295 6.162113173341195 a32.8560587528407,32.8560587528407 0 0,0 -0.28978906810517135,-0.48570314678032284 l 10.233463782211699 -5.9868479326747615" fill="#ff6909" stroke="none" /><line stroke="#e1ed5e" stroke-width="0.3" x1="26.63291911575756" x2="22.317208475507996" y1="142.92168965132927" y2="145.44649492493687" /><path d="M 25.769776987707644 143.4266507060508 a86.0,86.0 0 0,1 -11.730757126820373,-40.83630448921669" fill="none" id="id33" stroke="none" /><text fill="#e1ed5e" style="font-size:6.75px; font-family:Arial;" text-anchor="middle"><textPath startOffset="21.46611528233685" xlink:href="#id33">September</textPath></text><path d="M 80.58989483394504 108.01547362559985 l -17.763868188830166 7.335654069778532 a40.21891863923646,40.21891863923646 0 0,0 -0.25873670312169833,-0.6421632783054649 l 17.887507506209253 -7.028791423630262" fill="#ffd013" stroke="none" /><path d="M 79.76711848015287 105.62410040840567 l -6.083067012735019 1.6909000152609304 a27.313703124398103,27.313703124398103 0 0,0 -0.12201671582521235,-0.45406959091804705 l 6.111271804902006 -1.5859394911673443" fill="#ff1602" stroke="none" /><path d="M 79.35854240842038 103.8639653848113 l -12.457958650215772 2.3320601646601262 a33.67435356702978,33.67435356702978 0 0,0 -0.10175035884552718,-0.570670048366001 l 12.496255451400488 -2.117271365560912" fill="#ff750a" stroke="none" /><path d="M 79.23777060512086 103.15116336523772 l -10.862050899146148 1.6485752186698663 a31.98644391908747,31.98644391908747 0 0,0 -0.07793413132021172,-0.5450711329376396 l 10.888819081482959 -1.4613586137518262" fill="#ff5c08" stroke="none" /><path d="M 79.07016306316243 101.71520430193888 l -12.641275318320702 1.0359550279063756 a33.68365264793343,33.68365264793343 0 0,0 -0.04238276284350354,-0.5782791257377153 l 12.65723463982854 -0.8182027656718998" fill="#ff750a" stroke="none" /><path d="M 79.04373962182676 101.35467743843564 l -8.726907674236246 0.5641342835151983 a29.745122357319005,29.745122357319005 0 0,0 -0.02863130791134687,-0.5112312361818834 l 8.735325333035126 -0.4138313309978774" fill="#ff3b05" stroke="none" /><line stroke="#e1ed5e" stroke-width="0.3" x1="15.007084014347285" x2="10.007500721073583" y1="101.09737516637583" y2="101.16192664675087" /><path d="M 14.007167355692545 101.11028546245083 a86.0,86.0 0 0,1 10.666146001902534,-42.60595125391555" fill="none" id="id34" stroke="none" /><text fill="#e1ed5e" style="font-size:6.75px; font-family:Arial;" text-anchor="middle"><textPath startOffset="22.20632615414155" xlink:href="#id34">October</textPath></text><path d="M 79.00175016825051 100.2711162175752 l -7.448735702471674 0.09617339852381632 a28.44935654186721,28.44935654186721 0 0,0 -0.0021075590992418094,-0.4897225114804409 l 7.449287558860419 0.03205859116029998" fill="#ff2703" stroke="none" /><path d="M 79.05617556472873 98.46500227214037 l -18.894412925310377 -1.3847939281208677 a39.94509155468762,39.94509155468762 0 0,0 0.056161878429980945,-0.6853171696673837 l 18.867776563060897 1.7098250149960297" fill="#ffcc13" stroke="none" /><path d="M 79.12142395522702 97.74499172005258 l -13.457067504847693 -1.4534419676020063 a34.5353300433796,34.5353300433796 0 0,0 0.0689220710010757,-0.5904822143377605 l 13.430055080843028 1.6848679202646286" fill="#ff810b" stroke="none" /><path d="M 79.46518482838121 95.60439243477599 l -5.739389297019022 -1.2285527190237544 a26.869406382774766,26.869406382774766 0 0,0 0.1007034809641739,-0.45143395919412393 l 5.71739142905281 1.3271648477678375" fill="#ff0f01" stroke="none" /><path d="M 80.52162464483688 92.15188598940014 l -13.87831640789376 -5.591770743624048 a35.96247193370343,35.96247193370343 0 0,0 0.23628767680070412,-0.5721893515433046 l 13.780007044206855 5.829834665620663" fill="#ff950d" stroke="none" /><path d="M 80.803312248108 91.48605970444005 l -11.84254918552351 -5.25229966835512 a33.955023080556316,33.955023080556316 0 0,0 0.24156198931862055,-0.5322498232085069 l 11.750384879241537 5.455371500405698" fill="#ff790b" stroke="none" /><line stroke="#e1ed5e" stroke-width="0.3" x1="26.266209847984243" x2="21.928928074336255" y1="57.711370442889674" y2="55.22380399835377" /><path d="M 25.398753493254645 57.213857153982495 a86.0,86.0 0 0,1 29.58750427330803,-30.492523968695096" fill="none" id="id35" stroke="none" /><text fill="#e1ed5e" style="font-size:6.75px; font-family:Arial;" text-anchor="middle"><textPath startOffset="21.46611528233685" xlink:href="#id35">November</textPath></text><path d="M 82.34701348167596 88.62581576622439 l -8.120579274196789 -5.2322571398226545 a30.660244434057535,30.660244434057535 0 0,0 0.28967122173645776,-0.4411891439048317 l 8.029311417102411 5.371264347705154" fill="#ff4806" stroke="none" /><path d="M 82.7489923806493 88.02491185347247 l -4.042028324988724 -2.805844536768153 a25.920442718345864,25.920442718345864 0 0,0 0.2575842516388209,-0.36433465667255327 l 3.9931314535460247 2.875005693772492" fill="#ff0000" stroke="none" /><path d="M 84.80347519578584 85.50635884689758 l -9.610286830120964 -9.16578299898759 a34.28040627924185,34.28040627924185 0 0,0 0.4109334912029139,-0.42350308475827153 l 9.451089075214933 9.329850279295986" fill="#ff7d0b" stroke="none" /><path d="M 85.57189188830299 84.74124197986013 l -13.978203661294797 -14.782951830740302 a41.34516754481573,41.34516754481573 0 0,0 0.5213273528118091,-0.4845169581311656 l 13.721668424688131 15.021373374946114" fill="#ffdf14" stroke="none" /><line stroke="#e1ed5e" stroke-width="0.3" x1="56.762969772571076" x2="54.21961505331055" y1="26.818313649435495" y2="22.513508569990535" /><path d="M 56.25429882871897 25.957352633546506 a86.0,86.0 0 0,1 42.265352541879196,-11.944610805530505" fill="none" id="id36" stroke="none" /><text fill="#e1ed5e" style="font-size:6.75px; font-family:Arial;" text-anchor="middle"><textPath startOffset="22.20632615414155" xlink:href="#id36">December</textPath></text><path d="M 96.04723909329186 79.375362276772 l -2.4670274040215694 -12.872406821993865 a34.10668080038221,34.10668080038221 0 0,0 0.5775477188381994,-0.10554315402556787 l 2.2450845640804764 12.912965457370168" fill="#ff7b0b" stroke="none" /><path d="M 98.91598698831166 79.02799685794201 l -0.9268700746883246 -17.93181623195473 a38.95575455145085,38.95575455145085 0 0,0 0.669963232735609,-0.028850026106695188 l 0.6180660095633915 17.94511398458562" fill="#ffbf11" stroke="none" /></svg>